<svg xmlns="http://www.w3.org/2000/svg" xmlns:xlink="http://www.w3.org/1999/xlink" width="500" zoomAndPan="magnify" viewBox="0 0 375 374.999991" height="500" preserveAspectRatio="xMidYMid meet" version="1.2"><defs><clipPath id="06a6c913e2"><path d="M 112.5 112.5 L 262.5 112.5 L 262.5 262.5 L 112.5 262.5 Z M 112.5 112.5 "/></clipPath></defs><g id="b29d85e68b"><path style=" stroke:none;fill-rule:nonzero;fill:#426d41;fill-opacity:1;" d="M 14.804688 114.429688 C 24.207031 92.128906 37.742188 72.050781 54.960938 54.898438 C 72.117188 37.679688 92.191406 24.144531 114.496094 14.742188 C 137.621094 4.957031 162.148438 0 187.5 0 C 212.851562 0 237.378906 4.957031 260.503906 14.742188 C 282.808594 24.144531 302.882812 37.679688 320.039062 54.898438 C 337.257812 72.117188 350.730469 92.128906 360.195312 114.496094 C 369.980469 137.621094 374.9375 162.148438 374.9375 187.5 C 374.9375 212.851562 369.980469 237.378906 360.195312 260.503906 C 350.792969 282.808594 337.257812 302.882812 320.039062 320.101562 C 302.820312 337.320312 282.804688 350.792969 260.441406 360.257812 C 237.3125 370.042969 212.789062 375 187.4375 375 C 162.085938 375 137.558594 370.042969 114.429688 360.257812 C 92.128906 350.855469 72.050781 337.320312 54.832031 320.101562 C 37.742188 302.820312 24.207031 282.742188 14.804688 260.441406 C 5.019531 237.3125 0.0625 212.789062 0.0625 187.4375 C 0.0625 162.085938 5.019531 137.558594 14.804688 114.429688 Z M 14.804688 114.429688 "/><g clip-rule="nonzero" clip-path="url(#06a6c913e2)"><path style=" stroke:none;fill-rule:nonzero;fill:#e4c57b;fill-opacity:1;" d="M 254.207031 179.207031 L 195.792969 179.207031 L 195.792969 120.792969 C 195.792969 116.203125 192.089844 112.5 187.5 112.5 C 182.910156 112.5 179.207031 116.203125 179.207031 120.792969 L 179.207031 179.207031 L 120.792969 179.207031 C 116.203125 179.207031 112.5 182.910156 112.5 187.5 C 112.5 192.089844 116.203125 195.792969 120.792969 195.792969 L 179.207031 195.792969 L 179.207031 254.207031 C 179.207031 258.796875 182.910156 262.5 187.5 262.5 C 192.089844 262.5 195.792969 258.796875 195.792969 254.207031 L 195.792969 195.792969 L 254.207031 195.792969 C 258.796875 195.792969 262.5 192.089844 262.5 187.5 C 262.5 182.910156 258.796875 179.207031 254.207031 179.207031 Z M 254.207031 179.207031 "/></g></g></svg>