<svg xmlns="http://www.w3.org/2000/svg" xmlns:xlink="http://www.w3.org/1999/xlink" width="500" zoomAndPan="magnify" viewBox="0 0 375 374.999991" height="500" preserveAspectRatio="xMidYMid meet" version="1.2"><defs><clipPath id="1de055ec9c"><path d="M 112.5 112.5 L 262.5 112.5 L 262.5 262.5 L 112.5 262.5 Z M 112.5 112.5 "/></clipPath></defs><g id="b37fce96f9"><g clip-rule="nonzero" clip-path="url(#1de055ec9c)"><path style=" stroke:none;fill-rule:nonzero;fill:#426d41;fill-opacity:1;" d="M 254.207031 179.207031 L 195.792969 179.207031 L 195.792969 120.792969 C 195.792969 116.203125 192.089844 112.5 187.5 112.5 C 182.910156 112.5 179.207031 116.203125 179.207031 120.792969 L 179.207031 179.207031 L 120.792969 179.207031 C 116.203125 179.207031 112.5 182.910156 112.5 187.5 C 112.5 192.089844 116.203125 195.792969 120.792969 195.792969 L 179.207031 195.792969 L 179.207031 254.207031 C 179.207031 258.796875 182.910156 262.5 187.5 262.5 C 192.089844 262.5 195.792969 258.796875 195.792969 254.207031 L 195.792969 195.792969 L 254.207031 195.792969 C 258.796875 195.792969 262.5 192.089844 262.5 187.5 C 262.5 182.910156 258.796875 179.207031 254.207031 179.207031 Z M 254.207031 179.207031 "/><path style=" stroke:none;fill-rule:nonzero;fill:#e4c57b;fill-opacity:1;" d="M 254.207031 179.207031 L 195.792969 179.207031 L 195.792969 120.792969 C 195.792969 116.203125 192.089844 112.5 187.5 112.5 C 182.910156 112.5 179.207031 116.203125 179.207031 120.792969 L 179.207031 179.207031 L 120.792969 179.207031 C 116.203125 179.207031 112.5 182.910156 112.5 187.5 C 112.5 192.089844 116.203125 195.792969 120.792969 195.792969 L 179.207031 195.792969 L 179.207031 254.207031 C 179.207031 258.796875 182.910156 262.5 187.5 262.5 C 192.089844 262.5 195.792969 258.796875 195.792969 254.207031 L 195.792969 195.792969 L 254.207031 195.792969 C 258.796875 195.792969 262.5 192.089844 262.5 187.5 C 262.5 182.910156 258.796875 179.207031 254.207031 179.207031 Z M 254.207031 179.207031 "/></g></g></svg>