<svg xmlns="http://www.w3.org/2000/svg" xmlns:xlink="http://www.w3.org/1999/xlink" width="500" zoomAndPan="magnify" viewBox="0 0 375 374.999991" height="500" preserveAspectRatio="xMidYMid meet" version="1.2"><g id="6069f87bc9"><path style=" stroke:none;fill-rule:nonzero;fill:#315d6a;fill-opacity:1;" d="M 259.613281 367.789062 L 43.269531 367.789062 C 23.355469 367.789062 7.210938 351.644531 7.210938 331.730469 L 7.210938 115.386719 L 43.269531 115.386719 L 43.269531 331.730469 L 259.613281 331.730469 Z M 259.613281 324.519531 L 50.480469 324.519531 L 50.480469 115.386719 C 50.480469 111.402344 47.253906 108.171875 43.269531 108.171875 L 7.210938 108.171875 C 3.230469 108.171875 0 111.402344 0 115.386719 L 0 331.730469 C 0 355.589844 19.410156 375 43.269531 375 L 259.613281 375 C 263.601562 375 266.828125 371.773438 266.828125 367.789062 L 266.828125 331.730469 C 266.828125 327.742188 263.601562 324.519531 259.613281 324.519531 "/><path style=" stroke:none;fill-rule:nonzero;fill:#315d6a;fill-opacity:1;" d="M 367.789062 259.613281 C 367.789062 279.527344 351.644531 295.671875 331.730469 295.671875 L 115.386719 295.671875 C 95.472656 295.671875 79.328125 279.527344 79.328125 259.613281 L 79.328125 43.269531 C 79.328125 23.355469 95.472656 7.210938 115.386719 7.210938 L 331.730469 7.210938 C 351.644531 7.210938 367.789062 23.355469 367.789062 43.269531 Z M 331.730469 0 L 115.386719 0 C 91.523438 0 72.113281 19.410156 72.113281 43.269531 L 72.113281 259.613281 C 72.113281 283.476562 91.523438 302.886719 115.386719 302.886719 L 331.730469 302.886719 C 355.589844 302.886719 375 283.476562 375 259.613281 L 375 43.269531 C 375 19.410156 355.589844 0 331.730469 0 "/><path style=" stroke:none;fill-rule:nonzero;fill:#315d6a;fill-opacity:1;" d="M 164.1875 123.296875 L 205.527344 164.65625 L 282.925781 87.257812 L 308.417969 112.75 L 205.527344 215.625 L 205.527344 215.640625 L 138.695312 148.792969 Z M 115.386719 259.613281 L 331.730469 259.613281 L 331.730469 43.269531 L 115.386719 43.269531 L 115.386719 259.613281 "/><path style=" stroke:none;fill-rule:nonzero;fill:#315d6a;fill-opacity:1;" d="M 259.613281 367.789062 L 43.269531 367.789062 C 23.355469 367.789062 7.210938 351.644531 7.210938 331.730469 L 7.210938 115.386719 L 43.269531 115.386719 L 43.269531 331.730469 L 259.613281 331.730469 Z M 259.613281 324.519531 L 50.480469 324.519531 L 50.480469 115.386719 C 50.480469 111.402344 47.253906 108.171875 43.269531 108.171875 L 7.210938 108.171875 C 3.230469 108.171875 0 111.402344 0 115.386719 L 0 331.730469 C 0 355.589844 19.410156 375 43.269531 375 L 259.613281 375 C 263.601562 375 266.828125 371.773438 266.828125 367.789062 L 266.828125 331.730469 C 266.828125 327.742188 263.601562 324.519531 259.613281 324.519531 "/><path style=" stroke:none;fill-rule:nonzero;fill:#315d6a;fill-opacity:1;" d="M 367.789062 259.613281 C 367.789062 279.527344 351.644531 295.671875 331.730469 295.671875 L 115.386719 295.671875 C 95.472656 295.671875 79.328125 279.527344 79.328125 259.613281 L 79.328125 43.269531 C 79.328125 23.355469 95.472656 7.210938 115.386719 7.210938 L 331.730469 7.210938 C 351.644531 7.210938 367.789062 23.355469 367.789062 43.269531 Z M 331.730469 0 L 115.386719 0 C 91.523438 0 72.113281 19.410156 72.113281 43.269531 L 72.113281 259.613281 C 72.113281 283.476562 91.523438 302.886719 115.386719 302.886719 L 331.730469 302.886719 C 355.589844 302.886719 375 283.476562 375 259.613281 L 375 43.269531 C 375 19.410156 355.589844 0 331.730469 0 "/><path style=" stroke:none;fill-rule:nonzero;fill:#315d6a;fill-opacity:1;" d="M 164.1875 123.296875 L 205.527344 164.65625 L 282.925781 87.257812 L 308.417969 112.75 L 205.527344 215.625 L 205.527344 215.640625 L 138.695312 148.792969 Z M 115.386719 259.613281 L 331.730469 259.613281 L 331.730469 43.269531 L 115.386719 43.269531 L 115.386719 259.613281 "/></g></svg>