<svg xmlns="http://www.w3.org/2000/svg" xmlns:xlink="http://www.w3.org/1999/xlink" width="500" zoomAndPan="magnify" viewBox="0 0 375 374.999991" height="500" preserveAspectRatio="xMidYMid meet" version="1.2"><defs><clipPath id="fb94514f81"><path d="M 66.394531 136 L 239 136 L 239 308.644531 L 66.394531 308.644531 Z M 66.394531 136 "/></clipPath><clipPath id="952678236e"><path d="M 112 66.394531 L 308.644531 66.394531 L 308.644531 263 L 112 263 Z M 112 66.394531 "/></clipPath></defs><g id="a821554f4b"><path style=" stroke:none;fill-rule:nonzero;fill:#426d41;fill-opacity:1;" d="M 14.804688 114.429688 C 24.207031 92.128906 37.742188 72.050781 54.960938 54.898438 C 72.117188 37.679688 92.191406 24.144531 114.496094 14.742188 C 137.621094 4.957031 162.148438 0 187.5 0 C 212.851562 0 237.378906 4.957031 260.503906 14.742188 C 282.808594 24.144531 302.882812 37.679688 320.039062 54.898438 C 337.257812 72.117188 350.730469 92.128906 360.195312 114.496094 C 369.980469 137.621094 374.9375 162.148438 374.9375 187.5 C 374.9375 212.851562 369.980469 237.378906 360.195312 260.503906 C 350.792969 282.808594 337.257812 302.882812 320.039062 320.101562 C 302.820312 337.320312 282.804688 350.792969 260.441406 360.257812 C 237.3125 370.042969 212.789062 375 187.4375 375 C 162.085938 375 137.558594 370.042969 114.429688 360.257812 C 92.128906 350.855469 72.050781 337.320312 54.832031 320.101562 C 37.742188 302.820312 24.207031 282.742188 14.804688 260.441406 C 5.019531 237.3125 0.0625 212.789062 0.0625 187.4375 C 0.0625 162.085938 5.019531 137.558594 14.804688 114.429688 Z M 14.804688 114.429688 "/><g clip-rule="nonzero" clip-path="url(#fb94514f81)"><path style=" stroke:none;fill-rule:nonzero;fill:#e4c57b;fill-opacity:1;" d="M 234.074219 303.941406 L 94.339844 303.941406 C 81.480469 303.941406 71.050781 293.515625 71.050781 280.652344 L 71.050781 140.921875 L 94.339844 140.921875 L 94.339844 280.652344 L 234.074219 280.652344 Z M 234.074219 275.992188 L 99 275.992188 L 99 140.921875 C 99 138.347656 96.914062 136.261719 94.339844 136.261719 L 71.050781 136.261719 C 68.480469 136.261719 66.394531 138.347656 66.394531 140.921875 L 66.394531 280.652344 C 66.394531 296.0625 78.929688 308.597656 94.339844 308.597656 L 234.074219 308.597656 C 236.648438 308.597656 238.734375 306.515625 238.734375 303.941406 L 238.734375 280.652344 C 238.734375 278.078125 236.648438 275.992188 234.074219 275.992188 "/></g><g clip-rule="nonzero" clip-path="url(#952678236e)"><path style=" stroke:none;fill-rule:nonzero;fill:#e4c57b;fill-opacity:1;" d="M 303.941406 234.074219 C 303.941406 246.933594 293.515625 257.363281 280.652344 257.363281 L 140.921875 257.363281 C 128.058594 257.363281 117.632812 246.933594 117.632812 234.074219 L 117.632812 94.339844 C 117.632812 81.480469 128.058594 71.050781 140.921875 71.050781 L 280.652344 71.050781 C 293.515625 71.050781 303.941406 81.480469 303.941406 94.339844 Z M 280.652344 66.394531 L 140.921875 66.394531 C 125.507812 66.394531 112.972656 78.929688 112.972656 94.339844 L 112.972656 234.074219 C 112.972656 249.484375 125.507812 262.023438 140.921875 262.023438 L 280.652344 262.023438 C 296.0625 262.023438 308.597656 249.484375 308.597656 234.074219 L 308.597656 94.339844 C 308.597656 78.929688 296.0625 66.394531 280.652344 66.394531 "/></g><path style=" stroke:none;fill-rule:nonzero;fill:#e4c57b;fill-opacity:1;" d="M 172.441406 146.03125 L 199.140625 172.742188 L 249.128906 122.753906 L 265.597656 139.21875 L 199.140625 205.664062 L 199.140625 205.675781 L 155.976562 162.496094 Z M 140.921875 234.074219 L 280.652344 234.074219 L 280.652344 94.339844 L 140.921875 94.339844 L 140.921875 234.074219 "/></g></svg>