<svg xmlns="http://www.w3.org/2000/svg" xmlns:xlink="http://www.w3.org/1999/xlink" width="500" zoomAndPan="magnify" viewBox="0 0 375 374.999991" height="500" preserveAspectRatio="xMidYMid meet" version="1.2"><defs><clipPath id="acd2076c11"><path d="M 116.988281 150 L 257.988281 150 L 257.988281 274.792969 L 116.988281 274.792969 Z M 116.988281 150 "/></clipPath><clipPath id="487f8d35f1"><path d="M 116.988281 100.042969 L 257.988281 100.042969 L 257.988281 225 L 116.988281 225 Z M 116.988281 100.042969 "/></clipPath></defs><g id="c9b0af17e0"><path style=" stroke:none;fill-rule:nonzero;fill:#426d41;fill-opacity:1;" d="M 14.804688 114.429688 C 24.207031 92.128906 37.742188 72.050781 54.960938 54.898438 C 72.117188 37.679688 92.191406 24.144531 114.496094 14.742188 C 137.621094 4.957031 162.148438 0 187.5 0 C 212.851562 0 237.378906 4.957031 260.503906 14.742188 C 282.808594 24.144531 302.882812 37.679688 320.039062 54.898438 C 337.257812 72.117188 350.730469 92.128906 360.195312 114.496094 C 369.980469 137.621094 374.9375 162.148438 374.9375 187.5 C 374.9375 212.851562 369.980469 237.378906 360.195312 260.503906 C 350.792969 282.808594 337.257812 302.882812 320.039062 320.101562 C 302.820312 337.320312 282.804688 350.792969 260.441406 360.257812 C 237.3125 370.042969 212.789062 375 187.4375 375 C 162.085938 375 137.558594 370.042969 114.429688 360.257812 C 92.128906 350.855469 72.050781 337.320312 54.832031 320.101562 C 37.742188 302.820312 24.207031 282.742188 14.804688 260.441406 C 5.019531 237.3125 0.0625 212.789062 0.0625 187.4375 C 0.0625 162.085938 5.019531 137.558594 14.804688 114.429688 Z M 14.804688 114.429688 "/><g clip-rule="nonzero" clip-path="url(#acd2076c11)"><path style=" stroke:none;fill-rule:nonzero;fill:#e4c57b;fill-opacity:1;" d="M 246.605469 229.683594 L 176.160156 229.683594 L 176.160156 173.328125 L 181.796875 173.328125 C 182.34375 173.328125 182.847656 173.179688 183.308594 172.886719 C 183.769531 172.59375 184.117188 172.199219 184.347656 171.707031 C 184.582031 171.210938 184.660156 170.691406 184.59375 170.148438 C 184.523438 169.605469 184.3125 169.125 183.960938 168.707031 L 169.875 151.800781 C 169.742188 151.640625 169.59375 151.496094 169.429688 151.371094 C 169.265625 151.246094 169.089844 151.136719 168.902344 151.050781 C 168.714844 150.964844 168.523438 150.898438 168.320312 150.851562 C 168.117188 150.808594 167.914062 150.785156 167.707031 150.785156 C 167.5 150.785156 167.296875 150.808594 167.09375 150.851562 C 166.894531 150.898438 166.699219 150.964844 166.511719 151.050781 C 166.324219 151.136719 166.148438 151.246094 165.984375 151.371094 C 165.820312 151.496094 165.671875 151.640625 165.542969 151.800781 L 151.453125 168.707031 C 151.101562 169.125 150.890625 169.605469 150.824219 170.148438 C 150.753906 170.691406 150.832031 171.210938 151.066406 171.707031 C 151.296875 172.199219 151.644531 172.59375 152.105469 172.886719 C 152.566406 173.179688 153.070312 173.328125 153.617188 173.328125 L 159.253906 173.328125 L 159.253906 229.683594 L 128.257812 229.683594 C 127.519531 229.683594 126.785156 229.757812 126.058594 229.902344 C 125.335938 230.046875 124.628906 230.261719 123.945312 230.546875 C 123.261719 230.828125 122.613281 231.175781 122 231.585938 C 121.382812 232 120.816406 232.464844 120.292969 232.988281 C 119.769531 233.511719 119.300781 234.082031 118.890625 234.695312 C 118.480469 235.3125 118.132812 235.960938 117.847656 236.644531 C 117.5625 237.328125 117.351562 238.03125 117.207031 238.757812 C 117.058594 239.480469 116.988281 240.214844 116.988281 240.953125 L 116.988281 263.496094 C 116.988281 264.238281 117.058594 264.96875 117.207031 265.695312 C 117.351562 266.421875 117.5625 267.125 117.847656 267.808594 C 118.132812 268.492188 118.480469 269.140625 118.890625 269.757812 C 119.300781 270.371094 119.769531 270.941406 120.292969 271.464844 C 120.816406 271.988281 121.382812 272.453125 122 272.867188 C 122.613281 273.277344 123.261719 273.625 123.945312 273.90625 C 124.628906 274.191406 125.335938 274.40625 126.058594 274.550781 C 126.785156 274.695312 127.519531 274.769531 128.257812 274.769531 L 246.605469 274.769531 C 247.347656 274.769531 248.078125 274.695312 248.804688 274.550781 C 249.53125 274.40625 250.234375 274.191406 250.917969 273.90625 C 251.601562 273.625 252.25 273.277344 252.863281 272.863281 C 253.480469 272.453125 254.050781 271.988281 254.570312 271.464844 C 255.09375 270.941406 255.5625 270.371094 255.972656 269.757812 C 256.382812 269.140625 256.730469 268.492188 257.015625 267.808594 C 257.300781 267.125 257.511719 266.421875 257.660156 265.695312 C 257.804688 264.96875 257.875 264.238281 257.878906 263.496094 L 257.878906 240.953125 C 257.875 240.214844 257.804688 239.484375 257.660156 238.757812 C 257.511719 238.03125 257.300781 237.328125 257.015625 236.644531 C 256.730469 235.960938 256.382812 235.3125 255.972656 234.695312 C 255.5625 234.082031 255.09375 233.511719 254.570312 232.988281 C 254.050781 232.464844 253.480469 232 252.863281 231.585938 C 252.25 231.175781 251.601562 230.828125 250.917969 230.546875 C 250.234375 230.261719 249.53125 230.046875 248.804688 229.902344 C 248.078125 229.757812 247.347656 229.683594 246.605469 229.683594 Z M 167.707031 158.003906 L 175.78125 167.691406 L 173.34375 167.691406 C 172.96875 167.691406 172.609375 167.761719 172.265625 167.90625 C 171.917969 168.050781 171.613281 168.253906 171.351562 168.515625 C 171.085938 168.78125 170.882812 169.085938 170.738281 169.429688 C 170.597656 169.777344 170.523438 170.136719 170.523438 170.507812 L 170.523438 229.683594 L 164.890625 229.683594 L 164.890625 170.507812 C 164.890625 170.136719 164.816406 169.777344 164.675781 169.429688 C 164.53125 169.085938 164.328125 168.78125 164.0625 168.515625 C 163.800781 168.253906 163.496094 168.050781 163.148438 167.90625 C 162.804688 167.761719 162.445312 167.691406 162.070312 167.691406 L 159.632812 167.691406 Z M 252.242188 263.496094 C 252.242188 263.867188 252.203125 264.234375 252.132812 264.597656 C 252.058594 264.960938 251.953125 265.3125 251.8125 265.652344 C 251.667969 265.996094 251.496094 266.320312 251.289062 266.625 C 251.085938 266.933594 250.851562 267.21875 250.589844 267.480469 C 250.328125 267.742188 250.042969 267.976562 249.734375 268.179688 C 249.429688 268.386719 249.101562 268.558594 248.761719 268.703125 C 248.421875 268.84375 248.066406 268.949219 247.707031 269.023438 C 247.34375 269.097656 246.976562 269.132812 246.605469 269.132812 L 128.257812 269.132812 C 127.886719 269.132812 127.523438 269.097656 127.160156 269.023438 C 126.796875 268.949219 126.445312 268.84375 126.101562 268.703125 C 125.761719 268.558594 125.4375 268.386719 125.128906 268.179688 C 124.820312 267.976562 124.535156 267.742188 124.273438 267.480469 C 124.011719 267.21875 123.78125 266.933594 123.574219 266.625 C 123.367188 266.320312 123.195312 265.996094 123.054688 265.652344 C 122.910156 265.3125 122.804688 264.960938 122.730469 264.597656 C 122.660156 264.234375 122.621094 263.867188 122.621094 263.496094 L 122.621094 240.953125 C 122.621094 240.585938 122.660156 240.21875 122.730469 239.855469 C 122.804688 239.492188 122.910156 239.140625 123.054688 238.800781 C 123.195312 238.457031 123.367188 238.132812 123.574219 237.824219 C 123.78125 237.519531 124.011719 237.234375 124.273438 236.972656 C 124.535156 236.710938 124.820312 236.476562 125.128906 236.269531 C 125.4375 236.066406 125.761719 235.890625 126.101562 235.75 C 126.445312 235.609375 126.796875 235.5 127.160156 235.429688 C 127.523438 235.355469 127.886719 235.320312 128.257812 235.320312 L 246.605469 235.320312 C 246.976562 235.320312 247.34375 235.355469 247.707031 235.429688 C 248.066406 235.5 248.421875 235.609375 248.761719 235.75 C 249.101562 235.890625 249.429688 236.066406 249.734375 236.269531 C 250.042969 236.476562 250.328125 236.710938 250.589844 236.972656 C 250.851562 237.234375 251.085938 237.519531 251.289062 237.824219 C 251.496094 238.132812 251.667969 238.457031 251.8125 238.800781 C 251.953125 239.140625 252.058594 239.492188 252.132812 239.855469 C 252.203125 240.21875 252.242188 240.585938 252.242188 240.953125 Z M 252.242188 263.496094 "/></g><path style=" stroke:none;fill-rule:nonzero;fill:#e4c57b;fill-opacity:1;" d="M 136.710938 243.773438 C 136.15625 243.773438 135.605469 243.828125 135.0625 243.933594 C 134.519531 244.042969 133.988281 244.203125 133.476562 244.417969 C 132.964844 244.628906 132.476562 244.890625 132.015625 245.199219 C 131.554688 245.503906 131.125 245.855469 130.734375 246.25 C 130.339844 246.640625 129.992188 247.066406 129.683594 247.53125 C 129.375 247.992188 129.113281 248.476562 128.902344 248.992188 C 128.6875 249.503906 128.527344 250.03125 128.421875 250.578125 C 128.3125 251.121094 128.257812 251.671875 128.257812 252.226562 C 128.257812 252.78125 128.3125 253.332031 128.421875 253.875 C 128.527344 254.417969 128.6875 254.949219 128.902344 255.460938 C 129.113281 255.972656 129.375 256.460938 129.683594 256.921875 C 129.992188 257.382812 130.339844 257.8125 130.734375 258.203125 C 131.125 258.597656 131.554688 258.945312 132.015625 259.253906 C 132.476562 259.5625 132.964844 259.824219 133.476562 260.035156 C 133.988281 260.25 134.519531 260.410156 135.0625 260.515625 C 135.605469 260.625 136.15625 260.679688 136.710938 260.679688 C 137.265625 260.679688 137.816406 260.625 138.359375 260.515625 C 138.90625 260.410156 139.433594 260.25 139.945312 260.035156 C 140.460938 259.824219 140.945312 259.5625 141.40625 259.253906 C 141.871094 258.945312 142.296875 258.597656 142.6875 258.203125 C 143.082031 257.8125 143.429688 257.382812 143.738281 256.921875 C 144.046875 256.460938 144.308594 255.972656 144.519531 255.460938 C 144.734375 254.949219 144.894531 254.417969 145.003906 253.875 C 145.109375 253.332031 145.164062 252.78125 145.164062 252.226562 C 145.164062 251.671875 145.109375 251.121094 145 250.578125 C 144.890625 250.035156 144.730469 249.503906 144.519531 248.992188 C 144.304688 248.480469 144.046875 247.992188 143.738281 247.53125 C 143.429688 247.070312 143.078125 246.644531 142.6875 246.25 C 142.292969 245.859375 141.867188 245.507812 141.40625 245.199219 C 140.945312 244.890625 140.457031 244.632812 139.945312 244.417969 C 139.433594 244.207031 138.902344 244.046875 138.359375 243.9375 C 137.816406 243.828125 137.265625 243.773438 136.710938 243.773438 Z M 136.710938 255.042969 C 136.335938 255.042969 135.976562 254.972656 135.632812 254.828125 C 135.289062 254.6875 134.984375 254.484375 134.71875 254.21875 C 134.453125 253.953125 134.25 253.648438 134.109375 253.304688 C 133.964844 252.960938 133.894531 252.601562 133.894531 252.226562 C 133.894531 251.851562 133.964844 251.492188 134.109375 251.148438 C 134.25 250.800781 134.453125 250.496094 134.71875 250.234375 C 134.984375 249.96875 135.289062 249.765625 135.632812 249.621094 C 135.976562 249.480469 136.335938 249.410156 136.710938 249.410156 C 137.085938 249.410156 137.445312 249.480469 137.789062 249.621094 C 138.132812 249.765625 138.441406 249.96875 138.703125 250.234375 C 138.96875 250.496094 139.171875 250.800781 139.316406 251.148438 C 139.457031 251.492188 139.527344 251.851562 139.527344 252.226562 C 139.527344 252.601562 139.457031 252.960938 139.3125 253.304688 C 139.171875 253.648438 138.96875 253.953125 138.703125 254.21875 C 138.4375 254.480469 138.132812 254.6875 137.789062 254.828125 C 137.445312 254.972656 137.085938 255.042969 136.710938 255.042969 Z M 136.710938 255.042969 "/><path style=" stroke:none;fill-rule:nonzero;fill:#e4c57b;fill-opacity:1;" d="M 156.4375 243.773438 C 155.882812 243.773438 155.332031 243.828125 154.785156 243.933594 C 154.242188 244.042969 153.714844 244.203125 153.199219 244.417969 C 152.6875 244.628906 152.199219 244.890625 151.738281 245.199219 C 151.277344 245.503906 150.851562 245.855469 150.457031 246.25 C 150.066406 246.640625 149.714844 247.066406 149.40625 247.53125 C 149.097656 247.992188 148.839844 248.476562 148.625 248.992188 C 148.414062 249.503906 148.253906 250.03125 148.144531 250.578125 C 148.035156 251.121094 147.984375 251.671875 147.984375 252.226562 C 147.984375 252.78125 148.035156 253.332031 148.144531 253.875 C 148.253906 254.417969 148.414062 254.949219 148.625 255.460938 C 148.839844 255.972656 149.097656 256.460938 149.40625 256.921875 C 149.714844 257.382812 150.066406 257.8125 150.457031 258.203125 C 150.851562 258.597656 151.277344 258.945312 151.738281 259.253906 C 152.199219 259.5625 152.6875 259.824219 153.199219 260.035156 C 153.714844 260.25 154.242188 260.410156 154.785156 260.515625 C 155.332031 260.625 155.882812 260.679688 156.4375 260.679688 C 156.992188 260.679688 157.539062 260.625 158.085938 260.515625 C 158.628906 260.410156 159.15625 260.25 159.671875 260.035156 C 160.183594 259.824219 160.671875 259.5625 161.132812 259.253906 C 161.59375 258.945312 162.019531 258.597656 162.414062 258.203125 C 162.804688 257.8125 163.15625 257.382812 163.464844 256.921875 C 163.773438 256.460938 164.035156 255.972656 164.246094 255.460938 C 164.457031 254.949219 164.617188 254.417969 164.726562 253.875 C 164.835938 253.332031 164.890625 252.78125 164.890625 252.226562 C 164.890625 251.671875 164.835938 251.121094 164.726562 250.578125 C 164.617188 250.035156 164.457031 249.503906 164.242188 248.992188 C 164.03125 248.480469 163.769531 247.992188 163.460938 247.53125 C 163.152344 247.070312 162.804688 246.644531 162.410156 246.25 C 162.019531 245.859375 161.589844 245.507812 161.128906 245.199219 C 160.667969 244.890625 160.183594 244.632812 159.667969 244.417969 C 159.15625 244.207031 158.628906 244.046875 158.085938 243.9375 C 157.539062 243.828125 156.992188 243.773438 156.4375 243.773438 Z M 156.4375 255.042969 C 156.0625 255.042969 155.703125 254.972656 155.359375 254.828125 C 155.011719 254.6875 154.707031 254.484375 154.445312 254.21875 C 154.179688 253.953125 153.976562 253.648438 153.832031 253.304688 C 153.691406 252.960938 153.617188 252.601562 153.617188 252.226562 C 153.617188 251.851562 153.691406 251.492188 153.832031 251.148438 C 153.976562 250.800781 154.179688 250.496094 154.445312 250.234375 C 154.707031 249.96875 155.011719 249.765625 155.359375 249.621094 C 155.703125 249.480469 156.0625 249.410156 156.4375 249.410156 C 156.808594 249.410156 157.167969 249.480469 157.515625 249.621094 C 157.859375 249.765625 158.164062 249.96875 158.429688 250.234375 C 158.691406 250.496094 158.894531 250.800781 159.039062 251.148438 C 159.183594 251.492188 159.253906 251.851562 159.253906 252.226562 C 159.253906 252.601562 159.179688 252.960938 159.039062 253.304688 C 158.894531 253.648438 158.691406 253.953125 158.425781 254.21875 C 158.164062 254.480469 157.859375 254.6875 157.515625 254.828125 C 157.167969 254.972656 156.808594 255.042969 156.4375 255.042969 Z M 156.4375 255.042969 "/><path style=" stroke:none;fill-rule:nonzero;fill:#e4c57b;fill-opacity:1;" d="M 243.789062 243.773438 L 209.972656 243.773438 C 209.601562 243.773438 209.242188 243.84375 208.894531 243.988281 C 208.550781 244.128906 208.246094 244.332031 207.980469 244.597656 C 207.71875 244.863281 207.515625 245.167969 207.371094 245.511719 C 207.226562 245.859375 207.15625 246.21875 207.15625 246.589844 C 207.15625 246.964844 207.226562 247.324219 207.371094 247.667969 C 207.515625 248.015625 207.71875 248.320312 207.980469 248.582031 C 208.246094 248.847656 208.550781 249.050781 208.894531 249.195312 C 209.242188 249.335938 209.601562 249.410156 209.972656 249.410156 L 243.789062 249.410156 C 244.164062 249.410156 244.523438 249.335938 244.867188 249.195312 C 245.210938 249.050781 245.515625 248.847656 245.78125 248.582031 C 246.046875 248.320312 246.25 248.015625 246.390625 247.667969 C 246.535156 247.324219 246.605469 246.964844 246.605469 246.589844 C 246.605469 246.21875 246.535156 245.859375 246.390625 245.511719 C 246.25 245.167969 246.046875 244.863281 245.78125 244.597656 C 245.515625 244.332031 245.210938 244.128906 244.867188 243.988281 C 244.523438 243.84375 244.164062 243.773438 243.789062 243.773438 Z M 243.789062 243.773438 "/><path style=" stroke:none;fill-rule:nonzero;fill:#e4c57b;fill-opacity:1;" d="M 243.789062 255.042969 L 229.699219 255.042969 C 229.324219 255.042969 228.964844 255.117188 228.621094 255.257812 C 228.277344 255.402344 227.972656 255.605469 227.707031 255.871094 C 227.441406 256.132812 227.238281 256.4375 227.097656 256.785156 C 226.953125 257.128906 226.882812 257.488281 226.882812 257.863281 C 226.882812 258.234375 226.953125 258.59375 227.097656 258.941406 C 227.238281 259.285156 227.441406 259.589844 227.707031 259.855469 C 227.972656 260.117188 228.277344 260.320312 228.621094 260.464844 C 228.964844 260.609375 229.324219 260.679688 229.699219 260.679688 L 243.789062 260.679688 C 244.164062 260.679688 244.523438 260.609375 244.867188 260.464844 C 245.210938 260.320312 245.515625 260.117188 245.78125 259.855469 C 246.046875 259.589844 246.25 259.285156 246.390625 258.941406 C 246.535156 258.59375 246.605469 258.234375 246.605469 257.863281 C 246.605469 257.488281 246.535156 257.128906 246.390625 256.785156 C 246.25 256.4375 246.046875 256.132812 245.78125 255.871094 C 245.515625 255.605469 245.210938 255.402344 244.867188 255.257812 C 244.523438 255.117188 244.164062 255.042969 243.789062 255.042969 Z M 243.789062 255.042969 "/><path style=" stroke:none;fill-rule:nonzero;fill:#e4c57b;fill-opacity:1;" d="M 201.519531 243.773438 L 198.703125 243.773438 C 198.328125 243.773438 197.96875 243.84375 197.625 243.988281 C 197.28125 244.128906 196.976562 244.332031 196.710938 244.597656 C 196.445312 244.863281 196.242188 245.167969 196.101562 245.511719 C 195.957031 245.859375 195.886719 246.21875 195.886719 246.589844 C 195.886719 246.964844 195.957031 247.324219 196.101562 247.667969 C 196.242188 248.015625 196.445312 248.320312 196.710938 248.582031 C 196.976562 248.847656 197.28125 249.050781 197.625 249.195312 C 197.96875 249.335938 198.328125 249.410156 198.703125 249.410156 L 201.519531 249.410156 C 201.894531 249.410156 202.253906 249.335938 202.597656 249.195312 C 202.945312 249.050781 203.25 248.847656 203.511719 248.582031 C 203.777344 248.320312 203.980469 248.015625 204.125 247.667969 C 204.265625 247.324219 204.339844 246.964844 204.339844 246.589844 C 204.339844 246.21875 204.265625 245.859375 204.125 245.511719 C 203.980469 245.167969 203.777344 244.863281 203.511719 244.597656 C 203.25 244.332031 202.945312 244.128906 202.597656 243.988281 C 202.253906 243.84375 201.894531 243.773438 201.519531 243.773438 Z M 201.519531 243.773438 "/><g clip-rule="nonzero" clip-path="url(#487f8d35f1)"><path style=" stroke:none;fill-rule:nonzero;fill:#e4c57b;fill-opacity:1;" d="M 246.605469 100.0625 L 128.257812 100.0625 C 127.519531 100.066406 126.785156 100.136719 126.058594 100.28125 C 125.335938 100.425781 124.628906 100.640625 123.945312 100.925781 C 123.261719 101.207031 122.613281 101.554688 122 101.96875 C 121.382812 102.378906 120.816406 102.84375 120.292969 103.367188 C 119.769531 103.890625 119.300781 104.460938 118.890625 105.074219 C 118.480469 105.691406 118.132812 106.339844 117.847656 107.023438 C 117.5625 107.707031 117.351562 108.410156 117.207031 109.136719 C 117.058594 109.863281 116.988281 110.59375 116.988281 111.335938 L 116.988281 133.878906 C 116.988281 134.617188 117.058594 135.351562 117.207031 136.074219 C 117.351562 136.800781 117.5625 137.503906 117.847656 138.1875 C 118.132812 138.871094 118.480469 139.523438 118.890625 140.136719 C 119.300781 140.75 119.769531 141.320312 120.292969 141.84375 C 120.816406 142.367188 121.382812 142.835938 122 143.246094 C 122.613281 143.65625 123.261719 144.003906 123.945312 144.289062 C 124.628906 144.570312 125.335938 144.785156 126.058594 144.929688 C 126.785156 145.074219 127.519531 145.148438 128.257812 145.148438 L 198.703125 145.148438 L 198.703125 201.503906 L 193.066406 201.503906 C 192.519531 201.503906 192.015625 201.652344 191.554688 201.945312 C 191.09375 202.238281 190.746094 202.632812 190.515625 203.128906 C 190.285156 203.621094 190.203125 204.140625 190.273438 204.683594 C 190.34375 205.226562 190.554688 205.707031 190.902344 206.128906 L 204.992188 223.035156 C 205.125 223.191406 205.273438 223.335938 205.4375 223.460938 C 205.597656 223.585938 205.773438 223.695312 205.960938 223.78125 C 206.148438 223.871094 206.34375 223.9375 206.542969 223.980469 C 206.746094 224.027344 206.949219 224.046875 207.15625 224.046875 C 207.363281 224.046875 207.566406 224.027344 207.769531 223.980469 C 207.96875 223.9375 208.164062 223.871094 208.351562 223.78125 C 208.539062 223.695312 208.714844 223.585938 208.878906 223.460938 C 209.042969 223.335938 209.1875 223.191406 209.320312 223.035156 L 223.410156 206.128906 C 223.761719 205.707031 223.96875 205.226562 224.039062 204.683594 C 224.109375 204.140625 224.03125 203.621094 223.796875 203.128906 C 223.566406 202.632812 223.21875 202.238281 222.757812 201.945312 C 222.296875 201.652344 221.792969 201.503906 221.246094 201.503906 L 215.609375 201.503906 L 215.609375 145.148438 L 246.605469 145.148438 C 247.347656 145.148438 248.078125 145.074219 248.804688 144.929688 C 249.53125 144.785156 250.234375 144.570312 250.917969 144.289062 C 251.601562 144.003906 252.25 143.65625 252.867188 143.246094 C 253.480469 142.835938 254.050781 142.367188 254.574219 141.84375 C 255.097656 141.320312 255.5625 140.75 255.972656 140.136719 C 256.386719 139.523438 256.734375 138.871094 257.015625 138.1875 C 257.300781 137.503906 257.515625 136.800781 257.660156 136.074219 C 257.804688 135.351562 257.875 134.617188 257.878906 133.878906 L 257.878906 111.335938 C 257.875 110.59375 257.804688 109.863281 257.660156 109.136719 C 257.515625 108.410156 257.300781 107.707031 257.015625 107.023438 C 256.734375 106.339844 256.386719 105.691406 255.972656 105.074219 C 255.5625 104.460938 255.097656 103.890625 254.574219 103.367188 C 254.050781 102.84375 253.480469 102.378906 252.867188 101.96875 C 252.25 101.554688 251.601562 101.207031 250.917969 100.925781 C 250.234375 100.640625 249.53125 100.425781 248.804688 100.28125 C 248.078125 100.136719 247.347656 100.066406 246.605469 100.0625 Z M 207.15625 216.828125 L 199.082031 207.140625 L 201.519531 207.140625 C 201.894531 207.140625 202.253906 207.070312 202.597656 206.925781 C 202.945312 206.785156 203.25 206.578125 203.511719 206.316406 C 203.777344 206.050781 203.980469 205.746094 204.125 205.402344 C 204.265625 205.054688 204.339844 204.695312 204.339844 204.324219 L 204.339844 145.5 L 209.972656 145.5 L 209.972656 204.324219 C 209.972656 204.695312 210.046875 205.054688 210.1875 205.402344 C 210.332031 205.746094 210.535156 206.050781 210.800781 206.316406 C 211.0625 206.578125 211.367188 206.785156 211.714844 206.925781 C 212.058594 207.070312 212.417969 207.140625 212.792969 207.140625 L 215.230469 207.140625 Z M 252.242188 133.878906 C 252.242188 134.246094 252.203125 134.613281 252.132812 134.976562 C 252.058594 135.339844 251.953125 135.691406 251.8125 136.035156 C 251.667969 136.375 251.496094 136.699219 251.289062 137.007812 C 251.085938 137.316406 250.851562 137.597656 250.589844 137.859375 C 250.328125 138.121094 250.042969 138.355469 249.734375 138.5625 C 249.429688 138.765625 249.105469 138.941406 248.761719 139.082031 C 248.421875 139.222656 248.066406 139.332031 247.707031 139.402344 C 247.34375 139.476562 246.976562 139.511719 246.605469 139.511719 L 128.257812 139.511719 C 127.886719 139.511719 127.519531 139.476562 127.160156 139.402344 C 126.796875 139.332031 126.445312 139.222656 126.101562 139.082031 C 125.761719 138.941406 125.4375 138.765625 125.128906 138.5625 C 124.820312 138.355469 124.535156 138.121094 124.273438 137.859375 C 124.011719 137.597656 123.78125 137.316406 123.574219 137.007812 C 123.367188 136.699219 123.195312 136.375 123.054688 136.035156 C 122.910156 135.691406 122.804688 135.339844 122.730469 134.976562 C 122.660156 134.613281 122.621094 134.246094 122.621094 133.878906 L 122.621094 111.335938 C 122.621094 110.964844 122.660156 110.597656 122.730469 110.234375 C 122.804688 109.875 122.910156 109.519531 123.054688 109.179688 C 123.195312 108.835938 123.367188 108.511719 123.574219 108.207031 C 123.78125 107.898438 124.011719 107.613281 124.273438 107.351562 C 124.535156 107.089844 124.820312 106.855469 125.128906 106.652344 C 125.4375 106.445312 125.761719 106.273438 126.101562 106.128906 C 126.445312 105.988281 126.796875 105.882812 127.160156 105.808594 C 127.519531 105.738281 127.886719 105.699219 128.257812 105.699219 L 246.605469 105.699219 C 246.976562 105.699219 247.34375 105.738281 247.707031 105.808594 C 248.066406 105.882812 248.421875 105.988281 248.761719 106.128906 C 249.105469 106.273438 249.429688 106.445312 249.734375 106.652344 C 250.042969 106.855469 250.328125 107.089844 250.589844 107.351562 C 250.851562 107.613281 251.085938 107.898438 251.289062 108.207031 C 251.496094 108.511719 251.667969 108.835938 251.8125 109.179688 C 251.953125 109.519531 252.058594 109.875 252.132812 110.234375 C 252.203125 110.597656 252.242188 110.964844 252.242188 111.335938 Z M 252.242188 133.878906 "/></g><path style=" stroke:none;fill-rule:nonzero;fill:#e4c57b;fill-opacity:1;" d="M 136.710938 114.152344 C 136.15625 114.152344 135.605469 114.207031 135.0625 114.316406 C 134.519531 114.421875 133.988281 114.582031 133.476562 114.796875 C 132.964844 115.007812 132.476562 115.269531 132.015625 115.578125 C 131.554688 115.886719 131.125 116.238281 130.734375 116.628906 C 130.339844 117.019531 129.992188 117.449219 129.683594 117.910156 C 129.375 118.371094 129.113281 118.859375 128.902344 119.371094 C 128.6875 119.882812 128.527344 120.414062 128.421875 120.957031 C 128.3125 121.5 128.257812 122.050781 128.257812 122.605469 C 128.257812 123.160156 128.3125 123.710938 128.421875 124.253906 C 128.527344 124.800781 128.6875 125.328125 128.902344 125.839844 C 129.113281 126.355469 129.375 126.839844 129.683594 127.304688 C 129.992188 127.765625 130.339844 128.191406 130.734375 128.582031 C 131.125 128.976562 131.554688 129.328125 132.015625 129.636719 C 132.476562 129.945312 132.964844 130.203125 133.476562 130.417969 C 133.988281 130.628906 134.519531 130.789062 135.0625 130.898438 C 135.605469 131.003906 136.15625 131.058594 136.710938 131.058594 C 137.265625 131.058594 137.816406 131.003906 138.359375 130.898438 C 138.90625 130.789062 139.433594 130.628906 139.945312 130.417969 C 140.460938 130.203125 140.945312 129.945312 141.40625 129.636719 C 141.871094 129.328125 142.296875 128.976562 142.6875 128.582031 C 143.082031 128.191406 143.429688 127.765625 143.738281 127.304688 C 144.046875 126.839844 144.308594 126.355469 144.519531 125.839844 C 144.734375 125.328125 144.894531 124.800781 145.003906 124.253906 C 145.109375 123.710938 145.164062 123.160156 145.164062 122.605469 C 145.164062 122.050781 145.109375 121.503906 145 120.957031 C 144.890625 120.414062 144.730469 119.886719 144.519531 119.371094 C 144.304688 118.859375 144.046875 118.375 143.738281 117.914062 C 143.429688 117.449219 143.078125 117.023438 142.6875 116.632812 C 142.292969 116.238281 141.867188 115.890625 141.40625 115.582031 C 140.945312 115.273438 140.457031 115.011719 139.945312 114.800781 C 139.433594 114.585938 138.902344 114.425781 138.359375 114.316406 C 137.816406 114.207031 137.265625 114.152344 136.710938 114.152344 Z M 136.710938 125.425781 C 136.335938 125.425781 135.976562 125.351562 135.632812 125.210938 C 135.289062 125.066406 134.984375 124.863281 134.71875 124.597656 C 134.453125 124.335938 134.25 124.03125 134.109375 123.683594 C 133.964844 123.339844 133.894531 122.980469 133.894531 122.605469 C 133.894531 122.234375 133.964844 121.875 134.109375 121.527344 C 134.25 121.183594 134.453125 120.878906 134.71875 120.613281 C 134.984375 120.351562 135.289062 120.144531 135.632812 120.003906 C 135.976562 119.859375 136.335938 119.789062 136.710938 119.789062 C 137.085938 119.789062 137.445312 119.859375 137.789062 120.003906 C 138.132812 120.144531 138.441406 120.351562 138.703125 120.613281 C 138.96875 120.878906 139.171875 121.183594 139.316406 121.527344 C 139.457031 121.875 139.527344 122.234375 139.527344 122.605469 C 139.527344 122.980469 139.457031 123.339844 139.3125 123.683594 C 139.171875 124.027344 138.96875 124.332031 138.703125 124.597656 C 138.4375 124.863281 138.132812 125.066406 137.789062 125.207031 C 137.445312 125.351562 137.085938 125.421875 136.710938 125.425781 Z M 136.710938 125.425781 "/><path style=" stroke:none;fill-rule:nonzero;fill:#e4c57b;fill-opacity:1;" d="M 156.4375 114.152344 C 155.882812 114.152344 155.332031 114.207031 154.785156 114.316406 C 154.242188 114.421875 153.714844 114.582031 153.199219 114.796875 C 152.6875 115.007812 152.199219 115.269531 151.738281 115.578125 C 151.277344 115.886719 150.851562 116.238281 150.457031 116.628906 C 150.066406 117.019531 149.714844 117.449219 149.40625 117.910156 C 149.097656 118.371094 148.839844 118.859375 148.625 119.371094 C 148.414062 119.882812 148.253906 120.414062 148.144531 120.957031 C 148.035156 121.5 147.984375 122.050781 147.984375 122.605469 C 147.984375 123.160156 148.035156 123.710938 148.144531 124.253906 C 148.253906 124.800781 148.414062 125.328125 148.625 125.839844 C 148.839844 126.355469 149.097656 126.839844 149.40625 127.304688 C 149.714844 127.765625 150.066406 128.191406 150.457031 128.582031 C 150.851562 128.976562 151.277344 129.328125 151.738281 129.636719 C 152.199219 129.945312 152.6875 130.203125 153.199219 130.417969 C 153.714844 130.628906 154.242188 130.789062 154.785156 130.898438 C 155.332031 131.003906 155.882812 131.058594 156.4375 131.058594 C 156.992188 131.058594 157.539062 131.003906 158.085938 130.898438 C 158.628906 130.789062 159.15625 130.628906 159.671875 130.417969 C 160.183594 130.203125 160.671875 129.945312 161.132812 129.636719 C 161.59375 129.328125 162.019531 128.976562 162.414062 128.582031 C 162.804688 128.191406 163.15625 127.765625 163.464844 127.304688 C 163.773438 126.839844 164.035156 126.355469 164.246094 125.839844 C 164.457031 125.328125 164.617188 124.800781 164.726562 124.253906 C 164.835938 123.710938 164.890625 123.160156 164.890625 122.605469 C 164.890625 122.050781 164.835938 121.503906 164.726562 120.957031 C 164.617188 120.414062 164.457031 119.886719 164.242188 119.371094 C 164.03125 118.859375 163.769531 118.375 163.460938 117.914062 C 163.152344 117.449219 162.804688 117.023438 162.410156 116.632812 C 162.019531 116.238281 161.589844 115.890625 161.128906 115.582031 C 160.667969 115.273438 160.183594 115.011719 159.667969 114.800781 C 159.15625 114.585938 158.628906 114.425781 158.085938 114.316406 C 157.539062 114.207031 156.992188 114.152344 156.4375 114.152344 Z M 156.4375 125.425781 C 156.0625 125.425781 155.703125 125.351562 155.359375 125.210938 C 155.011719 125.066406 154.707031 124.863281 154.445312 124.597656 C 154.179688 124.335938 153.976562 124.03125 153.832031 123.683594 C 153.691406 123.339844 153.617188 122.980469 153.617188 122.605469 C 153.617188 122.234375 153.691406 121.875 153.832031 121.527344 C 153.976562 121.183594 154.179688 120.878906 154.445312 120.613281 C 154.707031 120.351562 155.011719 120.144531 155.359375 120.003906 C 155.703125 119.859375 156.0625 119.789062 156.4375 119.789062 C 156.808594 119.789062 157.167969 119.859375 157.515625 120.003906 C 157.859375 120.144531 158.164062 120.351562 158.429688 120.613281 C 158.691406 120.878906 158.894531 121.183594 159.039062 121.527344 C 159.183594 121.875 159.253906 122.234375 159.253906 122.605469 C 159.253906 122.980469 159.179688 123.339844 159.039062 123.683594 C 158.894531 124.027344 158.691406 124.332031 158.425781 124.597656 C 158.164062 124.863281 157.859375 125.066406 157.515625 125.207031 C 157.167969 125.351562 156.808594 125.421875 156.4375 125.425781 Z M 156.4375 125.425781 "/><path style=" stroke:none;fill-rule:nonzero;fill:#e4c57b;fill-opacity:1;" d="M 243.789062 114.152344 L 209.972656 114.152344 C 209.601562 114.152344 209.242188 114.222656 208.894531 114.367188 C 208.550781 114.511719 208.246094 114.714844 207.980469 114.976562 C 207.71875 115.242188 207.515625 115.546875 207.371094 115.890625 C 207.226562 116.238281 207.15625 116.597656 207.15625 116.972656 C 207.15625 117.34375 207.226562 117.703125 207.371094 118.050781 C 207.515625 118.394531 207.71875 118.699219 207.980469 118.964844 C 208.246094 119.226562 208.550781 119.429688 208.894531 119.574219 C 209.242188 119.71875 209.601562 119.789062 209.972656 119.789062 L 243.789062 119.789062 C 244.164062 119.789062 244.523438 119.71875 244.867188 119.574219 C 245.210938 119.429688 245.515625 119.226562 245.78125 118.964844 C 246.046875 118.699219 246.25 118.394531 246.390625 118.050781 C 246.535156 117.703125 246.605469 117.34375 246.605469 116.972656 C 246.605469 116.597656 246.535156 116.238281 246.390625 115.890625 C 246.25 115.546875 246.046875 115.242188 245.78125 114.976562 C 245.515625 114.714844 245.210938 114.511719 244.867188 114.367188 C 244.523438 114.222656 244.164062 114.152344 243.789062 114.152344 Z M 243.789062 114.152344 "/><path style=" stroke:none;fill-rule:nonzero;fill:#e4c57b;fill-opacity:1;" d="M 243.789062 125.425781 L 229.699219 125.425781 C 229.324219 125.425781 228.964844 125.496094 228.621094 125.640625 C 228.277344 125.78125 227.972656 125.984375 227.707031 126.25 C 227.441406 126.515625 227.238281 126.820312 227.097656 127.164062 C 226.953125 127.507812 226.882812 127.867188 226.882812 128.242188 C 226.882812 128.617188 226.953125 128.976562 227.097656 129.320312 C 227.238281 129.664062 227.441406 129.96875 227.707031 130.234375 C 227.972656 130.5 228.277344 130.703125 228.621094 130.84375 C 228.964844 130.988281 229.324219 131.058594 229.699219 131.058594 L 243.789062 131.058594 C 244.164062 131.058594 244.523438 130.988281 244.867188 130.84375 C 245.210938 130.703125 245.515625 130.5 245.78125 130.234375 C 246.046875 129.96875 246.25 129.664062 246.390625 129.320312 C 246.535156 128.976562 246.605469 128.617188 246.605469 128.242188 C 246.605469 127.867188 246.535156 127.507812 246.390625 127.164062 C 246.25 126.820312 246.046875 126.515625 245.78125 126.25 C 245.515625 125.984375 245.210938 125.78125 244.867188 125.640625 C 244.523438 125.496094 244.164062 125.425781 243.789062 125.425781 Z M 243.789062 125.425781 "/><path style=" stroke:none;fill-rule:nonzero;fill:#e4c57b;fill-opacity:1;" d="M 201.519531 114.152344 L 198.703125 114.152344 C 198.328125 114.152344 197.96875 114.222656 197.625 114.367188 C 197.28125 114.511719 196.976562 114.714844 196.710938 114.976562 C 196.445312 115.242188 196.242188 115.546875 196.101562 115.890625 C 195.957031 116.238281 195.886719 116.597656 195.886719 116.972656 C 195.886719 117.34375 195.957031 117.703125 196.101562 118.050781 C 196.242188 118.394531 196.445312 118.699219 196.710938 118.964844 C 196.976562 119.226562 197.28125 119.429688 197.625 119.574219 C 197.96875 119.71875 198.328125 119.789062 198.703125 119.789062 L 201.519531 119.789062 C 201.894531 119.789062 202.253906 119.71875 202.597656 119.574219 C 202.945312 119.429688 203.25 119.226562 203.511719 118.964844 C 203.777344 118.699219 203.980469 118.394531 204.125 118.050781 C 204.265625 117.703125 204.339844 117.34375 204.339844 116.972656 C 204.339844 116.597656 204.265625 116.238281 204.125 115.890625 C 203.980469 115.546875 203.777344 115.242188 203.511719 114.976562 C 203.25 114.714844 202.945312 114.511719 202.597656 114.367188 C 202.253906 114.222656 201.894531 114.152344 201.519531 114.152344 Z M 201.519531 114.152344 "/><path style=" stroke:none;fill-rule:nonzero;fill:#e4c57b;fill-opacity:1;" d="M 153.617188 212.777344 C 153.992188 212.777344 154.351562 212.707031 154.695312 212.5625 C 155.042969 212.417969 155.347656 212.214844 155.609375 211.953125 C 155.875 211.6875 156.078125 211.382812 156.222656 211.039062 C 156.363281 210.691406 156.4375 210.332031 156.4375 209.957031 L 156.4375 181.78125 C 156.4375 181.40625 156.363281 181.046875 156.222656 180.703125 C 156.078125 180.355469 155.875 180.050781 155.609375 179.789062 C 155.347656 179.523438 155.042969 179.320312 154.695312 179.175781 C 154.351562 179.035156 153.992188 178.960938 153.617188 178.960938 C 153.246094 178.960938 152.886719 179.035156 152.539062 179.175781 C 152.195312 179.320312 151.890625 179.523438 151.625 179.789062 C 151.363281 180.050781 151.15625 180.355469 151.015625 180.703125 C 150.871094 181.046875 150.800781 181.40625 150.800781 181.78125 L 150.800781 209.957031 C 150.800781 210.332031 150.871094 210.691406 151.015625 211.039062 C 151.15625 211.382812 151.363281 211.6875 151.625 211.953125 C 151.890625 212.214844 152.195312 212.417969 152.539062 212.5625 C 152.886719 212.707031 153.246094 212.777344 153.617188 212.777344 Z M 153.617188 212.777344 "/><path style=" stroke:none;fill-rule:nonzero;fill:#e4c57b;fill-opacity:1;" d="M 150.800781 221.230469 C 150.800781 221.605469 150.871094 221.964844 151.015625 222.308594 C 151.15625 222.652344 151.363281 222.957031 151.625 223.222656 C 151.890625 223.488281 152.195312 223.691406 152.539062 223.832031 C 152.886719 223.976562 153.246094 224.046875 153.617188 224.046875 C 153.992188 224.046875 154.351562 223.976562 154.695312 223.832031 C 155.042969 223.691406 155.347656 223.488281 155.609375 223.222656 C 155.875 222.957031 156.078125 222.652344 156.222656 222.308594 C 156.363281 221.964844 156.4375 221.605469 156.4375 221.230469 L 156.4375 218.414062 C 156.4375 218.039062 156.363281 217.679688 156.222656 217.335938 C 156.078125 216.988281 155.875 216.683594 155.609375 216.417969 C 155.347656 216.15625 155.042969 215.953125 154.695312 215.808594 C 154.351562 215.667969 153.992188 215.59375 153.617188 215.59375 C 153.246094 215.59375 152.886719 215.667969 152.539062 215.808594 C 152.195312 215.953125 151.890625 216.15625 151.625 216.417969 C 151.363281 216.683594 151.15625 216.988281 151.015625 217.335938 C 150.871094 217.679688 150.800781 218.039062 150.800781 218.414062 Z M 150.800781 221.230469 "/><path style=" stroke:none;fill-rule:nonzero;fill:#e4c57b;fill-opacity:1;" d="M 181.796875 176.144531 C 181.421875 176.144531 181.0625 176.214844 180.71875 176.359375 C 180.371094 176.503906 180.066406 176.707031 179.804688 176.96875 C 179.539062 177.234375 179.335938 177.539062 179.191406 177.882812 C 179.050781 178.230469 178.980469 178.589844 178.980469 178.960938 L 178.980469 187.417969 C 178.980469 187.789062 179.050781 188.148438 179.191406 188.496094 C 179.335938 188.839844 179.539062 189.144531 179.804688 189.410156 C 180.066406 189.671875 180.371094 189.875 180.71875 190.019531 C 181.0625 190.164062 181.421875 190.234375 181.796875 190.234375 C 182.171875 190.234375 182.53125 190.164062 182.875 190.019531 C 183.21875 189.875 183.523438 189.671875 183.789062 189.410156 C 184.054688 189.144531 184.257812 188.839844 184.398438 188.496094 C 184.542969 188.148438 184.613281 187.789062 184.613281 187.417969 L 184.613281 178.960938 C 184.613281 178.589844 184.542969 178.230469 184.398438 177.882812 C 184.257812 177.539062 184.054688 177.234375 183.789062 176.96875 C 183.523438 176.707031 183.21875 176.503906 182.875 176.359375 C 182.53125 176.214844 182.171875 176.144531 181.796875 176.144531 Z M 181.796875 176.144531 "/><path style=" stroke:none;fill-rule:nonzero;fill:#e4c57b;fill-opacity:1;" d="M 193.066406 195.871094 C 193.441406 195.871094 193.800781 195.796875 194.144531 195.65625 C 194.492188 195.511719 194.796875 195.308594 195.058594 195.042969 C 195.324219 194.78125 195.527344 194.476562 195.671875 194.128906 C 195.8125 193.785156 195.886719 193.425781 195.886719 193.050781 L 195.886719 162.054688 C 195.886719 161.683594 195.8125 161.324219 195.671875 160.976562 C 195.527344 160.632812 195.324219 160.328125 195.058594 160.0625 C 194.796875 159.800781 194.492188 159.59375 194.144531 159.453125 C 193.800781 159.308594 193.441406 159.238281 193.066406 159.238281 C 192.695312 159.238281 192.335938 159.308594 191.988281 159.453125 C 191.644531 159.59375 191.339844 159.800781 191.074219 160.0625 C 190.8125 160.328125 190.605469 160.632812 190.464844 160.976562 C 190.320312 161.324219 190.25 161.683594 190.25 162.054688 L 190.25 193.050781 C 190.25 193.425781 190.320312 193.785156 190.464844 194.128906 C 190.605469 194.476562 190.8125 194.78125 191.074219 195.042969 C 191.339844 195.308594 191.644531 195.511719 191.988281 195.65625 C 192.335938 195.796875 192.695312 195.871094 193.066406 195.871094 Z M 193.066406 195.871094 "/><path style=" stroke:none;fill-rule:nonzero;fill:#e4c57b;fill-opacity:1;" d="M 218.429688 195.871094 C 218.429688 196.242188 218.5 196.601562 218.640625 196.949219 C 218.785156 197.292969 218.988281 197.597656 219.253906 197.863281 C 219.519531 198.125 219.824219 198.332031 220.167969 198.472656 C 220.511719 198.617188 220.871094 198.6875 221.246094 198.6875 C 221.621094 198.6875 221.980469 198.617188 222.324219 198.472656 C 222.667969 198.332031 222.972656 198.125 223.238281 197.863281 C 223.503906 197.597656 223.707031 197.292969 223.847656 196.949219 C 223.992188 196.601562 224.0625 196.242188 224.0625 195.871094 L 224.0625 184.597656 C 224.0625 184.226562 223.992188 183.867188 223.847656 183.519531 C 223.707031 183.175781 223.503906 182.871094 223.238281 182.605469 C 222.972656 182.339844 222.667969 182.136719 222.324219 181.996094 C 221.980469 181.851562 221.621094 181.78125 221.246094 181.78125 C 220.871094 181.78125 220.511719 181.851562 220.167969 181.996094 C 219.824219 182.136719 219.519531 182.339844 219.253906 182.605469 C 218.988281 182.871094 218.785156 183.175781 218.640625 183.519531 C 218.5 183.867188 218.429688 184.226562 218.429688 184.597656 Z M 218.429688 195.871094 "/><path style=" stroke:none;fill-rule:nonzero;fill:#e4c57b;fill-opacity:1;" d="M 221.246094 178.960938 C 221.621094 178.960938 221.980469 178.890625 222.324219 178.75 C 222.667969 178.605469 222.972656 178.402344 223.238281 178.136719 C 223.503906 177.875 223.707031 177.570312 223.847656 177.222656 C 223.992188 176.878906 224.0625 176.519531 224.0625 176.144531 L 224.0625 173.328125 C 224.0625 172.953125 223.992188 172.59375 223.847656 172.25 C 223.707031 171.902344 223.503906 171.597656 223.238281 171.335938 C 222.972656 171.070312 222.667969 170.867188 222.324219 170.722656 C 221.980469 170.582031 221.621094 170.507812 221.246094 170.507812 C 220.871094 170.507812 220.511719 170.582031 220.167969 170.722656 C 219.824219 170.867188 219.519531 171.070312 219.253906 171.335938 C 218.988281 171.597656 218.785156 171.902344 218.640625 172.25 C 218.5 172.59375 218.429688 172.953125 218.429688 173.328125 L 218.429688 176.144531 C 218.429688 176.519531 218.5 176.878906 218.640625 177.222656 C 218.785156 177.570312 218.988281 177.875 219.253906 178.136719 C 219.519531 178.402344 219.824219 178.605469 220.167969 178.75 C 220.511719 178.890625 220.871094 178.960938 221.246094 178.960938 Z M 221.246094 178.960938 "/></g></svg>