<svg xmlns="http://www.w3.org/2000/svg" xmlns:xlink="http://www.w3.org/1999/xlink" width="500" zoomAndPan="magnify" viewBox="0 0 375 374.999991" height="500" preserveAspectRatio="xMidYMid meet" version="1.2"><defs><clipPath id="40eb23a109"><path d="M 34.5 0 L 340.5 0 C 359.554688 0 375 15.445312 375 34.5 L 375 340.5 C 375 359.554688 359.554688 375 340.5 375 L 34.5 375 C 15.445312 375 0 359.554688 0 340.5 L 0 34.5 C 0 15.445312 15.445312 0 34.5 0 Z M 34.5 0 "/></clipPath><clipPath id="fbadc41ff7"><path d="M 81.070312 71.183594 L 294 71.183594 L 294 303.683594 L 81.070312 303.683594 Z M 81.070312 71.183594 "/></clipPath></defs><g id="6e531903eb"><g clip-rule="nonzero" clip-path="url(#40eb23a109)"><rect x="0" width="375" y="0" height="374.999991" style="fill:#315d6a;fill-opacity:1;stroke:none;"/></g><g clip-rule="nonzero" clip-path="url(#fbadc41ff7)"><path style=" stroke:none;fill-rule:nonzero;fill:#ffffff;fill-opacity:1;" d="M 268.332031 235.515625 C 252.898438 258.203125 226.875 273.140625 197.421875 273.140625 C 150.164062 273.140625 111.71875 234.691406 111.71875 187.429688 C 111.71875 140.171875 150.164062 101.726562 197.421875 101.726562 C 226.941406 101.726562 253.019531 116.726562 268.441406 139.5 L 293.695312 122.367188 C 272.773438 91.511719 237.429688 71.195312 197.421875 71.195312 C 133.328125 71.195312 81.1875 123.339844 81.1875 187.433594 C 81.1875 251.527344 133.328125 303.671875 197.421875 303.671875 C 237.394531 303.671875 272.714844 283.386719 293.640625 252.574219 Z M 268.332031 235.515625 "/></g></g></svg>