<svg xmlns="http://www.w3.org/2000/svg" xmlns:xlink="http://www.w3.org/1999/xlink" width="500" zoomAndPan="magnify" viewBox="0 0 375 374.999991" height="500" preserveAspectRatio="xMidYMid meet" version="1.2"><defs><clipPath id="a152508b35"><path d="M 121.875 112.5 L 253.125 112.5 L 253.125 150 L 121.875 150 Z M 121.875 112.5 "/></clipPath><clipPath id="9149284e0e"><path d="M 131 159 L 244 159 L 244 262.5 L 131 262.5 Z M 131 159 "/></clipPath><clipPath id="50ff85b55c"><path d="M 121.875 112.5 L 253.125 112.5 L 253.125 150 L 121.875 150 Z M 121.875 112.5 "/></clipPath><clipPath id="cd9f344f07"><path d="M 131 159 L 244 159 L 244 262.5 L 131 262.5 Z M 131 159 "/></clipPath></defs><g id="4f5fbfc44e"><g clip-rule="nonzero" clip-path="url(#a152508b35)"><path style=" stroke:none;fill-rule:nonzero;fill:#ff3131;fill-opacity:1;" d="M 248.4375 130.898438 L 215.625 130.898438 L 215.625 117.1875 C 215.625 114.609375 213.515625 112.5 210.9375 112.5 L 164.0625 112.5 C 161.484375 112.5 159.375 114.609375 159.375 117.1875 L 159.375 130.898438 L 126.5625 130.898438 C 123.984375 130.898438 121.875 133.007812 121.875 135.585938 L 121.875 144.960938 C 121.875 147.539062 123.984375 149.648438 126.5625 149.648438 L 248.4375 149.648438 C 251.015625 149.648438 253.125 147.539062 253.125 144.960938 L 253.125 135.585938 C 253.125 133.007812 251.015625 130.898438 248.4375 130.898438 Z M 248.4375 130.898438 "/></g><g clip-rule="nonzero" clip-path="url(#9149284e0e)"><path style=" stroke:none;fill-rule:nonzero;fill:#ff3131;fill-opacity:1;" d="M 142.5 258.398438 C 142.734375 260.742188 144.726562 262.5 147.1875 262.5 L 227.929688 262.5 C 230.273438 262.5 232.265625 260.742188 232.617188 258.398438 L 243.867188 159.492188 L 131.25 159.492188 Z M 206.25 243.164062 L 214.453125 177.65625 C 214.804688 175.078125 217.148438 173.320312 219.726562 173.554688 C 222.304688 173.90625 224.0625 176.25 223.828125 178.828125 L 215.625 244.335938 C 215.273438 246.679688 213.28125 248.4375 210.9375 248.4375 C 210.703125 248.4375 210.585938 248.4375 210.351562 248.4375 C 207.773438 248.085938 206.015625 245.742188 206.25 243.164062 Z M 182.8125 178.242188 C 182.8125 175.664062 184.921875 173.554688 187.5 173.554688 C 190.078125 173.554688 192.1875 175.664062 192.1875 178.242188 L 192.1875 243.75 C 192.1875 246.328125 190.078125 248.4375 187.5 248.4375 C 184.921875 248.4375 182.8125 246.328125 182.8125 243.75 Z M 155.273438 173.554688 C 157.851562 173.203125 160.195312 175.078125 160.546875 177.65625 L 168.75 243.164062 C 169.101562 245.742188 167.226562 248.085938 164.648438 248.4375 C 164.414062 248.4375 164.296875 248.4375 164.0625 248.4375 C 161.71875 248.4375 159.726562 246.679688 159.375 244.335938 L 151.171875 178.828125 C 150.9375 176.25 152.695312 173.90625 155.273438 173.554688 Z M 155.273438 173.554688 "/></g><g clip-rule="nonzero" clip-path="url(#50ff85b55c)"><path style=" stroke:none;fill-rule:nonzero;fill:#ff3131;fill-opacity:1;" d="M 248.4375 130.898438 L 215.625 130.898438 L 215.625 117.1875 C 215.625 114.609375 213.515625 112.5 210.9375 112.5 L 164.0625 112.5 C 161.484375 112.5 159.375 114.609375 159.375 117.1875 L 159.375 130.898438 L 126.5625 130.898438 C 123.984375 130.898438 121.875 133.007812 121.875 135.585938 L 121.875 144.960938 C 121.875 147.539062 123.984375 149.648438 126.5625 149.648438 L 248.4375 149.648438 C 251.015625 149.648438 253.125 147.539062 253.125 144.960938 L 253.125 135.585938 C 253.125 133.007812 251.015625 130.898438 248.4375 130.898438 Z M 248.4375 130.898438 "/></g><g clip-rule="nonzero" clip-path="url(#cd9f344f07)"><path style=" stroke:none;fill-rule:nonzero;fill:#ff3131;fill-opacity:1;" d="M 142.5 258.398438 C 142.734375 260.742188 144.726562 262.5 147.1875 262.5 L 227.929688 262.5 C 230.273438 262.5 232.265625 260.742188 232.617188 258.398438 L 243.867188 159.492188 L 131.25 159.492188 Z M 206.25 243.164062 L 214.453125 177.65625 C 214.804688 175.078125 217.148438 173.320312 219.726562 173.554688 C 222.304688 173.90625 224.0625 176.25 223.828125 178.828125 L 215.625 244.335938 C 215.273438 246.679688 213.28125 248.4375 210.9375 248.4375 C 210.703125 248.4375 210.585938 248.4375 210.351562 248.4375 C 207.773438 248.085938 206.015625 245.742188 206.25 243.164062 Z M 182.8125 178.242188 C 182.8125 175.664062 184.921875 173.554688 187.5 173.554688 C 190.078125 173.554688 192.1875 175.664062 192.1875 178.242188 L 192.1875 243.75 C 192.1875 246.328125 190.078125 248.4375 187.5 248.4375 C 184.921875 248.4375 182.8125 246.328125 182.8125 243.75 Z M 155.273438 173.554688 C 157.851562 173.203125 160.195312 175.078125 160.546875 177.65625 L 168.75 243.164062 C 169.101562 245.742188 167.226562 248.085938 164.648438 248.4375 C 164.414062 248.4375 164.296875 248.4375 164.0625 248.4375 C 161.71875 248.4375 159.726562 246.679688 159.375 244.335938 L 151.171875 178.828125 C 150.9375 176.25 152.695312 173.90625 155.273438 173.554688 Z M 155.273438 173.554688 "/></g></g></svg>