<svg xmlns="http://www.w3.org/2000/svg" xmlns:xlink="http://www.w3.org/1999/xlink" width="500" zoomAndPan="magnify" viewBox="0 0 375 374.999991" height="500" preserveAspectRatio="xMidYMid meet" version="1.2"><defs><clipPath id="1dd98b4ddf"><path d="M 102.941406 90.863281 L 271.691406 90.863281 L 271.691406 139 L 102.941406 139 Z M 102.941406 90.863281 "/></clipPath></defs><g id="d88e9b4e6d"><path style=" stroke:none;fill-rule:nonzero;fill:#426d41;fill-opacity:1;" d="M 14.804688 114.429688 C 24.207031 92.128906 37.742188 72.050781 54.960938 54.898438 C 72.117188 37.679688 92.191406 24.144531 114.496094 14.742188 C 137.621094 4.957031 162.148438 0 187.5 0 C 212.851562 0 237.378906 4.957031 260.503906 14.742188 C 282.808594 24.144531 302.882812 37.679688 320.039062 54.898438 C 337.257812 72.117188 350.730469 92.128906 360.195312 114.496094 C 369.980469 137.621094 374.9375 162.148438 374.9375 187.5 C 374.9375 212.851562 369.980469 237.378906 360.195312 260.503906 C 350.792969 282.808594 337.257812 302.882812 320.039062 320.101562 C 302.820312 337.320312 282.804688 350.792969 260.441406 360.257812 C 237.3125 370.042969 212.789062 375 187.4375 375 C 162.085938 375 137.558594 370.042969 114.429688 360.257812 C 92.128906 350.855469 72.050781 337.320312 54.832031 320.101562 C 37.742188 302.820312 24.207031 282.742188 14.804688 260.441406 C 5.019531 237.3125 0.0625 212.789062 0.0625 187.4375 C 0.0625 162.085938 5.019531 137.558594 14.804688 114.429688 Z M 14.804688 114.429688 "/><g clip-rule="nonzero" clip-path="url(#1dd98b4ddf)"><path style=" stroke:none;fill-rule:nonzero;fill:#e4c57b;fill-opacity:1;" d="M 265.664062 114.515625 L 223.476562 114.515625 L 223.476562 96.890625 C 223.476562 93.574219 220.765625 90.863281 217.449219 90.863281 L 157.183594 90.863281 C 153.871094 90.863281 151.15625 93.574219 151.15625 96.890625 L 151.15625 114.515625 L 108.972656 114.515625 C 105.65625 114.515625 102.945312 117.230469 102.945312 120.542969 L 102.945312 132.597656 C 102.945312 135.910156 105.65625 138.621094 108.972656 138.621094 L 265.664062 138.621094 C 268.976562 138.621094 271.6875 135.910156 271.6875 132.597656 L 271.6875 120.542969 C 271.6875 117.230469 268.976562 114.515625 265.664062 114.515625 Z M 265.664062 114.515625 "/></g><path style=" stroke:none;fill-rule:nonzero;fill:#e4c57b;fill-opacity:1;" d="M 129.460938 278.441406 C 129.761719 281.453125 132.324219 283.710938 135.488281 283.710938 L 239.296875 283.710938 C 242.308594 283.710938 244.871094 281.453125 245.324219 278.441406 L 259.785156 151.277344 L 115 151.277344 Z M 211.421875 258.851562 L 221.96875 174.632812 C 222.421875 171.316406 225.433594 169.058594 228.75 169.359375 C 232.0625 169.808594 234.324219 172.824219 234.023438 176.136719 L 223.476562 260.359375 C 223.023438 263.375 220.464844 265.632812 217.449219 265.632812 C 217.148438 265.632812 216.996094 265.632812 216.695312 265.632812 C 213.382812 265.179688 211.121094 262.167969 211.421875 258.851562 Z M 181.289062 175.386719 C 181.289062 172.070312 184.003906 169.359375 187.316406 169.359375 C 190.632812 169.359375 193.34375 172.070312 193.34375 175.386719 L 193.34375 259.605469 C 193.34375 262.921875 190.632812 265.632812 187.316406 265.632812 C 184.003906 265.632812 181.289062 262.921875 181.289062 259.605469 Z M 145.882812 169.359375 C 149.199219 168.90625 152.210938 171.316406 152.664062 174.632812 L 163.210938 258.851562 C 163.664062 262.167969 161.253906 265.179688 157.9375 265.632812 C 157.636719 265.632812 157.484375 265.632812 157.183594 265.632812 C 154.171875 265.632812 151.609375 263.375 151.15625 260.359375 L 140.609375 176.136719 C 140.308594 172.824219 142.570312 169.808594 145.882812 169.359375 Z M 145.882812 169.359375 "/></g></svg>