<svg xmlns="http://www.w3.org/2000/svg" xmlns:xlink="http://www.w3.org/1999/xlink" width="500" zoomAndPan="magnify" viewBox="0 0 375 374.999991" height="500" preserveAspectRatio="xMidYMid meet" version="1.2"><defs><clipPath id="0ece7d1f21"><path d="M 0 35.15625 L 375 35.15625 L 375 339.65625 L 0 339.65625 Z M 0 35.15625 "/></clipPath><clipPath id="ea038a6c40"><path d="M 0 35.15625 L 375 35.15625 L 375 339.65625 L 0 339.65625 Z M 0 35.15625 "/></clipPath></defs><g id="08251b0ee9"><path style=" stroke:none;fill-rule:nonzero;fill:#6d8672;fill-opacity:1;" d="M 251.796875 210.828125 L 222.519531 210.828125 L 222.519531 146.414062 C 222.519531 142.902344 220.175781 140.558594 216.664062 140.558594 L 158.105469 140.558594 C 154.59375 140.558594 152.25 142.902344 152.25 146.414062 L 152.25 210.828125 L 122.972656 210.828125 C 120.628906 210.828125 118.871094 212 117.699219 214.34375 C 116.53125 216.683594 117.117188 219.027344 118.285156 220.785156 L 182.699219 297.496094 C 183.871094 298.664062 185.628906 299.835938 187.382812 299.835938 C 189.140625 299.835938 190.898438 299.25 192.070312 297.496094 L 256.484375 220.785156 C 257.652344 219.027344 258.238281 216.683594 257.066406 214.34375 C 255.898438 212 254.140625 210.828125 251.796875 210.828125 Z M 187.382812 284.027344 L 135.269531 222.539062 L 158.105469 222.539062 C 161.621094 222.539062 163.960938 220.199219 163.960938 216.683594 L 163.960938 152.273438 L 210.808594 152.273438 L 210.808594 216.683594 C 210.808594 220.199219 213.148438 222.539062 216.664062 222.539062 L 238.914062 222.539062 Z M 187.382812 284.027344 "/><g clip-rule="nonzero" clip-path="url(#0ece7d1f21)"><path style=" stroke:none;fill-rule:nonzero;fill:#6d8672;fill-opacity:1;" d="M 39.820312 339.65625 L 333.777344 339.65625 C 356.03125 339.65625 374.183594 321.503906 374.183594 299.25 L 374.769531 104.839844 C 374.769531 82.589844 356.617188 64.433594 334.363281 64.433594 L 195.582031 64.433594 L 168.0625 36.914062 C 166.890625 35.742188 165.71875 35.15625 163.960938 35.15625 L 39.820312 35.15625 C 18.152344 35.15625 0 53.308594 0 75.5625 L 0 299.25 C 0 321.503906 18.152344 339.65625 39.820312 339.65625 Z M 39.820312 46.867188 L 161.621094 46.867188 L 188.554688 73.804688 C 189.140625 74.976562 190.3125 75.5625 191.484375 75.5625 C 192.070312 76.148438 193.242188 76.148438 193.824219 76.148438 L 334.363281 76.148438 C 350.175781 76.148438 363.058594 89.03125 363.058594 104.839844 L 363.058594 106.011719 C 355.445312 98.398438 345.492188 93.714844 333.777344 93.714844 C 330.265625 93.714844 327.921875 96.054688 327.921875 99.570312 C 327.921875 103.082031 330.265625 105.425781 333.777344 105.425781 C 349.589844 105.425781 362.472656 118.308594 362.472656 134.117188 L 362.472656 299.25 C 362.472656 315.0625 349.589844 327.945312 333.777344 327.945312 L 39.820312 327.945312 C 24.59375 327.945312 11.710938 315.0625 11.710938 299.25 L 11.710938 135.875 C 11.710938 135.289062 12.296875 134.703125 12.296875 134.117188 C 12.296875 117.722656 24.59375 105.425781 40.40625 105.425781 L 292.789062 105.425781 C 296.300781 105.425781 298.644531 103.082031 298.644531 99.570312 C 298.644531 96.054688 296.300781 93.714844 292.789062 93.714844 L 39.820312 93.714844 C 28.691406 93.714844 18.738281 98.398438 11.710938 105.425781 L 11.710938 75.5625 C 11.710938 59.75 24.59375 46.867188 39.820312 46.867188 Z M 39.820312 46.867188 "/></g><path style=" stroke:none;fill-rule:nonzero;fill:#6d8672;fill-opacity:1;" d="M 251.796875 210.828125 L 222.519531 210.828125 L 222.519531 146.414062 C 222.519531 142.902344 220.175781 140.558594 216.664062 140.558594 L 158.105469 140.558594 C 154.59375 140.558594 152.25 142.902344 152.25 146.414062 L 152.25 210.828125 L 122.972656 210.828125 C 120.628906 210.828125 118.871094 212 117.699219 214.34375 C 116.53125 216.683594 117.117188 219.027344 118.285156 220.785156 L 182.699219 297.496094 C 183.871094 298.664062 185.628906 299.835938 187.382812 299.835938 C 189.140625 299.835938 190.898438 299.25 192.070312 297.496094 L 256.484375 220.785156 C 257.652344 219.027344 258.238281 216.683594 257.066406 214.34375 C 255.898438 212 254.140625 210.828125 251.796875 210.828125 Z M 187.382812 284.027344 L 135.269531 222.539062 L 158.105469 222.539062 C 161.621094 222.539062 163.960938 220.199219 163.960938 216.683594 L 163.960938 152.273438 L 210.808594 152.273438 L 210.808594 216.683594 C 210.808594 220.199219 213.148438 222.539062 216.664062 222.539062 L 238.914062 222.539062 Z M 187.382812 284.027344 "/><g clip-rule="nonzero" clip-path="url(#ea038a6c40)"><path style=" stroke:none;fill-rule:nonzero;fill:#6d8672;fill-opacity:1;" d="M 39.820312 339.65625 L 333.777344 339.65625 C 356.03125 339.65625 374.183594 321.503906 374.183594 299.25 L 374.769531 104.839844 C 374.769531 82.589844 356.617188 64.433594 334.363281 64.433594 L 195.582031 64.433594 L 168.0625 36.914062 C 166.890625 35.742188 165.71875 35.15625 163.960938 35.15625 L 39.820312 35.15625 C 18.152344 35.15625 0 53.308594 0 75.5625 L 0 299.25 C 0 321.503906 18.152344 339.65625 39.820312 339.65625 Z M 39.820312 46.867188 L 161.621094 46.867188 L 188.554688 73.804688 C 189.140625 74.976562 190.3125 75.5625 191.484375 75.5625 C 192.070312 76.148438 193.242188 76.148438 193.824219 76.148438 L 334.363281 76.148438 C 350.175781 76.148438 363.058594 89.03125 363.058594 104.839844 L 363.058594 106.011719 C 355.445312 98.398438 345.492188 93.714844 333.777344 93.714844 C 330.265625 93.714844 327.921875 96.054688 327.921875 99.570312 C 327.921875 103.082031 330.265625 105.425781 333.777344 105.425781 C 349.589844 105.425781 362.472656 118.308594 362.472656 134.117188 L 362.472656 299.25 C 362.472656 315.0625 349.589844 327.945312 333.777344 327.945312 L 39.820312 327.945312 C 24.59375 327.945312 11.710938 315.0625 11.710938 299.25 L 11.710938 135.875 C 11.710938 135.289062 12.296875 134.703125 12.296875 134.117188 C 12.296875 117.722656 24.59375 105.425781 40.40625 105.425781 L 292.789062 105.425781 C 296.300781 105.425781 298.644531 103.082031 298.644531 99.570312 C 298.644531 96.054688 296.300781 93.714844 292.789062 93.714844 L 39.820312 93.714844 C 28.691406 93.714844 18.738281 98.398438 11.710938 105.425781 L 11.710938 75.5625 C 11.710938 59.75 24.59375 46.867188 39.820312 46.867188 Z M 39.820312 46.867188 "/></g></g></svg>