<svg xmlns="http://www.w3.org/2000/svg" xmlns:xlink="http://www.w3.org/1999/xlink" width="500" zoomAndPan="magnify" viewBox="0 0 375 374.999991" height="500" preserveAspectRatio="xMidYMid meet" version="1.2"><defs><clipPath id="a0a7a6c621"><path d="M 103.21875 118 L 258 118 L 258 271.96875 L 103.21875 271.96875 Z M 103.21875 118 "/></clipPath><clipPath id="b128a7f248"><path d="M 103.21875 118 L 258 118 L 258 271.96875 L 103.21875 271.96875 Z M 103.21875 118 "/></clipPath></defs><g id="3275a5cd28"><g clip-rule="nonzero" clip-path="url(#a0a7a6c621)"><path style=" stroke:none;fill-rule:nonzero;fill:#6d8672;fill-opacity:1;" d="M 139.054688 118.09375 C 119.519531 118.09375 103.613281 134.027344 103.613281 153.535156 L 103.613281 236.234375 C 103.613281 255.773438 119.519531 271.679688 139.054688 271.679688 L 221.757812 271.679688 C 241.292969 271.679688 257.199219 255.773438 257.199219 236.234375 L 257.199219 200.792969 C 257.199219 197.53125 254.554688 194.886719 251.292969 194.886719 C 248.03125 194.886719 245.386719 197.53125 245.386719 200.792969 L 245.386719 236.234375 C 245.386719 249.433594 234.953125 259.863281 221.757812 259.863281 L 139.054688 259.863281 C 125.886719 259.863281 115.425781 249.433594 115.425781 236.234375 L 115.425781 153.535156 C 115.425781 140.367188 125.886719 129.90625 139.054688 129.90625 L 174.5 129.90625 C 177.761719 129.90625 180.40625 127.261719 180.40625 124 C 180.40625 120.738281 177.761719 118.09375 174.5 118.09375 Z M 139.054688 118.09375 "/></g><path style=" stroke:none;fill-rule:nonzero;fill:#6d8672;fill-opacity:1;" d="M 223.664062 114.03125 L 155.117188 182.578125 C 154.191406 183.5 153.609375 184.699219 153.453125 185.960938 L 148.964844 218.945312 C 148.441406 222.757812 151.640625 226.019531 155.484375 225.621094 L 189.175781 221.867188 C 190.527344 221.714844 191.757812 221.128906 192.710938 220.175781 L 261.261719 151.65625 C 271.597656 141.289062 271.597656 124.398438 261.261719 114.03125 C 251.109375 103.445312 233.601562 104.402344 223.664062 114.03125 Z M 252.890625 122.398438 C 258.738281 128.246094 258.738281 137.414062 252.890625 143.289062 L 246.617188 149.566406 L 225.757812 128.675781 L 232 122.398438 C 238.863281 115.539062 247.324219 116.832031 252.890625 122.398438 Z M 217.386719 137.011719 L 238.277344 157.902344 L 185.820312 210.359375 L 161.699219 213.035156 L 164.867188 189.53125 Z M 217.386719 137.011719 "/><g clip-rule="nonzero" clip-path="url(#b128a7f248)"><path style=" stroke:none;fill-rule:nonzero;fill:#6d8672;fill-opacity:1;" d="M 139.054688 118.09375 C 119.519531 118.09375 103.613281 134.027344 103.613281 153.535156 L 103.613281 236.234375 C 103.613281 255.773438 119.519531 271.679688 139.054688 271.679688 L 221.757812 271.679688 C 241.292969 271.679688 257.199219 255.773438 257.199219 236.234375 L 257.199219 200.792969 C 257.199219 197.53125 254.554688 194.886719 251.292969 194.886719 C 248.03125 194.886719 245.386719 197.53125 245.386719 200.792969 L 245.386719 236.234375 C 245.386719 249.433594 234.953125 259.863281 221.757812 259.863281 L 139.054688 259.863281 C 125.886719 259.863281 115.425781 249.433594 115.425781 236.234375 L 115.425781 153.535156 C 115.425781 140.367188 125.886719 129.90625 139.054688 129.90625 L 174.5 129.90625 C 177.761719 129.90625 180.40625 127.261719 180.40625 124 C 180.40625 120.738281 177.761719 118.09375 174.5 118.09375 Z M 139.054688 118.09375 "/></g><path style=" stroke:none;fill-rule:nonzero;fill:#6d8672;fill-opacity:1;" d="M 223.664062 114.03125 L 155.117188 182.578125 C 154.191406 183.5 153.609375 184.699219 153.453125 185.960938 L 148.964844 218.945312 C 148.441406 222.757812 151.640625 226.019531 155.484375 225.621094 L 189.175781 221.867188 C 190.527344 221.714844 191.757812 221.128906 192.710938 220.175781 L 261.261719 151.65625 C 271.597656 141.289062 271.597656 124.398438 261.261719 114.03125 C 251.109375 103.445312 233.601562 104.402344 223.664062 114.03125 Z M 252.890625 122.398438 C 258.738281 128.246094 258.738281 137.414062 252.890625 143.289062 L 246.617188 149.566406 L 225.757812 128.675781 L 232 122.398438 C 238.863281 115.539062 247.324219 116.832031 252.890625 122.398438 Z M 217.386719 137.011719 L 238.277344 157.902344 L 185.820312 210.359375 L 161.699219 213.035156 L 164.867188 189.53125 Z M 217.386719 137.011719 "/></g></svg>