<svg xmlns="http://www.w3.org/2000/svg" xmlns:xlink="http://www.w3.org/1999/xlink" width="500" zoomAndPan="magnify" viewBox="0 0 375 374.999991" height="500" preserveAspectRatio="xMidYMid meet" version="1.2"><defs><clipPath id="23e2ee41ed"><path d="M 103.21875 118 L 258 118 L 258 271.96875 L 103.21875 271.96875 Z M 103.21875 118 "/></clipPath></defs><g id="b4592c6350"><path style=" stroke:none;fill-rule:nonzero;fill:#426d41;fill-opacity:1;" d="M 14.804688 114.429688 C 24.207031 92.128906 37.742188 72.050781 54.960938 54.898438 C 72.117188 37.679688 92.191406 24.144531 114.496094 14.742188 C 137.621094 4.957031 162.148438 0 187.5 0 C 212.851562 0 237.378906 4.957031 260.503906 14.742188 C 282.808594 24.144531 302.882812 37.679688 320.039062 54.898438 C 337.257812 72.117188 350.730469 92.128906 360.195312 114.496094 C 369.980469 137.621094 374.9375 162.148438 374.9375 187.5 C 374.9375 212.851562 369.980469 237.378906 360.195312 260.503906 C 350.792969 282.808594 337.257812 302.882812 320.039062 320.101562 C 302.820312 337.320312 282.804688 350.792969 260.441406 360.257812 C 237.3125 370.042969 212.789062 375 187.4375 375 C 162.085938 375 137.558594 370.042969 114.429688 360.257812 C 92.128906 350.855469 72.050781 337.320312 54.832031 320.101562 C 37.742188 302.820312 24.207031 282.742188 14.804688 260.441406 C 5.019531 237.3125 0.0625 212.789062 0.0625 187.4375 C 0.0625 162.085938 5.019531 137.558594 14.804688 114.429688 Z M 14.804688 114.429688 "/><g clip-rule="nonzero" clip-path="url(#23e2ee41ed)"><path style=" stroke:none;fill-rule:nonzero;fill:#e4c57b;fill-opacity:1;" d="M 139.054688 118.09375 C 119.519531 118.09375 103.613281 134.027344 103.613281 153.535156 L 103.613281 236.234375 C 103.613281 255.773438 119.519531 271.679688 139.054688 271.679688 L 221.757812 271.679688 C 241.292969 271.679688 257.199219 255.773438 257.199219 236.234375 L 257.199219 200.792969 C 257.199219 197.53125 254.554688 194.886719 251.292969 194.886719 C 248.03125 194.886719 245.386719 197.53125 245.386719 200.792969 L 245.386719 236.234375 C 245.386719 249.433594 234.953125 259.863281 221.757812 259.863281 L 139.054688 259.863281 C 125.886719 259.863281 115.425781 249.433594 115.425781 236.234375 L 115.425781 153.535156 C 115.425781 140.367188 125.886719 129.90625 139.054688 129.90625 L 174.5 129.90625 C 177.761719 129.90625 180.40625 127.261719 180.40625 124 C 180.40625 120.738281 177.761719 118.09375 174.5 118.09375 Z M 139.054688 118.09375 "/></g><path style=" stroke:none;fill-rule:nonzero;fill:#e4c57b;fill-opacity:1;" d="M 223.664062 114.03125 L 155.117188 182.578125 C 154.191406 183.5 153.609375 184.699219 153.453125 185.960938 L 148.964844 218.945312 C 148.441406 222.757812 151.640625 226.019531 155.484375 225.621094 L 189.175781 221.867188 C 190.527344 221.714844 191.757812 221.128906 192.710938 220.175781 L 261.261719 151.65625 C 271.597656 141.289062 271.597656 124.398438 261.261719 114.03125 C 251.109375 103.445312 233.601562 104.402344 223.664062 114.03125 Z M 252.890625 122.398438 C 258.738281 128.246094 258.738281 137.414062 252.890625 143.289062 L 246.617188 149.566406 L 225.757812 128.675781 L 232 122.398438 C 238.863281 115.539062 247.324219 116.832031 252.890625 122.398438 Z M 217.386719 137.011719 L 238.277344 157.902344 L 185.820312 210.359375 L 161.699219 213.035156 L 164.867188 189.53125 Z M 217.386719 137.011719 "/></g></svg>