<svg xmlns="http://www.w3.org/2000/svg" xmlns:xlink="http://www.w3.org/1999/xlink" width="500" zoomAndPan="magnify" viewBox="0 0 375 374.999991" height="500" preserveAspectRatio="xMidYMid meet" version="1.2"><g id="be510ce96b"><path style=" stroke:none;fill-rule:nonzero;fill:#c66e4e;fill-opacity:1;" d="M 36.429688 0 L 338.570312 0 C 339.765625 0 340.953125 0.0585938 342.140625 0.175781 C 343.328125 0.292969 344.507812 0.46875 345.679688 0.699219 C 346.847656 0.933594 348.003906 1.222656 349.144531 1.570312 C 350.289062 1.914062 351.410156 2.316406 352.511719 2.773438 C 353.613281 3.230469 354.691406 3.738281 355.742188 4.300781 C 356.796875 4.863281 357.816406 5.476562 358.808594 6.140625 C 359.800781 6.800781 360.757812 7.511719 361.679688 8.269531 C 362.605469 9.027344 363.488281 9.824219 364.332031 10.667969 C 365.175781 11.511719 365.972656 12.394531 366.730469 13.320312 C 367.488281 14.242188 368.199219 15.199219 368.859375 16.191406 C 369.523438 17.183594 370.136719 18.203125 370.699219 19.257812 C 371.261719 20.308594 371.769531 21.386719 372.226562 22.488281 C 372.683594 23.589844 373.085938 24.710938 373.429688 25.855469 C 373.777344 26.996094 374.066406 28.152344 374.300781 29.320312 C 374.53125 30.492188 374.707031 31.671875 374.824219 32.859375 C 374.941406 34.046875 375 35.234375 375 36.429688 L 375 338.570312 C 375 339.765625 374.941406 340.953125 374.824219 342.140625 C 374.707031 343.328125 374.53125 344.507812 374.300781 345.679688 C 374.066406 346.847656 373.777344 348.003906 373.429688 349.144531 C 373.085938 350.289062 372.683594 351.410156 372.226562 352.511719 C 371.769531 353.613281 371.261719 354.691406 370.699219 355.742188 C 370.136719 356.796875 369.523438 357.816406 368.859375 358.808594 C 368.199219 359.800781 367.488281 360.757812 366.730469 361.679688 C 365.972656 362.605469 365.175781 363.488281 364.332031 364.332031 C 363.488281 365.175781 362.605469 365.972656 361.679688 366.730469 C 360.757812 367.488281 359.800781 368.199219 358.808594 368.859375 C 357.816406 369.523438 356.796875 370.136719 355.742188 370.699219 C 354.691406 371.261719 353.613281 371.769531 352.511719 372.226562 C 351.410156 372.683594 350.289062 373.085938 349.144531 373.429688 C 348.003906 373.777344 346.847656 374.066406 345.679688 374.300781 C 344.507812 374.53125 343.328125 374.707031 342.140625 374.824219 C 340.953125 374.941406 339.765625 375 338.570312 375 L 36.429688 375 C 35.234375 375 34.046875 374.941406 32.859375 374.824219 C 31.671875 374.707031 30.492188 374.53125 29.320312 374.300781 C 28.152344 374.066406 26.996094 373.777344 25.855469 373.429688 C 24.710938 373.085938 23.589844 372.683594 22.488281 372.226562 C 21.386719 371.769531 20.308594 371.261719 19.257812 370.699219 C 18.203125 370.136719 17.183594 369.523438 16.191406 368.859375 C 15.199219 368.199219 14.242188 367.488281 13.320312 366.730469 C 12.394531 365.972656 11.511719 365.175781 10.667969 364.332031 C 9.824219 363.488281 9.027344 362.605469 8.269531 361.679688 C 7.511719 360.757812 6.800781 359.800781 6.140625 358.808594 C 5.476562 357.816406 4.863281 356.796875 4.300781 355.742188 C 3.738281 354.691406 3.230469 353.613281 2.773438 352.511719 C 2.316406 351.410156 1.914062 350.289062 1.570312 349.144531 C 1.222656 348.003906 0.933594 346.847656 0.699219 345.679688 C 0.46875 344.507812 0.292969 343.328125 0.175781 342.140625 C 0.0585938 340.953125 0 339.765625 0 338.570312 L 0 36.429688 C 0 35.234375 0.0585938 34.046875 0.175781 32.859375 C 0.292969 31.671875 0.46875 30.492188 0.699219 29.320312 C 0.933594 28.152344 1.222656 26.996094 1.570312 25.855469 C 1.914062 24.710938 2.316406 23.589844 2.773438 22.488281 C 3.230469 21.386719 3.738281 20.308594 4.300781 19.257812 C 4.863281 18.203125 5.476562 17.183594 6.140625 16.191406 C 6.800781 15.199219 7.511719 14.242188 8.269531 13.320312 C 9.027344 12.394531 9.824219 11.511719 10.667969 10.667969 C 11.511719 9.824219 12.394531 9.027344 13.320312 8.269531 C 14.242188 7.511719 15.199219 6.800781 16.191406 6.140625 C 17.183594 5.476562 18.203125 4.863281 19.257812 4.300781 C 20.308594 3.738281 21.386719 3.230469 22.488281 2.773438 C 23.589844 2.316406 24.710938 1.914062 25.855469 1.570312 C 26.996094 1.222656 28.152344 0.933594 29.320312 0.699219 C 30.492188 0.46875 31.671875 0.292969 32.859375 0.175781 C 34.046875 0.0585938 35.234375 0 36.429688 0 Z M 36.429688 0 "/><path style=" stroke:none;fill-rule:nonzero;fill:#ffffff;fill-opacity:1;" d="M 180.9375 85.714844 C 180.132812 85.511719 179.332031 85.511719 178.527344 85.714844 L 119.597656 116.117188 C 119.035156 116.390625 118.535156 116.757812 118.101562 117.214844 C 117.671875 117.667969 117.332031 118.1875 117.085938 118.765625 C 116.839844 119.34375 116.703125 119.945312 116.671875 120.574219 C 116.644531 121.199219 116.726562 121.8125 116.917969 122.410156 L 127.902344 161.117188 C 128.101562 161.875 128.457031 162.550781 128.976562 163.140625 C 129.496094 163.730469 130.121094 164.171875 130.847656 164.464844 C 131.554688 164.765625 132.289062 164.917969 133.058594 164.917969 C 133.824219 164.917969 134.5625 164.765625 135.269531 164.464844 L 168.480469 149.195312 L 168.480469 283.125 C 168.480469 283.476562 168.515625 283.824219 168.585938 284.171875 C 168.652344 284.515625 168.753906 284.851562 168.890625 285.175781 C 169.023438 285.5 169.191406 285.808594 169.386719 286.101562 C 169.582031 286.394531 169.800781 286.664062 170.050781 286.914062 C 170.300781 287.160156 170.570312 287.382812 170.863281 287.578125 C 171.15625 287.773438 171.464844 287.941406 171.789062 288.074219 C 172.113281 288.207031 172.449219 288.308594 172.792969 288.378906 C 173.140625 288.449219 173.488281 288.480469 173.839844 288.480469 L 220.042969 288.480469 C 220.394531 288.480469 220.746094 288.449219 221.089844 288.378906 C 221.433594 288.308594 221.769531 288.207031 222.09375 288.074219 C 222.417969 287.941406 222.726562 287.773438 223.019531 287.578125 C 223.3125 287.382812 223.582031 287.160156 223.832031 286.914062 C 224.082031 286.664062 224.304688 286.394531 224.5 286.101562 C 224.695312 285.808594 224.859375 285.5 224.992188 285.175781 C 225.128906 284.851562 225.230469 284.515625 225.300781 284.171875 C 225.367188 283.824219 225.402344 283.476562 225.402344 283.125 L 225.402344 91.070312 C 225.402344 90.71875 225.367188 90.371094 225.300781 90.027344 C 225.230469 89.679688 225.128906 89.347656 224.992188 89.019531 C 224.859375 88.695312 224.695312 88.386719 224.5 88.09375 C 224.304688 87.800781 224.082031 87.53125 223.832031 87.285156 C 223.582031 87.035156 223.3125 86.8125 223.019531 86.617188 C 222.726562 86.421875 222.417969 86.257812 222.09375 86.121094 C 221.769531 85.988281 221.433594 85.886719 221.089844 85.816406 C 220.746094 85.75 220.394531 85.714844 220.042969 85.714844 Z M 180.9375 85.714844 "/><path style=" stroke:none;fill-rule:nonzero;fill:#c66e4e;fill-opacity:1;" d="M 36.429688 0 L 338.570312 0 C 339.765625 0 340.953125 0.0585938 342.140625 0.175781 C 343.328125 0.292969 344.507812 0.46875 345.679688 0.699219 C 346.847656 0.933594 348.003906 1.222656 349.144531 1.570312 C 350.289062 1.914062 351.410156 2.316406 352.511719 2.773438 C 353.613281 3.230469 354.691406 3.738281 355.742188 4.300781 C 356.796875 4.863281 357.816406 5.476562 358.808594 6.140625 C 359.800781 6.800781 360.757812 7.511719 361.679688 8.269531 C 362.605469 9.027344 363.488281 9.824219 364.332031 10.667969 C 365.175781 11.511719 365.972656 12.394531 366.730469 13.320312 C 367.488281 14.242188 368.199219 15.199219 368.859375 16.191406 C 369.523438 17.183594 370.136719 18.203125 370.699219 19.257812 C 371.261719 20.308594 371.769531 21.386719 372.226562 22.488281 C 372.683594 23.589844 373.085938 24.710938 373.429688 25.855469 C 373.777344 26.996094 374.066406 28.152344 374.300781 29.320312 C 374.53125 30.492188 374.707031 31.671875 374.824219 32.859375 C 374.941406 34.046875 375 35.234375 375 36.429688 L 375 338.570312 C 375 339.765625 374.941406 340.953125 374.824219 342.140625 C 374.707031 343.328125 374.53125 344.507812 374.300781 345.679688 C 374.066406 346.847656 373.777344 348.003906 373.429688 349.144531 C 373.085938 350.289062 372.683594 351.410156 372.226562 352.511719 C 371.769531 353.613281 371.261719 354.691406 370.699219 355.742188 C 370.136719 356.796875 369.523438 357.816406 368.859375 358.808594 C 368.199219 359.800781 367.488281 360.757812 366.730469 361.679688 C 365.972656 362.605469 365.175781 363.488281 364.332031 364.332031 C 363.488281 365.175781 362.605469 365.972656 361.679688 366.730469 C 360.757812 367.488281 359.800781 368.199219 358.808594 368.859375 C 357.816406 369.523438 356.796875 370.136719 355.742188 370.699219 C 354.691406 371.261719 353.613281 371.769531 352.511719 372.226562 C 351.410156 372.683594 350.289062 373.085938 349.144531 373.429688 C 348.003906 373.777344 346.847656 374.066406 345.679688 374.300781 C 344.507812 374.53125 343.328125 374.707031 342.140625 374.824219 C 340.953125 374.941406 339.765625 375 338.570312 375 L 36.429688 375 C 35.234375 375 34.046875 374.941406 32.859375 374.824219 C 31.671875 374.707031 30.492188 374.53125 29.320312 374.300781 C 28.152344 374.066406 26.996094 373.777344 25.855469 373.429688 C 24.710938 373.085938 23.589844 372.683594 22.488281 372.226562 C 21.386719 371.769531 20.308594 371.261719 19.257812 370.699219 C 18.203125 370.136719 17.183594 369.523438 16.191406 368.859375 C 15.199219 368.199219 14.242188 367.488281 13.320312 366.730469 C 12.394531 365.972656 11.511719 365.175781 10.667969 364.332031 C 9.824219 363.488281 9.027344 362.605469 8.269531 361.679688 C 7.511719 360.757812 6.800781 359.800781 6.140625 358.808594 C 5.476562 357.816406 4.863281 356.796875 4.300781 355.742188 C 3.738281 354.691406 3.230469 353.613281 2.773438 352.511719 C 2.316406 351.410156 1.914062 350.289062 1.570312 349.144531 C 1.222656 348.003906 0.933594 346.847656 0.699219 345.679688 C 0.46875 344.507812 0.292969 343.328125 0.175781 342.140625 C 0.0585938 340.953125 0 339.765625 0 338.570312 L 0 36.429688 C 0 35.234375 0.0585938 34.046875 0.175781 32.859375 C 0.292969 31.671875 0.46875 30.492188 0.699219 29.320312 C 0.933594 28.152344 1.222656 26.996094 1.570312 25.855469 C 1.914062 24.710938 2.316406 23.589844 2.773438 22.488281 C 3.230469 21.386719 3.738281 20.308594 4.300781 19.257812 C 4.863281 18.203125 5.476562 17.183594 6.140625 16.191406 C 6.800781 15.199219 7.511719 14.242188 8.269531 13.320312 C 9.027344 12.394531 9.824219 11.511719 10.667969 10.667969 C 11.511719 9.824219 12.394531 9.027344 13.320312 8.269531 C 14.242188 7.511719 15.199219 6.800781 16.191406 6.140625 C 17.183594 5.476562 18.203125 4.863281 19.257812 4.300781 C 20.308594 3.738281 21.386719 3.230469 22.488281 2.773438 C 23.589844 2.316406 24.710938 1.914062 25.855469 1.570312 C 26.996094 1.222656 28.152344 0.933594 29.320312 0.699219 C 30.492188 0.46875 31.671875 0.292969 32.859375 0.175781 C 34.046875 0.0585938 35.234375 0 36.429688 0 Z M 36.429688 0 "/><path style=" stroke:none;fill-rule:nonzero;fill:#ffffff;fill-opacity:1;" d="M 180.9375 85.714844 C 180.132812 85.511719 179.332031 85.511719 178.527344 85.714844 L 119.597656 116.117188 C 119.035156 116.390625 118.535156 116.757812 118.101562 117.214844 C 117.671875 117.667969 117.332031 118.1875 117.085938 118.765625 C 116.839844 119.34375 116.703125 119.945312 116.671875 120.574219 C 116.644531 121.199219 116.726562 121.8125 116.917969 122.410156 L 127.902344 161.117188 C 128.101562 161.875 128.457031 162.550781 128.976562 163.140625 C 129.496094 163.730469 130.121094 164.171875 130.847656 164.464844 C 131.554688 164.765625 132.289062 164.917969 133.058594 164.917969 C 133.824219 164.917969 134.5625 164.765625 135.269531 164.464844 L 168.480469 149.195312 L 168.480469 283.125 C 168.480469 283.476562 168.515625 283.824219 168.585938 284.171875 C 168.652344 284.515625 168.753906 284.851562 168.890625 285.175781 C 169.023438 285.5 169.191406 285.808594 169.386719 286.101562 C 169.582031 286.394531 169.800781 286.664062 170.050781 286.914062 C 170.300781 287.160156 170.570312 287.382812 170.863281 287.578125 C 171.15625 287.773438 171.464844 287.941406 171.789062 288.074219 C 172.113281 288.207031 172.449219 288.308594 172.792969 288.378906 C 173.140625 288.449219 173.488281 288.480469 173.839844 288.480469 L 220.042969 288.480469 C 220.394531 288.480469 220.746094 288.449219 221.089844 288.378906 C 221.433594 288.308594 221.769531 288.207031 222.09375 288.074219 C 222.417969 287.941406 222.726562 287.773438 223.019531 287.578125 C 223.3125 287.382812 223.582031 287.160156 223.832031 286.914062 C 224.082031 286.664062 224.304688 286.394531 224.5 286.101562 C 224.695312 285.808594 224.859375 285.5 224.992188 285.175781 C 225.128906 284.851562 225.230469 284.515625 225.300781 284.171875 C 225.367188 283.824219 225.402344 283.476562 225.402344 283.125 L 225.402344 91.070312 C 225.402344 90.71875 225.367188 90.371094 225.300781 90.027344 C 225.230469 89.679688 225.128906 89.347656 224.992188 89.019531 C 224.859375 88.695312 224.695312 88.386719 224.5 88.09375 C 224.304688 87.800781 224.082031 87.53125 223.832031 87.285156 C 223.582031 87.035156 223.3125 86.8125 223.019531 86.617188 C 222.726562 86.421875 222.417969 86.257812 222.09375 86.121094 C 221.769531 85.988281 221.433594 85.886719 221.089844 85.816406 C 220.746094 85.75 220.394531 85.714844 220.042969 85.714844 Z M 180.9375 85.714844 "/></g></svg>