<svg xmlns="http://www.w3.org/2000/svg" xmlns:xlink="http://www.w3.org/1999/xlink" width="500" zoomAndPan="magnify" viewBox="0 0 375 374.999991" height="500" preserveAspectRatio="xMidYMid meet" version="1.2"><g id="ade92278fb"><path style=" stroke:none;fill-rule:evenodd;fill:#50914f;fill-opacity:1;" d="M 375 187.5 C 375 291.050781 291.050781 375 187.5 375 C 83.945312 375 0 291.050781 0 187.5 C 0 83.945312 83.945312 0 187.5 0 C 291.050781 0 375 83.945312 375 187.5 Z M 206.25 112.5 C 206.25 122.855469 197.855469 131.25 187.5 131.25 C 177.144531 131.25 168.75 122.855469 168.75 112.5 C 168.75 102.144531 177.144531 93.75 187.5 93.75 C 197.855469 93.75 206.25 102.144531 206.25 112.5 Z M 187.5 150 C 177.144531 150 168.75 158.394531 168.75 168.75 L 168.75 262.5 C 168.75 272.855469 177.144531 281.25 187.5 281.25 C 197.855469 281.25 206.25 272.855469 206.25 262.5 L 206.25 168.75 C 206.25 158.394531 197.855469 150 187.5 150 Z M 187.5 150 "/><path style=" stroke:none;fill-rule:evenodd;fill:#50914f;fill-opacity:1;" d="M 187.5 375 C 291.050781 375 375 291.050781 375 187.5 C 375 83.945312 291.050781 0 187.5 0 C 83.945312 0 0 83.945312 0 187.5 C 0 291.050781 83.945312 375 187.5 375 Z M 187.5 131.25 C 197.855469 131.25 206.25 122.855469 206.25 112.5 C 206.25 102.144531 197.855469 93.75 187.5 93.75 C 177.144531 93.75 168.75 102.144531 168.75 112.5 C 168.75 122.855469 177.144531 131.25 187.5 131.25 Z M 168.75 168.75 C 168.75 158.394531 177.144531 150 187.5 150 C 197.855469 150 206.25 158.394531 206.25 168.75 L 206.25 262.5 C 206.25 272.855469 197.855469 281.25 187.5 281.25 C 177.144531 281.25 168.75 272.855469 168.75 262.5 Z M 168.75 168.75 "/><path style=" stroke:none;fill-rule:evenodd;fill:#426d41;fill-opacity:1;" d="M 375 187.5 C 375 291.050781 291.050781 375 187.5 375 C 83.945312 375 0 291.050781 0 187.5 C 0 83.945312 83.945312 0 187.5 0 C 291.050781 0 375 83.945312 375 187.5 Z M 206.25 112.5 C 206.25 122.855469 197.855469 131.25 187.5 131.25 C 177.144531 131.25 168.75 122.855469 168.75 112.5 C 168.75 102.144531 177.144531 93.75 187.5 93.75 C 197.855469 93.75 206.25 102.144531 206.25 112.5 Z M 187.5 150 C 177.144531 150 168.75 158.394531 168.75 168.75 L 168.75 262.5 C 168.75 272.855469 177.144531 281.25 187.5 281.25 C 197.855469 281.25 206.25 272.855469 206.25 262.5 L 206.25 168.75 C 206.25 158.394531 197.855469 150 187.5 150 Z M 187.5 150 "/><path style=" stroke:none;fill-rule:evenodd;fill:#426d41;fill-opacity:1;" d="M 187.5 375 C 291.050781 375 375 291.050781 375 187.5 C 375 83.945312 291.050781 0 187.5 0 C 83.945312 0 0 83.945312 0 187.5 C 0 291.050781 83.945312 375 187.5 375 Z M 187.5 131.25 C 197.855469 131.25 206.25 122.855469 206.25 112.5 C 206.25 102.144531 197.855469 93.75 187.5 93.75 C 177.144531 93.75 168.75 102.144531 168.75 112.5 C 168.75 122.855469 177.144531 131.25 187.5 131.25 Z M 168.75 168.75 C 168.75 158.394531 177.144531 150 187.5 150 C 197.855469 150 206.25 158.394531 206.25 168.75 L 206.25 262.5 C 206.25 272.855469 197.855469 281.25 187.5 281.25 C 177.144531 281.25 168.75 272.855469 168.75 262.5 Z M 168.75 168.75 "/></g></svg>