<svg xmlns="http://www.w3.org/2000/svg" xmlns:xlink="http://www.w3.org/1999/xlink" width="400" zoomAndPan="magnify" viewBox="0 0 300 701.249978" height="935" preserveAspectRatio="xMidYMid meet" version="1.2"><defs><clipPath id="6a54268e1a"><path d="M 113.753906 317.378906 L 186.238281 317.378906 L 186.238281 389.863281 L 113.753906 389.863281 Z M 113.753906 317.378906 "/></clipPath><clipPath id="371b9e60e5"><path d="M 149.996094 317.378906 C 129.980469 317.378906 113.753906 333.601562 113.753906 353.621094 C 113.753906 373.636719 129.980469 389.863281 149.996094 389.863281 C 170.015625 389.863281 186.238281 373.636719 186.238281 353.621094 C 186.238281 333.601562 170.015625 317.378906 149.996094 317.378906 Z M 149.996094 317.378906 "/></clipPath><clipPath id="67b6b3c13c"><path d="M 0.160156 238.773438 L 299.839844 238.773438 L 299.839844 452.292969 L 0.160156 452.292969 Z M 0.160156 238.773438 "/></clipPath><clipPath id="efe43af69d"><path d="M 131.308594 0 L 165.023438 0 L 165.023438 33.714844 L 131.308594 33.714844 Z M 131.308594 0 "/></clipPath><clipPath id="4cb9957ee6"><path d="M 148.167969 0 C 138.859375 0 131.308594 7.546875 131.308594 16.855469 C 131.308594 26.167969 138.859375 33.714844 148.167969 33.714844 C 157.476562 33.714844 165.023438 26.167969 165.023438 16.855469 C 165.023438 7.546875 157.476562 0 148.167969 0 Z M 148.167969 0 "/></clipPath><clipPath id="0982c277ff"><path d="M 133.226562 657.65625 L 166.765625 657.65625 L 166.765625 691.195312 L 133.226562 691.195312 Z M 133.226562 657.65625 "/></clipPath><clipPath id="e5db5e04e2"><path d="M 149.996094 657.65625 C 140.734375 657.65625 133.226562 665.164062 133.226562 674.425781 C 133.226562 683.6875 140.734375 691.195312 149.996094 691.195312 C 159.257812 691.195312 166.765625 683.6875 166.765625 674.425781 C 166.765625 665.164062 159.257812 657.65625 149.996094 657.65625 Z M 149.996094 657.65625 "/></clipPath><clipPath id="13b97793db"><path d="M 0.160156 31.839844 L 299.839844 31.839844 L 299.839844 245.363281 L 0.160156 245.363281 Z M 0.160156 31.839844 "/></clipPath><clipPath id="c1174d493a"><path d="M 0.160156 445.089844 L 299.839844 445.089844 L 299.839844 658.613281 L 0.160156 658.613281 Z M 0.160156 445.089844 "/></clipPath></defs><g id="7c40fb0067"><g clip-rule="nonzero" clip-path="url(#6a54268e1a)"><g clip-rule="nonzero" clip-path="url(#371b9e60e5)"><path style="fill:none;stroke-width:14;stroke-linecap:butt;stroke-linejoin:miter;stroke:#315d6a;stroke-opacity:1;stroke-miterlimit:4;" d="M 48.372842 0.00254418 C 21.656798 0.00254418 -0.00176003 21.655888 -0.00176003 48.377147 C -0.00176003 75.093191 21.656798 96.751749 48.372842 96.751749 C 75.094101 96.751749 96.747445 75.093191 96.747445 48.377147 C 96.747445 21.655888 75.094101 0.00254418 48.372842 0.00254418 Z M 48.372842 0.00254418 " transform="matrix(0.749199,0,0,0.749199,113.755225,317.377)"/></g></g><g clip-rule="nonzero" clip-path="url(#67b6b3c13c)"><path style="fill:none;stroke-width:18;stroke-linecap:butt;stroke-linejoin:miter;stroke:#315d6a;stroke-opacity:1;stroke-miterlimit:4;" d="M -0.000139964 0.00158669 L 400.000157 0.00158669 L 400.000157 284.9988 L -0.000139964 284.9988 Z M -0.000139964 0.00158669 " transform="matrix(0.749199,0,0,0.749199,0.160261,238.772249)"/></g><path style="fill:none;stroke-width:4;stroke-linecap:butt;stroke-linejoin:miter;stroke:#315d6a;stroke-opacity:1;stroke-miterlimit:4;" d="M -0.000114477 2.001195 L 96.12332 2.001195 " transform="matrix(0,0.748346,-0.748346,0,151.49368,245.367273)"/><path style="fill:none;stroke-width:4;stroke-linecap:butt;stroke-linejoin:miter;stroke:#315d6a;stroke-opacity:1;stroke-miterlimit:4;" d="M -0.000403797 2.001014 L 83.327935 2.001014 " transform="matrix(0,0.746388,-0.746388,0,151.493534,389.871395)"/><g clip-rule="nonzero" clip-path="url(#efe43af69d)"><g clip-rule="nonzero" clip-path="url(#4cb9957ee6)"><path style="fill:none;stroke-width:14;stroke-linecap:butt;stroke-linejoin:miter;stroke:#315d6a;stroke-opacity:1;stroke-miterlimit:4;" d="M 22.555589 0 C 10.100656 0 -0.00231732 10.097747 -0.00231732 22.55268 C -0.00231732 35.012839 10.100656 45.110586 22.555589 45.110586 C 35.010522 45.110586 45.108269 35.012839 45.108269 22.55268 C 45.108269 10.097747 35.010522 0 22.555589 0 Z M 22.555589 0 " transform="matrix(0.747382,0,0,0.747382,131.310326,0)"/></g></g><g clip-rule="nonzero" clip-path="url(#0982c277ff)"><g clip-rule="nonzero" clip-path="url(#e5db5e04e2)"><path style="fill:none;stroke-width:14;stroke-linecap:butt;stroke-linejoin:miter;stroke:#315d6a;stroke-opacity:1;stroke-miterlimit:4;" d="M 22.381962 0.0000983394 C 10.019796 0.0000983394 -0.00132798 10.021222 -0.00132798 22.383389 C -0.00132798 34.745555 10.019796 44.766679 22.381962 44.766679 C 34.744129 44.766679 44.765253 34.745555 44.765253 22.383389 C 44.765253 10.021222 34.744129 0.0000983394 22.381962 0.0000983394 Z M 22.381962 0.0000983394 " transform="matrix(0.749199,0,0,0.749199,133.227557,657.656176)"/></g></g><g clip-rule="nonzero" clip-path="url(#13b97793db)"><path style="fill:none;stroke-width:18;stroke-linecap:butt;stroke-linejoin:miter;stroke:#315d6a;stroke-opacity:1;stroke-miterlimit:4;" d="M -0.000139964 -0.00146748 L 400.000157 -0.00146748 L 400.000157 285.00096 L -0.000139964 285.00096 Z M -0.000139964 -0.00146748 " transform="matrix(0.749199,0,0,0.749199,0.160261,31.840943)"/></g><g style="fill:#315d6a;fill-opacity:1;"><g transform="translate(22.158079, 133.763466)"><path style="stroke:none" d="M 24.84375 -71 L 24.84375 -47.890625 L 54 -47.890625 L 54 -35.96875 L 24.84375 -35.96875 L 24.84375 -12.390625 L 61.84375 -12.390625 L 61.84375 0 L 9.28125 0 L 9.28125 -83.34375 L 61.84375 -83.34375 L 61.84375 -71 Z M 24.84375 -71 "/></g></g><g style="fill:#315d6a;fill-opacity:1;"><g transform="translate(88.438943, 133.763466)"><path style="stroke:none" d="M 58.09375 -12.796875 L 58.09375 0 L 9.28125 0 L 9.28125 -83.34375 L 24.78125 -83.34375 L 24.78125 -12.796875 Z M 58.09375 -12.796875 "/></g></g><g style="fill:#315d6a;fill-opacity:1;"><g transform="translate(148.322261, 133.763466)"><path style="stroke:none" d="M 53.65625 -68.1875 C 53.195312 -67.375 52.707031 -66.785156 52.1875 -66.421875 C 51.664062 -66.054688 51.019531 -65.875 50.25 -65.875 C 49.445312 -65.875 48.570312 -66.171875 47.625 -66.765625 C 46.6875 -67.359375 45.5625 -68.019531 44.25 -68.75 C 42.945312 -69.476562 41.421875 -70.140625 39.671875 -70.734375 C 37.929688 -71.335938 35.867188 -71.640625 33.484375 -71.640625 C 31.328125 -71.640625 29.441406 -71.378906 27.828125 -70.859375 C 26.222656 -70.335938 24.867188 -69.613281 23.765625 -68.6875 C 22.671875 -67.769531 21.851562 -66.664062 21.3125 -65.375 C 20.78125 -64.09375 20.515625 -62.6875 20.515625 -61.15625 C 20.515625 -59.1875 21.0625 -57.550781 22.15625 -56.25 C 23.25 -54.945312 24.695312 -53.832031 26.5 -52.90625 C 28.3125 -51.988281 30.367188 -51.160156 32.671875 -50.421875 C 34.984375 -49.691406 37.347656 -48.914062 39.765625 -48.09375 C 42.179688 -47.269531 44.539062 -46.3125 46.84375 -45.21875 C 49.15625 -44.125 51.210938 -42.738281 53.015625 -41.0625 C 54.828125 -39.394531 56.28125 -37.347656 57.375 -34.921875 C 58.46875 -32.503906 59.015625 -29.566406 59.015625 -26.109375 C 59.015625 -22.335938 58.367188 -18.8125 57.078125 -15.53125 C 55.796875 -12.25 53.914062 -9.382812 51.4375 -6.9375 C 48.957031 -4.5 45.929688 -2.578125 42.359375 -1.171875 C 38.785156 0.222656 34.691406 0.921875 30.078125 0.921875 C 27.429688 0.921875 24.820312 0.660156 22.25 0.140625 C 19.675781 -0.378906 17.207031 -1.117188 14.84375 -2.078125 C 12.476562 -3.035156 10.257812 -4.1875 8.1875 -5.53125 C 6.113281 -6.875 4.269531 -8.375 2.65625 -10.03125 L 7.203125 -17.46875 C 7.585938 -18 8.085938 -18.445312 8.703125 -18.8125 C 9.316406 -19.175781 9.96875 -19.359375 10.65625 -19.359375 C 11.625 -19.359375 12.664062 -18.960938 13.78125 -18.171875 C 14.894531 -17.390625 16.21875 -16.519531 17.75 -15.5625 C 19.289062 -14.601562 21.085938 -13.726562 23.140625 -12.9375 C 25.191406 -12.144531 27.660156 -11.75 30.546875 -11.75 C 34.960938 -11.75 38.378906 -12.796875 40.796875 -14.890625 C 43.222656 -16.992188 44.4375 -20.003906 44.4375 -23.921875 C 44.4375 -26.109375 43.890625 -27.894531 42.796875 -29.28125 C 41.703125 -30.664062 40.25 -31.828125 38.4375 -32.765625 C 36.632812 -33.703125 34.578125 -34.5 32.265625 -35.15625 C 29.960938 -35.8125 27.617188 -36.519531 25.234375 -37.28125 C 22.859375 -38.050781 20.515625 -38.972656 18.203125 -40.046875 C 15.898438 -41.128906 13.847656 -42.535156 12.046875 -44.265625 C 10.242188 -45.992188 8.789062 -48.15625 7.6875 -50.75 C 6.59375 -53.34375 6.046875 -56.539062 6.046875 -60.34375 C 6.046875 -63.375 6.648438 -66.332031 7.859375 -69.21875 C 9.078125 -72.101562 10.835938 -74.65625 13.140625 -76.875 C 15.441406 -79.101562 18.28125 -80.890625 21.65625 -82.234375 C 25.039062 -83.585938 28.925781 -84.265625 33.3125 -84.265625 C 38.226562 -84.265625 42.757812 -83.492188 46.90625 -81.953125 C 51.0625 -80.421875 54.597656 -78.269531 57.515625 -75.5 Z M 53.65625 -68.1875 "/></g></g><g style="fill:#315d6a;fill-opacity:1;"><g transform="translate(211.548439, 133.763466)"><path style="stroke:none" d="M 24.84375 -71 L 24.84375 -47.890625 L 54 -47.890625 L 54 -35.96875 L 24.84375 -35.96875 L 24.84375 -12.390625 L 61.84375 -12.390625 L 61.84375 0 L 9.28125 0 L 9.28125 -83.34375 L 61.84375 -83.34375 L 61.84375 -71 Z M 24.84375 -71 "/></g></g><g style="fill:#315d6a;fill-opacity:1;"><g transform="translate(100.273746, 228.911696)"><path style="stroke:none" d="M 24.84375 0 L 9.28125 0 L 9.28125 -83.34375 L 24.84375 -83.34375 Z M 24.84375 0 "/></g></g><g style="fill:#315d6a;fill-opacity:1;"><g transform="translate(134.451614, 228.911696)"><path style="stroke:none" d="M 24.84375 -71 L 24.84375 -46.34375 L 56.078125 -46.34375 L 56.078125 -33.953125 L 24.84375 -33.953125 L 24.84375 0 L 9.28125 0 L 9.28125 -83.34375 L 61.84375 -83.34375 L 61.84375 -71 Z M 24.84375 -71 "/></g></g><g clip-rule="nonzero" clip-path="url(#c1174d493a)"><path style="fill:none;stroke-width:18;stroke-linecap:butt;stroke-linejoin:miter;stroke:#315d6a;stroke-opacity:1;stroke-miterlimit:4;" d="M -0.000139964 -0.0000263837 L 400.000157 -0.0000263837 L 400.000157 285.002401 L -0.000139964 285.002401 Z M -0.000139964 -0.0000263837 " transform="matrix(0.749199,0,0,0.749199,0.160261,445.089864)"/></g></g></svg>