<svg xmlns="http://www.w3.org/2000/svg" xmlns:xlink="http://www.w3.org/1999/xlink" width="400" zoomAndPan="magnify" viewBox="0 0 300 389.999986" height="520" preserveAspectRatio="xMidYMid meet" version="1.2"><defs><clipPath id="a0a770cccb"><path d="M 86.121094 229.992188 L 213.617188 229.992188 L 213.617188 357.257812 L 86.121094 357.257812 Z M 86.121094 229.992188 "/></clipPath><clipPath id="0679ef32b2"><path d="M 132.40625 0.898438 L 163.90625 0.898438 L 163.90625 32.398438 L 132.40625 32.398438 Z M 132.40625 0.898438 "/></clipPath><clipPath id="4f9621392c"><path d="M 148.15625 0.898438 C 139.457031 0.898438 132.40625 7.953125 132.40625 16.648438 C 132.40625 25.347656 139.457031 32.398438 148.15625 32.398438 C 156.855469 32.398438 163.90625 25.347656 163.90625 16.648438 C 163.90625 7.953125 156.855469 0.898438 148.15625 0.898438 Z M 148.15625 0.898438 "/></clipPath><clipPath id="08c1f96d20"><path d="M 134.210938 356.171875 L 165.710938 356.171875 L 165.710938 387.671875 L 134.210938 387.671875 Z M 134.210938 356.171875 "/></clipPath><clipPath id="c1ae793be0"><path d="M 149.960938 356.171875 C 141.261719 356.171875 134.210938 363.222656 134.210938 371.921875 C 134.210938 380.621094 141.261719 387.671875 149.960938 387.671875 C 158.660156 387.671875 165.710938 380.621094 165.710938 371.921875 C 165.710938 363.222656 158.660156 356.171875 149.960938 356.171875 Z M 149.960938 356.171875 "/></clipPath><clipPath id="d746f8b018"><path d="M 1.003906 31.667969 L 298.753906 31.667969 L 298.753906 237.484375 L 1.003906 237.484375 Z M 1.003906 31.667969 "/></clipPath></defs><g id="9eeeb0bca6"><g clip-rule="nonzero" clip-path="url(#a0a770cccb)"><path style="fill:none;stroke-width:24;stroke-linecap:butt;stroke-linejoin:miter;stroke:#315d6a;stroke-opacity:1;stroke-miterlimit:4;" d="M 0.000354555 -0.000562235 L 170.3389 -0.000562235 L 170.3389 170.03007 L 0.000354555 170.03007 Z M 0.000354555 -0.000562235 " transform="matrix(0.748486,0,0,0.748486,86.120828,229.992608)"/></g><g clip-rule="nonzero" clip-path="url(#0679ef32b2)"><g clip-rule="nonzero" clip-path="url(#4f9621392c)"><path style="fill:none;stroke-width:8;stroke-linecap:butt;stroke-linejoin:miter;stroke:#315d6a;stroke-opacity:1;stroke-miterlimit:4;" d="M 21.210656 -0.00212298 C 9.49519 -0.00212298 -0.000281644 9.498609 -0.000281644 21.208814 C -0.000281644 32.92428 9.49519 42.419752 21.210656 42.419752 C 32.926122 42.419752 42.421593 32.92428 42.421593 21.208814 C 42.421593 9.498609 32.926122 -0.00212298 21.210656 -0.00212298 Z M 21.210656 -0.00212298 " transform="matrix(0.742541,0,0,0.742541,132.406459,0.900014)"/></g></g><g clip-rule="nonzero" clip-path="url(#08c1f96d20)"><g clip-rule="nonzero" clip-path="url(#c1ae793be0)"><path style="fill:none;stroke-width:8;stroke-linecap:butt;stroke-linejoin:miter;stroke:#315d6a;stroke-opacity:1;stroke-miterlimit:4;" d="M 21.04646 -0.000771062 C 9.42161 -0.000771062 -0.000416783 9.421256 -0.000416783 21.046106 C -0.000416783 32.670955 9.42161 42.092982 21.04646 42.092982 C 32.67131 42.092982 42.093336 32.670955 42.093336 21.046106 C 42.093336 9.421256 32.67131 -0.000771062 21.04646 -0.000771062 Z M 21.04646 -0.000771062 " transform="matrix(0.74833,0,0,0.74833,134.211249,356.172452)"/></g></g><g style="fill:#315d6a;fill-opacity:1;"><g transform="translate(34.315136, 170.672334)"><path style="stroke:none" d="M 22.71875 -64.9375 L 22.71875 -43.796875 L 49.390625 -43.796875 L 49.390625 -32.890625 L 22.71875 -32.890625 L 22.71875 -11.328125 L 56.546875 -11.328125 L 56.546875 0 L 8.484375 0 L 8.484375 -76.203125 L 56.546875 -76.203125 L 56.546875 -64.9375 Z M 22.71875 -64.9375 "/></g></g><g style="fill:#315d6a;fill-opacity:1;"><g transform="translate(94.907391, 170.672334)"><path style="stroke:none" d="M 53.125 -11.703125 L 53.125 0 L 8.484375 0 L 8.484375 -76.203125 L 22.65625 -76.203125 L 22.65625 -11.703125 Z M 53.125 -11.703125 "/></g></g><g style="fill:#315d6a;fill-opacity:1;"><g transform="translate(149.651157, 170.672334)"><path style="stroke:none" d="M 49.0625 -62.34375 C 48.644531 -61.601562 48.195312 -61.066406 47.71875 -60.734375 C 47.25 -60.398438 46.660156 -60.234375 45.953125 -60.234375 C 45.210938 -60.234375 44.410156 -60.503906 43.546875 -61.046875 C 42.691406 -61.597656 41.664062 -62.207031 40.46875 -62.875 C 39.28125 -63.539062 37.882812 -64.144531 36.28125 -64.6875 C 34.6875 -65.238281 32.800781 -65.515625 30.625 -65.515625 C 28.65625 -65.515625 26.929688 -65.273438 25.453125 -64.796875 C 23.972656 -64.328125 22.734375 -63.671875 21.734375 -62.828125 C 20.734375 -61.984375 19.988281 -60.972656 19.5 -59.796875 C 19.007812 -58.617188 18.765625 -57.328125 18.765625 -55.921875 C 18.765625 -54.128906 19.265625 -52.632812 20.265625 -51.4375 C 21.265625 -50.238281 22.585938 -49.21875 24.234375 -48.375 C 25.890625 -47.53125 27.769531 -46.773438 29.875 -46.109375 C 31.988281 -45.441406 34.148438 -44.726562 36.359375 -43.96875 C 38.578125 -43.21875 40.738281 -42.34375 42.84375 -41.34375 C 44.957031 -40.34375 46.835938 -39.078125 48.484375 -37.546875 C 50.140625 -36.023438 51.46875 -34.15625 52.46875 -31.9375 C 53.46875 -29.726562 53.96875 -27.039062 53.96875 -23.875 C 53.96875 -20.425781 53.378906 -17.203125 52.203125 -14.203125 C 51.023438 -11.203125 49.300781 -8.582031 47.03125 -6.34375 C 44.769531 -4.113281 42.003906 -2.359375 38.734375 -1.078125 C 35.460938 0.203125 31.722656 0.84375 27.515625 0.84375 C 25.085938 0.84375 22.695312 0.601562 20.34375 0.125 C 17.988281 -0.34375 15.726562 -1.015625 13.5625 -1.890625 C 11.40625 -2.773438 9.378906 -3.832031 7.484375 -5.0625 C 5.585938 -6.289062 3.898438 -7.660156 2.421875 -9.171875 L 6.59375 -15.96875 C 6.9375 -16.457031 7.390625 -16.867188 7.953125 -17.203125 C 8.515625 -17.535156 9.113281 -17.703125 9.75 -17.703125 C 10.625 -17.703125 11.570312 -17.34375 12.59375 -16.625 C 13.613281 -15.90625 14.828125 -15.101562 16.234375 -14.21875 C 17.640625 -13.34375 19.28125 -12.546875 21.15625 -11.828125 C 23.039062 -11.109375 25.300781 -10.75 27.9375 -10.75 C 31.976562 -10.75 35.101562 -11.707031 37.3125 -13.625 C 39.53125 -15.539062 40.640625 -18.289062 40.640625 -21.875 C 40.640625 -23.875 40.132812 -25.503906 39.125 -26.765625 C 38.125 -28.035156 36.796875 -29.097656 35.140625 -29.953125 C 33.492188 -30.816406 31.617188 -31.546875 29.515625 -32.140625 C 27.410156 -32.742188 25.265625 -33.394531 23.078125 -34.09375 C 20.898438 -34.800781 18.753906 -35.644531 16.640625 -36.625 C 14.535156 -37.613281 12.65625 -38.894531 11 -40.46875 C 9.351562 -42.050781 8.03125 -44.03125 7.03125 -46.40625 C 6.03125 -48.78125 5.53125 -51.707031 5.53125 -55.1875 C 5.53125 -57.957031 6.082031 -60.660156 7.1875 -63.296875 C 8.300781 -65.929688 9.910156 -68.265625 12.015625 -70.296875 C 14.117188 -72.335938 16.71875 -73.972656 19.8125 -75.203125 C 22.90625 -76.429688 26.457031 -77.046875 30.46875 -77.046875 C 34.957031 -77.046875 39.097656 -76.34375 42.890625 -74.9375 C 46.691406 -73.53125 49.925781 -71.566406 52.59375 -69.046875 Z M 49.0625 -62.34375 "/></g></g><g style="fill:#315d6a;fill-opacity:1;"><g transform="translate(207.450876, 170.672334)"><path style="stroke:none" d="M 22.71875 -64.9375 L 22.71875 -43.796875 L 49.390625 -43.796875 L 49.390625 -32.890625 L 22.71875 -32.890625 L 22.71875 -11.328125 L 56.546875 -11.328125 L 56.546875 0 L 8.484375 0 L 8.484375 -76.203125 L 56.546875 -76.203125 L 56.546875 -64.9375 Z M 22.71875 -64.9375 "/></g></g><g clip-rule="nonzero" clip-path="url(#d746f8b018)"><path style="fill:none;stroke-width:24;stroke-linecap:butt;stroke-linejoin:miter;stroke:#315d6a;stroke-opacity:1;stroke-miterlimit:4;" d="M 0.00257206 -0.0000130786 L 397.315101 -0.0000130786 L 397.315101 274.637894 L 0.00257206 274.637894 Z M 0.00257206 -0.0000130786 " transform="matrix(0.74941,0,0,0.74941,1.001979,31.667979)"/></g></g></svg>