<svg xmlns="http://www.w3.org/2000/svg" xmlns:xlink="http://www.w3.org/1999/xlink" width="400" zoomAndPan="magnify" viewBox="0 0 300 703.499984" height="938" preserveAspectRatio="xMidYMid meet" version="1.2"><defs><clipPath id="95af80a852"><path d="M 114.574219 322.703125 L 185.421875 322.703125 L 185.421875 393.550781 L 114.574219 393.550781 Z M 114.574219 322.703125 "/></clipPath><clipPath id="bd5d83d1da"><path d="M 149.996094 322.703125 C 130.433594 322.703125 114.574219 338.5625 114.574219 358.128906 C 114.574219 377.691406 130.433594 393.550781 149.996094 393.550781 C 169.5625 393.550781 185.421875 377.691406 185.421875 358.128906 C 185.421875 338.5625 169.5625 322.703125 149.996094 322.703125 Z M 149.996094 322.703125 "/></clipPath><clipPath id="698a187928"><path d="M 0.105469 243.339844 L 299.761719 243.339844 L 299.761719 459.183594 L 0.105469 459.183594 Z M 0.105469 243.339844 "/></clipPath><clipPath id="dbfdb687ea"><path d="M 0.105469 29.980469 L 299.890625 29.980469 L 299.890625 249.464844 L 0.105469 249.464844 Z M 0.105469 29.980469 "/></clipPath><clipPath id="86b44b3a41"><path d="M 131.730469 0 L 164.707031 0 L 164.707031 32.976562 L 131.730469 32.976562 Z M 131.730469 0 "/></clipPath><clipPath id="4c9b19fb69"><path d="M 148.21875 0 C 139.113281 0 131.730469 7.382812 131.730469 16.488281 C 131.730469 25.59375 139.113281 32.976562 148.21875 32.976562 C 157.328125 32.976562 164.707031 25.59375 164.707031 16.488281 C 164.707031 7.382812 157.328125 0 148.21875 0 Z M 148.21875 0 "/></clipPath><clipPath id="7fe79f676e"><path d="M 133.605469 670.210938 L 166.382812 670.210938 L 166.382812 702.988281 L 133.605469 702.988281 Z M 133.605469 670.210938 "/></clipPath><clipPath id="26550fa9ff"><path d="M 149.996094 670.210938 C 140.945312 670.210938 133.605469 677.550781 133.605469 686.601562 C 133.605469 695.652344 140.945312 702.988281 149.996094 702.988281 C 159.046875 702.988281 166.382812 695.652344 166.382812 686.601562 C 166.382812 677.550781 159.046875 670.210938 149.996094 670.210938 Z M 149.996094 670.210938 "/></clipPath><clipPath id="d0b1a0fe94"><path d="M 0.105469 453.527344 L 299.890625 453.527344 L 299.890625 672.929688 L 0.105469 672.929688 Z M 0.105469 453.527344 "/></clipPath></defs><g id="ce7c2ef992"><g style="fill:#315d6a;fill-opacity:1;"><g transform="translate(102.768864, 184.862994)"><path style="stroke:none" d="M 23.59375 0 L 8.8125 0 L 8.8125 -79.140625 L 23.59375 -79.140625 Z M 23.59375 0 "/></g></g><g style="fill:#315d6a;fill-opacity:1;"><g transform="translate(135.21103, 184.862994)"><path style="stroke:none" d="M 23.59375 -67.421875 L 23.59375 -44 L 53.25 -44 L 53.25 -32.234375 L 23.59375 -32.234375 L 23.59375 0 L 8.8125 0 L 8.8125 -79.140625 L 58.71875 -79.140625 L 58.71875 -67.421875 Z M 23.59375 -67.421875 "/></g></g><g clip-rule="nonzero" clip-path="url(#95af80a852)"><g clip-rule="nonzero" clip-path="url(#bd5d83d1da)"><path style="fill:none;stroke-width:14;stroke-linecap:butt;stroke-linejoin:miter;stroke:#315d6a;stroke-opacity:1;stroke-miterlimit:4;" d="M 47.264172 -0.00165166 C 21.162299 -0.00165166 0.0014353 21.159212 0.0014353 47.266297 C 0.0014353 73.368171 21.162299 94.529034 47.264172 94.529034 C 73.371258 94.529034 94.532121 73.368171 94.532121 47.266297 C 94.532121 21.159212 73.371258 -0.00165166 47.264172 -0.00165166 Z M 47.264172 -0.00165166 " transform="matrix(0.749467,0,0,0.749467,114.573143,322.704363)"/></g></g><g clip-rule="nonzero" clip-path="url(#698a187928)"><path style="fill:none;stroke-width:18;stroke-linecap:butt;stroke-linejoin:miter;stroke:#315d6a;stroke-opacity:1;stroke-miterlimit:4;" d="M -0.00153299 0.00243741 L 399.997681 0.00243741 L 399.997681 288.123678 L -0.00153299 288.123678 Z M -0.00153299 0.00243741 " transform="matrix(0.749142,0,0,0.749142,0.106617,243.338018)"/></g><path style="fill:none;stroke-width:4;stroke-linecap:butt;stroke-linejoin:miter;stroke:#315d6a;stroke-opacity:1;stroke-miterlimit:4;" d="M 0.00252784 1.998351 L 97.451618 1.998351 " transform="matrix(0.00000000130198,0.745982,-0.745982,0.00000000130198,151.498547,249.666083)"/><path style="fill:none;stroke-width:4;stroke-linecap:butt;stroke-linejoin:miter;stroke:#315d6a;stroke-opacity:1;stroke-miterlimit:4;" d="M -0.000269567 1.999054 L 87.687014 1.999054 " transform="matrix(0,0.749467,-0.749467,0,151.498226,393.558796)"/><g clip-rule="nonzero" clip-path="url(#dbfdb687ea)"><path style=" stroke:none;fill-rule:nonzero;fill:#315d6a;fill-opacity:1;" d="M 9.253906 240.394531 L 89.796875 39.050781 L 209.902344 39.050781 L 290.441406 240.394531 Z M 83.65625 29.980469 L -4.140625 249.464844 L 303.839844 249.464844 L 216.042969 29.980469 L 83.65625 29.980469 "/></g><g clip-rule="nonzero" clip-path="url(#86b44b3a41)"><g clip-rule="nonzero" clip-path="url(#4c9b19fb69)"><path style="fill:none;stroke-width:14;stroke-linecap:butt;stroke-linejoin:miter;stroke:#315d6a;stroke-opacity:1;stroke-miterlimit:4;" d="M 22.036911 0 C 9.866084 0 -0.00215384 9.868238 -0.00215384 22.039065 C -0.00215384 34.209891 9.866084 44.078129 22.036911 44.078129 C 34.212959 44.078129 44.075975 34.209891 44.075975 22.039065 C 44.075975 9.868238 34.212959 0 22.036911 0 Z M 22.036911 0 " transform="matrix(0.748139,0,0,0.748139,131.73208,0)"/></g></g><g clip-rule="nonzero" clip-path="url(#7fe79f676e)"><g clip-rule="nonzero" clip-path="url(#26550fa9ff)"><path style="fill:none;stroke-width:14;stroke-linecap:butt;stroke-linejoin:miter;stroke:#315d6a;stroke-opacity:1;stroke-miterlimit:4;" d="M 21.868918 -0.00195054 C 9.792632 -0.00195054 -0.000782634 9.791464 -0.000782634 21.86775 C -0.000782634 33.944036 9.792632 43.732238 21.868918 43.732238 C 33.945204 43.732238 43.733406 33.944036 43.733406 21.86775 C 43.733406 9.791464 33.945204 -0.00195054 21.868918 -0.00195054 Z M 21.868918 -0.00195054 " transform="matrix(0.749467,0,0,0.749467,133.606055,670.212399)"/></g></g><g clip-rule="nonzero" clip-path="url(#d0b1a0fe94)"><path style=" stroke:none;fill-rule:nonzero;fill:#315d6a;fill-opacity:1;" d="M 9.253906 462.59375 L 89.796875 663.941406 L 209.902344 663.941406 L 290.441406 462.59375 Z M 83.65625 673.007812 L -4.140625 453.527344 L 303.839844 453.527344 L 216.042969 673.007812 L 83.65625 673.007812 "/></g></g></svg>