<svg xmlns="http://www.w3.org/2000/svg" xmlns:xlink="http://www.w3.org/1999/xlink" width="500" zoomAndPan="magnify" viewBox="0 0 375 374.999991" height="500" preserveAspectRatio="xMidYMid meet" version="1.2"><defs><clipPath id="e43628a4e9"><path d="M 0 67.183594 L 374.707031 67.183594 L 374.707031 307.636719 L 0 307.636719 Z M 0 67.183594 "/></clipPath></defs><g id="dbdb8d0908"><g clip-rule="nonzero" clip-path="url(#e43628a4e9)"><path style=" stroke:none;fill-rule:nonzero;fill:#315d6a;fill-opacity:1;" d="M 366.21875 89.84375 C 361.003906 86.835938 354.785156 86.84375 349.585938 89.851562 L 293.859375 122.023438 L 293.859375 252.804688 L 349.585938 284.972656 C 352.183594 286.476562 355.042969 287.222656 357.894531 287.222656 C 360.757812 287.222656 363.621094 286.46875 366.21875 284.964844 C 371.425781 281.957031 374.539062 276.570312 374.539062 270.5625 L 374.539062 104.253906 C 374.539062 98.238281 371.425781 92.851562 366.21875 89.84375 Z M 235.796875 67.351562 L 44.609375 67.351562 C 20.105469 67.351562 0.171875 87.285156 0.171875 111.789062 L 0.171875 263.027344 C 0.171875 287.53125 20.105469 307.464844 44.609375 307.464844 L 235.796875 307.464844 C 260.300781 307.464844 280.242188 287.53125 280.242188 263.027344 L 280.242188 111.789062 C 280.242188 87.285156 260.300781 67.351562 235.796875 67.351562 "/><path style=" stroke:none;fill-rule:nonzero;fill:#315d6a;fill-opacity:1;" d="M 294.03125 252.707031 L 349.667969 284.828125 C 352.183594 286.28125 355.03125 287.050781 357.894531 287.050781 C 360.761719 287.050781 363.605469 286.277344 366.132812 284.816406 C 371.289062 281.839844 374.367188 276.511719 374.367188 270.5625 L 374.367188 104.253906 C 374.367188 98.304688 371.289062 92.972656 366.132812 89.992188 C 360.976562 87.015625 354.820312 87.019531 349.667969 90 L 294.03125 122.121094 Z M 357.894531 287.390625 C 354.972656 287.390625 352.066406 286.605469 349.5 285.121094 L 293.691406 252.902344 L 293.691406 121.925781 L 293.773438 121.875 L 349.5 89.707031 C 354.757812 86.664062 361.035156 86.660156 366.300781 89.695312 C 371.566406 92.738281 374.707031 98.179688 374.707031 104.253906 L 374.707031 270.5625 C 374.707031 276.632812 371.566406 282.074219 366.300781 285.113281 C 363.726562 286.601562 360.820312 287.390625 357.894531 287.390625 Z M 44.609375 67.523438 C 20.199219 67.523438 0.339844 87.382812 0.339844 111.789062 L 0.339844 263.027344 C 0.339844 287.4375 20.199219 307.296875 44.609375 307.296875 L 235.796875 307.296875 C 260.210938 307.296875 280.074219 287.4375 280.074219 263.027344 L 280.074219 111.789062 C 280.074219 87.382812 260.210938 67.523438 235.796875 67.523438 Z M 235.796875 307.636719 L 44.609375 307.636719 C 20.011719 307.636719 0 287.625 0 263.027344 L 0 111.789062 C 0 87.195312 20.011719 67.183594 44.609375 67.183594 L 235.796875 67.183594 C 260.398438 67.183594 280.414062 87.195312 280.414062 111.789062 L 280.414062 263.027344 C 280.414062 287.625 260.398438 307.636719 235.796875 307.636719 "/><path style=" stroke:none;fill-rule:nonzero;fill:#315d6a;fill-opacity:1;" d="M 366.21875 89.84375 C 361.003906 86.835938 354.785156 86.84375 349.585938 89.851562 L 293.859375 122.023438 L 293.859375 252.804688 L 349.585938 284.972656 C 352.183594 286.476562 355.042969 287.222656 357.894531 287.222656 C 360.757812 287.222656 363.621094 286.46875 366.21875 284.964844 C 371.425781 281.957031 374.539062 276.570312 374.539062 270.5625 L 374.539062 104.253906 C 374.539062 98.238281 371.425781 92.851562 366.21875 89.84375 Z M 235.796875 67.351562 L 44.609375 67.351562 C 20.105469 67.351562 0.171875 87.285156 0.171875 111.789062 L 0.171875 263.027344 C 0.171875 287.53125 20.105469 307.464844 44.609375 307.464844 L 235.796875 307.464844 C 260.300781 307.464844 280.242188 287.53125 280.242188 263.027344 L 280.242188 111.789062 C 280.242188 87.285156 260.300781 67.351562 235.796875 67.351562 "/><path style=" stroke:none;fill-rule:nonzero;fill:#315d6a;fill-opacity:1;" d="M 294.03125 252.707031 L 349.667969 284.828125 C 352.183594 286.28125 355.03125 287.050781 357.894531 287.050781 C 360.761719 287.050781 363.605469 286.277344 366.132812 284.816406 C 371.289062 281.839844 374.367188 276.511719 374.367188 270.5625 L 374.367188 104.253906 C 374.367188 98.304688 371.289062 92.972656 366.132812 89.992188 C 360.976562 87.015625 354.820312 87.019531 349.667969 90 L 294.03125 122.121094 Z M 357.894531 287.390625 C 354.972656 287.390625 352.066406 286.605469 349.5 285.121094 L 293.691406 252.902344 L 293.691406 121.925781 L 293.773438 121.875 L 349.5 89.707031 C 354.757812 86.664062 361.035156 86.660156 366.300781 89.695312 C 371.566406 92.738281 374.707031 98.179688 374.707031 104.253906 L 374.707031 270.5625 C 374.707031 276.632812 371.566406 282.074219 366.300781 285.113281 C 363.726562 286.601562 360.820312 287.390625 357.894531 287.390625 Z M 44.609375 67.523438 C 20.199219 67.523438 0.339844 87.382812 0.339844 111.789062 L 0.339844 263.027344 C 0.339844 287.4375 20.199219 307.296875 44.609375 307.296875 L 235.796875 307.296875 C 260.210938 307.296875 280.074219 287.4375 280.074219 263.027344 L 280.074219 111.789062 C 280.074219 87.382812 260.210938 67.523438 235.796875 67.523438 Z M 235.796875 307.636719 L 44.609375 307.636719 C 20.011719 307.636719 0 287.625 0 263.027344 L 0 111.789062 C 0 87.195312 20.011719 67.183594 44.609375 67.183594 L 235.796875 67.183594 C 260.398438 67.183594 280.414062 87.195312 280.414062 111.789062 L 280.414062 263.027344 C 280.414062 287.625 260.398438 307.636719 235.796875 307.636719 "/></g></g></svg>