<svg xmlns="http://www.w3.org/2000/svg" xmlns:xlink="http://www.w3.org/1999/xlink" width="500" zoomAndPan="magnify" viewBox="0 0 375 374.999991" height="500" preserveAspectRatio="xMidYMid meet" version="1.2"><defs><clipPath id="2ef897ad03"><path d="M 53.101562 101.257812 L 321.582031 101.257812 L 321.582031 273.542969 L 53.101562 273.542969 Z M 53.101562 101.257812 "/></clipPath></defs><g id="e2f1a664fb"><path style=" stroke:none;fill-rule:nonzero;fill:#426d41;fill-opacity:1;" d="M 14.804688 114.429688 C 24.207031 92.128906 37.742188 72.050781 54.960938 54.898438 C 72.117188 37.679688 92.191406 24.144531 114.496094 14.742188 C 137.621094 4.957031 162.148438 0 187.5 0 C 212.851562 0 237.378906 4.957031 260.503906 14.742188 C 282.808594 24.144531 302.882812 37.679688 320.039062 54.898438 C 337.257812 72.117188 350.730469 92.128906 360.195312 114.496094 C 369.980469 137.621094 374.9375 162.148438 374.9375 187.5 C 374.9375 212.851562 369.980469 237.378906 360.195312 260.503906 C 350.792969 282.808594 337.257812 302.882812 320.039062 320.101562 C 302.820312 337.320312 282.804688 350.792969 260.441406 360.257812 C 237.3125 370.042969 212.789062 375 187.4375 375 C 162.085938 375 137.558594 370.042969 114.429688 360.257812 C 92.128906 350.855469 72.050781 337.320312 54.832031 320.101562 C 37.742188 302.820312 24.207031 282.742188 14.804688 260.441406 C 5.019531 237.3125 0.0625 212.789062 0.0625 187.4375 C 0.0625 162.085938 5.019531 137.558594 14.804688 114.429688 Z M 14.804688 114.429688 "/><g clip-rule="nonzero" clip-path="url(#2ef897ad03)"><path style=" stroke:none;fill-rule:nonzero;fill:#e4c57b;fill-opacity:1;" d="M 315.5 117.492188 C 311.761719 115.339844 307.308594 115.34375 303.582031 117.5 L 263.652344 140.550781 L 263.652344 234.253906 L 303.582031 257.304688 C 305.445312 258.382812 307.492188 258.917969 309.535156 258.917969 C 311.585938 258.917969 313.636719 258.378906 315.5 257.300781 C 319.230469 255.144531 321.460938 251.285156 321.460938 246.980469 L 321.460938 127.820312 C 321.460938 123.507812 319.230469 119.648438 315.5 117.492188 Z M 222.050781 101.378906 L 85.0625 101.378906 C 67.503906 101.378906 53.222656 115.660156 53.222656 133.21875 L 53.222656 241.582031 C 53.222656 259.136719 67.503906 273.421875 85.0625 273.421875 L 222.050781 273.421875 C 239.609375 273.421875 253.898438 259.136719 253.898438 241.582031 L 253.898438 133.21875 C 253.898438 115.660156 239.609375 101.378906 222.050781 101.378906 "/><path style=" stroke:none;fill-rule:nonzero;fill:#e4c57b;fill-opacity:1;" d="M 263.777344 234.183594 L 303.640625 257.199219 C 305.445312 258.242188 307.484375 258.792969 309.535156 258.792969 C 311.589844 258.792969 313.628906 258.242188 315.4375 257.195312 C 319.132812 255.058594 321.339844 251.242188 321.339844 246.980469 L 321.339844 127.820312 C 321.339844 123.554688 319.132812 119.734375 315.4375 117.597656 C 311.742188 115.46875 307.332031 115.46875 303.640625 117.605469 L 263.777344 140.621094 Z M 309.535156 259.039062 C 307.441406 259.039062 305.359375 258.476562 303.519531 257.410156 L 263.53125 234.328125 L 263.53125 140.480469 L 263.59375 140.445312 L 303.519531 117.394531 C 307.289062 115.214844 311.785156 115.210938 315.558594 117.386719 C 319.332031 119.566406 321.582031 123.464844 321.582031 127.820312 L 321.582031 246.980469 C 321.582031 251.332031 319.332031 255.226562 315.558594 257.40625 C 313.714844 258.472656 311.632812 259.039062 309.535156 259.039062 Z M 85.0625 101.5 C 67.574219 101.5 53.34375 115.730469 53.34375 133.21875 L 53.34375 241.582031 C 53.34375 259.070312 67.574219 273.300781 85.0625 273.300781 L 222.050781 273.300781 C 239.542969 273.300781 253.773438 259.070312 253.773438 241.582031 L 253.773438 133.21875 C 253.773438 115.730469 239.542969 101.5 222.050781 101.5 Z M 222.050781 273.542969 L 85.0625 273.542969 C 67.4375 273.542969 53.101562 259.207031 53.101562 241.582031 L 53.101562 133.21875 C 53.101562 115.59375 67.4375 101.253906 85.0625 101.253906 L 222.050781 101.253906 C 239.679688 101.253906 254.019531 115.59375 254.019531 133.21875 L 254.019531 241.582031 C 254.019531 259.207031 239.679688 273.542969 222.050781 273.542969 "/></g></g></svg>