<svg xmlns="http://www.w3.org/2000/svg" xmlns:xlink="http://www.w3.org/1999/xlink" width="500" zoomAndPan="magnify" viewBox="0 0 375 393.74999" height="525" preserveAspectRatio="xMidYMid meet" version="1.2"><defs><clipPath id="b5977f29d1"><path d="M 4.570312 0 L 370.339844 0 L 370.339844 365.769531 L 4.570312 365.769531 Z M 4.570312 0 "/></clipPath><clipPath id="d1f197bf75"><path d="M 41.15625 36.585938 L 333.46875 36.585938 L 333.46875 320 L 41.15625 320 Z M 41.15625 36.585938 "/></clipPath><clipPath id="a0be260b01"><path d="M 141 217 L 233 217 L 233 391.859375 L 141 391.859375 Z M 141 217 "/></clipPath></defs><g id="5be91cdf00"><g clip-rule="nonzero" clip-path="url(#b5977f29d1)"><path style=" stroke:none;fill-rule:nonzero;fill:#426d41;fill-opacity:1;" d="M 19.011719 111.613281 C 28.183594 89.863281 41.382812 70.277344 58.175781 53.546875 C 74.910156 36.75 94.492188 23.550781 116.246094 14.378906 C 138.804688 4.832031 162.726562 0 187.453125 0 C 212.183594 0 236.101562 4.832031 258.660156 14.378906 C 280.414062 23.550781 300 36.75 316.730469 53.546875 C 333.527344 70.339844 346.664062 89.863281 355.898438 111.675781 C 365.441406 134.234375 370.277344 158.15625 370.277344 182.882812 C 370.277344 207.609375 365.441406 231.53125 355.898438 254.089844 C 346.726562 275.84375 333.527344 295.429688 316.730469 312.222656 C 299.9375 329.015625 280.414062 342.15625 258.601562 351.390625 C 236.042969 360.933594 212.121094 365.769531 187.390625 365.769531 C 162.664062 365.769531 138.742188 360.933594 116.183594 351.390625 C 94.433594 342.21875 74.847656 329.015625 58.054688 312.222656 C 41.382812 295.367188 28.183594 275.78125 19.011719 254.03125 C 9.464844 231.472656 4.632812 207.550781 4.632812 182.820312 C 4.632812 158.09375 9.464844 134.171875 19.011719 111.613281 Z M 19.011719 111.613281 "/></g><path style=" stroke:none;fill-rule:nonzero;fill:#e4c57b;fill-opacity:1;" d="M 191.636719 90.53125 C 205.269531 91.167969 218.140625 94.773438 229.613281 100.71875 L 244.121094 75.59375 C 228.359375 67.199219 210.542969 62.183594 191.636719 61.511719 L 191.636719 90.53125 "/><path style=" stroke:none;fill-rule:nonzero;fill:#e4c57b;fill-opacity:1;" d="M 308.507812 178.386719 C 307.839844 159.480469 302.824219 141.660156 294.429688 125.902344 L 269.300781 140.410156 C 275.246094 151.882812 278.855469 164.753906 279.492188 178.386719 L 308.507812 178.386719 "/><path style=" stroke:none;fill-rule:nonzero;fill:#e4c57b;fill-opacity:1;" d="M 182.933594 90.53125 L 182.933594 61.511719 C 164.027344 62.183594 146.207031 67.199219 130.449219 75.59375 L 144.953125 100.71875 C 156.429688 94.773438 169.300781 91.167969 182.933594 90.53125 "/><path style=" stroke:none;fill-rule:nonzero;fill:#e4c57b;fill-opacity:1;" d="M 66.058594 178.386719 L 95.082031 178.386719 C 95.714844 164.753906 99.324219 151.882812 105.265625 140.410156 L 80.140625 125.902344 C 71.746094 141.660156 66.730469 159.480469 66.058594 178.386719 "/><path style=" stroke:none;fill-rule:nonzero;fill:#e4c57b;fill-opacity:1;" d="M 137.425781 105.082031 L 122.921875 79.957031 C 107.410156 89.703125 94.253906 102.863281 84.503906 118.375 L 109.628906 132.878906 C 116.800781 121.75 126.296875 112.253906 137.425781 105.082031 "/><path style=" stroke:none;fill-rule:nonzero;fill:#e4c57b;fill-opacity:1;" d="M 177.980469 173.433594 C 172.84375 178.574219 172.84375 186.902344 177.980469 192.042969 C 183.117188 197.175781 191.449219 197.175781 196.589844 192.042969 C 197.308594 191.320312 197.917969 190.527344 198.4375 189.699219 L 266.617188 103.40625 L 180.324219 171.585938 C 179.492188 172.101562 178.703125 172.710938 177.980469 173.433594 "/><path style=" stroke:none;fill-rule:nonzero;fill:#e4c57b;fill-opacity:1;" d="M 268.476562 92.695312 C 263.253906 87.984375 257.628906 83.714844 251.648438 79.957031 L 237.140625 105.082031 C 239.976562 106.90625 242.703125 108.882812 245.308594 111 L 268.476562 92.695312 "/><path style=" stroke:none;fill-rule:nonzero;fill:#e4c57b;fill-opacity:1;" d="M 259.023438 124.710938 C 261.136719 127.320312 263.117188 130.046875 264.941406 132.878906 L 290.066406 118.375 C 286.308594 112.394531 282.039062 106.765625 277.324219 101.546875 L 259.023438 124.710938 "/><g clip-rule="nonzero" clip-path="url(#d1f197bf75)"><path style=" stroke:none;fill-rule:nonzero;fill:#e4c57b;fill-opacity:1;" d="M 187.285156 36.582031 C 106.695312 36.582031 41.128906 102.148438 41.128906 182.738281 C 41.128906 245.367188 80.734375 298.914062 136.207031 319.671875 C 136.972656 316.320312 137.882812 312.785156 138.945312 309.082031 C 88.15625 289.582031 52.003906 240.308594 52.003906 182.738281 C 52.003906 108.144531 112.691406 47.460938 187.285156 47.460938 C 261.878906 47.460938 322.5625 108.144531 322.5625 182.738281 C 322.5625 240.308594 286.414062 289.582031 235.621094 309.082031 C 236.683594 312.785156 237.597656 316.320312 238.359375 319.671875 C 293.835938 298.914062 333.441406 245.367188 333.441406 182.738281 C 333.441406 102.148438 267.875 36.582031 187.285156 36.582031 "/></g><g clip-rule="nonzero" clip-path="url(#a0be260b01)"><path style=" stroke:none;fill-rule:nonzero;fill:#e4c57b;fill-opacity:1;" d="M 178.75 376.234375 C 177.304688 376 175.925781 375.492188 174.511719 375.015625 C 173.160156 374.414062 171.757812 373.824219 170.5 372.984375 C 167.910156 371.417969 165.570312 369.335938 163.675781 366.933594 C 161.777344 364.53125 160.238281 361.875 159.128906 359.089844 C 156.917969 353.5 156.238281 347.601562 156.601562 341.945312 C 156.796875 339.109375 157.253906 336.316406 157.992188 333.601562 C 158.75 330.902344 159.703125 328.238281 161.179688 325.792969 C 162.046875 331.363281 162.699219 336.558594 163.636719 341.585938 C 164.5625 346.59375 165.734375 351.375 167.476562 355.746094 C 169.269531 360.082031 171.535156 364.058594 174.851562 367.410156 C 175.636719 368.300781 176.570312 369.042969 177.457031 369.894531 C 178.433594 370.613281 179.367188 371.476562 180.445312 372.152344 C 182.507812 373.695312 184.847656 374.914062 187.285156 376.425781 C 184.496094 376.84375 181.59375 376.847656 178.75 376.234375 Z M 142.1875 346.363281 C 142.1875 371.269531 162.378906 391.457031 187.285156 391.457031 C 212.1875 391.457031 232.378906 371.269531 232.378906 346.363281 C 236.335938 309.179688 187.285156 217.40625 187.285156 217.40625 C 187.285156 217.40625 138.234375 309.179688 142.1875 346.363281 "/></g></g></svg>