<svg xmlns="http://www.w3.org/2000/svg" xmlns:xlink="http://www.w3.org/1999/xlink" width="500" zoomAndPan="magnify" viewBox="0 0 375 374.999991" height="500" preserveAspectRatio="xMidYMid meet" version="1.2"><defs><clipPath id="014b68885d"><path d="M 33.046875 0 L 342 0 L 342 300 L 33.046875 300 Z M 33.046875 0 "/></clipPath><clipPath id="a34d77f306"><path d="M 33.046875 0 L 342 0 L 342 300 L 33.046875 300 Z M 33.046875 0 "/></clipPath></defs><g id="67e183d3e7"><rect x="0" width="375" y="0" height="374.999991" style="fill:#ffffff;fill-opacity:1;stroke:none;"/><path style=" stroke:none;fill-rule:nonzero;fill:#315d6a;fill-opacity:1;" d="M 192.066406 57.003906 C 206.476562 57.675781 220.078125 61.488281 232.203125 67.769531 L 247.53125 41.214844 C 230.878906 32.34375 212.046875 27.046875 192.066406 26.335938 L 192.066406 57.003906 "/><path style=" stroke:none;fill-rule:nonzero;fill:#315d6a;fill-opacity:1;" d="M 315.574219 149.84375 C 314.867188 129.863281 309.566406 111.035156 300.695312 94.378906 L 274.140625 109.710938 C 280.421875 121.835938 284.234375 135.4375 284.910156 149.84375 L 315.574219 149.84375 "/><path style=" stroke:none;fill-rule:nonzero;fill:#315d6a;fill-opacity:1;" d="M 182.871094 57.003906 L 182.871094 26.335938 C 162.890625 27.046875 144.0625 32.34375 127.40625 41.214844 L 142.738281 67.769531 C 154.863281 61.488281 168.464844 57.675781 182.871094 57.003906 "/><path style=" stroke:none;fill-rule:nonzero;fill:#315d6a;fill-opacity:1;" d="M 59.363281 149.84375 L 90.03125 149.84375 C 90.703125 135.4375 94.515625 121.835938 100.796875 109.710938 L 74.242188 94.378906 C 65.371094 111.035156 60.074219 129.863281 59.363281 149.84375 "/><path style=" stroke:none;fill-rule:nonzero;fill:#315d6a;fill-opacity:1;" d="M 134.78125 72.378906 L 119.453125 45.828125 C 103.058594 56.128906 89.15625 70.03125 78.851562 86.425781 L 105.40625 101.753906 C 112.984375 89.992188 123.019531 79.957031 134.78125 72.378906 "/><path style=" stroke:none;fill-rule:nonzero;fill:#315d6a;fill-opacity:1;" d="M 177.636719 144.609375 C 172.210938 150.042969 172.210938 158.84375 177.636719 164.273438 C 183.066406 169.699219 191.871094 169.699219 197.300781 164.273438 C 198.0625 163.507812 198.707031 162.675781 199.253906 161.796875 L 271.304688 70.609375 L 180.113281 142.65625 C 179.234375 143.203125 178.402344 143.847656 177.636719 144.609375 "/><path style=" stroke:none;fill-rule:nonzero;fill:#315d6a;fill-opacity:1;" d="M 273.269531 59.289062 C 267.753906 54.308594 261.804688 49.796875 255.484375 45.828125 L 240.15625 72.378906 C 243.152344 74.308594 246.03125 76.398438 248.789062 78.632812 L 273.269531 59.289062 "/><path style=" stroke:none;fill-rule:nonzero;fill:#315d6a;fill-opacity:1;" d="M 263.277344 93.121094 C 265.511719 95.878906 267.605469 98.761719 269.53125 101.753906 L 296.085938 86.425781 C 292.113281 80.105469 287.601562 74.15625 282.621094 68.640625 L 263.277344 93.121094 "/><g clip-rule="nonzero" clip-path="url(#014b68885d)"><path style=" stroke:none;fill-rule:nonzero;fill:#315d6a;fill-opacity:1;" d="M 187.46875 -0.0078125 C 102.304688 -0.0078125 33.019531 69.277344 33.019531 154.441406 C 33.019531 220.625 74.871094 277.214844 133.492188 299.148438 C 134.300781 295.605469 135.265625 291.871094 136.386719 287.957031 C 82.714844 267.351562 44.511719 215.277344 44.511719 154.441406 C 44.511719 75.613281 108.640625 11.484375 187.46875 11.484375 C 266.296875 11.484375 330.425781 75.613281 330.425781 154.441406 C 330.425781 215.277344 292.222656 267.351562 238.550781 287.957031 C 239.675781 291.871094 240.636719 295.605469 241.445312 299.148438 C 300.070312 277.214844 341.921875 220.625 341.921875 154.441406 C 341.921875 69.277344 272.632812 -0.0078125 187.46875 -0.0078125 "/></g><path style=" stroke:none;fill-rule:nonzero;fill:#315d6a;fill-opacity:1;" d="M 178.449219 358.917969 C 176.921875 358.675781 175.46875 358.136719 173.972656 357.632812 C 172.546875 356.996094 171.0625 356.375 169.734375 355.488281 C 166.992188 353.828125 164.519531 351.632812 162.519531 349.09375 C 160.515625 346.554688 158.890625 343.746094 157.714844 340.800781 C 155.378906 334.898438 154.664062 328.664062 155.042969 322.683594 C 155.253906 319.6875 155.734375 316.738281 156.515625 313.871094 C 157.316406 311.015625 158.324219 308.203125 159.882812 305.617188 C 160.796875 311.503906 161.488281 316.996094 162.480469 322.304688 C 163.457031 327.597656 164.695312 332.648438 166.535156 337.269531 C 168.429688 341.851562 170.824219 346.054688 174.328125 349.597656 C 175.160156 350.539062 176.144531 351.320312 177.085938 352.222656 C 178.117188 352.980469 179.101562 353.894531 180.242188 354.605469 C 182.421875 356.238281 184.894531 357.523438 187.46875 359.125 C 184.523438 359.5625 181.453125 359.570312 178.449219 358.917969 Z M 139.816406 327.355469 C 139.816406 353.671875 161.152344 375.007812 187.46875 375.007812 C 213.789062 375.007812 235.125 353.671875 235.125 327.355469 C 239.304688 288.058594 187.46875 191.078125 187.46875 191.078125 C 187.46875 191.078125 135.632812 288.058594 139.816406 327.355469 "/><path style=" stroke:none;fill-rule:nonzero;fill:#315d6a;fill-opacity:1;" d="M 192.066406 57.003906 C 206.476562 57.675781 220.078125 61.488281 232.203125 67.769531 L 247.53125 41.214844 C 230.878906 32.34375 212.046875 27.046875 192.066406 26.335938 L 192.066406 57.003906 "/><path style=" stroke:none;fill-rule:nonzero;fill:#315d6a;fill-opacity:1;" d="M 315.574219 149.84375 C 314.867188 129.863281 309.566406 111.035156 300.695312 94.378906 L 274.140625 109.710938 C 280.421875 121.835938 284.234375 135.4375 284.910156 149.84375 L 315.574219 149.84375 "/><path style=" stroke:none;fill-rule:nonzero;fill:#315d6a;fill-opacity:1;" d="M 182.871094 57.003906 L 182.871094 26.335938 C 162.890625 27.046875 144.0625 32.34375 127.40625 41.214844 L 142.738281 67.769531 C 154.863281 61.488281 168.464844 57.675781 182.871094 57.003906 "/><path style=" stroke:none;fill-rule:nonzero;fill:#315d6a;fill-opacity:1;" d="M 59.363281 149.84375 L 90.03125 149.84375 C 90.703125 135.4375 94.515625 121.835938 100.796875 109.710938 L 74.242188 94.378906 C 65.371094 111.035156 60.074219 129.863281 59.363281 149.84375 "/><path style=" stroke:none;fill-rule:nonzero;fill:#315d6a;fill-opacity:1;" d="M 134.78125 72.378906 L 119.453125 45.828125 C 103.058594 56.128906 89.15625 70.03125 78.851562 86.425781 L 105.40625 101.753906 C 112.984375 89.992188 123.019531 79.957031 134.78125 72.378906 "/><path style=" stroke:none;fill-rule:nonzero;fill:#315d6a;fill-opacity:1;" d="M 177.636719 144.609375 C 172.210938 150.042969 172.210938 158.84375 177.636719 164.273438 C 183.066406 169.699219 191.871094 169.699219 197.300781 164.273438 C 198.0625 163.507812 198.707031 162.675781 199.253906 161.796875 L 271.304688 70.609375 L 180.113281 142.65625 C 179.234375 143.203125 178.402344 143.847656 177.636719 144.609375 "/><path style=" stroke:none;fill-rule:nonzero;fill:#315d6a;fill-opacity:1;" d="M 273.269531 59.289062 C 267.753906 54.308594 261.804688 49.796875 255.484375 45.828125 L 240.15625 72.378906 C 243.152344 74.308594 246.03125 76.398438 248.789062 78.632812 L 273.269531 59.289062 "/><path style=" stroke:none;fill-rule:nonzero;fill:#315d6a;fill-opacity:1;" d="M 263.277344 93.121094 C 265.511719 95.878906 267.605469 98.761719 269.53125 101.753906 L 296.085938 86.425781 C 292.113281 80.105469 287.601562 74.15625 282.621094 68.640625 L 263.277344 93.121094 "/><g clip-rule="nonzero" clip-path="url(#a34d77f306)"><path style=" stroke:none;fill-rule:nonzero;fill:#315d6a;fill-opacity:1;" d="M 187.46875 -0.0078125 C 102.304688 -0.0078125 33.019531 69.277344 33.019531 154.441406 C 33.019531 220.625 74.871094 277.214844 133.492188 299.148438 C 134.300781 295.605469 135.265625 291.871094 136.386719 287.957031 C 82.714844 267.351562 44.511719 215.277344 44.511719 154.441406 C 44.511719 75.613281 108.640625 11.484375 187.46875 11.484375 C 266.296875 11.484375 330.425781 75.613281 330.425781 154.441406 C 330.425781 215.277344 292.222656 267.351562 238.550781 287.957031 C 239.675781 291.871094 240.636719 295.605469 241.445312 299.148438 C 300.070312 277.214844 341.921875 220.625 341.921875 154.441406 C 341.921875 69.277344 272.632812 -0.0078125 187.46875 -0.0078125 "/></g><path style=" stroke:none;fill-rule:nonzero;fill:#315d6a;fill-opacity:1;" d="M 178.449219 358.917969 C 176.921875 358.675781 175.46875 358.136719 173.972656 357.632812 C 172.546875 356.996094 171.0625 356.375 169.734375 355.488281 C 166.992188 353.828125 164.519531 351.632812 162.519531 349.09375 C 160.515625 346.554688 158.890625 343.746094 157.714844 340.800781 C 155.378906 334.898438 154.664062 328.664062 155.042969 322.683594 C 155.253906 319.6875 155.734375 316.738281 156.515625 313.871094 C 157.316406 311.015625 158.324219 308.203125 159.882812 305.617188 C 160.796875 311.503906 161.488281 316.996094 162.480469 322.304688 C 163.457031 327.597656 164.695312 332.648438 166.535156 337.269531 C 168.429688 341.851562 170.824219 346.054688 174.328125 349.597656 C 175.160156 350.539062 176.144531 351.320312 177.085938 352.222656 C 178.117188 352.980469 179.101562 353.894531 180.242188 354.605469 C 182.421875 356.238281 184.894531 357.523438 187.46875 359.125 C 184.523438 359.5625 181.453125 359.570312 178.449219 358.917969 Z M 139.816406 327.355469 C 139.816406 353.671875 161.152344 375.007812 187.46875 375.007812 C 213.789062 375.007812 235.125 353.671875 235.125 327.355469 C 239.304688 288.058594 187.46875 191.078125 187.46875 191.078125 C 187.46875 191.078125 135.632812 288.058594 139.816406 327.355469 "/></g></svg>