<svg xmlns="http://www.w3.org/2000/svg" xmlns:xlink="http://www.w3.org/1999/xlink" width="500" zoomAndPan="magnify" viewBox="0 0 375 374.999991" height="500" preserveAspectRatio="xMidYMid meet" version="1.2"><g id="7baa6ef810"><path style=" stroke:none;fill-rule:evenodd;fill:#315d6a;fill-opacity:1;" d="M 187.390625 128.074219 C 181.457031 128.074219 175.964844 125 172.890625 119.726562 C 171.792969 117.75 172.453125 115.113281 174.648438 113.796875 C 176.625 112.476562 179.261719 113.355469 180.578125 115.332031 C 181.898438 117.96875 184.535156 119.507812 187.390625 119.507812 C 190.246094 119.507812 192.882812 117.96875 194.421875 115.332031 C 195.519531 113.355469 198.375 112.699219 200.351562 113.796875 C 202.546875 115.113281 203.207031 117.75 201.890625 119.726562 C 199.035156 125 193.320312 128.074219 187.390625 128.074219 Z M 187.390625 128.074219 "/><path style=" stroke:none;fill-rule:evenodd;fill:#315d6a;fill-opacity:1;" d="M 187.390625 143.015625 C 175.964844 143.015625 165.203125 136.644531 159.269531 126.757812 C 158.171875 124.5625 158.832031 121.925781 161.027344 120.824219 C 163.003906 119.507812 165.859375 120.167969 166.960938 122.363281 C 171.132812 129.613281 179.042969 134.226562 187.390625 134.226562 C 195.957031 134.226562 203.867188 129.613281 208.039062 122.363281 C 209.140625 120.167969 211.996094 119.507812 213.972656 120.824219 C 216.167969 121.925781 216.828125 124.5625 215.730469 126.757812 C 209.796875 136.863281 199.035156 143.015625 187.390625 143.015625 Z M 187.390625 143.015625 "/><path style=" stroke:none;fill-rule:evenodd;fill:#315d6a;fill-opacity:1;" d="M 187.390625 159.050781 C 172.011719 159.050781 157.734375 150.921875 150.042969 137.523438 C 148.726562 135.324219 149.605469 132.6875 151.582031 131.589844 C 153.777344 130.273438 156.414062 130.929688 157.734375 133.128906 C 163.882812 143.671875 175.308594 150.261719 187.390625 150.261719 C 199.691406 150.261719 211.117188 143.671875 217.265625 133.128906 C 218.585938 130.929688 221.222656 130.273438 223.417969 131.589844 C 225.394531 132.6875 226.273438 135.324219 224.957031 137.523438 C 217.265625 150.921875 202.769531 159.050781 187.390625 159.050781 Z M 187.390625 159.050781 "/><path style=" stroke:none;fill-rule:evenodd;fill:#315d6a;fill-opacity:1;" d="M 288.226562 76.230469 L 86.773438 76.230469 C 75.789062 76.230469 66.785156 67.222656 66.785156 56.238281 L 66.785156 19.992188 C 66.785156 9.007812 75.789062 0 86.773438 0 L 288.226562 0 C 299.210938 0 308.214844 9.007812 308.214844 19.992188 L 308.214844 56.238281 C 308.214844 67.222656 299.210938 76.230469 288.226562 76.230469 Z M 288.226562 76.230469 "/><path style=" stroke:none;fill-rule:evenodd;fill:#315d6a;fill-opacity:1;" d="M 264.28125 102.371094 L 110.71875 102.371094 C 101.933594 102.371094 94.902344 95.34375 94.902344 86.554688 L 94.902344 83.480469 L 280.097656 83.480469 L 280.097656 86.554688 C 280.097656 95.34375 272.847656 102.371094 264.28125 102.371094 Z M 264.28125 102.371094 "/><path style=" stroke:none;fill-rule:evenodd;fill:#315d6a;fill-opacity:1;" d="M 206.0625 352.152344 L 168.9375 352.152344 C 161.027344 352.152344 154.65625 345.78125 154.65625 338.09375 C 154.65625 301.625 145.210938 292.617188 135.984375 283.613281 C 127.417969 275.261719 118.410156 266.476562 118.410156 239.457031 C 118.410156 201.449219 149.386719 170.472656 187.390625 170.472656 C 225.613281 170.472656 256.371094 201.449219 256.371094 239.457031 C 256.371094 266.476562 247.582031 275.042969 238.796875 283.613281 C 229.789062 292.617188 220.121094 301.84375 220.121094 338.09375 C 220.121094 345.78125 213.753906 352.152344 206.0625 352.152344 Z M 141.257812 248.902344 C 139.058594 248.902344 137.082031 247.144531 136.863281 244.726562 C 135.765625 214.410156 159.492188 188.488281 189.808594 187.390625 C 192.222656 187.390625 194.199219 189.148438 194.421875 191.5625 C 194.421875 193.980469 192.664062 195.957031 190.246094 196.175781 C 164.542969 197.277344 144.550781 218.804688 145.648438 244.507812 C 145.871094 246.925781 143.894531 248.902344 141.476562 248.902344 C 141.476562 248.902344 141.476562 248.902344 141.257812 248.902344 Z M 141.257812 248.902344 "/><path style=" stroke:none;fill-rule:evenodd;fill:#315d6a;fill-opacity:1;" d="M 195.738281 375 L 179.261719 375 C 172.230469 375 166.519531 369.289062 166.519531 362.257812 L 166.519531 359.402344 C 167.398438 359.402344 168.058594 359.621094 168.9375 359.621094 L 206.0625 359.621094 C 206.722656 359.621094 207.601562 359.402344 208.261719 359.402344 L 208.261719 362.257812 C 208.480469 369.289062 202.546875 375 195.738281 375 Z M 195.738281 375 "/><path style=" stroke:none;fill-rule:evenodd;fill:#315d6a;fill-opacity:1;" d="M 187.390625 128.074219 C 181.457031 128.074219 175.964844 125 172.890625 119.726562 C 171.792969 117.75 172.453125 115.113281 174.648438 113.796875 C 176.625 112.476562 179.261719 113.355469 180.578125 115.332031 C 181.898438 117.96875 184.535156 119.507812 187.390625 119.507812 C 190.246094 119.507812 192.882812 117.96875 194.421875 115.332031 C 195.519531 113.355469 198.375 112.699219 200.351562 113.796875 C 202.546875 115.113281 203.207031 117.75 201.890625 119.726562 C 199.035156 125 193.320312 128.074219 187.390625 128.074219 Z M 187.390625 128.074219 "/><path style=" stroke:none;fill-rule:evenodd;fill:#315d6a;fill-opacity:1;" d="M 187.390625 143.015625 C 175.964844 143.015625 165.203125 136.644531 159.269531 126.757812 C 158.171875 124.5625 158.832031 121.925781 161.027344 120.824219 C 163.003906 119.507812 165.859375 120.167969 166.960938 122.363281 C 171.132812 129.613281 179.042969 134.226562 187.390625 134.226562 C 195.957031 134.226562 203.867188 129.613281 208.039062 122.363281 C 209.140625 120.167969 211.996094 119.507812 213.972656 120.824219 C 216.167969 121.925781 216.828125 124.5625 215.730469 126.757812 C 209.796875 136.863281 199.035156 143.015625 187.390625 143.015625 Z M 187.390625 143.015625 "/><path style=" stroke:none;fill-rule:evenodd;fill:#315d6a;fill-opacity:1;" d="M 187.390625 159.050781 C 172.011719 159.050781 157.734375 150.921875 150.042969 137.523438 C 148.726562 135.324219 149.605469 132.6875 151.582031 131.589844 C 153.777344 130.273438 156.414062 130.929688 157.734375 133.128906 C 163.882812 143.671875 175.308594 150.261719 187.390625 150.261719 C 199.691406 150.261719 211.117188 143.671875 217.265625 133.128906 C 218.585938 130.929688 221.222656 130.273438 223.417969 131.589844 C 225.394531 132.6875 226.273438 135.324219 224.957031 137.523438 C 217.265625 150.921875 202.769531 159.050781 187.390625 159.050781 Z M 187.390625 159.050781 "/><path style=" stroke:none;fill-rule:evenodd;fill:#315d6a;fill-opacity:1;" d="M 288.226562 76.230469 L 86.773438 76.230469 C 75.789062 76.230469 66.785156 67.222656 66.785156 56.238281 L 66.785156 19.992188 C 66.785156 9.007812 75.789062 0 86.773438 0 L 288.226562 0 C 299.210938 0 308.214844 9.007812 308.214844 19.992188 L 308.214844 56.238281 C 308.214844 67.222656 299.210938 76.230469 288.226562 76.230469 Z M 288.226562 76.230469 "/><path style=" stroke:none;fill-rule:evenodd;fill:#315d6a;fill-opacity:1;" d="M 264.28125 102.371094 L 110.71875 102.371094 C 101.933594 102.371094 94.902344 95.34375 94.902344 86.554688 L 94.902344 83.480469 L 280.097656 83.480469 L 280.097656 86.554688 C 280.097656 95.34375 272.847656 102.371094 264.28125 102.371094 Z M 264.28125 102.371094 "/><path style=" stroke:none;fill-rule:evenodd;fill:#315d6a;fill-opacity:1;" d="M 206.0625 352.152344 L 168.9375 352.152344 C 161.027344 352.152344 154.65625 345.78125 154.65625 338.09375 C 154.65625 301.625 145.210938 292.617188 135.984375 283.613281 C 127.417969 275.261719 118.410156 266.476562 118.410156 239.457031 C 118.410156 201.449219 149.386719 170.472656 187.390625 170.472656 C 225.613281 170.472656 256.371094 201.449219 256.371094 239.457031 C 256.371094 266.476562 247.582031 275.042969 238.796875 283.613281 C 229.789062 292.617188 220.121094 301.84375 220.121094 338.09375 C 220.121094 345.78125 213.753906 352.152344 206.0625 352.152344 Z M 141.257812 248.902344 C 139.058594 248.902344 137.082031 247.144531 136.863281 244.726562 C 135.765625 214.410156 159.492188 188.488281 189.808594 187.390625 C 192.222656 187.390625 194.199219 189.148438 194.421875 191.5625 C 194.421875 193.980469 192.664062 195.957031 190.246094 196.175781 C 164.542969 197.277344 144.550781 218.804688 145.648438 244.507812 C 145.871094 246.925781 143.894531 248.902344 141.476562 248.902344 C 141.476562 248.902344 141.476562 248.902344 141.257812 248.902344 Z M 141.257812 248.902344 "/><path style=" stroke:none;fill-rule:evenodd;fill:#315d6a;fill-opacity:1;" d="M 195.738281 375 L 179.261719 375 C 172.230469 375 166.519531 369.289062 166.519531 362.257812 L 166.519531 359.402344 C 167.398438 359.402344 168.058594 359.621094 168.9375 359.621094 L 206.0625 359.621094 C 206.722656 359.621094 207.601562 359.402344 208.261719 359.402344 L 208.261719 362.257812 C 208.480469 369.289062 202.546875 375 195.738281 375 Z M 195.738281 375 "/></g></svg>