<svg xmlns="http://www.w3.org/2000/svg" xmlns:xlink="http://www.w3.org/1999/xlink" width="500" zoomAndPan="magnify" viewBox="0 0 375 374.999991" height="500" preserveAspectRatio="xMidYMid meet" version="1.2"><defs><clipPath id="f7f0b33770"><path d="M 96 55.808594 L 279 55.808594 L 279 114 L 96 114 Z M 96 55.808594 "/></clipPath><clipPath id="84ea8ab053"><path d="M 171 325 L 204 325 L 204 337.808594 L 171 337.808594 Z M 171 325 "/></clipPath></defs><g id="c1bd003042"><path style=" stroke:none;fill-rule:nonzero;fill:#426d41;fill-opacity:1;" d="M 14.804688 114.429688 C 24.207031 92.128906 37.742188 72.050781 54.960938 54.898438 C 72.117188 37.679688 92.191406 24.144531 114.496094 14.742188 C 137.621094 4.957031 162.148438 0 187.5 0 C 212.851562 0 237.378906 4.957031 260.503906 14.742188 C 282.808594 24.144531 302.882812 37.679688 320.039062 54.898438 C 337.257812 72.117188 350.730469 92.128906 360.195312 114.496094 C 369.980469 137.621094 374.9375 162.148438 374.9375 187.5 C 374.9375 212.851562 369.980469 237.378906 360.195312 260.503906 C 350.792969 282.808594 337.257812 302.882812 320.039062 320.101562 C 302.820312 337.320312 282.804688 350.792969 260.441406 360.257812 C 237.3125 370.042969 212.789062 375 187.4375 375 C 162.085938 375 137.558594 370.042969 114.429688 360.257812 C 92.128906 350.855469 72.050781 337.320312 54.832031 320.101562 C 37.742188 302.820312 24.207031 282.742188 14.804688 260.441406 C 5.019531 237.3125 0.0625 212.789062 0.0625 187.4375 C 0.0625 162.085938 5.019531 137.558594 14.804688 114.429688 Z M 14.804688 114.429688 "/><path style=" stroke:none;fill-rule:evenodd;fill:#e4c57b;fill-opacity:1;" d="M 187.414062 152.011719 C 182.957031 152.011719 178.832031 149.703125 176.523438 145.742188 C 175.695312 144.257812 176.191406 142.277344 177.84375 141.285156 C 179.328125 140.296875 181.308594 140.957031 182.296875 142.441406 C 183.289062 144.421875 185.269531 145.578125 187.414062 145.578125 C 189.558594 145.578125 191.539062 144.421875 192.695312 142.441406 C 193.519531 140.957031 195.664062 140.460938 197.148438 141.285156 C 198.800781 142.277344 199.292969 144.257812 198.304688 145.742188 C 196.160156 149.703125 191.867188 152.011719 187.414062 152.011719 Z M 187.414062 152.011719 "/><path style=" stroke:none;fill-rule:evenodd;fill:#e4c57b;fill-opacity:1;" d="M 187.414062 163.234375 C 178.832031 163.234375 170.746094 158.449219 166.292969 151.023438 C 165.464844 149.371094 165.960938 147.390625 167.613281 146.566406 C 169.097656 145.578125 171.242188 146.074219 172.066406 147.722656 C 175.203125 153.167969 181.144531 156.632812 187.414062 156.632812 C 193.847656 156.632812 199.789062 153.167969 202.925781 147.722656 C 203.75 146.074219 205.894531 145.578125 207.378906 146.566406 C 209.03125 147.390625 209.527344 149.371094 208.699219 151.023438 C 204.246094 158.613281 196.160156 163.234375 187.414062 163.234375 Z M 187.414062 163.234375 "/><path style=" stroke:none;fill-rule:evenodd;fill:#e4c57b;fill-opacity:1;" d="M 187.414062 175.28125 C 175.863281 175.28125 165.136719 169.175781 159.359375 159.109375 C 158.371094 157.457031 159.03125 155.476562 160.515625 154.652344 C 162.164062 153.664062 164.144531 154.15625 165.136719 155.808594 C 169.757812 163.730469 178.335938 168.679688 187.414062 168.679688 C 196.652344 168.679688 205.234375 163.730469 209.855469 155.808594 C 210.847656 154.15625 212.824219 153.664062 214.476562 154.652344 C 215.960938 155.476562 216.621094 157.457031 215.632812 159.109375 C 209.855469 169.175781 198.964844 175.28125 187.414062 175.28125 Z M 187.414062 175.28125 "/><g clip-rule="nonzero" clip-path="url(#f7f0b33770)"><path style=" stroke:none;fill-rule:evenodd;fill:#e4c57b;fill-opacity:1;" d="M 263.15625 113.070312 L 111.835938 113.070312 C 103.585938 113.070312 96.820312 106.304688 96.820312 98.050781 L 96.820312 70.824219 C 96.820312 62.574219 103.585938 55.808594 111.835938 55.808594 L 263.15625 55.808594 C 271.40625 55.808594 278.171875 62.574219 278.171875 70.824219 L 278.171875 98.050781 C 278.171875 106.304688 271.40625 113.070312 263.15625 113.070312 Z M 263.15625 113.070312 "/></g><path style=" stroke:none;fill-rule:evenodd;fill:#e4c57b;fill-opacity:1;" d="M 245.167969 132.707031 L 129.824219 132.707031 C 123.222656 132.707031 117.941406 127.425781 117.941406 120.824219 L 117.941406 118.515625 L 257.050781 118.515625 L 257.050781 120.824219 C 257.050781 127.425781 251.605469 132.707031 245.167969 132.707031 Z M 245.167969 132.707031 "/><path style=" stroke:none;fill-rule:evenodd;fill:#e4c57b;fill-opacity:1;" d="M 201.441406 320.328125 L 173.550781 320.328125 C 167.613281 320.328125 162.824219 315.542969 162.824219 309.769531 C 162.824219 282.375 155.730469 275.609375 148.800781 268.84375 C 142.363281 262.574219 135.597656 255.972656 135.597656 235.675781 C 135.597656 207.128906 158.867188 183.859375 187.414062 183.859375 C 216.125 183.859375 239.230469 207.128906 239.230469 235.675781 C 239.230469 255.972656 232.628906 262.410156 226.027344 268.84375 C 219.261719 275.609375 212 282.542969 212 309.769531 C 212 315.542969 207.214844 320.328125 201.441406 320.328125 Z M 152.761719 242.773438 C 151.109375 242.773438 149.625 241.453125 149.460938 239.636719 C 148.632812 216.863281 166.457031 197.390625 189.230469 196.566406 C 191.042969 196.566406 192.527344 197.886719 192.695312 199.703125 C 192.695312 201.519531 191.375 203.003906 189.558594 203.167969 C 170.25 203.992188 155.234375 220.164062 156.058594 239.472656 C 156.226562 241.285156 154.738281 242.773438 152.925781 242.773438 C 152.925781 242.773438 152.925781 242.773438 152.761719 242.773438 Z M 152.761719 242.773438 "/><g clip-rule="nonzero" clip-path="url(#84ea8ab053)"><path style=" stroke:none;fill-rule:evenodd;fill:#e4c57b;fill-opacity:1;" d="M 193.683594 337.492188 L 181.308594 337.492188 C 176.027344 337.492188 171.738281 333.203125 171.738281 327.921875 L 171.738281 325.777344 C 172.398438 325.777344 172.890625 325.941406 173.550781 325.941406 L 201.441406 325.941406 C 201.933594 325.941406 202.59375 325.777344 203.089844 325.777344 L 203.089844 327.921875 C 203.253906 333.203125 198.800781 337.492188 193.683594 337.492188 Z M 193.683594 337.492188 "/></g></g></svg>