<svg xmlns="http://www.w3.org/2000/svg" xmlns:xlink="http://www.w3.org/1999/xlink" width="500" zoomAndPan="magnify" viewBox="0 0 375 374.999991" height="500" preserveAspectRatio="xMidYMid meet" version="1.2"><defs><clipPath id="0b3f468265"><path d="M 119 56.367188 L 245 56.367188 L 245 177 L 119 177 Z M 119 56.367188 "/></clipPath></defs><g id="f3281cf98f"><path style=" stroke:none;fill-rule:nonzero;fill:#426d41;fill-opacity:1;" d="M 14.804688 114.429688 C 24.207031 92.128906 37.742188 72.050781 54.960938 54.898438 C 72.117188 37.679688 92.191406 24.144531 114.496094 14.742188 C 137.621094 4.957031 162.148438 0 187.5 0 C 212.851562 0 237.378906 4.957031 260.503906 14.742188 C 282.808594 24.144531 302.882812 37.679688 320.039062 54.898438 C 337.257812 72.117188 350.730469 92.128906 360.195312 114.496094 C 369.980469 137.621094 374.9375 162.148438 374.9375 187.5 C 374.9375 212.851562 369.980469 237.378906 360.195312 260.503906 C 350.792969 282.808594 337.257812 302.882812 320.039062 320.101562 C 302.820312 337.320312 282.804688 350.792969 260.441406 360.257812 C 237.3125 370.042969 212.789062 375 187.4375 375 C 162.085938 375 137.558594 370.042969 114.429688 360.257812 C 92.128906 350.855469 72.050781 337.320312 54.832031 320.101562 C 37.742188 302.820312 24.207031 282.742188 14.804688 260.441406 C 5.019531 237.3125 0.0625 212.789062 0.0625 187.4375 C 0.0625 162.085938 5.019531 137.558594 14.804688 114.429688 Z M 14.804688 114.429688 "/><path style=" stroke:none;fill-rule:nonzero;fill:#e4c57b;fill-opacity:1;" d="M 152.671875 136.988281 C 151.242188 136.988281 150.082031 138.148438 150.082031 139.578125 C 150.082031 141.007812 151.242188 142.167969 152.671875 142.167969 L 211.253906 142.167969 C 212.683594 142.167969 213.847656 141.007812 213.847656 139.578125 C 213.847656 138.148438 212.683594 136.988281 211.253906 136.988281 Z M 152.671875 136.988281 "/><path style=" stroke:none;fill-rule:nonzero;fill:#e4c57b;fill-opacity:1;" d="M 155.976562 259.65625 C 156.664062 258.972656 157.285156 258.339844 157.945312 257.675781 L 159.554688 256.054688 L 159.554688 240.191406 C 159.554688 240.191406 159.554688 240.148438 159.554688 240.128906 L 159.554688 181.152344 L 152.40625 181.152344 L 152.40625 256.070312 C 153.722656 257.417969 154.757812 258.449219 155.976562 259.65625 Z M 155.976562 259.65625 "/><g clip-rule="nonzero" clip-path="url(#0b3f468265)"><path style=" stroke:none;fill-rule:nonzero;fill:#e4c57b;fill-opacity:1;" d="M 161.945312 176.367188 L 212.851562 176.367188 L 244.066406 138.75 L 244.066406 56.425781 L 119.859375 56.425781 L 119.859375 138.75 L 151.132812 176.367188 Z M 130.183594 122.59375 L 130.183594 68.132812 C 130.183594 66.816406 131.253906 65.746094 132.574219 65.746094 L 231.351562 65.746094 C 232.671875 65.746094 233.742188 66.816406 233.742188 68.132812 L 233.742188 122.59375 C 233.742188 123.910156 232.671875 124.980469 231.351562 124.980469 L 132.574219 124.980469 C 131.253906 124.980469 130.183594 123.910156 130.183594 122.59375 Z M 218.625 139.578125 C 218.625 143.640625 215.324219 146.949219 211.253906 146.949219 L 152.671875 146.949219 C 148.605469 146.949219 145.300781 143.640625 145.300781 139.578125 C 145.300781 135.515625 148.605469 132.207031 152.671875 132.207031 L 211.253906 132.207031 C 215.324219 132.207031 218.625 135.515625 218.625 139.578125 Z M 145.300781 158.988281 C 145.300781 154.925781 148.605469 151.617188 152.671875 151.617188 L 211.253906 151.617188 C 215.324219 151.617188 218.625 154.925781 218.625 158.988281 C 218.625 163.050781 215.324219 166.359375 211.253906 166.359375 L 152.671875 166.359375 C 148.605469 166.359375 145.300781 163.050781 145.300781 158.988281 Z M 145.300781 158.988281 "/></g><path style=" stroke:none;fill-rule:nonzero;fill:#e4c57b;fill-opacity:1;" d="M 170.585938 246.410156 C 173.960938 244.527344 177.289062 243.40625 180.695312 242.980469 C 182.105469 242.753906 183.53125 242.640625 185.085938 242.640625 C 189.894531 242.640625 194.492188 243.8125 198.636719 245.953125 L 198.636719 181.144531 L 164.328125 181.144531 L 164.328125 238.9375 C 166.78125 241.085938 168.945312 243.582031 170.585938 246.40625 Z M 170.585938 246.410156 "/><path style=" stroke:none;fill-rule:nonzero;fill:#e4c57b;fill-opacity:1;" d="M 206.988281 259.65625 C 207.71875 258.929688 208.382812 258.257812 209.085938 257.546875 L 210.566406 256.054688 L 210.566406 237.039062 C 210.566406 237.003906 210.566406 236.976562 210.566406 236.941406 L 210.566406 181.152344 L 203.417969 181.152344 L 203.417969 256.070312 C 204.742188 257.421875 205.769531 258.457031 206.988281 259.65625 Z M 206.988281 259.65625 "/><path style=" stroke:none;fill-rule:nonzero;fill:#e4c57b;fill-opacity:1;" d="M 90.777344 305.800781 L 273.070312 305.800781 C 281.648438 305.800781 288.625 298.871094 288.625 290.347656 C 288.625 284.050781 284.859375 278.4375 279.035156 276.054688 C 278.25 275.734375 277.695312 275.019531 277.570312 274.179688 C 275.773438 261.695312 265.386719 252.640625 252.886719 252.640625 C 252.226562 252.640625 251.609375 252.730469 250.953125 252.816406 C 249.925781 252.964844 248.773438 252.394531 248.347656 251.410156 C 244.371094 242.191406 235.367188 236.234375 225.40625 236.234375 C 221.863281 236.234375 218.496094 236.980469 215.351562 238.375 L 215.351562 257.039062 C 215.351562 257.675781 215.097656 258.285156 214.652344 258.734375 L 212.488281 260.914062 C 211.28125 262.136719 210.199219 263.226562 208.667969 264.714844 C 208.203125 265.171875 207.597656 265.398438 206.996094 265.398438 C 206.394531 265.398438 205.792969 265.175781 205.324219 264.714844 C 202.96875 262.414062 201.628906 261.070312 199.320312 258.714844 C 198.882812 258.269531 198.636719 257.667969 198.636719 257.039062 L 198.636719 251.464844 C 193.574219 248.136719 187.304688 246.765625 181.367188 247.707031 C 177.867188 248.144531 174.488281 249.46875 170.949219 251.769531 C 170.558594 252.023438 170.105469 252.15625 169.648438 252.15625 C 169.429688 252.15625 169.207031 252.128906 168.988281 252.058594 C 168.320312 251.871094 167.777344 251.402344 167.484375 250.769531 C 166.644531 248.96875 165.578125 247.269531 164.335938 245.714844 L 164.335938 257.03125 C 164.335938 257.667969 164.082031 258.273438 163.636719 258.722656 L 161.347656 261.027344 C 160.1875 262.199219 159.128906 263.265625 157.65625 264.707031 C 157.1875 265.160156 156.585938 265.390625 155.984375 265.390625 C 155.382812 265.390625 154.78125 265.164062 154.3125 264.707031 C 151.957031 262.402344 150.613281 261.058594 148.308594 258.703125 C 147.871094 258.257812 147.625 257.65625 147.625 257.035156 L 147.625 236.523438 C 146.679688 236.402344 145.777344 236.230469 144.730469 236.230469 C 134.390625 236.230469 124.996094 242.734375 121.347656 252.417969 C 120.894531 253.609375 119.589844 254.238281 118.382812 253.851562 C 114.34375 252.566406 110.296875 252.417969 107.257812 252.921875 C 101.550781 253.820312 96.46875 256.578125 92.550781 260.902344 C 89.714844 264.089844 87.753906 267.792969 86.878906 271.597656 C 86.675781 272.398438 86.484375 273.195312 86.390625 274.089844 C 86.292969 274.964844 85.730469 275.71875 84.914062 276.054688 C 79.085938 278.417969 75.324219 284.027344 75.324219 290.34375 C 75.324219 298.867188 82.253906 305.796875 90.773438 305.796875 Z M 254.289062 269.296875 C 254.480469 269.105469 254.769531 268.914062 255.054688 268.816406 C 255.957031 268.433594 257.015625 268.675781 257.636719 269.296875 C 258.113281 269.773438 258.347656 270.394531 258.347656 271.015625 C 258.347656 271.636719 258.109375 272.257812 257.636719 272.6875 C 257.207031 273.117188 256.578125 273.40625 255.957031 273.40625 C 255.671875 273.40625 255.335938 273.308594 255.054688 273.214844 C 254.765625 273.070312 254.480469 272.929688 254.289062 272.6875 C 253.8125 272.257812 253.574219 271.636719 253.574219 271.015625 C 253.574219 270.394531 253.816406 269.773438 254.289062 269.296875 Z M 222.746094 254.191406 C 223.414062 253.523438 224.460938 253.332031 225.375 253.667969 C 225.660156 253.808594 225.949219 254 226.140625 254.191406 C 226.570312 254.671875 226.851562 255.242188 226.851562 255.914062 C 226.851562 256.535156 226.5625 257.15625 226.140625 257.585938 C 225.949219 257.777344 225.65625 257.96875 225.375 258.113281 C 225.082031 258.207031 224.753906 258.300781 224.464844 258.300781 C 223.84375 258.300781 223.222656 258.015625 222.75 257.585938 C 222.316406 257.15625 222.078125 256.535156 222.078125 255.914062 C 222.078125 255.242188 222.316406 254.671875 222.75 254.191406 Z M 219.257812 292.046875 C 219.925781 291.378906 220.976562 291.136719 221.886719 291.519531 C 222.175781 291.617188 222.410156 291.808594 222.648438 292.046875 C 223.082031 292.476562 223.320312 293.097656 223.320312 293.71875 C 223.320312 294.003906 223.269531 294.339844 223.179688 294.628906 C 223.035156 294.914062 222.847656 295.199219 222.65625 295.390625 C 222.414062 295.628906 222.175781 295.820312 221.890625 295.917969 C 221.558594 296.0625 221.269531 296.109375 220.933594 296.109375 C 220.3125 296.109375 219.691406 295.871094 219.261719 295.390625 C 219.023438 295.199219 218.878906 294.914062 218.734375 294.628906 C 218.640625 294.339844 218.542969 294.003906 218.542969 293.71875 C 218.542969 293.097656 218.835938 292.476562 219.261719 292.046875 Z M 202.097656 273.117188 C 202.765625 272.449219 203.8125 272.210938 204.726562 272.59375 C 205.011719 272.738281 205.253906 272.878906 205.492188 273.117188 C 205.921875 273.550781 206.160156 274.171875 206.160156 274.792969 C 206.160156 275.414062 205.921875 276.035156 205.492188 276.511719 C 205.253906 276.703125 205.007812 276.894531 204.726562 276.992188 C 204.390625 277.132812 204.105469 277.183594 203.769531 277.183594 C 203.148438 277.183594 202.527344 276.941406 202.097656 276.511719 C 201.667969 276.035156 201.382812 275.414062 201.382812 274.792969 C 201.382812 274.171875 201.671875 273.550781 202.097656 273.117188 Z M 176 295.34375 C 176.289062 295.488281 176.523438 295.679688 176.765625 295.871094 C 177.195312 296.300781 177.476562 296.921875 177.476562 297.542969 C 177.476562 298.210938 177.191406 298.832031 176.765625 299.261719 C 176.523438 299.453125 176.285156 299.644531 176 299.789062 C 175.710938 299.882812 175.378906 299.980469 175.09375 299.980469 C 174.765625 299.980469 174.472656 299.882812 174.136719 299.789062 C 173.851562 299.644531 173.617188 299.453125 173.378906 299.261719 C 172.941406 298.832031 172.703125 298.210938 172.703125 297.542969 C 172.703125 296.921875 172.941406 296.300781 173.378906 295.871094 C 173.617188 295.679688 173.855469 295.488281 174.136719 295.34375 C 174.710938 295.105469 175.386719 295.105469 176.007812 295.34375 Z M 169.542969 273.117188 C 170.410156 272.210938 171.988281 272.210938 172.890625 273.117188 C 173.371094 273.550781 173.605469 274.171875 173.605469 274.792969 C 173.605469 275.125 173.558594 275.414062 173.414062 275.699219 C 173.316406 275.988281 173.125 276.273438 172.890625 276.511719 C 172.460938 276.941406 171.839844 277.183594 171.21875 277.183594 C 170.597656 277.183594 169.972656 276.941406 169.539062 276.511719 C 169.300781 276.273438 169.109375 275.988281 169.019531 275.699219 C 168.875 275.414062 168.828125 275.125 168.828125 274.792969 C 168.828125 274.171875 169.066406 273.550781 169.539062 273.117188 Z M 143.257812 256.296875 C 143.929688 255.625 144.976562 255.433594 145.890625 255.769531 C 146.175781 255.914062 146.410156 256.105469 146.652344 256.296875 C 147.085938 256.773438 147.367188 257.347656 147.367188 258.015625 C 147.367188 258.636719 147.082031 259.257812 146.652344 259.6875 C 146.410156 259.878906 146.171875 260.070312 145.890625 260.214844 C 145.597656 260.308594 145.265625 260.40625 144.980469 260.40625 C 144.3125 260.40625 143.691406 260.117188 143.261719 259.6875 C 142.832031 259.257812 142.550781 258.636719 142.550781 258.015625 C 142.550781 257.347656 142.835938 256.773438 143.261719 256.296875 Z M 142.734375 284.398438 C 142.875 284.113281 143.023438 283.824219 143.257812 283.632812 C 143.5 283.394531 143.738281 283.203125 144.023438 283.109375 C 144.59375 282.871094 145.265625 282.871094 145.890625 283.109375 C 146.175781 283.203125 146.410156 283.394531 146.652344 283.632812 C 146.839844 283.824219 147.03125 284.113281 147.175781 284.398438 C 147.277344 284.6875 147.367188 285.019531 147.367188 285.308594 C 147.367188 285.929688 147.082031 286.550781 146.652344 286.980469 C 146.410156 287.21875 146.171875 287.410156 145.890625 287.503906 C 145.597656 287.648438 145.265625 287.695312 144.980469 287.695312 C 144.3125 287.695312 143.691406 287.457031 143.261719 286.980469 C 142.832031 286.550781 142.550781 285.929688 142.550781 285.308594 C 142.550781 285.019531 142.644531 284.6875 142.742188 284.398438 Z M 120.703125 289.65625 C 120.800781 289.371094 120.992188 289.082031 121.183594 288.84375 C 121.855469 288.222656 122.902344 287.984375 123.8125 288.367188 C 124.101562 288.460938 124.386719 288.652344 124.578125 288.84375 C 124.816406 289.082031 124.957031 289.371094 125.097656 289.65625 C 125.242188 289.941406 125.289062 290.230469 125.289062 290.5625 C 125.289062 291.1875 125.050781 291.808594 124.578125 292.238281 C 124.386719 292.476562 124.097656 292.667969 123.8125 292.761719 C 123.523438 292.90625 123.191406 292.953125 122.90625 292.953125 C 122.285156 292.953125 121.664062 292.714844 121.191406 292.238281 C 120.753906 291.808594 120.515625 291.1875 120.515625 290.5625 C 120.515625 290.230469 120.5625 289.941406 120.707031 289.65625 Z M 107.128906 266.1875 C 107.273438 265.902344 107.414062 265.613281 107.652344 265.425781 C 107.894531 265.183594 108.132812 264.992188 108.414062 264.898438 C 108.988281 264.660156 109.660156 264.660156 110.234375 264.898438 C 110.566406 264.992188 110.804688 265.183594 111.046875 265.425781 C 111.238281 265.613281 111.429688 265.902344 111.570312 266.1875 C 111.667969 266.476562 111.710938 266.808594 111.710938 267.097656 C 111.710938 267.71875 111.472656 268.339844 111.042969 268.769531 C 110.558594 269.246094 109.945312 269.488281 109.320312 269.488281 C 108.699219 269.488281 108.078125 269.246094 107.648438 268.769531 C 107.214844 268.339844 106.933594 267.71875 106.933594 267.097656 C 106.933594 266.808594 107.027344 266.476562 107.125 266.1875 Z M 98.09375 288.890625 C 99 287.984375 100.582031 287.984375 101.4375 288.890625 C 101.679688 289.082031 101.871094 289.371094 101.960938 289.65625 C 102.105469 289.941406 102.152344 290.230469 102.152344 290.5625 C 102.152344 291.1875 101.914062 291.808594 101.4375 292.238281 C 101.003906 292.714844 100.382812 292.953125 99.761719 292.953125 C 99.140625 292.953125 98.519531 292.714844 98.089844 292.238281 C 97.65625 291.808594 97.375 291.1875 97.375 290.5625 C 97.375 289.941406 97.660156 289.320312 98.089844 288.890625 Z M 98.09375 288.890625 "/><path style=" stroke:none;fill-rule:nonzero;fill:#e4c57b;fill-opacity:1;" d="M 175.867188 108.261719 C 180.269531 108.261719 183.851562 104.679688 183.851562 100.28125 C 183.851562 99.125 183.242188 97.230469 182.285156 94.984375 C 182.261719 94.929688 182.230469 94.875 182.210938 94.816406 C 180.617188 91.113281 178.128906 86.496094 175.867188 82.660156 C 172.191406 88.894531 167.886719 97.207031 167.886719 100.28125 C 167.886719 104.683594 171.464844 108.261719 175.867188 108.261719 Z M 175.867188 108.261719 "/><path style=" stroke:none;fill-rule:nonzero;fill:#e4c57b;fill-opacity:1;" d="M 190.019531 108.277344 C 193.339844 108.277344 196.046875 105.578125 196.046875 102.253906 C 196.046875 100.0625 192.972656 93.960938 190.035156 88.902344 C 189.15625 90.421875 188.109375 92.3125 187.117188 94.230469 C 188.03125 96.578125 188.628906 98.714844 188.628906 100.28125 C 188.628906 102.8125 187.871094 105.160156 186.59375 107.144531 C 187.59375 107.863281 188.773438 108.277344 190.019531 108.277344 Z M 190.019531 108.277344 "/><path style=" stroke:none;fill-rule:nonzero;fill:#e4c57b;fill-opacity:1;" d="M 134.964844 120.203125 L 228.964844 120.203125 L 228.964844 70.523438 L 134.964844 70.523438 Z M 173.847656 76.785156 C 174.714844 75.394531 177.019531 75.394531 177.890625 76.785156 C 178.875 78.347656 182.007812 83.4375 184.644531 88.714844 C 186.386719 85.578125 187.902344 83.136719 187.988281 82.992188 C 188.429688 82.296875 189.1875 81.871094 190.015625 81.867188 C 190.835938 81.867188 191.601562 82.285156 192.035156 82.980469 C 193.507812 85.3125 200.820312 97.1875 200.820312 102.253906 C 200.820312 108.210938 195.96875 113.058594 190.015625 113.058594 C 187.515625 113.058594 185.15625 112.195312 183.253906 110.648438 C 181.164062 112.144531 178.621094 113.042969 175.863281 113.042969 C 168.824219 113.042969 163.101562 107.316406 163.101562 100.28125 C 163.101562 94.171875 172.042969 79.636719 173.839844 76.785156 Z M 173.847656 76.785156 "/><path style=" stroke:none;fill-rule:nonzero;fill:#e4c57b;fill-opacity:1;" d="M 211.253906 161.578125 C 212.683594 161.578125 213.847656 160.417969 213.847656 158.988281 C 213.847656 157.558594 212.683594 156.398438 211.253906 156.398438 L 152.671875 156.398438 C 151.242188 156.398438 150.082031 157.558594 150.082031 158.988281 C 150.082031 160.417969 151.242188 161.578125 152.671875 161.578125 Z M 211.253906 161.578125 "/></g></svg>