<svg xmlns="http://www.w3.org/2000/svg" xmlns:xlink="http://www.w3.org/1999/xlink" width="500" zoomAndPan="magnify" viewBox="0 0 375 374.999991" height="500" preserveAspectRatio="xMidYMid meet" version="1.2"><g id="7f09d78047"><path style=" stroke:none;fill-rule:nonzero;fill:#315d6a;fill-opacity:1;" d="M 143.457031 121.179688 C 141.308594 121.179688 139.5625 122.925781 139.5625 125.070312 C 139.5625 127.21875 141.308594 128.964844 143.457031 128.964844 L 231.507812 128.964844 C 233.65625 128.964844 235.402344 127.21875 235.402344 125.070312 C 235.402344 122.925781 233.65625 121.179688 231.507812 121.179688 Z M 143.457031 121.179688 "/><path style=" stroke:none;fill-rule:nonzero;fill:#315d6a;fill-opacity:1;" d="M 148.417969 305.554688 C 149.453125 304.527344 150.386719 303.578125 151.378906 302.578125 L 153.800781 300.144531 L 153.800781 276.300781 C 153.800781 276.300781 153.800781 276.234375 153.800781 276.207031 L 153.800781 187.558594 L 143.054688 187.558594 L 143.054688 300.164062 C 145.035156 302.191406 146.585938 303.742188 148.417969 305.554688 Z M 148.417969 305.554688 "/><path style=" stroke:none;fill-rule:nonzero;fill:#315d6a;fill-opacity:1;" d="M 157.390625 180.367188 L 233.90625 180.367188 L 280.824219 123.828125 L 280.824219 0.0859375 L 94.136719 0.0859375 L 94.136719 123.828125 L 141.140625 180.367188 Z M 109.65625 99.539062 L 109.65625 17.6875 C 109.65625 15.703125 111.265625 14.09375 113.246094 14.09375 L 261.71875 14.09375 C 263.699219 14.09375 265.308594 15.703125 265.308594 17.6875 L 265.308594 99.539062 C 265.308594 101.523438 263.699219 103.132812 261.71875 103.132812 L 113.246094 103.132812 C 111.265625 103.132812 109.65625 101.523438 109.65625 99.539062 Z M 242.585938 125.070312 C 242.585938 131.179688 237.621094 136.148438 231.507812 136.148438 L 143.457031 136.148438 C 137.34375 136.148438 132.378906 131.179688 132.378906 125.070312 C 132.378906 118.964844 137.34375 113.996094 143.457031 113.996094 L 231.507812 113.996094 C 237.621094 113.996094 242.585938 118.964844 242.585938 125.070312 Z M 132.378906 154.246094 C 132.378906 148.140625 137.34375 143.167969 143.457031 143.167969 L 231.507812 143.167969 C 237.621094 143.167969 242.585938 148.140625 242.585938 154.246094 C 242.585938 160.351562 237.621094 165.324219 231.507812 165.324219 L 143.457031 165.324219 C 137.34375 165.324219 132.378906 160.351562 132.378906 154.246094 Z M 132.378906 154.246094 "/><path style=" stroke:none;fill-rule:nonzero;fill:#315d6a;fill-opacity:1;" d="M 170.378906 285.648438 C 175.453125 282.816406 180.453125 281.128906 185.574219 280.488281 C 187.695312 280.152344 189.835938 279.976562 192.175781 279.976562 C 199.402344 279.976562 206.316406 281.738281 212.542969 284.957031 L 212.542969 187.550781 L 160.976562 187.550781 L 160.976562 274.410156 C 164.664062 277.644531 167.917969 281.394531 170.378906 285.640625 Z M 170.378906 285.648438 "/><path style=" stroke:none;fill-rule:nonzero;fill:#315d6a;fill-opacity:1;" d="M 225.09375 305.554688 C 226.191406 304.460938 227.191406 303.457031 228.246094 302.386719 L 230.472656 300.144531 L 230.472656 271.558594 C 230.472656 271.507812 230.472656 271.464844 230.472656 271.414062 L 230.472656 187.558594 L 219.726562 187.558594 L 219.726562 300.164062 C 221.71875 302.199219 223.261719 303.75 225.09375 305.554688 Z M 225.09375 305.554688 "/><path style=" stroke:none;fill-rule:nonzero;fill:#315d6a;fill-opacity:1;" d="M 50.425781 374.914062 L 324.417969 374.914062 C 337.3125 374.914062 347.800781 364.496094 347.800781 351.6875 C 347.800781 342.21875 342.140625 333.785156 333.382812 330.199219 C 332.207031 329.71875 331.371094 328.648438 331.183594 327.386719 C 328.484375 308.621094 312.875 295.007812 294.082031 295.007812 C 293.089844 295.007812 292.164062 295.144531 291.179688 295.273438 C 289.632812 295.496094 287.902344 294.640625 287.261719 293.160156 C 281.285156 279.304688 267.75 270.351562 252.78125 270.351562 C 247.449219 270.351562 242.390625 271.472656 237.664062 273.570312 L 237.664062 301.625 C 237.664062 302.578125 237.285156 303.492188 236.617188 304.167969 L 233.363281 307.441406 C 231.542969 309.28125 229.921875 310.917969 227.621094 313.160156 C 226.917969 313.84375 226.011719 314.1875 225.109375 314.1875 C 224.203125 314.1875 223.296875 313.851562 222.59375 313.160156 C 219.050781 309.699219 217.039062 307.679688 213.570312 304.136719 C 212.910156 303.46875 212.542969 302.566406 212.542969 301.625 L 212.542969 293.238281 C 204.933594 288.238281 195.511719 286.179688 186.585938 287.59375 C 181.320312 288.253906 176.242188 290.246094 170.925781 293.699219 C 170.335938 294.082031 169.65625 294.28125 168.972656 294.28125 C 168.640625 294.28125 168.304688 294.238281 167.980469 294.136719 C 166.976562 293.851562 166.15625 293.148438 165.71875 292.199219 C 164.453125 289.488281 162.851562 286.941406 160.984375 284.597656 L 160.984375 301.609375 C 160.984375 302.566406 160.601562 303.476562 159.933594 304.152344 L 156.496094 307.613281 C 154.75 309.375 153.160156 310.976562 150.949219 313.148438 C 150.246094 313.828125 149.339844 314.175781 148.433594 314.175781 C 147.527344 314.175781 146.625 313.835938 145.917969 313.148438 C 142.378906 309.683594 140.359375 307.664062 136.898438 304.125 C 136.234375 303.457031 135.871094 302.550781 135.871094 301.617188 L 135.871094 270.78125 C 134.445312 270.601562 133.089844 270.34375 131.515625 270.34375 C 115.976562 270.34375 101.851562 280.121094 96.371094 294.675781 C 95.691406 296.464844 93.726562 297.414062 91.917969 296.832031 C 85.847656 294.898438 79.761719 294.675781 75.195312 295.429688 C 66.617188 296.78125 58.980469 300.925781 53.089844 307.429688 C 48.828125 312.21875 45.875 317.789062 44.5625 323.503906 C 44.261719 324.707031 43.972656 325.90625 43.828125 327.25 C 43.683594 328.5625 42.835938 329.699219 41.609375 330.199219 C 32.851562 333.757812 27.199219 342.183594 27.199219 351.679688 C 27.199219 364.488281 37.613281 374.90625 50.417969 374.90625 Z M 296.191406 320.042969 C 296.480469 319.753906 296.910156 319.46875 297.34375 319.324219 C 298.699219 318.75 300.289062 319.109375 301.222656 320.042969 C 301.941406 320.761719 302.292969 321.695312 302.292969 322.628906 C 302.292969 323.5625 301.933594 324.496094 301.222656 325.144531 C 300.574219 325.789062 299.632812 326.222656 298.699219 326.222656 C 298.269531 326.222656 297.765625 326.078125 297.34375 325.933594 C 296.902344 325.71875 296.480469 325.503906 296.191406 325.144531 C 295.472656 324.496094 295.113281 323.5625 295.113281 322.628906 C 295.113281 321.695312 295.480469 320.761719 296.191406 320.042969 Z M 248.777344 297.34375 C 249.785156 296.335938 251.359375 296.046875 252.730469 296.550781 C 253.160156 296.765625 253.59375 297.054688 253.878906 297.34375 C 254.527344 298.058594 254.949219 298.921875 254.949219 299.929688 C 254.949219 300.863281 254.519531 301.796875 253.878906 302.441406 C 253.59375 302.730469 253.152344 303.015625 252.730469 303.234375 C 252.292969 303.375 251.796875 303.519531 251.363281 303.519531 C 250.429688 303.519531 249.496094 303.089844 248.785156 302.441406 C 248.132812 301.796875 247.773438 300.863281 247.773438 299.929688 C 247.773438 298.921875 248.132812 298.058594 248.785156 297.34375 Z M 243.535156 354.238281 C 244.539062 353.234375 246.121094 352.875 247.484375 353.449219 C 247.925781 353.59375 248.277344 353.878906 248.636719 354.238281 C 249.28125 354.886719 249.640625 355.820312 249.640625 356.753906 C 249.640625 357.183594 249.570312 357.6875 249.433594 358.117188 C 249.21875 358.546875 248.929688 358.980469 248.640625 359.265625 C 248.28125 359.625 247.925781 359.914062 247.492188 360.058594 C 246.996094 360.273438 246.558594 360.34375 246.054688 360.34375 C 245.121094 360.34375 244.1875 359.984375 243.542969 359.265625 C 243.183594 358.980469 242.96875 358.546875 242.75 358.117188 C 242.609375 357.6875 242.464844 357.183594 242.464844 356.753906 C 242.464844 355.820312 242.902344 354.886719 243.542969 354.238281 Z M 217.746094 325.789062 C 218.75 324.785156 220.324219 324.425781 221.695312 325 C 222.125 325.214844 222.484375 325.429688 222.84375 325.789062 C 223.492188 326.4375 223.851562 327.371094 223.851562 328.304688 C 223.851562 329.238281 223.492188 330.171875 222.84375 330.890625 C 222.484375 331.179688 222.121094 331.464844 221.695312 331.609375 C 221.191406 331.824219 220.761719 331.898438 220.257812 331.898438 C 219.324219 331.898438 218.390625 331.539062 217.746094 330.890625 C 217.097656 330.171875 216.667969 329.238281 216.667969 328.304688 C 216.667969 327.371094 217.105469 326.4375 217.746094 325.789062 Z M 178.519531 359.195312 C 178.949219 359.410156 179.304688 359.699219 179.667969 359.984375 C 180.316406 360.632812 180.738281 361.566406 180.738281 362.5 C 180.738281 363.503906 180.308594 364.441406 179.667969 365.085938 C 179.304688 365.375 178.945312 365.660156 178.519531 365.875 C 178.082031 366.019531 177.585938 366.164062 177.15625 366.164062 C 176.660156 366.164062 176.222656 366.019531 175.71875 365.875 C 175.289062 365.660156 174.933594 365.375 174.574219 365.085938 C 173.921875 364.441406 173.5625 363.503906 173.5625 362.5 C 173.5625 361.566406 173.921875 360.632812 174.574219 359.984375 C 174.933594 359.699219 175.292969 359.410156 175.71875 359.195312 C 176.582031 358.835938 177.59375 358.835938 178.527344 359.195312 Z M 168.816406 325.789062 C 170.113281 324.425781 172.484375 324.425781 173.84375 325.789062 C 174.570312 326.4375 174.921875 327.371094 174.921875 328.304688 C 174.921875 328.808594 174.847656 329.238281 174.632812 329.667969 C 174.484375 330.101562 174.195312 330.53125 173.84375 330.890625 C 173.195312 331.539062 172.261719 331.894531 171.328125 331.894531 C 170.394531 331.894531 169.460938 331.539062 168.808594 330.890625 C 168.449219 330.53125 168.160156 330.101562 168.023438 329.667969 C 167.808594 329.238281 167.738281 328.808594 167.738281 328.304688 C 167.738281 327.371094 168.097656 326.4375 168.808594 325.789062 Z M 129.304688 300.503906 C 130.316406 299.496094 131.890625 299.210938 133.261719 299.710938 C 133.691406 299.929688 134.042969 300.214844 134.402344 300.503906 C 135.058594 301.222656 135.480469 302.082031 135.480469 303.089844 C 135.480469 304.023438 135.050781 304.957031 134.402344 305.601562 C 134.042969 305.890625 133.683594 306.179688 133.261719 306.394531 C 132.824219 306.539062 132.320312 306.679688 131.898438 306.679688 C 130.890625 306.679688 129.957031 306.25 129.308594 305.601562 C 128.664062 304.957031 128.238281 304.023438 128.238281 303.089844 C 128.238281 302.082031 128.671875 301.222656 129.308594 300.503906 Z M 128.519531 342.746094 C 128.726562 342.3125 128.949219 341.882812 129.304688 341.59375 C 129.667969 341.234375 130.027344 340.949219 130.453125 340.804688 C 131.316406 340.445312 132.320312 340.445312 133.261719 340.804688 C 133.691406 340.949219 134.042969 341.234375 134.402344 341.59375 C 134.691406 341.882812 134.976562 342.3125 135.195312 342.746094 C 135.34375 343.175781 135.480469 343.679688 135.480469 344.109375 C 135.480469 345.042969 135.050781 345.976562 134.402344 346.625 C 134.042969 346.984375 133.683594 347.269531 133.261719 347.414062 C 132.824219 347.628906 132.320312 347.699219 131.898438 347.699219 C 130.890625 347.699219 129.957031 347.34375 129.308594 346.625 C 128.664062 345.976562 128.238281 345.042969 128.238281 344.109375 C 128.238281 343.679688 128.382812 343.175781 128.527344 342.746094 Z M 95.402344 350.648438 C 95.554688 350.214844 95.839844 349.785156 96.128906 349.425781 C 97.132812 348.492188 98.707031 348.132812 100.078125 348.707031 C 100.511719 348.851562 100.941406 349.136719 101.226562 349.425781 C 101.585938 349.785156 101.796875 350.214844 102.011719 350.648438 C 102.226562 351.078125 102.300781 351.507812 102.300781 352.011719 C 102.300781 352.945312 101.941406 353.878906 101.226562 354.527344 C 100.941406 354.886719 100.503906 355.171875 100.078125 355.316406 C 99.640625 355.53125 99.144531 355.601562 98.714844 355.601562 C 97.78125 355.601562 96.847656 355.246094 96.136719 354.527344 C 95.480469 353.878906 95.121094 352.945312 95.121094 352.011719 C 95.121094 351.507812 95.195312 351.078125 95.410156 350.648438 Z M 75 315.375 C 75.214844 314.941406 75.429688 314.511719 75.789062 314.222656 C 76.148438 313.863281 76.507812 313.578125 76.933594 313.433594 C 77.792969 313.074219 78.808594 313.074219 79.667969 313.433594 C 80.164062 313.578125 80.523438 313.863281 80.890625 314.222656 C 81.179688 314.511719 81.464844 314.941406 81.675781 315.375 C 81.824219 315.804688 81.890625 316.308594 81.890625 316.738281 C 81.890625 317.671875 81.53125 318.605469 80.882812 319.253906 C 80.15625 319.972656 79.230469 320.332031 78.296875 320.332031 C 77.363281 320.332031 76.429688 319.972656 75.78125 319.253906 C 75.128906 318.605469 74.707031 317.671875 74.707031 316.738281 C 74.707031 316.308594 74.847656 315.804688 74.992188 315.375 Z M 61.421875 349.496094 C 62.78125 348.132812 65.15625 348.132812 66.445312 349.496094 C 66.808594 349.785156 67.097656 350.214844 67.234375 350.648438 C 67.449219 351.078125 67.523438 351.507812 67.523438 352.011719 C 67.523438 352.945312 67.164062 353.878906 66.445312 354.527344 C 65.796875 355.246094 64.863281 355.601562 63.929688 355.601562 C 62.996094 355.601562 62.0625 355.246094 61.414062 354.527344 C 60.761719 353.878906 60.335938 352.945312 60.335938 352.011719 C 60.335938 351.078125 60.769531 350.144531 61.414062 349.496094 Z M 61.421875 349.496094 "/><path style=" stroke:none;fill-rule:nonzero;fill:#315d6a;fill-opacity:1;" d="M 178.320312 78.003906 C 184.933594 78.003906 190.316406 72.613281 190.316406 66.003906 C 190.316406 64.265625 189.402344 61.421875 187.96875 58.046875 C 187.929688 57.960938 187.878906 57.878906 187.851562 57.792969 C 185.460938 52.226562 181.71875 45.289062 178.320312 39.519531 C 172.792969 48.894531 166.320312 61.386719 166.320312 66.003906 C 166.320312 72.621094 171.703125 78.003906 178.320312 78.003906 Z M 178.320312 78.003906 "/><path style=" stroke:none;fill-rule:nonzero;fill:#315d6a;fill-opacity:1;" d="M 199.589844 78.023438 C 204.582031 78.023438 208.648438 73.964844 208.648438 68.972656 C 208.648438 65.675781 204.03125 56.507812 199.613281 48.902344 C 198.289062 51.183594 196.71875 54.03125 195.230469 56.910156 C 196.601562 60.4375 197.5 63.648438 197.5 66.003906 C 197.5 69.8125 196.359375 73.339844 194.441406 76.320312 C 195.941406 77.398438 197.714844 78.023438 199.589844 78.023438 Z M 199.589844 78.023438 "/><path style=" stroke:none;fill-rule:nonzero;fill:#315d6a;fill-opacity:1;" d="M 116.839844 95.949219 L 258.125 95.949219 L 258.125 21.277344 L 116.839844 21.277344 Z M 175.28125 30.691406 C 176.585938 28.597656 180.050781 28.597656 181.359375 30.691406 C 182.835938 33.039062 187.550781 40.691406 191.507812 48.621094 C 194.128906 43.90625 196.40625 40.238281 196.539062 40.023438 C 197.199219 38.972656 198.339844 38.332031 199.582031 38.324219 C 200.820312 38.324219 201.96875 38.957031 202.621094 40 C 204.835938 43.503906 215.824219 61.359375 215.824219 68.972656 C 215.824219 77.925781 208.535156 85.207031 199.582031 85.207031 C 195.824219 85.207031 192.277344 83.914062 189.417969 81.585938 C 186.277344 83.835938 182.457031 85.1875 178.3125 85.1875 C 167.730469 85.1875 159.128906 76.582031 159.128906 66.003906 C 159.128906 56.824219 172.570312 34.976562 175.273438 30.691406 Z M 175.28125 30.691406 "/><path style=" stroke:none;fill-rule:nonzero;fill:#315d6a;fill-opacity:1;" d="M 231.507812 158.140625 C 233.65625 158.140625 235.402344 156.394531 235.402344 154.246094 C 235.402344 152.097656 233.65625 150.351562 231.507812 150.351562 L 143.457031 150.351562 C 141.308594 150.351562 139.5625 152.097656 139.5625 154.246094 C 139.5625 156.394531 141.308594 158.140625 143.457031 158.140625 Z M 231.507812 158.140625 "/><path style=" stroke:none;fill-rule:nonzero;fill:#315d6a;fill-opacity:1;" d="M 143.457031 121.179688 C 141.308594 121.179688 139.5625 122.925781 139.5625 125.070312 C 139.5625 127.21875 141.308594 128.964844 143.457031 128.964844 L 231.507812 128.964844 C 233.65625 128.964844 235.402344 127.21875 235.402344 125.070312 C 235.402344 122.925781 233.65625 121.179688 231.507812 121.179688 Z M 143.457031 121.179688 "/><path style=" stroke:none;fill-rule:nonzero;fill:#315d6a;fill-opacity:1;" d="M 148.417969 305.554688 C 149.453125 304.527344 150.386719 303.578125 151.378906 302.578125 L 153.800781 300.144531 L 153.800781 276.300781 C 153.800781 276.300781 153.800781 276.234375 153.800781 276.207031 L 153.800781 187.558594 L 143.054688 187.558594 L 143.054688 300.164062 C 145.035156 302.191406 146.585938 303.742188 148.417969 305.554688 Z M 148.417969 305.554688 "/><path style=" stroke:none;fill-rule:nonzero;fill:#315d6a;fill-opacity:1;" d="M 157.390625 180.367188 L 233.90625 180.367188 L 280.824219 123.828125 L 280.824219 0.0859375 L 94.136719 0.0859375 L 94.136719 123.828125 L 141.140625 180.367188 Z M 109.65625 99.539062 L 109.65625 17.6875 C 109.65625 15.703125 111.265625 14.09375 113.246094 14.09375 L 261.71875 14.09375 C 263.699219 14.09375 265.308594 15.703125 265.308594 17.6875 L 265.308594 99.539062 C 265.308594 101.523438 263.699219 103.132812 261.71875 103.132812 L 113.246094 103.132812 C 111.265625 103.132812 109.65625 101.523438 109.65625 99.539062 Z M 242.585938 125.070312 C 242.585938 131.179688 237.621094 136.148438 231.507812 136.148438 L 143.457031 136.148438 C 137.34375 136.148438 132.378906 131.179688 132.378906 125.070312 C 132.378906 118.964844 137.34375 113.996094 143.457031 113.996094 L 231.507812 113.996094 C 237.621094 113.996094 242.585938 118.964844 242.585938 125.070312 Z M 132.378906 154.246094 C 132.378906 148.140625 137.34375 143.167969 143.457031 143.167969 L 231.507812 143.167969 C 237.621094 143.167969 242.585938 148.140625 242.585938 154.246094 C 242.585938 160.351562 237.621094 165.324219 231.507812 165.324219 L 143.457031 165.324219 C 137.34375 165.324219 132.378906 160.351562 132.378906 154.246094 Z M 132.378906 154.246094 "/><path style=" stroke:none;fill-rule:nonzero;fill:#315d6a;fill-opacity:1;" d="M 170.378906 285.648438 C 175.453125 282.816406 180.453125 281.128906 185.574219 280.488281 C 187.695312 280.152344 189.835938 279.976562 192.175781 279.976562 C 199.402344 279.976562 206.316406 281.738281 212.542969 284.957031 L 212.542969 187.550781 L 160.976562 187.550781 L 160.976562 274.410156 C 164.664062 277.644531 167.917969 281.394531 170.378906 285.640625 Z M 170.378906 285.648438 "/><path style=" stroke:none;fill-rule:nonzero;fill:#315d6a;fill-opacity:1;" d="M 225.09375 305.554688 C 226.191406 304.460938 227.191406 303.457031 228.246094 302.386719 L 230.472656 300.144531 L 230.472656 271.558594 C 230.472656 271.507812 230.472656 271.464844 230.472656 271.414062 L 230.472656 187.558594 L 219.726562 187.558594 L 219.726562 300.164062 C 221.71875 302.199219 223.261719 303.75 225.09375 305.554688 Z M 225.09375 305.554688 "/><path style=" stroke:none;fill-rule:nonzero;fill:#315d6a;fill-opacity:1;" d="M 50.425781 374.914062 L 324.417969 374.914062 C 337.3125 374.914062 347.800781 364.496094 347.800781 351.6875 C 347.800781 342.21875 342.140625 333.785156 333.382812 330.199219 C 332.207031 329.71875 331.371094 328.648438 331.183594 327.386719 C 328.484375 308.621094 312.875 295.007812 294.082031 295.007812 C 293.089844 295.007812 292.164062 295.144531 291.179688 295.273438 C 289.632812 295.496094 287.902344 294.640625 287.261719 293.160156 C 281.285156 279.304688 267.75 270.351562 252.78125 270.351562 C 247.449219 270.351562 242.390625 271.472656 237.664062 273.570312 L 237.664062 301.625 C 237.664062 302.578125 237.285156 303.492188 236.617188 304.167969 L 233.363281 307.441406 C 231.542969 309.28125 229.921875 310.917969 227.621094 313.160156 C 226.917969 313.84375 226.011719 314.1875 225.109375 314.1875 C 224.203125 314.1875 223.296875 313.851562 222.59375 313.160156 C 219.050781 309.699219 217.039062 307.679688 213.570312 304.136719 C 212.910156 303.46875 212.542969 302.566406 212.542969 301.625 L 212.542969 293.238281 C 204.933594 288.238281 195.511719 286.179688 186.585938 287.59375 C 181.320312 288.253906 176.242188 290.246094 170.925781 293.699219 C 170.335938 294.082031 169.65625 294.28125 168.972656 294.28125 C 168.640625 294.28125 168.304688 294.238281 167.980469 294.136719 C 166.976562 293.851562 166.15625 293.148438 165.71875 292.199219 C 164.453125 289.488281 162.851562 286.941406 160.984375 284.597656 L 160.984375 301.609375 C 160.984375 302.566406 160.601562 303.476562 159.933594 304.152344 L 156.496094 307.613281 C 154.75 309.375 153.160156 310.976562 150.949219 313.148438 C 150.246094 313.828125 149.339844 314.175781 148.433594 314.175781 C 147.527344 314.175781 146.625 313.835938 145.917969 313.148438 C 142.378906 309.683594 140.359375 307.664062 136.898438 304.125 C 136.234375 303.457031 135.871094 302.550781 135.871094 301.617188 L 135.871094 270.78125 C 134.445312 270.601562 133.089844 270.34375 131.515625 270.34375 C 115.976562 270.34375 101.851562 280.121094 96.371094 294.675781 C 95.691406 296.464844 93.726562 297.414062 91.917969 296.832031 C 85.847656 294.898438 79.761719 294.675781 75.195312 295.429688 C 66.617188 296.78125 58.980469 300.925781 53.089844 307.429688 C 48.828125 312.21875 45.875 317.789062 44.5625 323.503906 C 44.261719 324.707031 43.972656 325.90625 43.828125 327.25 C 43.683594 328.5625 42.835938 329.699219 41.609375 330.199219 C 32.851562 333.757812 27.199219 342.183594 27.199219 351.679688 C 27.199219 364.488281 37.613281 374.90625 50.417969 374.90625 Z M 296.191406 320.042969 C 296.480469 319.753906 296.910156 319.46875 297.34375 319.324219 C 298.699219 318.75 300.289062 319.109375 301.222656 320.042969 C 301.941406 320.761719 302.292969 321.695312 302.292969 322.628906 C 302.292969 323.5625 301.933594 324.496094 301.222656 325.144531 C 300.574219 325.789062 299.632812 326.222656 298.699219 326.222656 C 298.269531 326.222656 297.765625 326.078125 297.34375 325.933594 C 296.902344 325.71875 296.480469 325.503906 296.191406 325.144531 C 295.472656 324.496094 295.113281 323.5625 295.113281 322.628906 C 295.113281 321.695312 295.480469 320.761719 296.191406 320.042969 Z M 248.777344 297.34375 C 249.785156 296.335938 251.359375 296.046875 252.730469 296.550781 C 253.160156 296.765625 253.59375 297.054688 253.878906 297.34375 C 254.527344 298.058594 254.949219 298.921875 254.949219 299.929688 C 254.949219 300.863281 254.519531 301.796875 253.878906 302.441406 C 253.59375 302.730469 253.152344 303.015625 252.730469 303.234375 C 252.292969 303.375 251.796875 303.519531 251.363281 303.519531 C 250.429688 303.519531 249.496094 303.089844 248.785156 302.441406 C 248.132812 301.796875 247.773438 300.863281 247.773438 299.929688 C 247.773438 298.921875 248.132812 298.058594 248.785156 297.34375 Z M 243.535156 354.238281 C 244.539062 353.234375 246.121094 352.875 247.484375 353.449219 C 247.925781 353.59375 248.277344 353.878906 248.636719 354.238281 C 249.28125 354.886719 249.640625 355.820312 249.640625 356.753906 C 249.640625 357.183594 249.570312 357.6875 249.433594 358.117188 C 249.21875 358.546875 248.929688 358.980469 248.640625 359.265625 C 248.28125 359.625 247.925781 359.914062 247.492188 360.058594 C 246.996094 360.273438 246.558594 360.34375 246.054688 360.34375 C 245.121094 360.34375 244.1875 359.984375 243.542969 359.265625 C 243.183594 358.980469 242.96875 358.546875 242.75 358.117188 C 242.609375 357.6875 242.464844 357.183594 242.464844 356.753906 C 242.464844 355.820312 242.902344 354.886719 243.542969 354.238281 Z M 217.746094 325.789062 C 218.75 324.785156 220.324219 324.425781 221.695312 325 C 222.125 325.214844 222.484375 325.429688 222.84375 325.789062 C 223.492188 326.4375 223.851562 327.371094 223.851562 328.304688 C 223.851562 329.238281 223.492188 330.171875 222.84375 330.890625 C 222.484375 331.179688 222.121094 331.464844 221.695312 331.609375 C 221.191406 331.824219 220.761719 331.898438 220.257812 331.898438 C 219.324219 331.898438 218.390625 331.539062 217.746094 330.890625 C 217.097656 330.171875 216.667969 329.238281 216.667969 328.304688 C 216.667969 327.371094 217.105469 326.4375 217.746094 325.789062 Z M 178.519531 359.195312 C 178.949219 359.410156 179.304688 359.699219 179.667969 359.984375 C 180.316406 360.632812 180.738281 361.566406 180.738281 362.5 C 180.738281 363.503906 180.308594 364.441406 179.667969 365.085938 C 179.304688 365.375 178.945312 365.660156 178.519531 365.875 C 178.082031 366.019531 177.585938 366.164062 177.15625 366.164062 C 176.660156 366.164062 176.222656 366.019531 175.71875 365.875 C 175.289062 365.660156 174.933594 365.375 174.574219 365.085938 C 173.921875 364.441406 173.5625 363.503906 173.5625 362.5 C 173.5625 361.566406 173.921875 360.632812 174.574219 359.984375 C 174.933594 359.699219 175.292969 359.410156 175.71875 359.195312 C 176.582031 358.835938 177.59375 358.835938 178.527344 359.195312 Z M 168.816406 325.789062 C 170.113281 324.425781 172.484375 324.425781 173.84375 325.789062 C 174.570312 326.4375 174.921875 327.371094 174.921875 328.304688 C 174.921875 328.808594 174.847656 329.238281 174.632812 329.667969 C 174.484375 330.101562 174.195312 330.53125 173.84375 330.890625 C 173.195312 331.539062 172.261719 331.894531 171.328125 331.894531 C 170.394531 331.894531 169.460938 331.539062 168.808594 330.890625 C 168.449219 330.53125 168.160156 330.101562 168.023438 329.667969 C 167.808594 329.238281 167.738281 328.808594 167.738281 328.304688 C 167.738281 327.371094 168.097656 326.4375 168.808594 325.789062 Z M 129.304688 300.503906 C 130.316406 299.496094 131.890625 299.210938 133.261719 299.710938 C 133.691406 299.929688 134.042969 300.214844 134.402344 300.503906 C 135.058594 301.222656 135.480469 302.082031 135.480469 303.089844 C 135.480469 304.023438 135.050781 304.957031 134.402344 305.601562 C 134.042969 305.890625 133.683594 306.179688 133.261719 306.394531 C 132.824219 306.539062 132.320312 306.679688 131.898438 306.679688 C 130.890625 306.679688 129.957031 306.25 129.308594 305.601562 C 128.664062 304.957031 128.238281 304.023438 128.238281 303.089844 C 128.238281 302.082031 128.671875 301.222656 129.308594 300.503906 Z M 128.519531 342.746094 C 128.726562 342.3125 128.949219 341.882812 129.304688 341.59375 C 129.667969 341.234375 130.027344 340.949219 130.453125 340.804688 C 131.316406 340.445312 132.320312 340.445312 133.261719 340.804688 C 133.691406 340.949219 134.042969 341.234375 134.402344 341.59375 C 134.691406 341.882812 134.976562 342.3125 135.195312 342.746094 C 135.34375 343.175781 135.480469 343.679688 135.480469 344.109375 C 135.480469 345.042969 135.050781 345.976562 134.402344 346.625 C 134.042969 346.984375 133.683594 347.269531 133.261719 347.414062 C 132.824219 347.628906 132.320312 347.699219 131.898438 347.699219 C 130.890625 347.699219 129.957031 347.34375 129.308594 346.625 C 128.664062 345.976562 128.238281 345.042969 128.238281 344.109375 C 128.238281 343.679688 128.382812 343.175781 128.527344 342.746094 Z M 95.402344 350.648438 C 95.554688 350.214844 95.839844 349.785156 96.128906 349.425781 C 97.132812 348.492188 98.707031 348.132812 100.078125 348.707031 C 100.511719 348.851562 100.941406 349.136719 101.226562 349.425781 C 101.585938 349.785156 101.796875 350.214844 102.011719 350.648438 C 102.226562 351.078125 102.300781 351.507812 102.300781 352.011719 C 102.300781 352.945312 101.941406 353.878906 101.226562 354.527344 C 100.941406 354.886719 100.503906 355.171875 100.078125 355.316406 C 99.640625 355.53125 99.144531 355.601562 98.714844 355.601562 C 97.78125 355.601562 96.847656 355.246094 96.136719 354.527344 C 95.480469 353.878906 95.121094 352.945312 95.121094 352.011719 C 95.121094 351.507812 95.195312 351.078125 95.410156 350.648438 Z M 75 315.375 C 75.214844 314.941406 75.429688 314.511719 75.789062 314.222656 C 76.148438 313.863281 76.507812 313.578125 76.933594 313.433594 C 77.792969 313.074219 78.808594 313.074219 79.667969 313.433594 C 80.164062 313.578125 80.523438 313.863281 80.890625 314.222656 C 81.179688 314.511719 81.464844 314.941406 81.675781 315.375 C 81.824219 315.804688 81.890625 316.308594 81.890625 316.738281 C 81.890625 317.671875 81.53125 318.605469 80.882812 319.253906 C 80.15625 319.972656 79.230469 320.332031 78.296875 320.332031 C 77.363281 320.332031 76.429688 319.972656 75.78125 319.253906 C 75.128906 318.605469 74.707031 317.671875 74.707031 316.738281 C 74.707031 316.308594 74.847656 315.804688 74.992188 315.375 Z M 61.421875 349.496094 C 62.78125 348.132812 65.15625 348.132812 66.445312 349.496094 C 66.808594 349.785156 67.097656 350.214844 67.234375 350.648438 C 67.449219 351.078125 67.523438 351.507812 67.523438 352.011719 C 67.523438 352.945312 67.164062 353.878906 66.445312 354.527344 C 65.796875 355.246094 64.863281 355.601562 63.929688 355.601562 C 62.996094 355.601562 62.0625 355.246094 61.414062 354.527344 C 60.761719 353.878906 60.335938 352.945312 60.335938 352.011719 C 60.335938 351.078125 60.769531 350.144531 61.414062 349.496094 Z M 61.421875 349.496094 "/><path style=" stroke:none;fill-rule:nonzero;fill:#315d6a;fill-opacity:1;" d="M 178.320312 78.003906 C 184.933594 78.003906 190.316406 72.613281 190.316406 66.003906 C 190.316406 64.265625 189.402344 61.421875 187.96875 58.046875 C 187.929688 57.960938 187.878906 57.878906 187.851562 57.792969 C 185.460938 52.226562 181.71875 45.289062 178.320312 39.519531 C 172.792969 48.894531 166.320312 61.386719 166.320312 66.003906 C 166.320312 72.621094 171.703125 78.003906 178.320312 78.003906 Z M 178.320312 78.003906 "/><path style=" stroke:none;fill-rule:nonzero;fill:#315d6a;fill-opacity:1;" d="M 199.589844 78.023438 C 204.582031 78.023438 208.648438 73.964844 208.648438 68.972656 C 208.648438 65.675781 204.03125 56.507812 199.613281 48.902344 C 198.289062 51.183594 196.71875 54.03125 195.230469 56.910156 C 196.601562 60.4375 197.5 63.648438 197.5 66.003906 C 197.5 69.8125 196.359375 73.339844 194.441406 76.320312 C 195.941406 77.398438 197.714844 78.023438 199.589844 78.023438 Z M 199.589844 78.023438 "/><path style=" stroke:none;fill-rule:nonzero;fill:#315d6a;fill-opacity:1;" d="M 116.839844 95.949219 L 258.125 95.949219 L 258.125 21.277344 L 116.839844 21.277344 Z M 175.28125 30.691406 C 176.585938 28.597656 180.050781 28.597656 181.359375 30.691406 C 182.835938 33.039062 187.550781 40.691406 191.507812 48.621094 C 194.128906 43.90625 196.40625 40.238281 196.539062 40.023438 C 197.199219 38.972656 198.339844 38.332031 199.582031 38.324219 C 200.820312 38.324219 201.96875 38.957031 202.621094 40 C 204.835938 43.503906 215.824219 61.359375 215.824219 68.972656 C 215.824219 77.925781 208.535156 85.207031 199.582031 85.207031 C 195.824219 85.207031 192.277344 83.914062 189.417969 81.585938 C 186.277344 83.835938 182.457031 85.1875 178.3125 85.1875 C 167.730469 85.1875 159.128906 76.582031 159.128906 66.003906 C 159.128906 56.824219 172.570312 34.976562 175.273438 30.691406 Z M 175.28125 30.691406 "/><path style=" stroke:none;fill-rule:nonzero;fill:#315d6a;fill-opacity:1;" d="M 231.507812 158.140625 C 233.65625 158.140625 235.402344 156.394531 235.402344 154.246094 C 235.402344 152.097656 233.65625 150.351562 231.507812 150.351562 L 143.457031 150.351562 C 141.308594 150.351562 139.5625 152.097656 139.5625 154.246094 C 139.5625 156.394531 141.308594 158.140625 143.457031 158.140625 Z M 231.507812 158.140625 "/></g></svg>