<svg xmlns="http://www.w3.org/2000/svg" xmlns:xlink="http://www.w3.org/1999/xlink" width="500" zoomAndPan="magnify" viewBox="0 0 375 374.999991" height="500" preserveAspectRatio="xMidYMid meet" version="1.2"><defs><clipPath id="36b5a6efde"><path d="M 6.328125 56 L 22 56 L 22 72 L 6.328125 72 Z M 6.328125 56 "/></clipPath><clipPath id="e33e887312"><path d="M 256 9 L 368.578125 9 L 368.578125 126 L 256 126 Z M 256 9 "/></clipPath><clipPath id="3dcee7c002"><path d="M 6.328125 56 L 22 56 L 22 72 L 6.328125 72 Z M 6.328125 56 "/></clipPath><clipPath id="44668fe1a1"><path d="M 256 9 L 368.578125 9 L 368.578125 126 L 256 126 Z M 256 9 "/></clipPath></defs><g id="6c0cbfd2f8"><rect x="0" width="375" y="0" height="374.999991" style="fill:#ffffff;fill-opacity:1;stroke:none;"/><path style=" stroke:none;fill-rule:nonzero;fill:#315d6a;fill-opacity:1;" d="M 182.824219 149.425781 L 197.527344 149.425781 L 197.527344 173.933594 L 182.824219 173.933594 Z M 182.824219 149.425781 "/><path style=" stroke:none;fill-rule:nonzero;fill:#315d6a;fill-opacity:1;" d="M 197.527344 117.566406 C 197.527344 113.515625 194.230469 110.214844 190.175781 110.214844 C 186.121094 110.214844 182.824219 113.515625 182.824219 117.566406 L 182.824219 134.722656 L 197.527344 134.722656 Z M 197.527344 117.566406 "/><path style=" stroke:none;fill-rule:nonzero;fill:#315d6a;fill-opacity:1;" d="M 182.824219 188.636719 L 197.527344 188.636719 L 197.527344 213.144531 L 182.824219 213.144531 Z M 182.824219 188.636719 "/><path style=" stroke:none;fill-rule:nonzero;fill:#315d6a;fill-opacity:1;" d="M 202.429688 289.117188 C 202.429688 289.921875 202.351562 290.71875 202.195312 291.507812 C 202.039062 292.296875 201.804688 293.0625 201.496094 293.804688 C 201.191406 294.550781 200.8125 295.253906 200.363281 295.925781 C 199.917969 296.59375 199.410156 297.210938 198.839844 297.78125 C 198.273438 298.351562 197.652344 298.859375 196.984375 299.304688 C 196.316406 299.75 195.609375 300.128906 194.867188 300.4375 C 194.121094 300.746094 193.355469 300.976562 192.566406 301.132812 C 191.777344 301.292969 190.980469 301.371094 190.175781 301.371094 C 189.371094 301.371094 188.574219 301.292969 187.785156 301.132812 C 186.996094 300.976562 186.230469 300.746094 185.488281 300.4375 C 184.742188 300.128906 184.039062 299.75 183.367188 299.304688 C 182.699219 298.859375 182.082031 298.351562 181.511719 297.78125 C 180.941406 297.210938 180.433594 296.59375 179.988281 295.925781 C 179.542969 295.253906 179.164062 294.550781 178.855469 293.804688 C 178.546875 293.0625 178.316406 292.296875 178.160156 291.507812 C 178 290.71875 177.921875 289.921875 177.921875 289.117188 C 177.921875 288.3125 178 287.515625 178.160156 286.726562 C 178.316406 285.9375 178.546875 285.171875 178.855469 284.425781 C 179.164062 283.683594 179.542969 282.976562 179.988281 282.308594 C 180.433594 281.640625 180.941406 281.019531 181.511719 280.453125 C 182.082031 279.882812 182.699219 279.375 183.367188 278.929688 C 184.039062 278.480469 184.742188 278.101562 185.488281 277.796875 C 186.230469 277.488281 186.996094 277.253906 187.785156 277.097656 C 188.574219 276.941406 189.371094 276.863281 190.175781 276.863281 C 190.980469 276.863281 191.777344 276.941406 192.566406 277.097656 C 193.355469 277.253906 194.121094 277.488281 194.867188 277.796875 C 195.609375 278.101562 196.316406 278.480469 196.984375 278.929688 C 197.652344 279.375 198.273438 279.882812 198.839844 280.453125 C 199.410156 281.019531 199.917969 281.640625 200.363281 282.308594 C 200.8125 282.976562 201.191406 283.683594 201.496094 284.425781 C 201.804688 285.171875 202.039062 285.9375 202.195312 286.726562 C 202.351562 287.515625 202.429688 288.3125 202.429688 289.117188 Z M 202.429688 289.117188 "/><path style=" stroke:none;fill-rule:nonzero;fill:#315d6a;fill-opacity:1;" d="M 241.640625 220.507812 L 241.640625 117.566406 C 241.640625 89.191406 218.550781 66.101562 190.175781 66.101562 C 161.796875 66.101562 138.710938 89.191406 138.710938 117.566406 L 138.710938 220.507812 C 117.15625 236.683594 104.402344 262.042969 104.402344 289.117188 C 104.402344 336.417969 142.878906 374.890625 190.175781 374.890625 C 237.476562 374.890625 275.953125 336.417969 275.953125 289.117188 C 275.953125 262.042969 263.199219 236.683594 241.640625 220.507812 Z M 190.175781 345.484375 C 159.097656 345.484375 133.808594 320.199219 133.808594 289.117188 C 133.808594 266.390625 147.390625 246.265625 168.121094 237.480469 L 168.121094 117.566406 C 168.121094 105.410156 178.015625 95.507812 190.175781 95.507812 C 202.335938 95.507812 212.234375 105.410156 212.234375 117.566406 L 212.234375 237.480469 C 232.957031 246.265625 246.542969 266.390625 246.542969 289.117188 C 246.542969 320.199219 221.261719 345.484375 190.175781 345.484375 Z M 190.175781 345.484375 "/><path style=" stroke:none;fill-rule:nonzero;fill:#315d6a;fill-opacity:1;" d="M 202.660156 249.597656 L 197.527344 247.972656 L 197.527344 227.847656 L 182.824219 227.847656 L 182.824219 247.972656 L 177.691406 249.597656 C 160.242188 255.121094 148.515625 271.003906 148.515625 289.117188 C 148.515625 312.09375 167.207031 330.777344 190.175781 330.777344 C 213.152344 330.777344 231.839844 312.09375 231.839844 289.117188 C 231.839844 271.003906 220.113281 255.121094 202.660156 249.597656 Z M 190.175781 316.074219 C 175.308594 316.074219 163.21875 303.984375 163.21875 289.117188 C 163.21875 274.25 175.308594 262.160156 190.175781 262.160156 C 205.042969 262.160156 217.132812 274.25 217.132812 289.117188 C 217.132812 303.984375 205.042969 316.074219 190.175781 316.074219 Z M 190.175781 316.074219 "/><path style=" stroke:none;fill-rule:nonzero;fill:#315d6a;fill-opacity:1;" d="M 94.597656 63.648438 C 94.597656 64.695312 94.546875 65.734375 94.445312 66.773438 C 94.34375 67.8125 94.191406 68.84375 93.988281 69.867188 C 93.78125 70.890625 93.53125 71.898438 93.226562 72.898438 C 92.925781 73.898438 92.574219 74.878906 92.171875 75.84375 C 91.773438 76.804688 91.328125 77.75 90.835938 78.667969 C 90.34375 79.589844 89.808594 80.484375 89.230469 81.351562 C 88.648438 82.21875 88.027344 83.054688 87.367188 83.863281 C 86.703125 84.667969 86.003906 85.441406 85.265625 86.179688 C 84.53125 86.917969 83.757812 87.617188 82.949219 88.277344 C 82.144531 88.941406 81.308594 89.5625 80.4375 90.140625 C 79.570312 90.71875 78.679688 91.253906 77.757812 91.746094 C 76.835938 92.238281 75.894531 92.683594 74.929688 93.085938 C 73.96875 93.484375 72.984375 93.835938 71.988281 94.136719 C 70.988281 94.441406 69.976562 94.695312 68.953125 94.898438 C 67.929688 95.101562 66.902344 95.253906 65.863281 95.355469 C 64.824219 95.457031 63.78125 95.507812 62.738281 95.507812 C 61.695312 95.507812 60.65625 95.457031 59.617188 95.355469 C 58.578125 95.253906 57.546875 95.101562 56.523438 94.898438 C 55.5 94.695312 54.488281 94.441406 53.492188 94.136719 C 52.492188 93.835938 51.511719 93.484375 50.546875 93.085938 C 49.582031 92.683594 48.640625 92.238281 47.722656 91.746094 C 46.800781 91.253906 45.90625 90.71875 45.039062 90.140625 C 44.171875 89.5625 43.335938 88.941406 42.527344 88.277344 C 41.722656 87.617188 40.949219 86.917969 40.210938 86.179688 C 39.472656 85.441406 38.773438 84.667969 38.113281 83.863281 C 37.449219 83.054688 36.828125 82.21875 36.25 81.351562 C 35.667969 80.484375 35.132812 79.589844 34.640625 78.667969 C 34.148438 77.75 33.703125 76.804688 33.304688 75.84375 C 32.90625 74.878906 32.554688 73.898438 32.25 72.898438 C 31.949219 71.898438 31.695312 70.890625 31.492188 69.867188 C 31.289062 68.84375 31.136719 67.8125 31.035156 66.773438 C 30.929688 65.734375 30.878906 64.695312 30.878906 63.648438 C 30.878906 62.605469 30.929688 61.566406 31.035156 60.527344 C 31.136719 59.488281 31.289062 58.457031 31.492188 57.433594 C 31.695312 56.410156 31.949219 55.402344 32.25 54.402344 C 32.554688 53.402344 32.90625 52.421875 33.304688 51.457031 C 33.703125 50.496094 34.148438 49.550781 34.640625 48.632812 C 35.132812 47.710938 35.667969 46.816406 36.25 45.949219 C 36.828125 45.082031 37.449219 44.246094 38.113281 43.4375 C 38.773438 42.632812 39.472656 41.859375 40.210938 41.121094 C 40.949219 40.382812 41.722656 39.683594 42.527344 39.023438 C 43.335938 38.359375 44.171875 37.738281 45.039062 37.160156 C 45.90625 36.582031 46.800781 36.042969 47.722656 35.554688 C 48.640625 35.0625 49.582031 34.617188 50.546875 34.214844 C 51.511719 33.816406 52.492188 33.464844 53.492188 33.164062 C 54.488281 32.859375 55.5 32.605469 56.523438 32.402344 C 57.546875 32.199219 58.578125 32.046875 59.617188 31.945312 C 60.65625 31.84375 61.695312 31.789062 62.738281 31.789062 C 63.78125 31.789062 64.824219 31.84375 65.863281 31.945312 C 66.902344 32.046875 67.929688 32.199219 68.953125 32.402344 C 69.976562 32.605469 70.988281 32.859375 71.988281 33.164062 C 72.984375 33.464844 73.96875 33.816406 74.929688 34.214844 C 75.894531 34.617188 76.835938 35.0625 77.757812 35.554688 C 78.679688 36.042969 79.570312 36.582031 80.4375 37.160156 C 81.308594 37.738281 82.144531 38.359375 82.949219 39.023438 C 83.757812 39.683594 84.53125 40.382812 85.265625 41.121094 C 86.003906 41.859375 86.703125 42.632812 87.367188 43.4375 C 88.027344 44.246094 88.648438 45.082031 89.230469 45.949219 C 89.808594 46.816406 90.34375 47.710938 90.835938 48.632812 C 91.328125 49.550781 91.773438 50.496094 92.171875 51.457031 C 92.574219 52.421875 92.925781 53.402344 93.226562 54.402344 C 93.53125 55.402344 93.78125 56.410156 93.988281 57.433594 C 94.191406 58.457031 94.34375 59.488281 94.445312 60.527344 C 94.546875 61.566406 94.597656 62.605469 94.597656 63.648438 Z M 94.597656 63.648438 "/><path style=" stroke:none;fill-rule:nonzero;fill:#315d6a;fill-opacity:1;" d="M 55.386719 7.285156 L 70.089844 7.285156 L 70.089844 21.988281 L 55.386719 21.988281 Z M 55.386719 7.285156 "/><path style=" stroke:none;fill-rule:nonzero;fill:#315d6a;fill-opacity:1;" d="M 87.003906 28.996094 L 97.398438 18.597656 L 107.796875 28.996094 L 97.398438 39.390625 Z M 87.003906 28.996094 "/><path style=" stroke:none;fill-rule:nonzero;fill:#315d6a;fill-opacity:1;" d="M 104.402344 56.296875 L 119.105469 56.296875 L 119.105469 71.003906 L 104.402344 71.003906 Z M 104.402344 56.296875 "/><path style=" stroke:none;fill-rule:nonzero;fill:#315d6a;fill-opacity:1;" d="M 87.003906 98.304688 L 97.398438 87.90625 L 107.796875 98.304688 L 97.398438 108.699219 Z M 87.003906 98.304688 "/><path style=" stroke:none;fill-rule:nonzero;fill:#315d6a;fill-opacity:1;" d="M 55.386719 105.3125 L 70.089844 105.3125 L 70.089844 120.015625 L 55.386719 120.015625 Z M 55.386719 105.3125 "/><path style=" stroke:none;fill-rule:nonzero;fill:#315d6a;fill-opacity:1;" d="M 17.683594 98.304688 L 28.082031 87.90625 L 38.476562 98.304688 L 28.082031 108.699219 Z M 17.683594 98.304688 "/><g clip-rule="nonzero" clip-path="url(#36b5a6efde)"><path style=" stroke:none;fill-rule:nonzero;fill:#315d6a;fill-opacity:1;" d="M 6.371094 56.296875 L 21.078125 56.296875 L 21.078125 71.003906 L 6.371094 71.003906 Z M 6.371094 56.296875 "/></g><path style=" stroke:none;fill-rule:nonzero;fill:#315d6a;fill-opacity:1;" d="M 17.683594 28.996094 L 28.078125 18.597656 L 38.476562 28.996094 L 28.078125 39.390625 Z M 17.683594 28.996094 "/><g clip-rule="nonzero" clip-path="url(#e33e887312)"><path style=" stroke:none;fill-rule:nonzero;fill:#315d6a;fill-opacity:1;" d="M 364.722656 72.746094 L 345.445312 77.910156 L 327.414062 67.503906 L 345.445312 57.09375 L 364.722656 62.261719 L 368.535156 48.054688 L 353.417969 44.007812 L 357.46875 28.890625 L 343.261719 25.082031 L 338.09375 44.363281 L 320.066406 54.769531 L 320.066406 33.945312 L 334.175781 19.835938 L 323.777344 9.4375 L 312.710938 20.503906 L 301.644531 9.4375 L 291.25 19.835938 L 305.359375 33.945312 L 305.359375 54.769531 L 287.332031 44.363281 L 282.164062 25.082031 L 267.957031 28.890625 L 272.007812 44.007812 L 256.890625 48.054688 L 260.703125 62.261719 L 279.980469 57.09375 L 298.007812 67.503906 L 279.980469 77.910156 L 260.703125 72.746094 L 256.890625 86.953125 L 272.007812 91 L 267.957031 106.117188 L 282.164062 109.925781 L 287.332031 90.644531 L 305.359375 80.238281 L 305.359375 101.054688 L 291.25 115.171875 L 301.644531 125.570312 L 312.710938 114.492188 L 323.777344 125.570312 L 334.175781 115.171875 L 320.066406 101.054688 L 320.066406 80.238281 L 338.09375 90.644531 L 343.261719 109.925781 L 357.46875 106.117188 L 353.417969 91 L 368.535156 86.953125 Z M 364.722656 72.746094 "/></g><path style=" stroke:none;fill-rule:nonzero;fill:#315d6a;fill-opacity:1;" d="M 258.796875 134.722656 L 288.207031 134.722656 L 288.207031 149.425781 L 258.796875 149.425781 Z M 258.796875 134.722656 "/><path style=" stroke:none;fill-rule:nonzero;fill:#315d6a;fill-opacity:1;" d="M 258.796875 169.03125 L 288.207031 169.03125 L 288.207031 183.734375 L 258.796875 183.734375 Z M 258.796875 169.03125 "/><path style=" stroke:none;fill-rule:nonzero;fill:#315d6a;fill-opacity:1;" d="M 258.796875 203.339844 L 288.207031 203.339844 L 288.207031 218.046875 L 258.796875 218.046875 Z M 258.796875 203.339844 "/><path style=" stroke:none;fill-rule:nonzero;fill:#315d6a;fill-opacity:1;" d="M 92.148438 134.722656 L 121.554688 134.722656 L 121.554688 149.425781 L 92.148438 149.425781 Z M 92.148438 134.722656 "/><path style=" stroke:none;fill-rule:nonzero;fill:#315d6a;fill-opacity:1;" d="M 92.148438 169.03125 L 121.554688 169.03125 L 121.554688 183.734375 L 92.148438 183.734375 Z M 92.148438 169.03125 "/><path style=" stroke:none;fill-rule:nonzero;fill:#315d6a;fill-opacity:1;" d="M 92.148438 203.339844 L 121.554688 203.339844 L 121.554688 218.046875 L 92.148438 218.046875 Z M 92.148438 203.339844 "/><path style=" stroke:none;fill-rule:nonzero;fill:#315d6a;fill-opacity:1;" d="M 234.039062 39.84375 L 244.339844 29.351562 C 214.472656 0 165.875 0.0078125 136.007812 29.351562 L 146.316406 39.84375 C 170.496094 16.0625 209.832031 16.0625 234.039062 39.84375 Z M 234.039062 39.84375 "/><path style=" stroke:none;fill-rule:nonzero;fill:#315d6a;fill-opacity:1;" d="M 168.78125 59.09375 C 180.585938 47.492188 199.789062 47.492188 211.5625 59.09375 L 221.882812 48.601562 C 204.410156 31.425781 175.964844 31.417969 158.46875 48.601562 Z M 168.78125 59.09375 "/><path style=" stroke:none;fill-rule:nonzero;fill:#315d6a;fill-opacity:1;" d="M 182.824219 149.425781 L 197.527344 149.425781 L 197.527344 173.933594 L 182.824219 173.933594 Z M 182.824219 149.425781 "/><path style=" stroke:none;fill-rule:nonzero;fill:#315d6a;fill-opacity:1;" d="M 197.527344 117.566406 C 197.527344 113.515625 194.230469 110.214844 190.175781 110.214844 C 186.121094 110.214844 182.824219 113.515625 182.824219 117.566406 L 182.824219 134.722656 L 197.527344 134.722656 Z M 197.527344 117.566406 "/><path style=" stroke:none;fill-rule:nonzero;fill:#315d6a;fill-opacity:1;" d="M 182.824219 188.636719 L 197.527344 188.636719 L 197.527344 213.144531 L 182.824219 213.144531 Z M 182.824219 188.636719 "/><path style=" stroke:none;fill-rule:nonzero;fill:#315d6a;fill-opacity:1;" d="M 202.429688 289.117188 C 202.429688 289.921875 202.351562 290.71875 202.195312 291.507812 C 202.039062 292.296875 201.804688 293.0625 201.496094 293.804688 C 201.191406 294.550781 200.8125 295.253906 200.363281 295.925781 C 199.917969 296.59375 199.410156 297.210938 198.839844 297.78125 C 198.273438 298.351562 197.652344 298.859375 196.984375 299.304688 C 196.316406 299.75 195.609375 300.128906 194.867188 300.4375 C 194.121094 300.746094 193.355469 300.976562 192.566406 301.132812 C 191.777344 301.292969 190.980469 301.371094 190.175781 301.371094 C 189.371094 301.371094 188.574219 301.292969 187.785156 301.132812 C 186.996094 300.976562 186.230469 300.746094 185.488281 300.4375 C 184.742188 300.128906 184.039062 299.75 183.367188 299.304688 C 182.699219 298.859375 182.082031 298.351562 181.511719 297.78125 C 180.941406 297.210938 180.433594 296.59375 179.988281 295.925781 C 179.542969 295.253906 179.164062 294.550781 178.855469 293.804688 C 178.546875 293.0625 178.316406 292.296875 178.160156 291.507812 C 178 290.71875 177.921875 289.921875 177.921875 289.117188 C 177.921875 288.3125 178 287.515625 178.160156 286.726562 C 178.316406 285.9375 178.546875 285.171875 178.855469 284.425781 C 179.164062 283.683594 179.542969 282.976562 179.988281 282.308594 C 180.433594 281.640625 180.941406 281.019531 181.511719 280.453125 C 182.082031 279.882812 182.699219 279.375 183.367188 278.929688 C 184.039062 278.480469 184.742188 278.101562 185.488281 277.796875 C 186.230469 277.488281 186.996094 277.253906 187.785156 277.097656 C 188.574219 276.941406 189.371094 276.863281 190.175781 276.863281 C 190.980469 276.863281 191.777344 276.941406 192.566406 277.097656 C 193.355469 277.253906 194.121094 277.488281 194.867188 277.796875 C 195.609375 278.101562 196.316406 278.480469 196.984375 278.929688 C 197.652344 279.375 198.273438 279.882812 198.839844 280.453125 C 199.410156 281.019531 199.917969 281.640625 200.363281 282.308594 C 200.8125 282.976562 201.191406 283.683594 201.496094 284.425781 C 201.804688 285.171875 202.039062 285.9375 202.195312 286.726562 C 202.351562 287.515625 202.429688 288.3125 202.429688 289.117188 Z M 202.429688 289.117188 "/><path style=" stroke:none;fill-rule:nonzero;fill:#315d6a;fill-opacity:1;" d="M 241.640625 220.507812 L 241.640625 117.566406 C 241.640625 89.191406 218.550781 66.101562 190.175781 66.101562 C 161.796875 66.101562 138.710938 89.191406 138.710938 117.566406 L 138.710938 220.507812 C 117.15625 236.683594 104.402344 262.042969 104.402344 289.117188 C 104.402344 336.417969 142.878906 374.890625 190.175781 374.890625 C 237.476562 374.890625 275.953125 336.417969 275.953125 289.117188 C 275.953125 262.042969 263.199219 236.683594 241.640625 220.507812 Z M 190.175781 345.484375 C 159.097656 345.484375 133.808594 320.199219 133.808594 289.117188 C 133.808594 266.390625 147.390625 246.265625 168.121094 237.480469 L 168.121094 117.566406 C 168.121094 105.410156 178.015625 95.507812 190.175781 95.507812 C 202.335938 95.507812 212.234375 105.410156 212.234375 117.566406 L 212.234375 237.480469 C 232.957031 246.265625 246.542969 266.390625 246.542969 289.117188 C 246.542969 320.199219 221.261719 345.484375 190.175781 345.484375 Z M 190.175781 345.484375 "/><path style=" stroke:none;fill-rule:nonzero;fill:#315d6a;fill-opacity:1;" d="M 202.660156 249.597656 L 197.527344 247.972656 L 197.527344 227.847656 L 182.824219 227.847656 L 182.824219 247.972656 L 177.691406 249.597656 C 160.242188 255.121094 148.515625 271.003906 148.515625 289.117188 C 148.515625 312.09375 167.207031 330.777344 190.175781 330.777344 C 213.152344 330.777344 231.839844 312.09375 231.839844 289.117188 C 231.839844 271.003906 220.113281 255.121094 202.660156 249.597656 Z M 190.175781 316.074219 C 175.308594 316.074219 163.21875 303.984375 163.21875 289.117188 C 163.21875 274.25 175.308594 262.160156 190.175781 262.160156 C 205.042969 262.160156 217.132812 274.25 217.132812 289.117188 C 217.132812 303.984375 205.042969 316.074219 190.175781 316.074219 Z M 190.175781 316.074219 "/><path style=" stroke:none;fill-rule:nonzero;fill:#315d6a;fill-opacity:1;" d="M 94.597656 63.648438 C 94.597656 64.695312 94.546875 65.734375 94.445312 66.773438 C 94.34375 67.8125 94.191406 68.84375 93.988281 69.867188 C 93.78125 70.890625 93.53125 71.898438 93.226562 72.898438 C 92.925781 73.898438 92.574219 74.878906 92.171875 75.84375 C 91.773438 76.804688 91.328125 77.75 90.835938 78.667969 C 90.34375 79.589844 89.808594 80.484375 89.230469 81.351562 C 88.648438 82.21875 88.027344 83.054688 87.367188 83.863281 C 86.703125 84.667969 86.003906 85.441406 85.265625 86.179688 C 84.53125 86.917969 83.757812 87.617188 82.949219 88.277344 C 82.144531 88.941406 81.308594 89.5625 80.4375 90.140625 C 79.570312 90.71875 78.679688 91.253906 77.757812 91.746094 C 76.835938 92.238281 75.894531 92.683594 74.929688 93.085938 C 73.96875 93.484375 72.984375 93.835938 71.988281 94.136719 C 70.988281 94.441406 69.976562 94.695312 68.953125 94.898438 C 67.929688 95.101562 66.902344 95.253906 65.863281 95.355469 C 64.824219 95.457031 63.78125 95.507812 62.738281 95.507812 C 61.695312 95.507812 60.65625 95.457031 59.617188 95.355469 C 58.578125 95.253906 57.546875 95.101562 56.523438 94.898438 C 55.5 94.695312 54.488281 94.441406 53.492188 94.136719 C 52.492188 93.835938 51.511719 93.484375 50.546875 93.085938 C 49.582031 92.683594 48.640625 92.238281 47.722656 91.746094 C 46.800781 91.253906 45.90625 90.71875 45.039062 90.140625 C 44.171875 89.5625 43.335938 88.941406 42.527344 88.277344 C 41.722656 87.617188 40.949219 86.917969 40.210938 86.179688 C 39.472656 85.441406 38.773438 84.667969 38.113281 83.863281 C 37.449219 83.054688 36.828125 82.21875 36.25 81.351562 C 35.667969 80.484375 35.132812 79.589844 34.640625 78.667969 C 34.148438 77.75 33.703125 76.804688 33.304688 75.84375 C 32.90625 74.878906 32.554688 73.898438 32.25 72.898438 C 31.949219 71.898438 31.695312 70.890625 31.492188 69.867188 C 31.289062 68.84375 31.136719 67.8125 31.035156 66.773438 C 30.929688 65.734375 30.878906 64.695312 30.878906 63.648438 C 30.878906 62.605469 30.929688 61.566406 31.035156 60.527344 C 31.136719 59.488281 31.289062 58.457031 31.492188 57.433594 C 31.695312 56.410156 31.949219 55.402344 32.25 54.402344 C 32.554688 53.402344 32.90625 52.421875 33.304688 51.457031 C 33.703125 50.496094 34.148438 49.550781 34.640625 48.632812 C 35.132812 47.710938 35.667969 46.816406 36.25 45.949219 C 36.828125 45.082031 37.449219 44.246094 38.113281 43.4375 C 38.773438 42.632812 39.472656 41.859375 40.210938 41.121094 C 40.949219 40.382812 41.722656 39.683594 42.527344 39.023438 C 43.335938 38.359375 44.171875 37.738281 45.039062 37.160156 C 45.90625 36.582031 46.800781 36.042969 47.722656 35.554688 C 48.640625 35.0625 49.582031 34.617188 50.546875 34.214844 C 51.511719 33.816406 52.492188 33.464844 53.492188 33.164062 C 54.488281 32.859375 55.5 32.605469 56.523438 32.402344 C 57.546875 32.199219 58.578125 32.046875 59.617188 31.945312 C 60.65625 31.84375 61.695312 31.789062 62.738281 31.789062 C 63.78125 31.789062 64.824219 31.84375 65.863281 31.945312 C 66.902344 32.046875 67.929688 32.199219 68.953125 32.402344 C 69.976562 32.605469 70.988281 32.859375 71.988281 33.164062 C 72.984375 33.464844 73.96875 33.816406 74.929688 34.214844 C 75.894531 34.617188 76.835938 35.0625 77.757812 35.554688 C 78.679688 36.042969 79.570312 36.582031 80.4375 37.160156 C 81.308594 37.738281 82.144531 38.359375 82.949219 39.023438 C 83.757812 39.683594 84.53125 40.382812 85.265625 41.121094 C 86.003906 41.859375 86.703125 42.632812 87.367188 43.4375 C 88.027344 44.246094 88.648438 45.082031 89.230469 45.949219 C 89.808594 46.816406 90.34375 47.710938 90.835938 48.632812 C 91.328125 49.550781 91.773438 50.496094 92.171875 51.457031 C 92.574219 52.421875 92.925781 53.402344 93.226562 54.402344 C 93.53125 55.402344 93.78125 56.410156 93.988281 57.433594 C 94.191406 58.457031 94.34375 59.488281 94.445312 60.527344 C 94.546875 61.566406 94.597656 62.605469 94.597656 63.648438 Z M 94.597656 63.648438 "/><path style=" stroke:none;fill-rule:nonzero;fill:#315d6a;fill-opacity:1;" d="M 55.386719 7.285156 L 70.089844 7.285156 L 70.089844 21.988281 L 55.386719 21.988281 Z M 55.386719 7.285156 "/><path style=" stroke:none;fill-rule:nonzero;fill:#315d6a;fill-opacity:1;" d="M 87.003906 28.996094 L 97.398438 18.597656 L 107.796875 28.996094 L 97.398438 39.390625 Z M 87.003906 28.996094 "/><path style=" stroke:none;fill-rule:nonzero;fill:#315d6a;fill-opacity:1;" d="M 104.402344 56.296875 L 119.105469 56.296875 L 119.105469 71.003906 L 104.402344 71.003906 Z M 104.402344 56.296875 "/><path style=" stroke:none;fill-rule:nonzero;fill:#315d6a;fill-opacity:1;" d="M 87.003906 98.304688 L 97.398438 87.90625 L 107.796875 98.304688 L 97.398438 108.699219 Z M 87.003906 98.304688 "/><path style=" stroke:none;fill-rule:nonzero;fill:#315d6a;fill-opacity:1;" d="M 55.386719 105.3125 L 70.089844 105.3125 L 70.089844 120.015625 L 55.386719 120.015625 Z M 55.386719 105.3125 "/><path style=" stroke:none;fill-rule:nonzero;fill:#315d6a;fill-opacity:1;" d="M 17.683594 98.304688 L 28.082031 87.90625 L 38.476562 98.304688 L 28.082031 108.699219 Z M 17.683594 98.304688 "/><g clip-rule="nonzero" clip-path="url(#3dcee7c002)"><path style=" stroke:none;fill-rule:nonzero;fill:#315d6a;fill-opacity:1;" d="M 6.371094 56.296875 L 21.078125 56.296875 L 21.078125 71.003906 L 6.371094 71.003906 Z M 6.371094 56.296875 "/></g><path style=" stroke:none;fill-rule:nonzero;fill:#315d6a;fill-opacity:1;" d="M 17.683594 28.996094 L 28.078125 18.597656 L 38.476562 28.996094 L 28.078125 39.390625 Z M 17.683594 28.996094 "/><g clip-rule="nonzero" clip-path="url(#44668fe1a1)"><path style=" stroke:none;fill-rule:nonzero;fill:#315d6a;fill-opacity:1;" d="M 364.722656 72.746094 L 345.445312 77.910156 L 327.414062 67.503906 L 345.445312 57.09375 L 364.722656 62.261719 L 368.535156 48.054688 L 353.417969 44.007812 L 357.46875 28.890625 L 343.261719 25.082031 L 338.09375 44.363281 L 320.066406 54.769531 L 320.066406 33.945312 L 334.175781 19.835938 L 323.777344 9.4375 L 312.710938 20.503906 L 301.644531 9.4375 L 291.25 19.835938 L 305.359375 33.945312 L 305.359375 54.769531 L 287.332031 44.363281 L 282.164062 25.082031 L 267.957031 28.890625 L 272.007812 44.007812 L 256.890625 48.054688 L 260.703125 62.261719 L 279.980469 57.09375 L 298.007812 67.503906 L 279.980469 77.910156 L 260.703125 72.746094 L 256.890625 86.953125 L 272.007812 91 L 267.957031 106.117188 L 282.164062 109.925781 L 287.332031 90.644531 L 305.359375 80.238281 L 305.359375 101.054688 L 291.25 115.171875 L 301.644531 125.570312 L 312.710938 114.492188 L 323.777344 125.570312 L 334.175781 115.171875 L 320.066406 101.054688 L 320.066406 80.238281 L 338.09375 90.644531 L 343.261719 109.925781 L 357.46875 106.117188 L 353.417969 91 L 368.535156 86.953125 Z M 364.722656 72.746094 "/></g><path style=" stroke:none;fill-rule:nonzero;fill:#315d6a;fill-opacity:1;" d="M 258.796875 134.722656 L 288.207031 134.722656 L 288.207031 149.425781 L 258.796875 149.425781 Z M 258.796875 134.722656 "/><path style=" stroke:none;fill-rule:nonzero;fill:#315d6a;fill-opacity:1;" d="M 258.796875 169.03125 L 288.207031 169.03125 L 288.207031 183.734375 L 258.796875 183.734375 Z M 258.796875 169.03125 "/><path style=" stroke:none;fill-rule:nonzero;fill:#315d6a;fill-opacity:1;" d="M 258.796875 203.339844 L 288.207031 203.339844 L 288.207031 218.046875 L 258.796875 218.046875 Z M 258.796875 203.339844 "/><path style=" stroke:none;fill-rule:nonzero;fill:#315d6a;fill-opacity:1;" d="M 92.148438 134.722656 L 121.554688 134.722656 L 121.554688 149.425781 L 92.148438 149.425781 Z M 92.148438 134.722656 "/><path style=" stroke:none;fill-rule:nonzero;fill:#315d6a;fill-opacity:1;" d="M 92.148438 169.03125 L 121.554688 169.03125 L 121.554688 183.734375 L 92.148438 183.734375 Z M 92.148438 169.03125 "/><path style=" stroke:none;fill-rule:nonzero;fill:#315d6a;fill-opacity:1;" d="M 92.148438 203.339844 L 121.554688 203.339844 L 121.554688 218.046875 L 92.148438 218.046875 Z M 92.148438 203.339844 "/><path style=" stroke:none;fill-rule:nonzero;fill:#315d6a;fill-opacity:1;" d="M 234.039062 39.84375 L 244.339844 29.351562 C 214.472656 0 165.875 0.0078125 136.007812 29.351562 L 146.316406 39.84375 C 170.496094 16.0625 209.832031 16.0625 234.039062 39.84375 Z M 234.039062 39.84375 "/><path style=" stroke:none;fill-rule:nonzero;fill:#315d6a;fill-opacity:1;" d="M 168.78125 59.09375 C 180.585938 47.492188 199.789062 47.492188 211.5625 59.09375 L 221.882812 48.601562 C 204.410156 31.425781 175.964844 31.417969 158.46875 48.601562 Z M 168.78125 59.09375 "/></g></svg>