<svg xmlns="http://www.w3.org/2000/svg" xmlns:xlink="http://www.w3.org/1999/xlink" width="500" zoomAndPan="magnify" viewBox="0 0 375 374.999991" height="500" preserveAspectRatio="xMidYMid meet" version="1.2"><defs><clipPath id="427d6aa142"><path d="M 128 116 L 251 116 L 251 337.375 L 128 337.375 Z M 128 116 "/></clipPath><clipPath id="6affae6f73"><path d="M 58.082031 109 L 69 109 L 69 121 L 58.082031 121 Z M 58.082031 109 "/></clipPath><clipPath id="23b202a611"><path d="M 237 76 L 316.832031 76 L 316.832031 160 L 237 160 Z M 237 76 "/></clipPath></defs><g id="7f2752f9b9"><path style=" stroke:none;fill-rule:nonzero;fill:#426d41;fill-opacity:1;" d="M 14.804688 114.429688 C 24.207031 92.128906 37.742188 72.050781 54.960938 54.898438 C 72.117188 37.679688 92.191406 24.144531 114.496094 14.742188 C 137.621094 4.957031 162.148438 0 187.5 0 C 212.851562 0 237.378906 4.957031 260.503906 14.742188 C 282.808594 24.144531 302.882812 37.679688 320.039062 54.898438 C 337.257812 72.117188 350.730469 92.128906 360.195312 114.496094 C 369.980469 137.621094 374.9375 162.148438 374.9375 187.5 C 374.9375 212.851562 369.980469 237.378906 360.195312 260.503906 C 350.792969 282.808594 337.257812 302.882812 320.039062 320.101562 C 302.820312 337.320312 282.804688 350.792969 260.441406 360.257812 C 237.3125 370.042969 212.789062 375 187.4375 375 C 162.085938 375 137.558594 370.042969 114.429688 360.257812 C 92.128906 350.855469 72.050781 337.320312 54.832031 320.101562 C 37.742188 302.820312 24.207031 282.742188 14.804688 260.441406 C 5.019531 237.3125 0.0625 212.789062 0.0625 187.4375 C 0.0625 162.085938 5.019531 137.558594 14.804688 114.429688 Z M 14.804688 114.429688 "/><path style=" stroke:none;fill-rule:nonzero;fill:#e4c57b;fill-opacity:1;" d="M 184.136719 176.34375 L 194.640625 176.34375 L 194.640625 193.847656 L 184.136719 193.847656 Z M 184.136719 176.34375 "/><path style=" stroke:none;fill-rule:nonzero;fill:#e4c57b;fill-opacity:1;" d="M 194.640625 153.589844 C 194.640625 150.699219 192.285156 148.339844 189.386719 148.339844 C 186.492188 148.339844 184.136719 150.699219 184.136719 153.589844 L 184.136719 165.84375 L 194.640625 165.84375 Z M 194.640625 153.589844 "/><path style=" stroke:none;fill-rule:nonzero;fill:#e4c57b;fill-opacity:1;" d="M 184.136719 204.347656 L 194.640625 204.347656 L 194.640625 221.851562 L 184.136719 221.851562 Z M 184.136719 204.347656 "/><path style=" stroke:none;fill-rule:nonzero;fill:#e4c57b;fill-opacity:1;" d="M 198.140625 276.109375 C 198.140625 276.683594 198.082031 277.253906 197.972656 277.816406 C 197.859375 278.378906 197.691406 278.925781 197.472656 279.457031 C 197.253906 279.988281 196.984375 280.492188 196.664062 280.96875 C 196.34375 281.449219 195.980469 281.890625 195.574219 282.296875 C 195.167969 282.703125 194.726562 283.066406 194.25 283.386719 C 193.773438 283.703125 193.269531 283.972656 192.738281 284.195312 C 192.207031 284.414062 191.660156 284.578125 191.09375 284.691406 C 190.53125 284.804688 189.960938 284.859375 189.386719 284.859375 C 188.8125 284.859375 188.246094 284.804688 187.679688 284.691406 C 187.117188 284.578125 186.570312 284.414062 186.039062 284.195312 C 185.507812 283.972656 185.003906 283.703125 184.527344 283.386719 C 184.046875 283.066406 183.605469 282.703125 183.199219 282.296875 C 182.792969 281.890625 182.429688 281.449219 182.113281 280.96875 C 181.792969 280.492188 181.523438 279.988281 181.304688 279.457031 C 181.082031 278.925781 180.917969 278.378906 180.804688 277.816406 C 180.691406 277.253906 180.636719 276.683594 180.636719 276.109375 C 180.636719 275.535156 180.691406 274.964844 180.804688 274.402344 C 180.917969 273.835938 181.082031 273.289062 181.304688 272.757812 C 181.523438 272.230469 181.792969 271.722656 182.113281 271.246094 C 182.429688 270.769531 182.792969 270.328125 183.199219 269.921875 C 183.605469 269.515625 184.046875 269.152344 184.527344 268.832031 C 185.003906 268.511719 185.507812 268.242188 186.039062 268.023438 C 186.570312 267.804688 187.117188 267.636719 187.679688 267.527344 C 188.246094 267.414062 188.8125 267.355469 189.386719 267.355469 C 189.960938 267.355469 190.53125 267.414062 191.09375 267.523438 C 191.660156 267.636719 192.207031 267.804688 192.738281 268.023438 C 193.269531 268.242188 193.773438 268.511719 194.25 268.832031 C 194.726562 269.152344 195.167969 269.515625 195.574219 269.921875 C 195.980469 270.328125 196.34375 270.769531 196.664062 271.246094 C 196.984375 271.722656 197.253906 272.230469 197.472656 272.757812 C 197.691406 273.289062 197.859375 273.835938 197.972656 274.402344 C 198.082031 274.964844 198.140625 275.535156 198.140625 276.109375 Z M 198.140625 276.109375 "/><g clip-rule="nonzero" clip-path="url(#427d6aa142)"><path style=" stroke:none;fill-rule:nonzero;fill:#e4c57b;fill-opacity:1;" d="M 226.144531 227.109375 L 226.144531 153.589844 C 226.144531 133.324219 209.652344 116.835938 189.386719 116.835938 C 169.121094 116.835938 152.632812 133.324219 152.632812 153.589844 L 152.632812 227.109375 C 137.238281 238.664062 128.128906 256.773438 128.128906 276.109375 C 128.128906 309.890625 155.609375 337.367188 189.386719 337.367188 C 223.167969 337.367188 250.648438 309.890625 250.648438 276.109375 C 250.648438 256.773438 241.539062 238.664062 226.144531 227.109375 Z M 189.386719 316.363281 C 167.191406 316.363281 149.132812 298.308594 149.132812 276.109375 C 149.132812 259.878906 158.828125 245.507812 173.636719 239.230469 L 173.636719 153.589844 C 173.636719 144.90625 180.703125 137.835938 189.386719 137.835938 C 198.070312 137.835938 205.140625 144.90625 205.140625 153.589844 L 205.140625 239.230469 C 219.941406 245.507812 229.644531 259.878906 229.644531 276.109375 C 229.644531 298.308594 211.585938 316.363281 189.386719 316.363281 Z M 189.386719 316.363281 "/></g><path style=" stroke:none;fill-rule:nonzero;fill:#e4c57b;fill-opacity:1;" d="M 198.304688 247.886719 L 194.640625 246.722656 L 194.640625 232.351562 L 184.136719 232.351562 L 184.136719 246.722656 L 180.472656 247.886719 C 168.007812 251.832031 159.632812 263.171875 159.632812 276.109375 C 159.632812 292.515625 172.984375 305.863281 189.386719 305.863281 C 205.796875 305.863281 219.140625 292.515625 219.140625 276.109375 C 219.140625 263.171875 210.765625 251.832031 198.304688 247.886719 Z M 189.386719 295.363281 C 178.769531 295.363281 170.136719 286.726562 170.136719 276.109375 C 170.136719 265.492188 178.769531 256.855469 189.386719 256.855469 C 200.003906 256.855469 208.640625 265.492188 208.640625 276.109375 C 208.640625 286.726562 200.003906 295.363281 189.386719 295.363281 Z M 189.386719 295.363281 "/><path style=" stroke:none;fill-rule:nonzero;fill:#e4c57b;fill-opacity:1;" d="M 121.128906 115.085938 C 121.128906 115.828125 121.089844 116.574219 121.019531 117.3125 C 120.945312 118.054688 120.835938 118.792969 120.691406 119.523438 C 120.546875 120.253906 120.363281 120.976562 120.148438 121.6875 C 119.929688 122.402344 119.679688 123.101562 119.394531 123.792969 C 119.109375 124.480469 118.792969 125.152344 118.441406 125.808594 C 118.089844 126.46875 117.707031 127.105469 117.292969 127.726562 C 116.878906 128.34375 116.433594 128.941406 115.960938 129.519531 C 115.488281 130.09375 114.988281 130.644531 114.464844 131.171875 C 113.9375 131.699219 113.386719 132.199219 112.808594 132.671875 C 112.234375 133.144531 111.636719 133.589844 111.015625 134.003906 C 110.394531 134.417969 109.757812 134.800781 109.101562 135.152344 C 108.441406 135.503906 107.769531 135.820312 107.082031 136.105469 C 106.394531 136.390625 105.691406 136.640625 104.980469 136.859375 C 104.265625 137.074219 103.542969 137.253906 102.8125 137.398438 C 102.082031 137.546875 101.347656 137.65625 100.605469 137.726562 C 99.863281 137.800781 99.121094 137.835938 98.375 137.835938 C 97.628906 137.835938 96.886719 137.800781 96.144531 137.726562 C 95.402344 137.65625 94.667969 137.546875 93.933594 137.398438 C 93.203125 137.253906 92.480469 137.074219 91.769531 136.859375 C 91.054688 136.640625 90.355469 136.390625 89.667969 136.105469 C 88.976562 135.820312 88.304688 135.503906 87.648438 135.152344 C 86.992188 134.800781 86.351562 134.417969 85.734375 134.003906 C 85.113281 133.589844 84.515625 133.144531 83.941406 132.671875 C 83.363281 132.199219 82.8125 131.699219 82.285156 131.171875 C 81.757812 130.644531 81.257812 130.09375 80.785156 129.519531 C 80.3125 128.941406 79.871094 128.34375 79.457031 127.726562 C 79.042969 127.105469 78.660156 126.46875 78.308594 125.808594 C 77.957031 125.152344 77.636719 124.480469 77.351562 123.792969 C 77.066406 123.101562 76.816406 122.402344 76.601562 121.6875 C 76.382812 120.976562 76.203125 120.253906 76.058594 119.523438 C 75.914062 118.792969 75.804688 118.054688 75.730469 117.3125 C 75.65625 116.574219 75.621094 115.828125 75.621094 115.085938 C 75.621094 114.339844 75.65625 113.59375 75.730469 112.855469 C 75.804688 112.113281 75.914062 111.375 76.058594 110.644531 C 76.203125 109.914062 76.382812 109.191406 76.601562 108.480469 C 76.816406 107.765625 77.066406 107.066406 77.351562 106.375 C 77.636719 105.6875 77.957031 105.015625 78.308594 104.359375 C 78.660156 103.699219 79.042969 103.0625 79.457031 102.441406 C 79.871094 101.824219 80.3125 101.226562 80.785156 100.648438 C 81.257812 100.074219 81.757812 99.523438 82.285156 98.996094 C 82.8125 98.46875 83.363281 97.96875 83.941406 97.496094 C 84.515625 97.023438 85.113281 96.578125 85.734375 96.164062 C 86.351562 95.75 86.992188 95.367188 87.648438 95.015625 C 88.304688 94.667969 88.976562 94.347656 89.667969 94.0625 C 90.355469 93.777344 91.054688 93.527344 91.769531 93.308594 C 92.480469 93.09375 93.203125 92.914062 93.933594 92.769531 C 94.667969 92.621094 95.402344 92.511719 96.144531 92.441406 C 96.886719 92.367188 97.628906 92.332031 98.375 92.332031 C 99.121094 92.332031 99.863281 92.367188 100.605469 92.441406 C 101.347656 92.511719 102.082031 92.621094 102.8125 92.769531 C 103.542969 92.914062 104.265625 93.09375 104.980469 93.308594 C 105.691406 93.527344 106.394531 93.777344 107.082031 94.0625 C 107.769531 94.347656 108.441406 94.667969 109.101562 95.015625 C 109.757812 95.367188 110.394531 95.75 111.015625 96.164062 C 111.636719 96.578125 112.234375 97.023438 112.808594 97.496094 C 113.386719 97.96875 113.9375 98.46875 114.464844 98.996094 C 114.988281 99.523438 115.488281 100.074219 115.960938 100.648438 C 116.433594 101.226562 116.878906 101.824219 117.292969 102.441406 C 117.707031 103.0625 118.089844 103.699219 118.441406 104.359375 C 118.792969 105.015625 119.109375 105.6875 119.394531 106.375 C 119.679688 107.066406 119.929688 107.765625 120.148438 108.480469 C 120.363281 109.191406 120.546875 109.914062 120.691406 110.644531 C 120.835938 111.375 120.945312 112.113281 121.019531 112.855469 C 121.089844 113.59375 121.128906 114.339844 121.128906 115.085938 Z M 121.128906 115.085938 "/><path style=" stroke:none;fill-rule:nonzero;fill:#e4c57b;fill-opacity:1;" d="M 93.125 74.828125 L 103.625 74.828125 L 103.625 85.328125 L 93.125 85.328125 Z M 93.125 74.828125 "/><path style=" stroke:none;fill-rule:nonzero;fill:#e4c57b;fill-opacity:1;" d="M 115.703125 90.332031 L 123.128906 82.910156 L 130.550781 90.332031 L 123.128906 97.757812 Z M 115.703125 90.332031 "/><path style=" stroke:none;fill-rule:nonzero;fill:#e4c57b;fill-opacity:1;" d="M 128.128906 109.832031 L 138.628906 109.832031 L 138.628906 120.335938 L 128.128906 120.335938 Z M 128.128906 109.832031 "/><path style=" stroke:none;fill-rule:nonzero;fill:#e4c57b;fill-opacity:1;" d="M 115.703125 139.832031 L 123.128906 132.410156 L 130.550781 139.832031 L 123.128906 147.257812 Z M 115.703125 139.832031 "/><path style=" stroke:none;fill-rule:nonzero;fill:#e4c57b;fill-opacity:1;" d="M 93.125 144.839844 L 103.625 144.839844 L 103.625 155.339844 L 93.125 155.339844 Z M 93.125 144.839844 "/><path style=" stroke:none;fill-rule:nonzero;fill:#e4c57b;fill-opacity:1;" d="M 66.195312 139.832031 L 73.621094 132.410156 L 81.046875 139.832031 L 73.621094 147.257812 Z M 66.195312 139.832031 "/><g clip-rule="nonzero" clip-path="url(#6affae6f73)"><path style=" stroke:none;fill-rule:nonzero;fill:#e4c57b;fill-opacity:1;" d="M 58.117188 109.832031 L 68.621094 109.832031 L 68.621094 120.335938 L 58.117188 120.335938 Z M 58.117188 109.832031 "/></g><path style=" stroke:none;fill-rule:nonzero;fill:#e4c57b;fill-opacity:1;" d="M 66.195312 90.335938 L 73.621094 82.910156 L 81.046875 90.335938 L 73.621094 97.757812 Z M 66.195312 90.335938 "/><g clip-rule="nonzero" clip-path="url(#23b202a611)"><path style=" stroke:none;fill-rule:nonzero;fill:#e4c57b;fill-opacity:1;" d="M 314.046875 121.578125 L 300.277344 125.269531 L 287.402344 117.835938 L 300.277344 110.402344 L 314.046875 114.09375 L 316.769531 103.945312 L 305.972656 101.054688 L 308.863281 90.257812 L 298.71875 87.539062 L 295.027344 101.308594 L 282.152344 108.742188 L 282.152344 93.867188 L 292.230469 83.792969 L 284.804688 76.367188 L 276.902344 84.269531 L 268.996094 76.367188 L 261.574219 83.792969 L 271.652344 93.867188 L 271.652344 108.742188 L 258.777344 101.308594 L 255.085938 87.539062 L 244.9375 90.257812 L 247.832031 101.054688 L 237.035156 103.945312 L 239.757812 114.09375 L 253.523438 110.402344 L 266.402344 117.835938 L 253.523438 125.269531 L 239.757812 121.578125 L 237.035156 131.726562 L 247.832031 134.617188 L 244.9375 145.414062 L 255.085938 148.132812 L 258.777344 134.363281 L 271.652344 126.929688 L 271.652344 141.796875 L 261.574219 151.878906 L 268.996094 159.304688 L 276.902344 151.394531 L 284.804688 159.304688 L 292.230469 151.878906 L 282.152344 141.796875 L 282.152344 126.929688 L 295.027344 134.363281 L 298.71875 148.132812 L 308.863281 145.414062 L 305.972656 134.617188 L 316.769531 131.726562 Z M 314.046875 121.578125 "/></g><path style=" stroke:none;fill-rule:nonzero;fill:#e4c57b;fill-opacity:1;" d="M 238.394531 165.84375 L 259.398438 165.84375 L 259.398438 176.34375 L 238.394531 176.34375 Z M 238.394531 165.84375 "/><path style=" stroke:none;fill-rule:nonzero;fill:#e4c57b;fill-opacity:1;" d="M 238.394531 190.34375 L 259.398438 190.34375 L 259.398438 200.847656 L 238.394531 200.847656 Z M 238.394531 190.34375 "/><path style=" stroke:none;fill-rule:nonzero;fill:#e4c57b;fill-opacity:1;" d="M 238.394531 214.847656 L 259.398438 214.847656 L 259.398438 225.351562 L 238.394531 225.351562 Z M 238.394531 214.847656 "/><path style=" stroke:none;fill-rule:nonzero;fill:#e4c57b;fill-opacity:1;" d="M 119.378906 165.84375 L 140.378906 165.84375 L 140.378906 176.34375 L 119.378906 176.34375 Z M 119.378906 165.84375 "/><path style=" stroke:none;fill-rule:nonzero;fill:#e4c57b;fill-opacity:1;" d="M 119.378906 190.34375 L 140.378906 190.34375 L 140.378906 200.847656 L 119.378906 200.847656 Z M 119.378906 190.34375 "/><path style=" stroke:none;fill-rule:nonzero;fill:#e4c57b;fill-opacity:1;" d="M 119.378906 214.847656 L 140.378906 214.847656 L 140.378906 225.351562 L 119.378906 225.351562 Z M 119.378906 214.847656 "/><path style=" stroke:none;fill-rule:nonzero;fill:#e4c57b;fill-opacity:1;" d="M 220.714844 98.082031 L 228.070312 90.585938 C 206.738281 69.625 172.03125 69.632812 150.699219 90.585938 L 158.0625 98.082031 C 175.332031 81.097656 203.425781 81.097656 220.714844 98.082031 Z M 220.714844 98.082031 "/><path style=" stroke:none;fill-rule:nonzero;fill:#e4c57b;fill-opacity:1;" d="M 174.105469 111.828125 C 182.539062 103.542969 196.253906 103.542969 204.660156 111.828125 L 212.03125 104.335938 C 199.554688 92.070312 179.238281 92.0625 166.742188 104.335938 Z M 174.105469 111.828125 "/></g></svg>