<svg xmlns="http://www.w3.org/2000/svg" xmlns:xlink="http://www.w3.org/1999/xlink" width="335" zoomAndPan="magnify" viewBox="0 0 251.25 374.999989" height="500" preserveAspectRatio="xMidYMid meet" version="1.2"><defs><clipPath id="5a985e82f5"><path d="M 0 0.558594 L 250.503906 0.558594 L 250.503906 374.441406 L 0 374.441406 Z M 0 0.558594 "/></clipPath><clipPath id="c5f67db5dd"><path d="M 0 0.558594 L 250.503906 0.558594 L 250.503906 374.441406 L 0 374.441406 Z M 0 0.558594 "/></clipPath></defs><g id="1b06fea560"><g clip-rule="nonzero" clip-path="url(#5a985e82f5)"><path style=" stroke:none;fill-rule:nonzero;fill:#6dd5fa;fill-opacity:1;" d="M 0 249.121094 C 0 158.320312 95.382812 98.035156 123.578125 7.40625 C 123.78125 6.753906 125.253906 0.625 125.253906 0.625 C 125.253906 0.625 126.714844 6.757812 126.925781 7.40625 C 156.742188 98.035156 250.507812 158.320312 250.507812 249.121094 C 250.507812 318.296875 194.429688 374.375 125.253906 374.375 C 56.078125 374.375 0 318.296875 0 249.121094 "/></g><path style=" stroke:none;fill-rule:nonzero;fill:#ffffff;fill-opacity:1;" d="M 232.5625 250.929688 C 232.5625 302.835938 191.125 345.808594 137.121094 353.1875 C 184.140625 335.148438 217.523438 289.574219 217.523438 236.207031 C 217.523438 211.707031 210.695312 189.433594 200.144531 168.183594 C 218.542969 193.847656 232.5625 220.28125 232.5625 250.929688 "/><g clip-rule="nonzero" clip-path="url(#c5f67db5dd)"><path style=" stroke:none;fill-rule:nonzero;fill:#315d6a;fill-opacity:1;" d="M 0 249.121094 C 0 158.320312 95.382812 98.035156 123.578125 7.40625 C 123.78125 6.753906 125.253906 0.625 125.253906 0.625 C 125.253906 0.625 126.714844 6.757812 126.925781 7.40625 C 156.742188 98.035156 250.507812 158.320312 250.507812 249.121094 C 250.507812 318.296875 194.429688 374.375 125.253906 374.375 C 56.078125 374.375 0 318.296875 0 249.121094 "/></g><path style=" stroke:none;fill-rule:nonzero;fill:#ffffff;fill-opacity:1;" d="M 232.5625 250.929688 C 232.5625 302.835938 191.125 345.808594 137.121094 353.1875 C 184.140625 335.148438 217.523438 289.574219 217.523438 236.207031 C 217.523438 211.707031 210.695312 189.433594 200.144531 168.183594 C 218.542969 193.847656 232.5625 220.28125 232.5625 250.929688 "/></g></svg>