<svg xmlns="http://www.w3.org/2000/svg" xmlns:xlink="http://www.w3.org/1999/xlink" width="500" zoomAndPan="magnify" viewBox="0 0 375 374.999991" height="500" preserveAspectRatio="xMidYMid meet" version="1.2"><defs><clipPath id="978f6d75d6"><path d="M 0.0078125 0 L 375 0 L 375 375 L 0.0078125 375 Z M 0.0078125 0 "/></clipPath><clipPath id="354801e24f"><path d="M 374.992188 74.996094 L 374.992188 300.003906 C 374.992188 319.894531 367.089844 338.96875 353.023438 353.035156 C 338.960938 367.097656 319.886719 375 299.996094 375 L 75.003906 375 C 55.113281 375 36.039062 367.097656 21.976562 353.035156 C 7.910156 338.96875 0.0078125 319.894531 0.0078125 300.003906 L 0.0078125 74.996094 C 0.0078125 33.578125 33.585938 0 75.003906 0 L 299.996094 0 C 319.886719 0 338.960938 7.902344 353.023438 21.964844 C 367.089844 36.03125 374.992188 55.105469 374.992188 74.996094 Z M 374.992188 74.996094 "/></clipPath><clipPath id="7d0c00b70e"><path d="M 166 103.824219 L 173 103.824219 L 173 110 L 166 110 Z M 166 103.824219 "/></clipPath><clipPath id="fb717af59c"><path d="M 192 103.824219 L 198 103.824219 L 198 110 L 192 110 Z M 192 103.824219 "/></clipPath><clipPath id="6391ef507e"><path d="M 202 265 L 208 265 L 208 271.074219 L 202 271.074219 Z M 202 265 "/></clipPath><clipPath id="ef568bc0cd"><path d="M 177 265 L 183 265 L 183 271.074219 L 177 271.074219 Z M 177 265 "/></clipPath><clipPath id="9413a622dd"><path d="M 266 166 L 271.941406 166 L 271.941406 173 L 266 173 Z M 266 166 "/></clipPath><clipPath id="d4c1da6e60"><path d="M 266 192 L 271.941406 192 L 271.941406 198 L 266 198 Z M 266 192 "/></clipPath><clipPath id="99266149ee"><path d="M 103.191406 202 L 109 202 L 109 208 L 103.191406 208 Z M 103.191406 202 "/></clipPath><clipPath id="b31c170dfb"><path d="M 103.191406 177 L 109 177 L 109 183 L 103.191406 183 Z M 103.191406 177 "/></clipPath></defs><g id="126ee936d4"><g clip-rule="nonzero" clip-path="url(#978f6d75d6)"><g clip-rule="nonzero" clip-path="url(#354801e24f)"><path style="fill:none;stroke-width:60;stroke-linecap:butt;stroke-linejoin:miter;stroke:#315d6a;stroke-opacity:1;stroke-miterlimit:4;" d="M 499.977898 99.994798 L 499.977898 400.005235 C 499.977898 426.52607 489.441439 451.958363 470.68623 470.713573 C 451.936228 489.463574 426.503935 500.000033 399.9831 500.000033 L 99.993497 500.000033 C 73.472662 500.000033 48.040369 489.463574 29.290367 470.713573 C 10.535158 451.958363 -0.00130128 426.52607 -0.00130128 400.005235 L -0.00130128 99.994798 C -0.00130128 44.770836 44.769535 0 99.993497 0 L 399.9831 0 C 426.503935 0 451.936228 10.536459 470.68623 29.28646 C 489.441439 48.04167 499.977898 73.473963 499.977898 99.994798 Z M 499.977898 99.994798 " transform="matrix(0.75,0,0,0.75,0.00878846,0)"/></g></g><path style=" stroke:none;fill-rule:nonzero;fill:#315d6a;fill-opacity:1;" d="M 211.601562 163.746094 L 211.601562 211.148438 L 163.28125 211.148438 L 163.28125 163.746094 L 211.601562 163.746094 M 213.882812 161.464844 L 161 161.464844 L 161 213.429688 L 213.882812 213.429688 Z M 213.882812 161.464844 "/><path style=" stroke:none;fill-rule:nonzero;fill:#315d6a;fill-opacity:1;" d="M 166.859375 154.03125 L 169.640625 154.03125 L 169.640625 161.859375 L 166.859375 161.859375 Z M 166.859375 154.03125 "/><path style=" stroke:none;fill-rule:nonzero;fill:#315d6a;fill-opacity:1;" d="M 170.089844 154.03125 L 172.871094 154.03125 L 172.871094 161.859375 L 170.089844 161.859375 Z M 170.089844 154.03125 "/><path style=" stroke:none;fill-rule:nonzero;fill:#315d6a;fill-opacity:1;" d="M 173.320312 154.03125 L 176.097656 154.03125 L 176.097656 161.859375 L 173.320312 161.859375 Z M 173.320312 154.03125 "/><path style=" stroke:none;fill-rule:nonzero;fill:#315d6a;fill-opacity:1;" d="M 176.550781 154.03125 L 179.328125 154.03125 L 179.328125 161.859375 L 176.550781 161.859375 Z M 176.550781 154.03125 "/><path style=" stroke:none;fill-rule:nonzero;fill:#315d6a;fill-opacity:1;" d="M 179.78125 154.03125 L 182.558594 154.03125 L 182.558594 161.859375 L 179.78125 161.859375 Z M 179.78125 154.03125 "/><path style=" stroke:none;fill-rule:nonzero;fill:#315d6a;fill-opacity:1;" d="M 183.007812 154.03125 L 185.789062 154.03125 L 185.789062 161.859375 L 183.007812 161.859375 Z M 183.007812 154.03125 "/><path style=" stroke:none;fill-rule:nonzero;fill:#315d6a;fill-opacity:1;" d="M 186.238281 154.03125 L 189.019531 154.03125 L 189.019531 161.859375 L 186.238281 161.859375 Z M 186.238281 154.03125 "/><path style=" stroke:none;fill-rule:nonzero;fill:#315d6a;fill-opacity:1;" d="M 189.46875 154.03125 L 192.25 154.03125 L 192.25 161.859375 L 189.46875 161.859375 Z M 189.46875 154.03125 "/><path style=" stroke:none;fill-rule:nonzero;fill:#315d6a;fill-opacity:1;" d="M 192.699219 154.03125 L 195.476562 154.03125 L 195.476562 161.859375 L 192.699219 161.859375 Z M 192.699219 154.03125 "/><path style=" stroke:none;fill-rule:nonzero;fill:#315d6a;fill-opacity:1;" d="M 195.929688 154.03125 L 198.707031 154.03125 L 198.707031 161.859375 L 195.929688 161.859375 Z M 195.929688 154.03125 "/><path style=" stroke:none;fill-rule:nonzero;fill:#315d6a;fill-opacity:1;" d="M 199.160156 154.03125 L 201.9375 154.03125 L 201.9375 161.859375 L 199.160156 161.859375 Z M 199.160156 154.03125 "/><path style=" stroke:none;fill-rule:nonzero;fill:#315d6a;fill-opacity:1;" d="M 202.390625 154.03125 L 205.167969 154.03125 L 205.167969 161.859375 L 202.390625 161.859375 Z M 202.390625 154.03125 "/><path style=" stroke:none;fill-rule:nonzero;fill:#315d6a;fill-opacity:1;" d="M 205.617188 154.03125 L 208.398438 154.03125 L 208.398438 161.859375 L 205.617188 161.859375 Z M 205.617188 154.03125 "/><path style=" stroke:none;fill-rule:nonzero;fill:#315d6a;fill-opacity:1;" d="M 168.628906 157.71875 L 167.867188 157.71875 L 167.867188 146.425781 L 163.554688 142.113281 L 158.371094 142.113281 L 156.910156 143.574219 L 142.457031 143.574219 L 142.457031 142.8125 L 156.59375 142.8125 L 158.054688 141.351562 L 163.871094 141.351562 L 168.628906 146.109375 Z M 168.628906 157.71875 "/><path style=" stroke:none;fill-rule:nonzero;fill:#315d6a;fill-opacity:1;" d="M 171.949219 158.25 L 171.1875 158.25 L 171.1875 145.269531 L 165.214844 139.296875 L 152.425781 139.296875 L 146.882812 133.753906 L 142.457031 133.753906 L 142.457031 132.992188 L 147.199219 132.992188 L 152.742188 138.535156 L 165.53125 138.535156 L 171.949219 144.953125 Z M 171.949219 158.25 "/><path style=" stroke:none;fill-rule:nonzero;fill:#315d6a;fill-opacity:1;" d="M 175.230469 157.945312 L 174.46875 157.945312 L 174.46875 143.363281 L 165.519531 134.414062 L 161.542969 134.414062 L 157.269531 130.140625 L 151.671875 130.140625 L 146.289062 124.757812 L 146.828125 124.222656 L 151.988281 129.378906 L 157.585938 129.378906 L 161.859375 133.652344 L 165.835938 133.652344 L 175.230469 143.046875 Z M 175.230469 157.945312 "/><path style=" stroke:none;fill-rule:nonzero;fill:#315d6a;fill-opacity:1;" d="M 178.347656 157.03125 L 177.585938 157.03125 L 177.585938 141.347656 L 168.242188 132.003906 L 168.242188 126.394531 L 164.074219 122.226562 L 164.074219 114.296875 L 164.835938 114.296875 L 164.835938 121.910156 L 169.003906 126.078125 L 169.003906 131.6875 L 178.347656 141.03125 Z M 178.347656 157.03125 "/><path style=" stroke:none;fill-rule:nonzero;fill:#315d6a;fill-opacity:1;" d="M 181.554688 157.03125 L 180.792969 157.027344 L 180.890625 138.84375 L 172.039062 129.996094 L 172.039062 122.640625 L 169.136719 119.738281 L 169.136719 106.488281 L 169.898438 106.488281 L 169.898438 119.421875 L 172.800781 122.324219 L 172.800781 129.679688 L 181.652344 138.53125 Z M 181.554688 157.03125 "/><path style=" stroke:none;fill-rule:nonzero;fill:#315d6a;fill-opacity:1;" d="M 184.019531 137.125 L 184.78125 137.125 L 184.78125 157.027344 L 184.019531 157.027344 Z M 184.019531 137.125 "/><path style=" stroke:none;fill-rule:nonzero;fill:#315d6a;fill-opacity:1;" d="M 187.949219 157.03125 L 187.183594 157.03125 L 187.183594 128.269531 L 182.40625 123.492188 L 182.40625 120.410156 L 183.167969 120.410156 L 183.167969 123.175781 L 187.949219 127.957031 Z M 187.949219 157.03125 "/><path style=" stroke:none;fill-rule:nonzero;fill:#315d6a;fill-opacity:1;" d="M 191.300781 155.980469 L 190.539062 155.980469 L 190.539062 127.484375 L 195.109375 122.914062 L 195.109375 119.671875 L 192.320312 116.882812 L 192.855469 116.34375 L 195.871094 119.355469 L 195.871094 123.230469 L 191.300781 127.800781 Z M 191.300781 155.980469 "/><path style=" stroke:none;fill-rule:nonzero;fill:#315d6a;fill-opacity:1;" d="M 194.394531 156.765625 L 193.632812 156.765625 L 193.632812 136.730469 L 200.070312 130.289062 L 200.070312 120 L 194.832031 114.761719 L 194.832031 106.488281 L 195.59375 106.488281 L 195.59375 114.445312 L 200.832031 119.683594 L 200.832031 130.605469 L 194.394531 137.042969 Z M 194.394531 156.765625 "/><path style=" stroke:none;fill-rule:nonzero;fill:#315d6a;fill-opacity:1;" d="M 197.640625 157.03125 L 196.878906 157.03125 L 196.878906 141.171875 L 204.265625 133.78125 L 204.265625 117.402344 L 201.433594 114.566406 L 201.972656 114.03125 L 205.027344 117.085938 L 205.027344 134.097656 L 197.640625 141.484375 Z M 197.640625 157.03125 "/><path style=" stroke:none;fill-rule:nonzero;fill:#315d6a;fill-opacity:1;" d="M 200.90625 155.65625 L 200.148438 155.65625 L 200.148438 144.714844 L 208.21875 136.640625 L 208.21875 129.816406 L 212.832031 125.203125 L 213.371094 125.742188 L 208.980469 130.132812 L 208.980469 136.957031 L 200.90625 145.03125 Z M 200.90625 155.65625 "/><path style=" stroke:none;fill-rule:nonzero;fill:#315d6a;fill-opacity:1;" d="M 204.144531 156.765625 L 203.386719 156.765625 L 203.386719 147.480469 L 209.722656 141.144531 L 223.613281 141.144531 L 228.617188 136.140625 L 228.617188 128.914062 L 232.113281 125.417969 L 235.152344 125.417969 L 235.152344 126.179688 L 232.429688 126.179688 L 229.378906 129.230469 L 229.378906 136.453125 L 223.929688 141.902344 L 210.039062 141.902344 L 204.144531 147.796875 Z M 204.144531 156.765625 "/><path style=" stroke:none;fill-rule:nonzero;fill:#315d6a;fill-opacity:1;" d="M 207.308594 156.5625 L 206.550781 156.5625 L 206.550781 149.722656 L 210.097656 146.171875 L 213.371094 146.171875 L 213.371094 146.933594 L 210.414062 146.933594 L 207.308594 150.039062 Z M 207.308594 156.5625 "/><path style=" stroke:none;fill-rule:nonzero;fill:#315d6a;fill-opacity:1;" d="M 145.03125 143.242188 C 145.03125 143.589844 144.964844 143.925781 144.832031 144.246094 C 144.699219 144.566406 144.511719 144.847656 144.265625 145.09375 C 144.019531 145.339844 143.738281 145.53125 143.417969 145.664062 C 143.09375 145.796875 142.761719 145.863281 142.414062 145.863281 C 142.066406 145.863281 141.734375 145.796875 141.410156 145.664062 C 141.089844 145.53125 140.808594 145.339844 140.5625 145.09375 C 140.316406 144.847656 140.128906 144.566406 139.996094 144.246094 C 139.863281 143.925781 139.796875 143.589844 139.796875 143.242188 C 139.796875 142.894531 139.863281 142.5625 139.996094 142.242188 C 140.128906 141.917969 140.316406 141.636719 140.5625 141.390625 C 140.808594 141.144531 141.089844 140.957031 141.410156 140.824219 C 141.734375 140.691406 142.066406 140.625 142.414062 140.625 C 142.761719 140.625 143.09375 140.691406 143.417969 140.824219 C 143.738281 140.957031 144.019531 141.144531 144.265625 141.390625 C 144.511719 141.636719 144.699219 141.917969 144.832031 142.242188 C 144.964844 142.5625 145.03125 142.894531 145.03125 143.242188 Z M 145.03125 143.242188 "/><path style=" stroke:none;fill-rule:nonzero;fill:#315d6a;fill-opacity:1;" d="M 145.074219 133.371094 C 145.074219 133.71875 145.007812 134.054688 144.875 134.375 C 144.742188 134.695312 144.554688 134.980469 144.308594 135.222656 C 144.0625 135.46875 143.78125 135.660156 143.460938 135.792969 C 143.136719 135.925781 142.804688 135.992188 142.457031 135.992188 C 142.109375 135.992188 141.777344 135.925781 141.453125 135.792969 C 141.132812 135.660156 140.851562 135.46875 140.605469 135.222656 C 140.359375 134.980469 140.171875 134.695312 140.039062 134.375 C 139.90625 134.054688 139.839844 133.71875 139.839844 133.371094 C 139.839844 133.027344 139.90625 132.691406 140.039062 132.371094 C 140.171875 132.050781 140.359375 131.765625 140.605469 131.519531 C 140.851562 131.273438 141.132812 131.085938 141.453125 130.953125 C 141.777344 130.820312 142.109375 130.753906 142.457031 130.753906 C 142.804688 130.753906 143.136719 130.820312 143.460938 130.953125 C 143.78125 131.085938 144.0625 131.273438 144.308594 131.519531 C 144.554688 131.765625 144.742188 132.050781 144.875 132.371094 C 145.007812 132.691406 145.074219 133.027344 145.074219 133.371094 Z M 145.074219 133.371094 "/><path style=" stroke:none;fill-rule:nonzero;fill:#315d6a;fill-opacity:1;" d="M 149.179688 124.6875 C 149.179688 125.035156 149.113281 125.367188 148.980469 125.6875 C 148.847656 126.011719 148.65625 126.292969 148.410156 126.539062 C 148.167969 126.785156 147.882812 126.972656 147.5625 127.105469 C 147.242188 127.238281 146.90625 127.304688 146.558594 127.304688 C 146.210938 127.304688 145.878906 127.238281 145.558594 127.105469 C 145.238281 126.972656 144.953125 126.785156 144.707031 126.539062 C 144.460938 126.292969 144.273438 126.011719 144.140625 125.6875 C 144.007812 125.367188 143.941406 125.035156 143.941406 124.6875 C 143.941406 124.339844 144.007812 124.003906 144.140625 123.683594 C 144.273438 123.363281 144.460938 123.082031 144.707031 122.835938 C 144.953125 122.589844 145.238281 122.402344 145.558594 122.265625 C 145.878906 122.132812 146.210938 122.066406 146.558594 122.066406 C 146.90625 122.066406 147.242188 122.132812 147.5625 122.265625 C 147.882812 122.402344 148.167969 122.589844 148.410156 122.835938 C 148.65625 123.082031 148.847656 123.363281 148.980469 123.683594 C 149.113281 124.003906 149.179688 124.339844 149.179688 124.6875 Z M 149.179688 124.6875 "/><path style=" stroke:none;fill-rule:nonzero;fill:#315d6a;fill-opacity:1;" d="M 167.074219 114.296875 C 167.074219 114.644531 167.007812 114.980469 166.875 115.300781 C 166.742188 115.621094 166.554688 115.90625 166.308594 116.152344 C 166.0625 116.394531 165.777344 116.585938 165.457031 116.71875 C 165.136719 116.851562 164.804688 116.917969 164.457031 116.917969 C 164.109375 116.917969 163.773438 116.851562 163.453125 116.71875 C 163.132812 116.585938 162.847656 116.394531 162.605469 116.152344 C 162.359375 115.90625 162.167969 115.621094 162.035156 115.300781 C 161.902344 114.980469 161.835938 114.644531 161.835938 114.296875 C 161.835938 113.953125 161.902344 113.617188 162.035156 113.296875 C 162.167969 112.976562 162.359375 112.691406 162.605469 112.445312 C 162.847656 112.203125 163.132812 112.011719 163.453125 111.878906 C 163.773438 111.746094 164.109375 111.679688 164.457031 111.679688 C 164.804688 111.679688 165.136719 111.746094 165.457031 111.878906 C 165.777344 112.011719 166.0625 112.203125 166.308594 112.445312 C 166.554688 112.691406 166.742188 112.976562 166.875 113.296875 C 167.007812 113.617188 167.074219 113.953125 167.074219 114.296875 Z M 167.074219 114.296875 "/><g clip-rule="nonzero" clip-path="url(#7d0c00b70e)"><path style=" stroke:none;fill-rule:nonzero;fill:#315d6a;fill-opacity:1;" d="M 172.136719 106.488281 C 172.136719 106.832031 172.070312 107.167969 171.9375 107.488281 C 171.804688 107.808594 171.617188 108.09375 171.371094 108.339844 C 171.125 108.582031 170.839844 108.773438 170.519531 108.90625 C 170.199219 109.039062 169.867188 109.105469 169.519531 109.105469 C 169.171875 109.105469 168.835938 109.039062 168.515625 108.90625 C 168.195312 108.773438 167.914062 108.582031 167.667969 108.339844 C 167.421875 108.09375 167.230469 107.808594 167.097656 107.488281 C 166.964844 107.167969 166.898438 106.832031 166.898438 106.488281 C 166.898438 106.140625 166.964844 105.804688 167.097656 105.484375 C 167.230469 105.164062 167.421875 104.878906 167.667969 104.632812 C 167.914062 104.390625 168.195312 104.199219 168.515625 104.066406 C 168.835938 103.933594 169.171875 103.867188 169.519531 103.867188 C 169.867188 103.867188 170.199219 103.933594 170.519531 104.066406 C 170.839844 104.199219 171.125 104.390625 171.371094 104.632812 C 171.617188 104.878906 171.804688 105.164062 171.9375 105.484375 C 172.070312 105.804688 172.136719 106.140625 172.136719 106.488281 Z M 172.136719 106.488281 "/></g><path style=" stroke:none;fill-rule:nonzero;fill:#315d6a;fill-opacity:1;" d="M 185.175781 120.410156 C 185.175781 120.757812 185.109375 121.089844 184.976562 121.410156 C 184.84375 121.730469 184.65625 122.015625 184.410156 122.261719 C 184.164062 122.507812 183.882812 122.695312 183.558594 122.828125 C 183.238281 122.960938 182.90625 123.027344 182.558594 123.027344 C 182.210938 123.027344 181.875 122.960938 181.554688 122.828125 C 181.234375 122.695312 180.953125 122.507812 180.707031 122.261719 C 180.460938 122.015625 180.269531 121.730469 180.136719 121.410156 C 180.003906 121.089844 179.9375 120.757812 179.9375 120.410156 C 179.9375 120.0625 180.003906 119.726562 180.136719 119.40625 C 180.269531 119.085938 180.460938 118.804688 180.707031 118.558594 C 180.953125 118.3125 181.234375 118.121094 181.554688 117.988281 C 181.875 117.855469 182.210938 117.789062 182.558594 117.789062 C 182.90625 117.789062 183.238281 117.855469 183.558594 117.988281 C 183.882812 118.121094 184.164062 118.3125 184.410156 118.558594 C 184.65625 118.804688 184.84375 119.085938 184.976562 119.40625 C 185.109375 119.726562 185.175781 120.0625 185.175781 120.410156 Z M 185.175781 120.410156 "/><path style=" stroke:none;fill-rule:nonzero;fill:#315d6a;fill-opacity:1;" d="M 186.589844 137.953125 C 186.589844 138.246094 186.535156 138.523438 186.421875 138.792969 C 186.3125 139.058594 186.152344 139.296875 185.949219 139.503906 C 185.742188 139.707031 185.503906 139.867188 185.238281 139.976562 C 184.96875 140.089844 184.691406 140.144531 184.398438 140.144531 C 184.109375 140.144531 183.828125 140.089844 183.5625 139.976562 C 183.292969 139.867188 183.054688 139.707031 182.851562 139.503906 C 182.644531 139.296875 182.488281 139.058594 182.375 138.792969 C 182.265625 138.523438 182.210938 138.246094 182.210938 137.953125 C 182.210938 137.664062 182.265625 137.382812 182.375 137.117188 C 182.488281 136.847656 182.644531 136.609375 182.851562 136.40625 C 183.054688 136.199219 183.292969 136.042969 183.5625 135.929688 C 183.828125 135.820312 184.109375 135.765625 184.398438 135.765625 C 184.691406 135.765625 184.96875 135.820312 185.238281 135.929688 C 185.503906 136.042969 185.742188 136.199219 185.949219 136.40625 C 186.152344 136.609375 186.3125 136.847656 186.421875 137.117188 C 186.535156 137.382812 186.589844 137.664062 186.589844 137.953125 Z M 186.589844 137.953125 "/><g clip-rule="nonzero" clip-path="url(#fb717af59c)"><path style=" stroke:none;fill-rule:nonzero;fill:#315d6a;fill-opacity:1;" d="M 197.746094 106.488281 C 197.746094 106.832031 197.679688 107.167969 197.546875 107.488281 C 197.414062 107.808594 197.226562 108.09375 196.980469 108.339844 C 196.734375 108.582031 196.453125 108.773438 196.128906 108.90625 C 195.808594 109.039062 195.476562 109.105469 195.128906 109.105469 C 194.78125 109.105469 194.445312 109.039062 194.125 108.90625 C 193.804688 108.773438 193.523438 108.582031 193.277344 108.339844 C 193.03125 108.09375 192.839844 107.808594 192.707031 107.488281 C 192.574219 107.167969 192.507812 106.832031 192.507812 106.488281 C 192.507812 106.140625 192.574219 105.804688 192.707031 105.484375 C 192.839844 105.164062 193.03125 104.878906 193.277344 104.632812 C 193.523438 104.390625 193.804688 104.199219 194.125 104.066406 C 194.445312 103.933594 194.78125 103.867188 195.128906 103.867188 C 195.476562 103.867188 195.808594 103.933594 196.128906 104.066406 C 196.453125 104.199219 196.734375 104.390625 196.980469 104.632812 C 197.226562 104.878906 197.414062 105.164062 197.546875 105.484375 C 197.679688 105.804688 197.746094 106.140625 197.746094 106.488281 Z M 197.746094 106.488281 "/></g><path style=" stroke:none;fill-rule:nonzero;fill:#315d6a;fill-opacity:1;" d="M 204.46875 114.296875 C 204.46875 114.644531 204.402344 114.980469 204.269531 115.300781 C 204.136719 115.621094 203.949219 115.90625 203.703125 116.152344 C 203.457031 116.394531 203.171875 116.585938 202.851562 116.71875 C 202.53125 116.851562 202.199219 116.917969 201.851562 116.917969 C 201.503906 116.917969 201.167969 116.851562 200.847656 116.71875 C 200.527344 116.585938 200.242188 116.394531 200 116.152344 C 199.753906 115.90625 199.5625 115.621094 199.429688 115.300781 C 199.296875 114.980469 199.230469 114.644531 199.230469 114.296875 C 199.230469 113.953125 199.296875 113.617188 199.429688 113.296875 C 199.5625 112.976562 199.753906 112.691406 200 112.445312 C 200.242188 112.203125 200.527344 112.011719 200.847656 111.878906 C 201.167969 111.746094 201.503906 111.679688 201.851562 111.679688 C 202.199219 111.679688 202.53125 111.746094 202.851562 111.878906 C 203.171875 112.011719 203.457031 112.203125 203.703125 112.445312 C 203.949219 112.691406 204.136719 112.976562 204.269531 113.296875 C 204.402344 113.617188 204.46875 113.953125 204.46875 114.296875 Z M 204.46875 114.296875 "/><path style=" stroke:none;fill-rule:nonzero;fill:#315d6a;fill-opacity:1;" d="M 215.511719 125.472656 C 215.511719 125.820312 215.445312 126.152344 215.3125 126.476562 C 215.179688 126.796875 214.988281 127.078125 214.746094 127.324219 C 214.5 127.570312 214.214844 127.757812 213.894531 127.890625 C 213.574219 128.023438 213.238281 128.089844 212.894531 128.089844 C 212.546875 128.089844 212.210938 128.023438 211.890625 127.890625 C 211.570312 127.757812 211.285156 127.570312 211.039062 127.324219 C 210.796875 127.078125 210.605469 126.796875 210.472656 126.476562 C 210.339844 126.152344 210.273438 125.820312 210.273438 125.472656 C 210.273438 125.125 210.339844 124.792969 210.472656 124.46875 C 210.605469 124.148438 210.796875 123.867188 211.039062 123.621094 C 211.285156 123.375 211.570312 123.1875 211.890625 123.054688 C 212.210938 122.921875 212.546875 122.855469 212.894531 122.855469 C 213.238281 122.855469 213.574219 122.921875 213.894531 123.054688 C 214.214844 123.1875 214.5 123.375 214.746094 123.621094 C 214.988281 123.867188 215.179688 124.148438 215.3125 124.46875 C 215.445312 124.792969 215.511719 125.125 215.511719 125.472656 Z M 215.511719 125.472656 "/><path style=" stroke:none;fill-rule:nonzero;fill:#315d6a;fill-opacity:1;" d="M 237.378906 125.9375 C 237.378906 126.285156 237.3125 126.617188 237.179688 126.9375 C 237.046875 127.261719 236.855469 127.542969 236.609375 127.789062 C 236.367188 128.035156 236.082031 128.222656 235.761719 128.355469 C 235.441406 128.488281 235.105469 128.554688 234.757812 128.554688 C 234.410156 128.554688 234.078125 128.488281 233.757812 128.355469 C 233.4375 128.222656 233.152344 128.035156 232.90625 127.789062 C 232.660156 127.542969 232.472656 127.261719 232.339844 126.9375 C 232.207031 126.617188 232.140625 126.285156 232.140625 125.9375 C 232.140625 125.589844 232.207031 125.253906 232.339844 124.933594 C 232.472656 124.613281 232.660156 124.332031 232.90625 124.085938 C 233.152344 123.839844 233.4375 123.648438 233.757812 123.515625 C 234.078125 123.382812 234.410156 123.316406 234.757812 123.316406 C 235.105469 123.316406 235.441406 123.382812 235.761719 123.515625 C 236.082031 123.648438 236.367188 123.839844 236.609375 124.085938 C 236.855469 124.332031 237.046875 124.613281 237.179688 124.933594 C 237.3125 125.253906 237.378906 125.589844 237.378906 125.9375 Z M 237.378906 125.9375 "/><path style=" stroke:none;fill-rule:nonzero;fill:#315d6a;fill-opacity:1;" d="M 215.988281 146.554688 C 215.988281 146.902344 215.921875 147.234375 215.789062 147.554688 C 215.65625 147.878906 215.464844 148.160156 215.222656 148.40625 C 214.976562 148.652344 214.691406 148.839844 214.371094 148.972656 C 214.050781 149.105469 213.714844 149.171875 213.371094 149.171875 C 213.023438 149.171875 212.6875 149.105469 212.367188 148.972656 C 212.046875 148.839844 211.761719 148.652344 211.515625 148.40625 C 211.273438 148.160156 211.082031 147.878906 210.949219 147.554688 C 210.816406 147.234375 210.75 146.902344 210.75 146.554688 C 210.75 146.207031 210.816406 145.871094 210.949219 145.550781 C 211.082031 145.230469 211.273438 144.949219 211.515625 144.703125 C 211.761719 144.457031 212.046875 144.269531 212.367188 144.132812 C 212.6875 144 213.023438 143.933594 213.371094 143.933594 C 213.714844 143.933594 214.050781 144 214.371094 144.132812 C 214.691406 144.269531 214.976562 144.457031 215.222656 144.703125 C 215.464844 144.949219 215.65625 145.230469 215.789062 145.550781 C 215.921875 145.871094 215.988281 146.207031 215.988281 146.554688 Z M 215.988281 146.554688 "/><path style=" stroke:none;fill-rule:nonzero;fill:#315d6a;fill-opacity:1;" d="M 195.136719 116.917969 C 195.136719 117.230469 195.078125 117.53125 194.957031 117.824219 C 194.835938 118.113281 194.664062 118.367188 194.445312 118.589844 C 194.222656 118.8125 193.964844 118.984375 193.675781 119.101562 C 193.386719 119.222656 193.085938 119.28125 192.769531 119.28125 C 192.457031 119.28125 192.15625 119.222656 191.867188 119.101562 C 191.578125 118.984375 191.320312 118.8125 191.097656 118.589844 C 190.878906 118.367188 190.707031 118.113281 190.585938 117.824219 C 190.464844 117.53125 190.40625 117.230469 190.40625 116.917969 C 190.40625 116.605469 190.464844 116.300781 190.585938 116.011719 C 190.707031 115.722656 190.878906 115.46875 191.097656 115.246094 C 191.320312 115.023438 191.578125 114.851562 191.867188 114.734375 C 192.15625 114.613281 192.457031 114.554688 192.769531 114.554688 C 193.085938 114.554688 193.386719 114.613281 193.675781 114.734375 C 193.964844 114.851562 194.222656 115.023438 194.445312 115.246094 C 194.664062 115.46875 194.835938 115.722656 194.957031 116.011719 C 195.078125 116.300781 195.136719 116.605469 195.136719 116.917969 Z M 195.136719 116.917969 "/><path style=" stroke:none;fill-rule:nonzero;fill:#315d6a;fill-opacity:1;" d="M 205.242188 213.035156 L 208.023438 213.035156 L 208.023438 220.863281 L 205.242188 220.863281 Z M 205.242188 213.035156 "/><path style=" stroke:none;fill-rule:nonzero;fill:#315d6a;fill-opacity:1;" d="M 202.015625 213.035156 L 204.792969 213.035156 L 204.792969 220.863281 L 202.015625 220.863281 Z M 202.015625 213.035156 "/><path style=" stroke:none;fill-rule:nonzero;fill:#315d6a;fill-opacity:1;" d="M 198.785156 213.035156 L 201.5625 213.035156 L 201.5625 220.863281 L 198.785156 220.863281 Z M 198.785156 213.035156 "/><path style=" stroke:none;fill-rule:nonzero;fill:#315d6a;fill-opacity:1;" d="M 195.554688 213.035156 L 198.332031 213.035156 L 198.332031 220.863281 L 195.554688 220.863281 Z M 195.554688 213.035156 "/><path style=" stroke:none;fill-rule:nonzero;fill:#315d6a;fill-opacity:1;" d="M 192.324219 213.035156 L 195.101562 213.035156 L 195.101562 220.863281 L 192.324219 220.863281 Z M 192.324219 213.035156 "/><path style=" stroke:none;fill-rule:nonzero;fill:#315d6a;fill-opacity:1;" d="M 189.09375 213.035156 L 191.875 213.035156 L 191.875 220.863281 L 189.09375 220.863281 Z M 189.09375 213.035156 "/><path style=" stroke:none;fill-rule:nonzero;fill:#315d6a;fill-opacity:1;" d="M 185.863281 213.035156 L 188.644531 213.035156 L 188.644531 220.863281 L 185.863281 220.863281 Z M 185.863281 213.035156 "/><path style=" stroke:none;fill-rule:nonzero;fill:#315d6a;fill-opacity:1;" d="M 182.636719 213.035156 L 185.414062 213.035156 L 185.414062 220.863281 L 182.636719 220.863281 Z M 182.636719 213.035156 "/><path style=" stroke:none;fill-rule:nonzero;fill:#315d6a;fill-opacity:1;" d="M 179.40625 213.035156 L 182.183594 213.035156 L 182.183594 220.863281 L 179.40625 220.863281 Z M 179.40625 213.035156 "/><path style=" stroke:none;fill-rule:nonzero;fill:#315d6a;fill-opacity:1;" d="M 176.175781 213.035156 L 178.953125 213.035156 L 178.953125 220.863281 L 176.175781 220.863281 Z M 176.175781 213.035156 "/><path style=" stroke:none;fill-rule:nonzero;fill:#315d6a;fill-opacity:1;" d="M 172.945312 213.035156 L 175.722656 213.035156 L 175.722656 220.863281 L 172.945312 220.863281 Z M 172.945312 213.035156 "/><path style=" stroke:none;fill-rule:nonzero;fill:#315d6a;fill-opacity:1;" d="M 169.714844 213.035156 L 172.492188 213.035156 L 172.492188 220.863281 L 169.714844 220.863281 Z M 169.714844 213.035156 "/><path style=" stroke:none;fill-rule:nonzero;fill:#315d6a;fill-opacity:1;" d="M 166.484375 213.035156 L 169.265625 213.035156 L 169.265625 220.863281 L 166.484375 220.863281 Z M 166.484375 213.035156 "/><path style=" stroke:none;fill-rule:nonzero;fill:#315d6a;fill-opacity:1;" d="M 216.828125 233.542969 L 211.011719 233.542969 L 206.253906 228.785156 L 206.253906 217.175781 L 207.015625 217.175781 L 207.015625 228.46875 L 211.328125 232.785156 L 216.511719 232.785156 L 217.972656 231.320312 L 232.425781 231.320312 L 232.425781 232.082031 L 218.289062 232.082031 Z M 216.828125 233.542969 "/><path style=" stroke:none;fill-rule:nonzero;fill:#315d6a;fill-opacity:1;" d="M 232.425781 241.902344 L 227.683594 241.902344 L 222.140625 236.359375 L 209.351562 236.359375 L 202.933594 229.941406 L 202.933594 216.644531 L 203.695312 216.644531 L 203.695312 229.625 L 209.667969 235.597656 L 222.457031 235.597656 L 228 241.140625 L 232.425781 241.140625 Z M 232.425781 241.902344 "/><path style=" stroke:none;fill-rule:nonzero;fill:#315d6a;fill-opacity:1;" d="M 228.054688 250.671875 L 222.894531 245.515625 L 217.296875 245.515625 L 213.023438 241.242188 L 209.046875 241.242188 L 199.652344 231.847656 L 199.652344 216.949219 L 200.414062 216.949219 L 200.414062 231.53125 L 209.363281 240.480469 L 213.339844 240.480469 L 217.613281 244.753906 L 223.210938 244.753906 L 228.59375 250.136719 Z M 228.054688 250.671875 "/><path style=" stroke:none;fill-rule:nonzero;fill:#315d6a;fill-opacity:1;" d="M 210.808594 260.597656 L 210.046875 260.597656 L 210.046875 252.984375 L 205.878906 248.816406 L 205.878906 243.207031 L 196.535156 233.863281 L 196.535156 217.867188 L 197.296875 217.867188 L 197.296875 233.546875 L 206.640625 242.890625 L 206.640625 248.503906 L 210.808594 252.667969 Z M 210.808594 260.597656 "/><path style=" stroke:none;fill-rule:nonzero;fill:#315d6a;fill-opacity:1;" d="M 205.746094 268.410156 L 204.984375 268.410156 L 204.984375 255.472656 L 202.082031 252.570312 L 202.082031 245.214844 L 193.230469 236.367188 L 193.328125 217.863281 L 194.089844 217.867188 L 193.992188 236.050781 L 202.84375 244.898438 L 202.84375 252.253906 L 205.746094 255.15625 Z M 205.746094 268.410156 "/><path style=" stroke:none;fill-rule:nonzero;fill:#315d6a;fill-opacity:1;" d="M 190.101562 217.867188 L 190.863281 217.867188 L 190.863281 237.769531 L 190.101562 237.769531 Z M 190.101562 217.867188 "/><path style=" stroke:none;fill-rule:nonzero;fill:#315d6a;fill-opacity:1;" d="M 192.476562 254.484375 L 191.714844 254.484375 L 191.714844 251.71875 L 186.9375 246.9375 L 186.9375 217.867188 L 187.699219 217.867188 L 187.699219 246.625 L 192.476562 251.402344 Z M 192.476562 254.484375 "/><path style=" stroke:none;fill-rule:nonzero;fill:#315d6a;fill-opacity:1;" d="M 182.027344 258.550781 L 179.011719 255.539062 L 179.011719 251.664062 L 183.585938 247.09375 L 183.585938 218.914062 L 184.34375 218.914062 L 184.34375 247.410156 L 179.773438 251.980469 L 179.773438 255.222656 L 182.566406 258.011719 Z M 182.027344 258.550781 "/><path style=" stroke:none;fill-rule:nonzero;fill:#315d6a;fill-opacity:1;" d="M 180.050781 268.410156 L 179.289062 268.410156 L 179.289062 260.449219 L 174.050781 255.210938 L 174.050781 244.289062 L 180.488281 237.851562 L 180.488281 218.128906 L 181.25 218.128906 L 181.25 238.167969 L 174.8125 244.605469 L 174.8125 254.894531 L 180.050781 260.132812 Z M 180.050781 268.410156 "/><path style=" stroke:none;fill-rule:nonzero;fill:#315d6a;fill-opacity:1;" d="M 172.910156 260.863281 L 169.855469 257.808594 L 169.855469 240.796875 L 177.242188 233.410156 L 177.242188 217.867188 L 178.003906 217.867188 L 178.003906 233.726562 L 170.617188 241.113281 L 170.617188 257.492188 L 173.449219 260.328125 Z M 172.910156 260.863281 "/><path style=" stroke:none;fill-rule:nonzero;fill:#315d6a;fill-opacity:1;" d="M 162.050781 249.691406 L 161.511719 249.152344 L 165.902344 244.765625 L 165.902344 237.9375 L 173.976562 229.863281 L 173.976562 219.238281 L 174.734375 219.238281 L 174.734375 230.179688 L 166.664062 238.253906 L 166.664062 245.078125 Z M 162.050781 249.691406 "/><path style=" stroke:none;fill-rule:nonzero;fill:#315d6a;fill-opacity:1;" d="M 142.769531 249.476562 L 139.730469 249.476562 L 139.730469 248.714844 L 142.453125 248.714844 L 145.503906 245.664062 L 145.503906 238.441406 L 150.953125 232.992188 L 164.84375 232.992188 L 170.738281 227.097656 L 170.738281 218.128906 L 171.5 218.128906 L 171.5 227.414062 L 165.160156 233.753906 L 151.269531 233.753906 L 146.265625 238.753906 L 146.265625 245.980469 Z M 142.769531 249.476562 "/><path style=" stroke:none;fill-rule:nonzero;fill:#315d6a;fill-opacity:1;" d="M 164.785156 228.722656 L 161.515625 228.722656 L 161.515625 227.960938 L 164.46875 227.960938 L 167.574219 224.855469 L 167.574219 218.332031 L 168.332031 218.332031 L 168.332031 225.171875 Z M 164.785156 228.722656 "/><path style=" stroke:none;fill-rule:nonzero;fill:#315d6a;fill-opacity:1;" d="M 235.085938 231.652344 C 235.085938 232 235.019531 232.332031 234.886719 232.652344 C 234.753906 232.976562 234.566406 233.257812 234.320312 233.503906 C 234.074219 233.75 233.792969 233.9375 233.472656 234.070312 C 233.148438 234.203125 232.816406 234.269531 232.46875 234.269531 C 232.121094 234.269531 231.789062 234.203125 231.464844 234.070312 C 231.144531 233.9375 230.863281 233.75 230.617188 233.503906 C 230.371094 233.257812 230.183594 232.976562 230.050781 232.652344 C 229.917969 232.332031 229.851562 232 229.851562 231.652344 C 229.851562 231.304688 229.917969 230.96875 230.050781 230.648438 C 230.183594 230.328125 230.371094 230.046875 230.617188 229.800781 C 230.863281 229.554688 231.144531 229.363281 231.464844 229.230469 C 231.789062 229.097656 232.121094 229.03125 232.46875 229.03125 C 232.816406 229.03125 233.148438 229.097656 233.472656 229.230469 C 233.792969 229.363281 234.074219 229.554688 234.320312 229.800781 C 234.566406 230.046875 234.753906 230.328125 234.886719 230.648438 C 235.019531 230.96875 235.085938 231.304688 235.085938 231.652344 Z M 235.085938 231.652344 "/><path style=" stroke:none;fill-rule:nonzero;fill:#315d6a;fill-opacity:1;" d="M 235.042969 241.523438 C 235.042969 241.871094 234.976562 242.203125 234.84375 242.523438 C 234.710938 242.84375 234.523438 243.128906 234.277344 243.375 C 234.03125 243.621094 233.75 243.808594 233.429688 243.941406 C 233.105469 244.074219 232.773438 244.140625 232.425781 244.140625 C 232.078125 244.140625 231.746094 244.074219 231.421875 243.941406 C 231.101562 243.808594 230.820312 243.621094 230.574219 243.375 C 230.328125 243.128906 230.140625 242.84375 230.007812 242.523438 C 229.875 242.203125 229.808594 241.871094 229.808594 241.523438 C 229.808594 241.175781 229.875 240.839844 230.007812 240.519531 C 230.140625 240.199219 230.328125 239.914062 230.574219 239.671875 C 230.820312 239.425781 231.101562 239.234375 231.421875 239.101562 C 231.746094 238.96875 232.078125 238.902344 232.425781 238.902344 C 232.773438 238.902344 233.105469 238.96875 233.429688 239.101562 C 233.75 239.234375 234.03125 239.425781 234.277344 239.671875 C 234.523438 239.914062 234.710938 240.199219 234.84375 240.519531 C 234.976562 240.839844 235.042969 241.175781 235.042969 241.523438 Z M 235.042969 241.523438 "/><path style=" stroke:none;fill-rule:nonzero;fill:#315d6a;fill-opacity:1;" d="M 230.941406 250.207031 C 230.941406 250.554688 230.875 250.890625 230.742188 251.210938 C 230.609375 251.53125 230.421875 251.8125 230.175781 252.058594 C 229.929688 252.304688 229.644531 252.496094 229.324219 252.628906 C 229.003906 252.761719 228.671875 252.828125 228.324219 252.828125 C 227.976562 252.828125 227.640625 252.761719 227.320312 252.628906 C 227 252.496094 226.714844 252.304688 226.472656 252.058594 C 226.226562 251.8125 226.035156 251.53125 225.902344 251.210938 C 225.769531 250.890625 225.703125 250.554688 225.703125 250.207031 C 225.703125 249.859375 225.769531 249.527344 225.902344 249.207031 C 226.035156 248.882812 226.226562 248.601562 226.472656 248.355469 C 226.714844 248.109375 227 247.921875 227.320312 247.789062 C 227.640625 247.65625 227.976562 247.589844 228.324219 247.589844 C 228.671875 247.589844 229.003906 247.65625 229.324219 247.789062 C 229.644531 247.921875 229.929688 248.109375 230.175781 248.355469 C 230.421875 248.601562 230.609375 248.882812 230.742188 249.207031 C 230.875 249.527344 230.941406 249.859375 230.941406 250.207031 Z M 230.941406 250.207031 "/><path style=" stroke:none;fill-rule:nonzero;fill:#315d6a;fill-opacity:1;" d="M 213.046875 260.597656 C 213.046875 260.941406 212.980469 261.277344 212.847656 261.597656 C 212.714844 261.917969 212.523438 262.203125 212.277344 262.449219 C 212.035156 262.695312 211.75 262.882812 211.429688 263.015625 C 211.109375 263.148438 210.773438 263.214844 210.425781 263.214844 C 210.078125 263.214844 209.746094 263.148438 209.425781 263.015625 C 209.105469 262.882812 208.820312 262.695312 208.574219 262.449219 C 208.328125 262.203125 208.140625 261.917969 208.007812 261.597656 C 207.875 261.277344 207.808594 260.941406 207.808594 260.597656 C 207.808594 260.25 207.875 259.914062 208.007812 259.59375 C 208.140625 259.273438 208.328125 258.988281 208.574219 258.742188 C 208.820312 258.5 209.105469 258.308594 209.425781 258.175781 C 209.746094 258.042969 210.078125 257.976562 210.425781 257.976562 C 210.773438 257.976562 211.109375 258.042969 211.429688 258.175781 C 211.75 258.308594 212.035156 258.5 212.277344 258.742188 C 212.523438 258.988281 212.714844 259.273438 212.847656 259.59375 C 212.980469 259.914062 213.046875 260.25 213.046875 260.597656 Z M 213.046875 260.597656 "/><g clip-rule="nonzero" clip-path="url(#6391ef507e)"><path style=" stroke:none;fill-rule:nonzero;fill:#315d6a;fill-opacity:1;" d="M 207.984375 268.410156 C 207.984375 268.753906 207.917969 269.089844 207.785156 269.410156 C 207.652344 269.730469 207.460938 270.015625 207.214844 270.261719 C 206.972656 270.503906 206.6875 270.695312 206.367188 270.828125 C 206.046875 270.960938 205.710938 271.027344 205.363281 271.027344 C 205.015625 271.027344 204.683594 270.960938 204.363281 270.828125 C 204.042969 270.695312 203.757812 270.503906 203.511719 270.261719 C 203.265625 270.015625 203.078125 269.730469 202.945312 269.410156 C 202.8125 269.089844 202.746094 268.753906 202.746094 268.410156 C 202.746094 268.0625 202.8125 267.726562 202.945312 267.40625 C 203.078125 267.085938 203.265625 266.800781 203.511719 266.554688 C 203.757812 266.3125 204.042969 266.121094 204.363281 265.988281 C 204.683594 265.855469 205.015625 265.789062 205.363281 265.789062 C 205.710938 265.789062 206.046875 265.855469 206.367188 265.988281 C 206.6875 266.121094 206.972656 266.3125 207.214844 266.554688 C 207.460938 266.800781 207.652344 267.085938 207.785156 267.40625 C 207.917969 267.726562 207.984375 268.0625 207.984375 268.410156 Z M 207.984375 268.410156 "/></g><path style=" stroke:none;fill-rule:nonzero;fill:#315d6a;fill-opacity:1;" d="M 194.945312 254.484375 C 194.945312 254.832031 194.878906 255.167969 194.746094 255.488281 C 194.613281 255.808594 194.421875 256.09375 194.175781 256.335938 C 193.929688 256.582031 193.648438 256.773438 193.328125 256.90625 C 193.007812 257.039062 192.671875 257.105469 192.324219 257.105469 C 191.976562 257.105469 191.644531 257.039062 191.324219 256.90625 C 191 256.773438 190.71875 256.582031 190.472656 256.335938 C 190.226562 256.09375 190.039062 255.808594 189.90625 255.488281 C 189.773438 255.167969 189.707031 254.832031 189.707031 254.484375 C 189.707031 254.136719 189.773438 253.804688 189.90625 253.484375 C 190.039062 253.164062 190.226562 252.878906 190.472656 252.632812 C 190.71875 252.386719 191 252.199219 191.324219 252.066406 C 191.644531 251.933594 191.976562 251.867188 192.324219 251.867188 C 192.671875 251.867188 193.007812 251.933594 193.328125 252.066406 C 193.648438 252.199219 193.929688 252.386719 194.175781 252.632812 C 194.421875 252.878906 194.613281 253.164062 194.746094 253.484375 C 194.878906 253.804688 194.945312 254.136719 194.945312 254.484375 Z M 194.945312 254.484375 "/><path style=" stroke:none;fill-rule:nonzero;fill:#315d6a;fill-opacity:1;" d="M 192.671875 236.941406 C 192.671875 237.230469 192.617188 237.511719 192.507812 237.777344 C 192.394531 238.046875 192.238281 238.285156 192.03125 238.488281 C 191.828125 238.695312 191.589844 238.851562 191.320312 238.964844 C 191.054688 239.074219 190.773438 239.128906 190.484375 239.128906 C 190.195312 239.128906 189.914062 239.074219 189.644531 238.964844 C 189.378906 238.851562 189.140625 238.695312 188.933594 238.488281 C 188.730469 238.285156 188.570312 238.046875 188.460938 237.777344 C 188.347656 237.511719 188.292969 237.230469 188.292969 236.941406 C 188.292969 236.648438 188.347656 236.371094 188.460938 236.101562 C 188.570312 235.835938 188.730469 235.597656 188.933594 235.390625 C 189.140625 235.1875 189.378906 235.027344 189.644531 234.917969 C 189.914062 234.804688 190.195312 234.75 190.484375 234.75 C 190.773438 234.75 191.054688 234.804688 191.320312 234.917969 C 191.589844 235.027344 191.828125 235.1875 192.03125 235.390625 C 192.238281 235.597656 192.394531 235.835938 192.507812 236.101562 C 192.617188 236.371094 192.671875 236.648438 192.671875 236.941406 Z M 192.671875 236.941406 "/><g clip-rule="nonzero" clip-path="url(#ef568bc0cd)"><path style=" stroke:none;fill-rule:nonzero;fill:#315d6a;fill-opacity:1;" d="M 182.375 268.410156 C 182.375 268.753906 182.308594 269.089844 182.175781 269.410156 C 182.042969 269.730469 181.851562 270.015625 181.605469 270.261719 C 181.359375 270.503906 181.078125 270.695312 180.757812 270.828125 C 180.4375 270.960938 180.101562 271.027344 179.753906 271.027344 C 179.40625 271.027344 179.074219 270.960938 178.753906 270.828125 C 178.429688 270.695312 178.148438 270.503906 177.902344 270.261719 C 177.65625 270.015625 177.46875 269.730469 177.335938 269.410156 C 177.203125 269.089844 177.136719 268.753906 177.136719 268.410156 C 177.136719 268.0625 177.203125 267.726562 177.335938 267.40625 C 177.46875 267.085938 177.65625 266.800781 177.902344 266.554688 C 178.148438 266.3125 178.429688 266.121094 178.753906 265.988281 C 179.074219 265.855469 179.40625 265.789062 179.753906 265.789062 C 180.101562 265.789062 180.4375 265.855469 180.757812 265.988281 C 181.078125 266.121094 181.359375 266.3125 181.605469 266.554688 C 181.851562 266.800781 182.042969 267.085938 182.175781 267.40625 C 182.308594 267.726562 182.375 268.0625 182.375 268.410156 Z M 182.375 268.410156 "/></g><path style=" stroke:none;fill-rule:nonzero;fill:#315d6a;fill-opacity:1;" d="M 175.652344 260.597656 C 175.652344 260.941406 175.585938 261.277344 175.453125 261.597656 C 175.320312 261.917969 175.128906 262.203125 174.886719 262.449219 C 174.640625 262.695312 174.355469 262.882812 174.035156 263.015625 C 173.714844 263.148438 173.378906 263.214844 173.03125 263.214844 C 172.6875 263.214844 172.351562 263.148438 172.03125 263.015625 C 171.710938 262.882812 171.425781 262.695312 171.179688 262.449219 C 170.933594 262.203125 170.746094 261.917969 170.613281 261.597656 C 170.480469 261.277344 170.414062 260.941406 170.414062 260.597656 C 170.414062 260.25 170.480469 259.914062 170.613281 259.59375 C 170.746094 259.273438 170.933594 258.988281 171.179688 258.742188 C 171.425781 258.5 171.710938 258.308594 172.03125 258.175781 C 172.351562 258.042969 172.6875 257.976562 173.03125 257.976562 C 173.378906 257.976562 173.714844 258.042969 174.035156 258.175781 C 174.355469 258.308594 174.640625 258.5 174.886719 258.742188 C 175.128906 258.988281 175.320312 259.273438 175.453125 259.59375 C 175.585938 259.914062 175.652344 260.25 175.652344 260.597656 Z M 175.652344 260.597656 "/><path style=" stroke:none;fill-rule:nonzero;fill:#315d6a;fill-opacity:1;" d="M 164.609375 249.421875 C 164.609375 249.769531 164.542969 250.101562 164.410156 250.425781 C 164.277344 250.746094 164.085938 251.027344 163.84375 251.273438 C 163.597656 251.519531 163.3125 251.707031 162.992188 251.839844 C 162.671875 251.972656 162.335938 252.039062 161.988281 252.039062 C 161.644531 252.039062 161.308594 251.972656 160.988281 251.839844 C 160.667969 251.707031 160.382812 251.519531 160.136719 251.273438 C 159.894531 251.027344 159.703125 250.746094 159.570312 250.425781 C 159.4375 250.101562 159.371094 249.769531 159.371094 249.421875 C 159.371094 249.074219 159.4375 248.742188 159.570312 248.417969 C 159.703125 248.097656 159.894531 247.816406 160.136719 247.570312 C 160.382812 247.324219 160.667969 247.136719 160.988281 247.003906 C 161.308594 246.871094 161.644531 246.804688 161.988281 246.804688 C 162.335938 246.804688 162.671875 246.871094 162.992188 247.003906 C 163.3125 247.136719 163.597656 247.324219 163.84375 247.570312 C 164.085938 247.816406 164.277344 248.097656 164.410156 248.417969 C 164.542969 248.742188 164.609375 249.074219 164.609375 249.421875 Z M 164.609375 249.421875 "/><path style=" stroke:none;fill-rule:nonzero;fill:#315d6a;fill-opacity:1;" d="M 142.742188 248.957031 C 142.742188 249.304688 142.675781 249.640625 142.542969 249.960938 C 142.410156 250.28125 142.222656 250.5625 141.976562 250.808594 C 141.730469 251.054688 141.445312 251.246094 141.125 251.378906 C 140.804688 251.511719 140.472656 251.578125 140.125 251.578125 C 139.777344 251.578125 139.441406 251.511719 139.121094 251.378906 C 138.800781 251.246094 138.515625 251.054688 138.273438 250.808594 C 138.027344 250.5625 137.835938 250.28125 137.703125 249.960938 C 137.570312 249.640625 137.503906 249.304688 137.503906 248.957031 C 137.503906 248.609375 137.570312 248.277344 137.703125 247.957031 C 137.835938 247.632812 138.027344 247.351562 138.273438 247.105469 C 138.515625 246.859375 138.800781 246.671875 139.121094 246.539062 C 139.441406 246.40625 139.777344 246.339844 140.125 246.339844 C 140.472656 246.339844 140.804688 246.40625 141.125 246.539062 C 141.445312 246.671875 141.730469 246.859375 141.976562 247.105469 C 142.222656 247.351562 142.410156 247.632812 142.542969 247.957031 C 142.675781 248.277344 142.742188 248.609375 142.742188 248.957031 Z M 142.742188 248.957031 "/><path style=" stroke:none;fill-rule:nonzero;fill:#315d6a;fill-opacity:1;" d="M 164.132812 228.339844 C 164.132812 228.6875 164.066406 229.023438 163.933594 229.34375 C 163.800781 229.664062 163.609375 229.945312 163.367188 230.191406 C 163.121094 230.4375 162.835938 230.628906 162.515625 230.761719 C 162.195312 230.894531 161.859375 230.960938 161.515625 230.960938 C 161.167969 230.960938 160.832031 230.894531 160.511719 230.761719 C 160.191406 230.628906 159.90625 230.4375 159.660156 230.191406 C 159.417969 229.945312 159.226562 229.664062 159.09375 229.34375 C 158.960938 229.023438 158.894531 228.6875 158.894531 228.339844 C 158.894531 227.992188 158.960938 227.660156 159.09375 227.339844 C 159.226562 227.015625 159.417969 226.734375 159.660156 226.488281 C 159.90625 226.242188 160.191406 226.054688 160.511719 225.921875 C 160.832031 225.789062 161.167969 225.722656 161.515625 225.722656 C 161.859375 225.722656 162.195312 225.789062 162.515625 225.921875 C 162.835938 226.054688 163.121094 226.242188 163.367188 226.488281 C 163.609375 226.734375 163.800781 227.015625 163.933594 227.339844 C 164.066406 227.660156 164.132812 227.992188 164.132812 228.339844 Z M 164.132812 228.339844 "/><path style=" stroke:none;fill-rule:nonzero;fill:#315d6a;fill-opacity:1;" d="M 184.476562 257.976562 C 184.476562 258.289062 184.417969 258.59375 184.296875 258.882812 C 184.175781 259.171875 184.003906 259.425781 183.785156 259.648438 C 183.5625 259.871094 183.304688 260.042969 183.015625 260.160156 C 182.726562 260.28125 182.425781 260.34375 182.113281 260.34375 C 181.796875 260.34375 181.496094 260.28125 181.207031 260.160156 C 180.917969 260.042969 180.660156 259.871094 180.4375 259.648438 C 180.21875 259.425781 180.046875 259.171875 179.925781 258.882812 C 179.808594 258.59375 179.746094 258.289062 179.746094 257.976562 C 179.746094 257.664062 179.808594 257.363281 179.925781 257.070312 C 180.046875 256.78125 180.21875 256.527344 180.4375 256.304688 C 180.660156 256.082031 180.917969 255.914062 181.207031 255.792969 C 181.496094 255.671875 181.796875 255.613281 182.113281 255.613281 C 182.425781 255.613281 182.726562 255.671875 183.015625 255.792969 C 183.304688 255.914062 183.5625 256.082031 183.785156 256.304688 C 184.003906 256.527344 184.175781 256.78125 184.296875 257.070312 C 184.417969 257.363281 184.476562 257.664062 184.476562 257.976562 Z M 184.476562 257.976562 "/><path style=" stroke:none;fill-rule:nonzero;fill:#315d6a;fill-opacity:1;" d="M 213.703125 166.871094 L 221.53125 166.871094 L 221.53125 169.652344 L 213.703125 169.652344 Z M 213.703125 166.871094 "/><path style=" stroke:none;fill-rule:nonzero;fill:#315d6a;fill-opacity:1;" d="M 213.703125 170.101562 L 221.53125 170.101562 L 221.53125 172.882812 L 213.703125 172.882812 Z M 213.703125 170.101562 "/><path style=" stroke:none;fill-rule:nonzero;fill:#315d6a;fill-opacity:1;" d="M 213.703125 173.332031 L 221.53125 173.332031 L 221.53125 176.109375 L 213.703125 176.109375 Z M 213.703125 173.332031 "/><path style=" stroke:none;fill-rule:nonzero;fill:#315d6a;fill-opacity:1;" d="M 213.703125 176.5625 L 221.53125 176.5625 L 221.53125 179.339844 L 213.703125 179.339844 Z M 213.703125 176.5625 "/><path style=" stroke:none;fill-rule:nonzero;fill:#315d6a;fill-opacity:1;" d="M 213.703125 179.792969 L 221.53125 179.792969 L 221.53125 182.570312 L 213.703125 182.570312 Z M 213.703125 179.792969 "/><path style=" stroke:none;fill-rule:nonzero;fill:#315d6a;fill-opacity:1;" d="M 213.703125 183.023438 L 221.53125 183.023438 L 221.53125 185.800781 L 213.703125 185.800781 Z M 213.703125 183.023438 "/><path style=" stroke:none;fill-rule:nonzero;fill:#315d6a;fill-opacity:1;" d="M 213.703125 186.253906 L 221.53125 186.253906 L 221.53125 189.03125 L 213.703125 189.03125 Z M 213.703125 186.253906 "/><path style=" stroke:none;fill-rule:nonzero;fill:#315d6a;fill-opacity:1;" d="M 213.703125 189.480469 L 221.53125 189.480469 L 221.53125 192.261719 L 213.703125 192.261719 Z M 213.703125 189.480469 "/><path style=" stroke:none;fill-rule:nonzero;fill:#315d6a;fill-opacity:1;" d="M 213.703125 192.710938 L 221.53125 192.710938 L 221.53125 195.488281 L 213.703125 195.488281 Z M 213.703125 192.710938 "/><path style=" stroke:none;fill-rule:nonzero;fill:#315d6a;fill-opacity:1;" d="M 213.703125 195.941406 L 221.53125 195.941406 L 221.53125 198.71875 L 213.703125 198.71875 Z M 213.703125 195.941406 "/><path style=" stroke:none;fill-rule:nonzero;fill:#315d6a;fill-opacity:1;" d="M 213.703125 199.171875 L 221.53125 199.171875 L 221.53125 201.949219 L 213.703125 201.949219 Z M 213.703125 199.171875 "/><path style=" stroke:none;fill-rule:nonzero;fill:#315d6a;fill-opacity:1;" d="M 213.703125 202.402344 L 221.53125 202.402344 L 221.53125 205.179688 L 213.703125 205.179688 Z M 213.703125 202.402344 "/><path style=" stroke:none;fill-rule:nonzero;fill:#315d6a;fill-opacity:1;" d="M 213.703125 205.632812 L 221.53125 205.632812 L 221.53125 208.410156 L 213.703125 208.410156 Z M 213.703125 205.632812 "/><path style=" stroke:none;fill-rule:nonzero;fill:#315d6a;fill-opacity:1;" d="M 229.449219 168.640625 L 217.84375 168.640625 L 217.84375 167.882812 L 229.136719 167.882812 L 233.449219 163.566406 L 233.449219 158.382812 L 231.988281 156.921875 L 231.988281 142.46875 L 232.75 142.46875 L 232.75 156.605469 L 234.210938 158.070312 L 234.210938 163.882812 Z M 229.449219 168.640625 "/><path style=" stroke:none;fill-rule:nonzero;fill:#315d6a;fill-opacity:1;" d="M 230.605469 171.960938 L 217.308594 171.960938 L 217.308594 171.199219 L 230.292969 171.199219 L 236.265625 165.226562 L 236.265625 152.4375 L 241.808594 146.894531 L 241.808594 142.46875 L 242.570312 142.46875 L 242.570312 147.210938 L 237.027344 152.753906 L 237.027344 165.542969 Z M 230.605469 171.960938 "/><path style=" stroke:none;fill-rule:nonzero;fill:#315d6a;fill-opacity:1;" d="M 232.515625 175.242188 L 217.617188 175.242188 L 217.617188 174.480469 L 232.199219 174.480469 L 241.148438 165.53125 L 241.148438 161.554688 L 245.421875 157.28125 L 245.421875 151.683594 L 250.800781 146.304688 L 251.339844 146.839844 L 246.179688 152 L 246.179688 157.597656 L 241.910156 161.871094 L 241.910156 165.847656 Z M 232.515625 175.242188 "/><path style=" stroke:none;fill-rule:nonzero;fill:#315d6a;fill-opacity:1;" d="M 234.527344 178.359375 L 218.53125 178.359375 L 218.53125 177.597656 L 234.214844 177.597656 L 243.558594 168.253906 L 249.167969 168.253906 L 253.335938 164.085938 L 261.261719 164.085938 L 261.261719 164.847656 L 253.652344 164.847656 L 249.484375 169.015625 L 243.875 169.015625 Z M 234.527344 178.359375 "/><path style=" stroke:none;fill-rule:nonzero;fill:#315d6a;fill-opacity:1;" d="M 237.03125 181.664062 L 218.53125 181.566406 L 218.535156 180.808594 L 236.71875 180.902344 L 245.566406 172.050781 L 252.921875 172.050781 L 255.824219 169.148438 L 269.074219 169.148438 L 269.074219 169.910156 L 256.140625 169.910156 L 253.238281 172.8125 L 245.882812 172.8125 Z M 237.03125 181.664062 "/><path style=" stroke:none;fill-rule:nonzero;fill:#315d6a;fill-opacity:1;" d="M 218.53125 184.03125 L 238.433594 184.03125 L 238.433594 184.792969 L 218.53125 184.792969 Z M 218.53125 184.03125 "/><path style=" stroke:none;fill-rule:nonzero;fill:#315d6a;fill-opacity:1;" d="M 247.605469 187.960938 L 218.53125 187.960938 L 218.53125 187.199219 L 247.289062 187.199219 L 252.070312 182.417969 L 255.152344 182.417969 L 255.152344 183.179688 L 252.386719 183.179688 Z M 247.605469 187.960938 "/><path style=" stroke:none;fill-rule:nonzero;fill:#315d6a;fill-opacity:1;" d="M 256.203125 195.882812 L 252.332031 195.882812 L 247.761719 191.3125 L 219.578125 191.3125 L 219.578125 190.550781 L 248.074219 190.550781 L 252.648438 195.121094 L 255.890625 195.121094 L 258.679688 192.332031 L 259.21875 192.867188 Z M 256.203125 195.882812 "/><path style=" stroke:none;fill-rule:nonzero;fill:#315d6a;fill-opacity:1;" d="M 255.878906 200.84375 L 244.957031 200.84375 L 238.519531 194.40625 L 218.792969 194.40625 L 218.792969 193.644531 L 238.832031 193.644531 L 245.269531 200.082031 L 255.5625 200.082031 L 260.800781 194.847656 L 269.074219 194.847656 L 269.074219 195.605469 L 261.113281 195.605469 Z M 255.878906 200.84375 "/><path style=" stroke:none;fill-rule:nonzero;fill:#315d6a;fill-opacity:1;" d="M 258.472656 205.042969 L 241.464844 205.042969 L 234.074219 197.652344 L 218.53125 197.652344 L 218.53125 196.890625 L 234.390625 196.890625 L 241.78125 204.28125 L 258.160156 204.28125 L 260.992188 201.445312 L 261.53125 201.984375 Z M 258.472656 205.042969 "/><path style=" stroke:none;fill-rule:nonzero;fill:#315d6a;fill-opacity:1;" d="M 249.820312 213.382812 L 245.429688 208.992188 L 238.605469 208.992188 L 238.492188 208.882812 L 230.53125 200.921875 L 219.90625 200.921875 L 219.90625 200.160156 L 230.847656 200.160156 L 238.921875 208.234375 L 245.746094 208.234375 L 250.359375 212.84375 Z M 249.820312 213.382812 "/><path style=" stroke:none;fill-rule:nonzero;fill:#315d6a;fill-opacity:1;" d="M 250.140625 235.164062 L 249.382812 235.164062 L 249.382812 232.441406 L 246.332031 229.390625 L 239.105469 229.390625 L 233.65625 223.941406 L 233.65625 210.050781 L 227.765625 204.160156 L 218.792969 204.160156 L 218.792969 203.398438 L 228.078125 203.398438 L 234.417969 209.734375 L 234.417969 223.625 L 239.421875 228.628906 L 246.644531 228.628906 L 250.140625 232.125 Z M 250.140625 235.164062 "/><path style=" stroke:none;fill-rule:nonzero;fill:#315d6a;fill-opacity:1;" d="M 229.386719 213.382812 L 228.628906 213.382812 L 228.628906 210.425781 L 225.523438 207.324219 L 219 207.324219 L 219 206.5625 L 225.839844 206.5625 L 229.386719 210.109375 Z M 229.386719 213.382812 "/><path style=" stroke:none;fill-rule:nonzero;fill:#315d6a;fill-opacity:1;" d="M 234.9375 142.425781 C 234.9375 142.773438 234.871094 143.105469 234.738281 143.429688 C 234.605469 143.75 234.417969 144.03125 234.171875 144.277344 C 233.925781 144.523438 233.640625 144.710938 233.320312 144.84375 C 233 144.976562 232.667969 145.042969 232.320312 145.042969 C 231.972656 145.042969 231.636719 144.976562 231.316406 144.84375 C 230.996094 144.710938 230.710938 144.523438 230.46875 144.277344 C 230.222656 144.03125 230.03125 143.75 229.898438 143.429688 C 229.765625 143.105469 229.699219 142.773438 229.699219 142.425781 C 229.699219 142.078125 229.765625 141.746094 229.898438 141.421875 C 230.03125 141.101562 230.222656 140.820312 230.46875 140.574219 C 230.710938 140.328125 230.996094 140.140625 231.316406 140.007812 C 231.636719 139.875 231.972656 139.808594 232.320312 139.808594 C 232.667969 139.808594 233 139.875 233.320312 140.007812 C 233.640625 140.140625 233.925781 140.328125 234.171875 140.574219 C 234.417969 140.820312 234.605469 141.101562 234.738281 141.421875 C 234.871094 141.746094 234.9375 142.078125 234.9375 142.425781 Z M 234.9375 142.425781 "/><path style=" stroke:none;fill-rule:nonzero;fill:#315d6a;fill-opacity:1;" d="M 244.808594 142.46875 C 244.808594 142.816406 244.742188 143.152344 244.609375 143.472656 C 244.476562 143.792969 244.285156 144.074219 244.042969 144.320312 C 243.796875 144.566406 243.511719 144.757812 243.191406 144.890625 C 242.871094 145.023438 242.535156 145.089844 242.1875 145.089844 C 241.84375 145.089844 241.507812 145.023438 241.1875 144.890625 C 240.867188 144.757812 240.582031 144.566406 240.335938 144.320312 C 240.089844 144.074219 239.902344 143.792969 239.769531 143.472656 C 239.636719 143.152344 239.570312 142.816406 239.570312 142.46875 C 239.570312 142.121094 239.636719 141.789062 239.769531 141.46875 C 239.902344 141.144531 240.089844 140.863281 240.335938 140.617188 C 240.582031 140.371094 240.867188 140.183594 241.1875 140.050781 C 241.507812 139.917969 241.84375 139.851562 242.1875 139.851562 C 242.535156 139.851562 242.871094 139.917969 243.191406 140.050781 C 243.511719 140.183594 243.796875 140.371094 244.042969 140.617188 C 244.285156 140.863281 244.476562 141.144531 244.609375 141.46875 C 244.742188 141.789062 244.808594 142.121094 244.808594 142.46875 Z M 244.808594 142.46875 "/><path style=" stroke:none;fill-rule:nonzero;fill:#315d6a;fill-opacity:1;" d="M 253.492188 146.574219 C 253.492188 146.917969 253.425781 147.253906 253.292969 147.574219 C 253.160156 147.894531 252.972656 148.179688 252.726562 148.425781 C 252.480469 148.667969 252.199219 148.859375 251.878906 148.992188 C 251.554688 149.125 251.222656 149.191406 250.875 149.191406 C 250.527344 149.191406 250.195312 149.125 249.871094 148.992188 C 249.550781 148.859375 249.269531 148.667969 249.023438 148.425781 C 248.777344 148.179688 248.589844 147.894531 248.457031 147.574219 C 248.324219 147.253906 248.253906 146.917969 248.257812 146.574219 C 248.253906 146.226562 248.324219 145.890625 248.457031 145.570312 C 248.589844 145.25 248.777344 144.964844 249.023438 144.71875 C 249.269531 144.476562 249.550781 144.285156 249.871094 144.152344 C 250.195312 144.019531 250.527344 143.953125 250.875 143.953125 C 251.222656 143.953125 251.554688 144.019531 251.878906 144.152344 C 252.199219 144.285156 252.480469 144.476562 252.726562 144.71875 C 252.972656 144.964844 253.160156 145.25 253.292969 145.570312 C 253.425781 145.890625 253.492188 146.226562 253.492188 146.574219 Z M 253.492188 146.574219 "/><path style=" stroke:none;fill-rule:nonzero;fill:#315d6a;fill-opacity:1;" d="M 263.882812 164.46875 C 263.882812 164.816406 263.816406 165.148438 263.683594 165.46875 C 263.550781 165.792969 263.359375 166.074219 263.113281 166.320312 C 262.867188 166.566406 262.585938 166.753906 262.265625 166.886719 C 261.945312 167.019531 261.609375 167.085938 261.261719 167.085938 C 260.914062 167.085938 260.582031 167.019531 260.261719 166.886719 C 259.9375 166.753906 259.65625 166.566406 259.410156 166.320312 C 259.164062 166.074219 258.976562 165.792969 258.84375 165.46875 C 258.710938 165.148438 258.644531 164.816406 258.644531 164.46875 C 258.644531 164.121094 258.710938 163.785156 258.84375 163.464844 C 258.976562 163.144531 259.164062 162.863281 259.410156 162.617188 C 259.65625 162.371094 259.9375 162.179688 260.261719 162.046875 C 260.582031 161.914062 260.914062 161.847656 261.261719 161.847656 C 261.609375 161.847656 261.945312 161.914062 262.265625 162.046875 C 262.585938 162.179688 262.867188 162.371094 263.113281 162.617188 C 263.359375 162.863281 263.550781 163.144531 263.683594 163.464844 C 263.816406 163.785156 263.882812 164.121094 263.882812 164.46875 Z M 263.882812 164.46875 "/><g clip-rule="nonzero" clip-path="url(#9413a622dd)"><path style=" stroke:none;fill-rule:nonzero;fill:#315d6a;fill-opacity:1;" d="M 271.695312 169.53125 C 271.695312 169.878906 271.628906 170.210938 271.496094 170.53125 C 271.363281 170.855469 271.171875 171.136719 270.925781 171.382812 C 270.683594 171.628906 270.398438 171.816406 270.078125 171.949219 C 269.757812 172.082031 269.421875 172.148438 269.074219 172.148438 C 268.726562 172.148438 268.394531 172.082031 268.074219 171.949219 C 267.753906 171.816406 267.46875 171.628906 267.222656 171.382812 C 266.976562 171.136719 266.789062 170.855469 266.65625 170.53125 C 266.523438 170.210938 266.457031 169.878906 266.457031 169.53125 C 266.457031 169.183594 266.523438 168.847656 266.65625 168.527344 C 266.789062 168.207031 266.976562 167.925781 267.222656 167.679688 C 267.46875 167.433594 267.753906 167.246094 268.074219 167.109375 C 268.394531 166.976562 268.726562 166.910156 269.074219 166.910156 C 269.421875 166.910156 269.757812 166.976562 270.078125 167.109375 C 270.398438 167.246094 270.683594 167.433594 270.925781 167.679688 C 271.171875 167.925781 271.363281 168.207031 271.496094 168.527344 C 271.628906 168.847656 271.695312 169.183594 271.695312 169.53125 Z M 271.695312 169.53125 "/></g><path style=" stroke:none;fill-rule:nonzero;fill:#315d6a;fill-opacity:1;" d="M 257.769531 182.570312 C 257.769531 182.917969 257.703125 183.25 257.570312 183.574219 C 257.4375 183.894531 257.25 184.175781 257.003906 184.421875 C 256.757812 184.667969 256.476562 184.855469 256.152344 184.988281 C 255.832031 185.121094 255.5 185.1875 255.152344 185.1875 C 254.804688 185.1875 254.46875 185.121094 254.148438 184.988281 C 253.828125 184.855469 253.546875 184.667969 253.300781 184.421875 C 253.054688 184.175781 252.867188 183.894531 252.730469 183.574219 C 252.597656 183.25 252.53125 182.917969 252.53125 182.570312 C 252.53125 182.222656 252.597656 181.890625 252.730469 181.566406 C 252.867188 181.246094 253.054688 180.964844 253.300781 180.71875 C 253.546875 180.472656 253.828125 180.285156 254.148438 180.152344 C 254.46875 180.019531 254.804688 179.953125 255.152344 179.953125 C 255.5 179.953125 255.832031 180.019531 256.152344 180.152344 C 256.476562 180.285156 256.757812 180.472656 257.003906 180.71875 C 257.25 180.964844 257.4375 181.246094 257.570312 181.566406 C 257.703125 181.890625 257.769531 182.222656 257.769531 182.570312 Z M 257.769531 182.570312 "/><path style=" stroke:none;fill-rule:nonzero;fill:#315d6a;fill-opacity:1;" d="M 239.796875 184.410156 C 239.796875 184.703125 239.742188 184.980469 239.628906 185.25 C 239.519531 185.519531 239.359375 185.753906 239.15625 185.960938 C 238.949219 186.164062 238.714844 186.324219 238.445312 186.433594 C 238.175781 186.546875 237.898438 186.601562 237.605469 186.601562 C 237.316406 186.601562 237.039062 186.546875 236.769531 186.433594 C 236.5 186.324219 236.265625 186.164062 236.058594 185.960938 C 235.851562 185.753906 235.695312 185.519531 235.582031 185.25 C 235.472656 184.980469 235.417969 184.703125 235.417969 184.410156 C 235.417969 184.121094 235.472656 183.84375 235.582031 183.574219 C 235.695312 183.304688 235.851562 183.070312 236.058594 182.863281 C 236.265625 182.65625 236.5 182.5 236.769531 182.386719 C 237.039062 182.277344 237.316406 182.222656 237.605469 182.222656 C 237.898438 182.222656 238.175781 182.277344 238.445312 182.386719 C 238.714844 182.5 238.949219 182.65625 239.15625 182.863281 C 239.359375 183.070312 239.519531 183.304688 239.628906 183.574219 C 239.742188 183.84375 239.796875 184.121094 239.796875 184.410156 Z M 239.796875 184.410156 "/><g clip-rule="nonzero" clip-path="url(#d4c1da6e60)"><path style=" stroke:none;fill-rule:nonzero;fill:#315d6a;fill-opacity:1;" d="M 271.695312 195.140625 C 271.695312 195.488281 271.628906 195.820312 271.496094 196.144531 C 271.363281 196.464844 271.171875 196.746094 270.925781 196.992188 C 270.683594 197.238281 270.398438 197.425781 270.078125 197.558594 C 269.757812 197.691406 269.421875 197.757812 269.074219 197.757812 C 268.726562 197.757812 268.394531 197.691406 268.074219 197.558594 C 267.753906 197.425781 267.46875 197.238281 267.222656 196.992188 C 266.976562 196.746094 266.789062 196.464844 266.65625 196.144531 C 266.523438 195.820312 266.457031 195.488281 266.457031 195.140625 C 266.457031 194.792969 266.523438 194.460938 266.65625 194.136719 C 266.789062 193.816406 266.976562 193.535156 267.222656 193.289062 C 267.46875 193.042969 267.753906 192.855469 268.074219 192.722656 C 268.394531 192.589844 268.726562 192.523438 269.074219 192.523438 C 269.421875 192.523438 269.757812 192.589844 270.078125 192.722656 C 270.398438 192.855469 270.683594 193.042969 270.925781 193.289062 C 271.171875 193.535156 271.363281 193.816406 271.496094 194.136719 C 271.628906 194.460938 271.695312 194.792969 271.695312 195.140625 Z M 271.695312 195.140625 "/></g><path style=" stroke:none;fill-rule:nonzero;fill:#315d6a;fill-opacity:1;" d="M 263.882812 201.863281 C 263.882812 202.210938 263.816406 202.542969 263.683594 202.863281 C 263.550781 203.183594 263.359375 203.46875 263.113281 203.714844 C 262.867188 203.960938 262.585938 204.148438 262.265625 204.28125 C 261.945312 204.414062 261.609375 204.480469 261.261719 204.480469 C 260.914062 204.480469 260.582031 204.414062 260.261719 204.28125 C 259.9375 204.148438 259.65625 203.960938 259.410156 203.714844 C 259.164062 203.46875 258.976562 203.183594 258.84375 202.863281 C 258.710938 202.542969 258.644531 202.210938 258.644531 201.863281 C 258.644531 201.515625 258.710938 201.179688 258.84375 200.859375 C 258.976562 200.539062 259.164062 200.253906 259.410156 200.011719 C 259.65625 199.765625 259.9375 199.574219 260.261719 199.441406 C 260.582031 199.308594 260.914062 199.242188 261.261719 199.242188 C 261.609375 199.242188 261.945312 199.308594 262.265625 199.441406 C 262.585938 199.574219 262.867188 199.765625 263.113281 200.011719 C 263.359375 200.253906 263.550781 200.539062 263.683594 200.859375 C 263.816406 201.179688 263.882812 201.515625 263.882812 201.863281 Z M 263.882812 201.863281 "/><path style=" stroke:none;fill-rule:nonzero;fill:#315d6a;fill-opacity:1;" d="M 252.707031 212.90625 C 252.707031 213.25 252.640625 213.585938 252.507812 213.90625 C 252.375 214.226562 252.1875 214.511719 251.941406 214.757812 C 251.695312 215 251.414062 215.191406 251.089844 215.324219 C 250.769531 215.457031 250.4375 215.523438 250.089844 215.523438 C 249.742188 215.523438 249.40625 215.457031 249.085938 215.324219 C 248.765625 215.191406 248.484375 215 248.238281 214.757812 C 247.992188 214.511719 247.800781 214.226562 247.667969 213.90625 C 247.535156 213.585938 247.46875 213.25 247.46875 212.90625 C 247.46875 212.558594 247.535156 212.222656 247.667969 211.902344 C 247.800781 211.582031 247.992188 211.296875 248.238281 211.050781 C 248.484375 210.808594 248.765625 210.617188 249.085938 210.484375 C 249.40625 210.351562 249.742188 210.285156 250.089844 210.285156 C 250.4375 210.285156 250.769531 210.351562 251.089844 210.484375 C 251.414062 210.617188 251.695312 210.808594 251.941406 211.050781 C 252.1875 211.296875 252.375 211.582031 252.507812 211.902344 C 252.640625 212.222656 252.707031 212.558594 252.707031 212.90625 Z M 252.707031 212.90625 "/><path style=" stroke:none;fill-rule:nonzero;fill:#315d6a;fill-opacity:1;" d="M 252.242188 234.773438 C 252.242188 235.117188 252.175781 235.453125 252.042969 235.773438 C 251.910156 236.09375 251.722656 236.378906 251.476562 236.625 C 251.230469 236.867188 250.949219 237.058594 250.628906 237.191406 C 250.304688 237.324219 249.972656 237.390625 249.625 237.390625 C 249.277344 237.390625 248.945312 237.324219 248.621094 237.191406 C 248.300781 237.058594 248.019531 236.867188 247.773438 236.625 C 247.527344 236.378906 247.339844 236.09375 247.207031 235.773438 C 247.074219 235.453125 247.007812 235.117188 247.007812 234.773438 C 247.007812 234.425781 247.074219 234.089844 247.207031 233.769531 C 247.339844 233.449219 247.527344 233.164062 247.773438 232.917969 C 248.019531 232.675781 248.300781 232.484375 248.621094 232.351562 C 248.945312 232.21875 249.277344 232.152344 249.625 232.152344 C 249.972656 232.152344 250.304688 232.21875 250.628906 232.351562 C 250.949219 232.484375 251.230469 232.675781 251.476562 232.917969 C 251.722656 233.164062 251.910156 233.449219 252.042969 233.769531 C 252.175781 234.089844 252.242188 234.425781 252.242188 234.773438 Z M 252.242188 234.773438 "/><path style=" stroke:none;fill-rule:nonzero;fill:#315d6a;fill-opacity:1;" d="M 231.625 213.378906 C 231.625 213.726562 231.558594 214.0625 231.425781 214.382812 C 231.292969 214.703125 231.105469 214.988281 230.859375 215.234375 C 230.613281 215.476562 230.332031 215.667969 230.011719 215.800781 C 229.6875 215.933594 229.355469 216 229.007812 216 C 228.660156 216 228.328125 215.933594 228.003906 215.800781 C 227.683594 215.667969 227.402344 215.476562 227.15625 215.234375 C 226.910156 214.988281 226.722656 214.703125 226.589844 214.382812 C 226.453125 214.0625 226.386719 213.726562 226.386719 213.378906 C 226.386719 213.035156 226.453125 212.699219 226.589844 212.378906 C 226.722656 212.058594 226.910156 211.773438 227.15625 211.527344 C 227.402344 211.285156 227.683594 211.09375 228.003906 210.960938 C 228.328125 210.828125 228.660156 210.761719 229.007812 210.761719 C 229.355469 210.761719 229.6875 210.828125 230.011719 210.960938 C 230.332031 211.09375 230.613281 211.285156 230.859375 211.527344 C 231.105469 211.773438 231.292969 212.058594 231.425781 212.378906 C 231.558594 212.699219 231.625 213.035156 231.625 213.378906 Z M 231.625 213.378906 "/><path style=" stroke:none;fill-rule:nonzero;fill:#315d6a;fill-opacity:1;" d="M 261.007812 192.785156 C 261.007812 193.097656 260.949219 193.398438 260.828125 193.6875 C 260.710938 193.976562 260.539062 194.234375 260.316406 194.457031 C 260.09375 194.675781 259.839844 194.847656 259.550781 194.96875 C 259.257812 195.089844 258.957031 195.148438 258.644531 195.148438 C 258.332031 195.148438 258.027344 195.089844 257.738281 194.96875 C 257.449219 194.847656 257.195312 194.675781 256.972656 194.457031 C 256.75 194.234375 256.578125 193.976562 256.460938 193.6875 C 256.339844 193.398438 256.277344 193.097656 256.277344 192.785156 C 256.277344 192.46875 256.339844 192.167969 256.460938 191.878906 C 256.578125 191.589844 256.75 191.332031 256.972656 191.113281 C 257.195312 190.890625 257.449219 190.71875 257.738281 190.597656 C 258.027344 190.480469 258.332031 190.417969 258.644531 190.417969 C 258.957031 190.417969 259.257812 190.480469 259.550781 190.597656 C 259.839844 190.71875 260.09375 190.890625 260.316406 191.113281 C 260.539062 191.332031 260.710938 191.589844 260.828125 191.878906 C 260.949219 192.167969 261.007812 192.46875 261.007812 192.785156 Z M 261.007812 192.785156 "/><path style=" stroke:none;fill-rule:nonzero;fill:#315d6a;fill-opacity:1;" d="M 153.351562 205.242188 L 161.179688 205.242188 L 161.179688 208.023438 L 153.351562 208.023438 Z M 153.351562 205.242188 "/><path style=" stroke:none;fill-rule:nonzero;fill:#315d6a;fill-opacity:1;" d="M 153.351562 202.015625 L 161.179688 202.015625 L 161.179688 204.792969 L 153.351562 204.792969 Z M 153.351562 202.015625 "/><path style=" stroke:none;fill-rule:nonzero;fill:#315d6a;fill-opacity:1;" d="M 153.351562 198.785156 L 161.179688 198.785156 L 161.179688 201.5625 L 153.351562 201.5625 Z M 153.351562 198.785156 "/><path style=" stroke:none;fill-rule:nonzero;fill:#315d6a;fill-opacity:1;" d="M 153.351562 195.554688 L 161.179688 195.554688 L 161.179688 198.332031 L 153.351562 198.332031 Z M 153.351562 195.554688 "/><path style=" stroke:none;fill-rule:nonzero;fill:#315d6a;fill-opacity:1;" d="M 153.351562 192.324219 L 161.179688 192.324219 L 161.179688 195.101562 L 153.351562 195.101562 Z M 153.351562 192.324219 "/><path style=" stroke:none;fill-rule:nonzero;fill:#315d6a;fill-opacity:1;" d="M 153.351562 189.09375 L 161.179688 189.09375 L 161.179688 191.875 L 153.351562 191.875 Z M 153.351562 189.09375 "/><path style=" stroke:none;fill-rule:nonzero;fill:#315d6a;fill-opacity:1;" d="M 153.351562 185.863281 L 161.179688 185.863281 L 161.179688 188.644531 L 153.351562 188.644531 Z M 153.351562 185.863281 "/><path style=" stroke:none;fill-rule:nonzero;fill:#315d6a;fill-opacity:1;" d="M 153.351562 182.632812 L 161.179688 182.632812 L 161.179688 185.414062 L 153.351562 185.414062 Z M 153.351562 182.632812 "/><path style=" stroke:none;fill-rule:nonzero;fill:#315d6a;fill-opacity:1;" d="M 153.351562 179.40625 L 161.179688 179.40625 L 161.179688 182.183594 L 153.351562 182.183594 Z M 153.351562 179.40625 "/><path style=" stroke:none;fill-rule:nonzero;fill:#315d6a;fill-opacity:1;" d="M 153.351562 176.175781 L 161.179688 176.175781 L 161.179688 178.953125 L 153.351562 178.953125 Z M 153.351562 176.175781 "/><path style=" stroke:none;fill-rule:nonzero;fill:#315d6a;fill-opacity:1;" d="M 153.351562 172.945312 L 161.179688 172.945312 L 161.179688 175.722656 L 153.351562 175.722656 Z M 153.351562 172.945312 "/><path style=" stroke:none;fill-rule:nonzero;fill:#315d6a;fill-opacity:1;" d="M 153.351562 169.714844 L 161.179688 169.714844 L 161.179688 172.496094 L 153.351562 172.496094 Z M 153.351562 169.714844 "/><path style=" stroke:none;fill-rule:nonzero;fill:#315d6a;fill-opacity:1;" d="M 153.351562 166.484375 L 161.179688 166.484375 L 161.179688 169.265625 L 153.351562 169.265625 Z M 153.351562 166.484375 "/><path style=" stroke:none;fill-rule:nonzero;fill:#315d6a;fill-opacity:1;" d="M 142.894531 232.425781 L 142.132812 232.425781 L 142.132812 218.289062 L 140.671875 216.828125 L 140.671875 211.011719 L 145.433594 206.253906 L 157.039062 206.253906 L 157.039062 207.011719 L 145.746094 207.011719 L 141.433594 211.328125 L 141.433594 216.511719 L 142.894531 217.972656 Z M 142.894531 232.425781 "/><path style=" stroke:none;fill-rule:nonzero;fill:#315d6a;fill-opacity:1;" d="M 133.074219 232.425781 L 132.3125 232.425781 L 132.3125 227.683594 L 137.855469 222.140625 L 137.855469 209.351562 L 144.277344 202.933594 L 157.574219 202.933594 L 157.574219 203.695312 L 144.589844 203.695312 L 138.617188 209.667969 L 138.617188 222.457031 L 133.074219 228 Z M 133.074219 232.425781 "/><path style=" stroke:none;fill-rule:nonzero;fill:#315d6a;fill-opacity:1;" d="M 124.082031 228.589844 L 123.542969 228.054688 L 128.703125 222.894531 L 128.703125 217.296875 L 132.972656 213.023438 L 132.972656 209.046875 L 142.367188 199.652344 L 157.265625 199.652344 L 157.265625 200.414062 L 142.683594 200.414062 L 133.734375 209.363281 L 133.734375 213.339844 L 129.460938 217.613281 L 129.460938 223.210938 Z M 124.082031 228.589844 "/><path style=" stroke:none;fill-rule:nonzero;fill:#315d6a;fill-opacity:1;" d="M 121.546875 210.808594 L 113.621094 210.808594 L 113.621094 210.046875 L 121.230469 210.046875 L 125.398438 205.878906 L 131.007812 205.878906 L 140.355469 196.535156 L 156.351562 196.535156 L 156.351562 197.296875 L 140.667969 197.296875 L 131.324219 206.640625 L 125.714844 206.640625 Z M 121.546875 210.808594 "/><path style=" stroke:none;fill-rule:nonzero;fill:#315d6a;fill-opacity:1;" d="M 119.058594 205.746094 L 105.808594 205.746094 L 105.808594 204.984375 L 118.742188 204.984375 L 121.644531 202.082031 L 129 202.082031 L 137.851562 193.230469 L 156.351562 193.328125 L 156.347656 194.089844 L 138.164062 193.992188 L 129.316406 202.84375 L 121.960938 202.84375 Z M 119.058594 205.746094 "/><path style=" stroke:none;fill-rule:nonzero;fill:#315d6a;fill-opacity:1;" d="M 136.449219 190.101562 L 156.351562 190.101562 L 156.351562 190.863281 L 136.449219 190.863281 Z M 136.449219 190.101562 "/><path style=" stroke:none;fill-rule:nonzero;fill:#315d6a;fill-opacity:1;" d="M 122.8125 192.476562 L 119.730469 192.476562 L 119.730469 191.714844 L 122.496094 191.714844 L 127.277344 186.9375 L 156.351562 186.9375 L 156.351562 187.695312 L 127.59375 187.695312 Z M 122.8125 192.476562 "/><path style=" stroke:none;fill-rule:nonzero;fill:#315d6a;fill-opacity:1;" d="M 155.304688 184.34375 L 126.808594 184.34375 L 122.234375 179.773438 L 118.992188 179.773438 L 116.203125 182.5625 L 115.664062 182.027344 L 118.679688 179.011719 L 122.550781 179.011719 L 127.121094 183.582031 L 155.304688 183.582031 Z M 155.304688 184.34375 "/><path style=" stroke:none;fill-rule:nonzero;fill:#315d6a;fill-opacity:1;" d="M 156.089844 181.25 L 136.050781 181.25 L 129.613281 174.8125 L 119.320312 174.8125 L 114.082031 180.050781 L 105.808594 180.050781 L 105.808594 179.289062 L 113.769531 179.289062 L 119.003906 174.050781 L 129.925781 174.050781 L 136.367188 180.488281 L 156.089844 180.488281 Z M 156.089844 181.25 "/><path style=" stroke:none;fill-rule:nonzero;fill:#315d6a;fill-opacity:1;" d="M 156.351562 178.003906 L 140.492188 178.003906 L 133.101562 170.613281 L 116.722656 170.613281 L 113.890625 173.449219 L 113.351562 172.910156 L 116.410156 169.855469 L 133.417969 169.855469 L 140.808594 177.242188 L 156.351562 177.242188 Z M 156.351562 178.003906 "/><path style=" stroke:none;fill-rule:nonzero;fill:#315d6a;fill-opacity:1;" d="M 154.976562 174.734375 L 144.035156 174.734375 L 135.960938 166.664062 L 129.136719 166.664062 L 124.523438 162.050781 L 125.0625 161.511719 L 129.453125 165.902344 L 136.277344 165.902344 L 144.351562 173.972656 L 154.976562 173.972656 Z M 154.976562 174.734375 "/><path style=" stroke:none;fill-rule:nonzero;fill:#315d6a;fill-opacity:1;" d="M 156.089844 171.496094 L 146.804688 171.496094 L 140.464844 165.160156 L 140.464844 151.269531 L 135.460938 146.265625 L 128.238281 146.265625 L 124.742188 142.769531 L 124.742188 139.730469 L 125.503906 139.730469 L 125.503906 142.453125 L 128.550781 145.503906 L 135.777344 145.503906 L 141.226562 150.953125 L 141.226562 164.84375 L 147.117188 170.734375 L 156.089844 170.734375 Z M 156.089844 171.496094 "/><path style=" stroke:none;fill-rule:nonzero;fill:#315d6a;fill-opacity:1;" d="M 155.886719 168.335938 L 149.042969 168.335938 L 145.496094 164.785156 L 145.496094 161.511719 L 146.257812 161.511719 L 146.257812 164.46875 L 149.359375 167.570312 L 155.886719 167.570312 Z M 155.886719 168.335938 "/><path style=" stroke:none;fill-rule:nonzero;fill:#315d6a;fill-opacity:1;" d="M 145.183594 232.46875 C 145.183594 232.816406 145.117188 233.152344 144.984375 233.472656 C 144.851562 233.792969 144.660156 234.074219 144.414062 234.320312 C 144.171875 234.566406 143.886719 234.753906 143.566406 234.890625 C 143.246094 235.023438 142.910156 235.089844 142.5625 235.089844 C 142.214844 235.089844 141.882812 235.023438 141.5625 234.890625 C 141.242188 234.753906 140.957031 234.566406 140.710938 234.320312 C 140.464844 234.074219 140.277344 233.792969 140.144531 233.472656 C 140.011719 233.152344 139.945312 232.816406 139.945312 232.46875 C 139.945312 232.121094 140.011719 231.789062 140.144531 231.46875 C 140.277344 231.144531 140.464844 230.863281 140.710938 230.617188 C 140.957031 230.371094 141.242188 230.183594 141.5625 230.050781 C 141.882812 229.917969 142.214844 229.851562 142.5625 229.851562 C 142.910156 229.851562 143.246094 229.917969 143.566406 230.050781 C 143.886719 230.183594 144.171875 230.371094 144.414062 230.617188 C 144.660156 230.863281 144.851562 231.144531 144.984375 231.46875 C 145.117188 231.789062 145.183594 232.121094 145.183594 232.46875 Z M 145.183594 232.46875 "/><path style=" stroke:none;fill-rule:nonzero;fill:#315d6a;fill-opacity:1;" d="M 135.3125 232.425781 C 135.3125 232.773438 135.246094 233.105469 135.113281 233.425781 C 134.980469 233.75 134.792969 234.03125 134.546875 234.277344 C 134.300781 234.523438 134.015625 234.710938 133.695312 234.84375 C 133.375 234.976562 133.042969 235.042969 132.695312 235.042969 C 132.347656 235.042969 132.011719 234.976562 131.691406 234.84375 C 131.371094 234.710938 131.085938 234.523438 130.84375 234.277344 C 130.597656 234.03125 130.40625 233.75 130.273438 233.425781 C 130.140625 233.105469 130.074219 232.773438 130.074219 232.425781 C 130.074219 232.078125 130.140625 231.742188 130.273438 231.421875 C 130.40625 231.101562 130.597656 230.820312 130.84375 230.574219 C 131.085938 230.328125 131.371094 230.136719 131.691406 230.003906 C 132.011719 229.871094 132.347656 229.804688 132.695312 229.804688 C 133.042969 229.804688 133.375 229.871094 133.695312 230.003906 C 134.015625 230.136719 134.300781 230.328125 134.546875 230.574219 C 134.792969 230.820312 134.980469 231.101562 135.113281 231.421875 C 135.246094 231.742188 135.3125 232.078125 135.3125 232.425781 Z M 135.3125 232.425781 "/><path style=" stroke:none;fill-rule:nonzero;fill:#315d6a;fill-opacity:1;" d="M 126.628906 228.324219 C 126.628906 228.667969 126.5625 229.003906 126.425781 229.324219 C 126.292969 229.644531 126.105469 229.929688 125.859375 230.175781 C 125.613281 230.421875 125.332031 230.609375 125.011719 230.742188 C 124.691406 230.875 124.355469 230.941406 124.007812 230.941406 C 123.660156 230.941406 123.328125 230.875 123.007812 230.742188 C 122.683594 230.609375 122.402344 230.421875 122.15625 230.175781 C 121.910156 229.929688 121.722656 229.644531 121.589844 229.324219 C 121.457031 229.003906 121.390625 228.667969 121.390625 228.324219 C 121.390625 227.976562 121.457031 227.640625 121.589844 227.320312 C 121.722656 227 121.910156 226.714844 122.15625 226.46875 C 122.402344 226.226562 122.683594 226.035156 123.007812 225.902344 C 123.328125 225.769531 123.660156 225.703125 124.007812 225.703125 C 124.355469 225.703125 124.691406 225.769531 125.011719 225.902344 C 125.332031 226.035156 125.613281 226.226562 125.859375 226.46875 C 126.105469 226.714844 126.292969 227 126.425781 227.320312 C 126.5625 227.640625 126.628906 227.976562 126.628906 228.324219 Z M 126.628906 228.324219 "/><path style=" stroke:none;fill-rule:nonzero;fill:#315d6a;fill-opacity:1;" d="M 116.238281 210.425781 C 116.238281 210.773438 116.171875 211.109375 116.039062 211.429688 C 115.90625 211.75 115.71875 212.03125 115.472656 212.277344 C 115.226562 212.523438 114.945312 212.714844 114.621094 212.847656 C 114.300781 212.980469 113.96875 213.046875 113.621094 213.046875 C 113.273438 213.046875 112.9375 212.980469 112.617188 212.847656 C 112.296875 212.714844 112.015625 212.523438 111.769531 212.277344 C 111.523438 212.03125 111.332031 211.75 111.199219 211.429688 C 111.066406 211.109375 111 210.773438 111 210.425781 C 111 210.078125 111.066406 209.746094 111.199219 209.425781 C 111.332031 209.105469 111.523438 208.820312 111.769531 208.574219 C 112.015625 208.328125 112.296875 208.140625 112.617188 208.007812 C 112.9375 207.875 113.273438 207.808594 113.621094 207.808594 C 113.96875 207.808594 114.300781 207.875 114.621094 208.007812 C 114.945312 208.140625 115.226562 208.328125 115.472656 208.574219 C 115.71875 208.820312 115.90625 209.105469 116.039062 209.425781 C 116.171875 209.746094 116.238281 210.078125 116.238281 210.425781 Z M 116.238281 210.425781 "/><g clip-rule="nonzero" clip-path="url(#99266149ee)"><path style=" stroke:none;fill-rule:nonzero;fill:#315d6a;fill-opacity:1;" d="M 108.425781 205.363281 C 108.425781 205.710938 108.359375 206.046875 108.226562 206.367188 C 108.09375 206.6875 107.90625 206.96875 107.660156 207.214844 C 107.414062 207.460938 107.128906 207.652344 106.808594 207.785156 C 106.488281 207.917969 106.15625 207.984375 105.808594 207.984375 C 105.460938 207.984375 105.125 207.917969 104.804688 207.785156 C 104.484375 207.652344 104.199219 207.460938 103.957031 207.214844 C 103.710938 206.96875 103.519531 206.6875 103.386719 206.367188 C 103.253906 206.046875 103.1875 205.710938 103.1875 205.363281 C 103.1875 205.015625 103.253906 204.683594 103.386719 204.363281 C 103.519531 204.039062 103.710938 203.757812 103.957031 203.511719 C 104.199219 203.265625 104.484375 203.078125 104.804688 202.945312 C 105.125 202.8125 105.460938 202.746094 105.808594 202.746094 C 106.15625 202.746094 106.488281 202.8125 106.808594 202.945312 C 107.128906 203.078125 107.414062 203.265625 107.660156 203.511719 C 107.90625 203.757812 108.09375 204.039062 108.226562 204.363281 C 108.359375 204.683594 108.425781 205.015625 108.425781 205.363281 Z M 108.425781 205.363281 "/></g><path style=" stroke:none;fill-rule:nonzero;fill:#315d6a;fill-opacity:1;" d="M 122.351562 192.324219 C 122.351562 192.671875 122.285156 193.003906 122.152344 193.328125 C 122.019531 193.648438 121.828125 193.929688 121.582031 194.175781 C 121.335938 194.421875 121.054688 194.609375 120.734375 194.742188 C 120.414062 194.875 120.078125 194.945312 119.730469 194.945312 C 119.382812 194.945312 119.050781 194.875 118.730469 194.742188 C 118.40625 194.609375 118.125 194.421875 117.878906 194.175781 C 117.632812 193.929688 117.445312 193.648438 117.3125 193.328125 C 117.179688 193.003906 117.113281 192.671875 117.113281 192.324219 C 117.113281 191.976562 117.179688 191.644531 117.3125 191.320312 C 117.445312 191 117.632812 190.71875 117.878906 190.472656 C 118.125 190.226562 118.40625 190.039062 118.730469 189.90625 C 119.050781 189.773438 119.382812 189.707031 119.730469 189.707031 C 120.078125 189.707031 120.414062 189.773438 120.734375 189.90625 C 121.054688 190.039062 121.335938 190.226562 121.582031 190.472656 C 121.828125 190.71875 122.019531 191 122.152344 191.320312 C 122.285156 191.644531 122.351562 191.976562 122.351562 192.324219 Z M 122.351562 192.324219 "/><path style=" stroke:none;fill-rule:nonzero;fill:#315d6a;fill-opacity:1;" d="M 139.464844 190.484375 C 139.464844 190.773438 139.410156 191.054688 139.300781 191.320312 C 139.1875 191.589844 139.03125 191.828125 138.824219 192.03125 C 138.617188 192.238281 138.382812 192.394531 138.113281 192.507812 C 137.84375 192.617188 137.566406 192.671875 137.277344 192.671875 C 136.984375 192.671875 136.707031 192.617188 136.4375 192.507812 C 136.167969 192.394531 135.933594 192.238281 135.726562 192.03125 C 135.523438 191.828125 135.363281 191.589844 135.253906 191.320312 C 135.140625 191.054688 135.085938 190.773438 135.085938 190.484375 C 135.085938 190.191406 135.140625 189.914062 135.253906 189.644531 C 135.363281 189.375 135.523438 189.140625 135.726562 188.933594 C 135.933594 188.730469 136.167969 188.570312 136.4375 188.460938 C 136.707031 188.347656 136.984375 188.292969 137.277344 188.292969 C 137.566406 188.292969 137.84375 188.347656 138.113281 188.460938 C 138.382812 188.570312 138.617188 188.730469 138.824219 188.933594 C 139.03125 189.140625 139.1875 189.375 139.300781 189.644531 C 139.410156 189.914062 139.464844 190.191406 139.464844 190.484375 Z M 139.464844 190.484375 "/><g clip-rule="nonzero" clip-path="url(#b31c170dfb)"><path style=" stroke:none;fill-rule:nonzero;fill:#315d6a;fill-opacity:1;" d="M 108.425781 179.753906 C 108.425781 180.101562 108.359375 180.433594 108.226562 180.757812 C 108.09375 181.078125 107.90625 181.359375 107.660156 181.605469 C 107.414062 181.851562 107.128906 182.039062 106.808594 182.171875 C 106.488281 182.304688 106.15625 182.375 105.808594 182.375 C 105.460938 182.375 105.125 182.304688 104.804688 182.171875 C 104.484375 182.039062 104.199219 181.851562 103.957031 181.605469 C 103.710938 181.359375 103.519531 181.078125 103.386719 180.757812 C 103.253906 180.433594 103.1875 180.101562 103.1875 179.753906 C 103.1875 179.40625 103.253906 179.074219 103.386719 178.75 C 103.519531 178.429688 103.710938 178.148438 103.957031 177.902344 C 104.199219 177.65625 104.484375 177.46875 104.804688 177.335938 C 105.125 177.203125 105.460938 177.136719 105.808594 177.136719 C 106.15625 177.136719 106.488281 177.203125 106.808594 177.335938 C 107.128906 177.46875 107.414062 177.65625 107.660156 177.902344 C 107.90625 178.148438 108.09375 178.429688 108.226562 178.75 C 108.359375 179.074219 108.425781 179.40625 108.425781 179.753906 Z M 108.425781 179.753906 "/></g><path style=" stroke:none;fill-rule:nonzero;fill:#315d6a;fill-opacity:1;" d="M 116.238281 173.03125 C 116.238281 173.378906 116.171875 173.714844 116.039062 174.035156 C 115.90625 174.355469 115.71875 174.640625 115.472656 174.886719 C 115.226562 175.128906 114.945312 175.320312 114.621094 175.453125 C 114.300781 175.585938 113.96875 175.652344 113.621094 175.652344 C 113.273438 175.652344 112.9375 175.585938 112.617188 175.453125 C 112.296875 175.320312 112.015625 175.128906 111.769531 174.886719 C 111.523438 174.640625 111.332031 174.355469 111.199219 174.035156 C 111.066406 173.714844 111 173.378906 111 173.03125 C 111 172.6875 111.066406 172.351562 111.199219 172.03125 C 111.332031 171.710938 111.523438 171.425781 111.769531 171.179688 C 112.015625 170.9375 112.296875 170.746094 112.617188 170.613281 C 112.9375 170.480469 113.273438 170.414062 113.621094 170.414062 C 113.96875 170.414062 114.300781 170.480469 114.621094 170.613281 C 114.945312 170.746094 115.226562 170.9375 115.472656 171.179688 C 115.71875 171.425781 115.90625 171.710938 116.039062 172.03125 C 116.171875 172.351562 116.238281 172.6875 116.238281 173.03125 Z M 116.238281 173.03125 "/><path style=" stroke:none;fill-rule:nonzero;fill:#315d6a;fill-opacity:1;" d="M 127.414062 161.992188 C 127.414062 162.335938 127.347656 162.671875 127.214844 162.992188 C 127.082031 163.3125 126.890625 163.597656 126.644531 163.84375 C 126.398438 164.085938 126.117188 164.277344 125.796875 164.410156 C 125.476562 164.542969 125.140625 164.609375 124.792969 164.609375 C 124.445312 164.609375 124.113281 164.542969 123.792969 164.410156 C 123.472656 164.277344 123.1875 164.085938 122.941406 163.84375 C 122.695312 163.597656 122.507812 163.3125 122.375 162.992188 C 122.242188 162.671875 122.175781 162.335938 122.175781 161.992188 C 122.175781 161.644531 122.242188 161.308594 122.375 160.988281 C 122.507812 160.667969 122.695312 160.382812 122.941406 160.136719 C 123.1875 159.894531 123.472656 159.703125 123.792969 159.570312 C 124.113281 159.4375 124.445312 159.371094 124.792969 159.371094 C 125.140625 159.371094 125.476562 159.4375 125.796875 159.570312 C 126.117188 159.703125 126.398438 159.894531 126.644531 160.136719 C 126.890625 160.382812 127.082031 160.667969 127.214844 160.988281 C 127.347656 161.308594 127.414062 161.644531 127.414062 161.992188 Z M 127.414062 161.992188 "/><path style=" stroke:none;fill-rule:nonzero;fill:#315d6a;fill-opacity:1;" d="M 127.878906 140.125 C 127.878906 140.46875 127.8125 140.804688 127.675781 141.125 C 127.542969 141.445312 127.355469 141.730469 127.109375 141.976562 C 126.863281 142.21875 126.582031 142.410156 126.261719 142.542969 C 125.9375 142.675781 125.605469 142.742188 125.257812 142.742188 C 124.910156 142.742188 124.578125 142.675781 124.253906 142.542969 C 123.933594 142.410156 123.652344 142.21875 123.40625 141.976562 C 123.160156 141.730469 122.972656 141.445312 122.839844 141.125 C 122.707031 140.804688 122.640625 140.46875 122.640625 140.125 C 122.640625 139.777344 122.707031 139.441406 122.839844 139.121094 C 122.972656 138.800781 123.160156 138.515625 123.40625 138.269531 C 123.652344 138.027344 123.933594 137.835938 124.253906 137.703125 C 124.578125 137.570312 124.910156 137.503906 125.257812 137.503906 C 125.605469 137.503906 125.9375 137.570312 126.261719 137.703125 C 126.582031 137.835938 126.863281 138.027344 127.109375 138.269531 C 127.355469 138.515625 127.542969 138.800781 127.675781 139.121094 C 127.8125 139.441406 127.878906 139.777344 127.878906 140.125 Z M 127.878906 140.125 "/><path style=" stroke:none;fill-rule:nonzero;fill:#315d6a;fill-opacity:1;" d="M 148.496094 161.515625 C 148.496094 161.859375 148.429688 162.195312 148.296875 162.515625 C 148.160156 162.835938 147.972656 163.121094 147.726562 163.367188 C 147.480469 163.613281 147.199219 163.800781 146.878906 163.933594 C 146.558594 164.066406 146.222656 164.132812 145.875 164.132812 C 145.527344 164.132812 145.195312 164.066406 144.875 163.933594 C 144.550781 163.800781 144.269531 163.613281 144.023438 163.367188 C 143.777344 163.121094 143.589844 162.835938 143.457031 162.515625 C 143.324219 162.195312 143.257812 161.859375 143.257812 161.515625 C 143.257812 161.167969 143.324219 160.832031 143.457031 160.511719 C 143.589844 160.191406 143.777344 159.90625 144.023438 159.660156 C 144.269531 159.417969 144.550781 159.226562 144.875 159.09375 C 145.195312 158.960938 145.527344 158.894531 145.875 158.894531 C 146.222656 158.894531 146.558594 158.960938 146.878906 159.09375 C 147.199219 159.226562 147.480469 159.417969 147.726562 159.660156 C 147.972656 159.90625 148.160156 160.191406 148.296875 160.511719 C 148.429688 160.832031 148.496094 161.167969 148.496094 161.515625 Z M 148.496094 161.515625 "/><path style=" stroke:none;fill-rule:nonzero;fill:#315d6a;fill-opacity:1;" d="M 118.605469 182.109375 C 118.605469 182.425781 118.542969 182.726562 118.421875 183.015625 C 118.304688 183.304688 118.132812 183.5625 117.910156 183.785156 C 117.6875 184.003906 117.433594 184.175781 117.144531 184.296875 C 116.855469 184.417969 116.550781 184.476562 116.238281 184.476562 C 115.925781 184.476562 115.625 184.417969 115.332031 184.296875 C 115.042969 184.175781 114.789062 184.003906 114.566406 183.785156 C 114.34375 183.5625 114.175781 183.304688 114.054688 183.015625 C 113.933594 182.726562 113.875 182.425781 113.875 182.109375 C 113.875 181.796875 113.933594 181.496094 114.054688 181.207031 C 114.175781 180.917969 114.34375 180.660156 114.566406 180.4375 C 114.789062 180.21875 115.042969 180.046875 115.332031 179.925781 C 115.625 179.804688 115.925781 179.746094 116.238281 179.746094 C 116.550781 179.746094 116.855469 179.804688 117.144531 179.925781 C 117.433594 180.046875 117.6875 180.21875 117.910156 180.4375 C 118.132812 180.660156 118.304688 180.917969 118.421875 181.207031 C 118.542969 181.496094 118.605469 181.796875 118.605469 182.109375 Z M 118.605469 182.109375 "/><path style=" stroke:none;fill-rule:nonzero;fill:#315d6a;fill-opacity:1;" d="M 187.375 196.390625 L 178.902344 196.390625 L 177.542969 200.398438 L 171.753906 200.398438 L 179.96875 177.695312 L 186.375 177.695312 L 194.589844 200.398438 L 188.734375 200.398438 Z M 183.140625 183.808594 L 180.359375 192.121094 L 185.953125 192.121094 Z M 183.140625 183.808594 "/><path style=" stroke:none;fill-rule:nonzero;fill:#315d6a;fill-opacity:1;" d="M 196.5625 177.5 C 196.5625 175.820312 197.886719 174.492188 199.859375 174.492188 C 201.800781 174.492188 203.128906 175.820312 203.128906 177.5 C 203.128906 179.152344 201.800781 180.476562 199.859375 180.476562 C 197.886719 180.476562 196.5625 179.152344 196.5625 177.5 Z M 197.078125 182.355469 L 202.609375 182.355469 L 202.609375 200.402344 L 197.078125 200.402344 Z M 197.078125 182.355469 "/></g></svg>