<svg xmlns="http://www.w3.org/2000/svg" xmlns:xlink="http://www.w3.org/1999/xlink" width="500" zoomAndPan="magnify" viewBox="0 0 375 374.999991" height="500" preserveAspectRatio="xMidYMid meet" version="1.2"><defs><clipPath id="32728b45d0"><path d="M 0 0 L 374.988281 0 L 374.988281 375 L 0 375 Z M 0 0 "/></clipPath><clipPath id="5542f77dd9"><path d="M 374.988281 74.996094 L 374.988281 300.007812 C 374.988281 319.898438 367.089844 338.976562 353.023438 353.042969 C 338.957031 367.105469 319.882812 375.007812 299.992188 375.007812 L 74.996094 375.007812 C 55.105469 375.007812 36.03125 367.105469 21.964844 353.042969 C 7.902344 338.976562 0 319.898438 0 300.007812 L 0 74.996094 C 0 33.578125 33.578125 0 74.996094 0 L 299.992188 0 C 319.882812 0 338.957031 7.902344 353.023438 21.964844 C 367.089844 36.03125 374.988281 55.105469 374.988281 74.996094 Z M 374.988281 74.996094 "/></clipPath><clipPath id="556c6cf544"><path d="M 0.0078125 0 L 375 0 L 375 375 L 0.0078125 375 Z M 0.0078125 0 "/></clipPath><clipPath id="dfa1e7c2c8"><path d="M 374.992188 74.996094 L 374.992188 300.003906 C 374.992188 319.894531 367.089844 338.96875 353.023438 353.035156 C 338.960938 367.097656 319.886719 375 299.996094 375 L 75.003906 375 C 55.113281 375 36.039062 367.097656 21.976562 353.035156 C 7.910156 338.96875 0.0078125 319.894531 0.0078125 300.003906 L 0.0078125 74.996094 C 0.0078125 33.578125 33.585938 0 75.003906 0 L 299.996094 0 C 319.886719 0 338.960938 7.902344 353.023438 21.964844 C 367.089844 36.03125 374.992188 55.105469 374.992188 74.996094 Z M 374.992188 74.996094 "/></clipPath><clipPath id="3ef74c4121"><path d="M 119 172 L 269 172 L 269 271.808594 L 119 271.808594 Z M 119 172 "/></clipPath></defs><g id="bdbbdc42e9"><g clip-rule="nonzero" clip-path="url(#32728b45d0)"><g clip-rule="nonzero" clip-path="url(#5542f77dd9)"><path style=" stroke:none;fill-rule:nonzero;fill:#426d41;fill-opacity:1;" d="M 0 0 L 374.988281 0 L 374.988281 374.988281 L 0 374.988281 Z M 0 0 "/></g></g><g clip-rule="nonzero" clip-path="url(#556c6cf544)"><g clip-rule="nonzero" clip-path="url(#dfa1e7c2c8)"><path style="fill:none;stroke-width:60;stroke-linecap:butt;stroke-linejoin:miter;stroke:#315d6a;stroke-opacity:1;stroke-miterlimit:4;" d="M 499.977898 99.994798 L 499.977898 400.005235 C 499.977898 426.52607 489.441439 451.958363 470.68623 470.713573 C 451.936228 489.463574 426.503935 500.000033 399.9831 500.000033 L 99.993497 500.000033 C 73.472662 500.000033 48.040369 489.463574 29.290367 470.713573 C 10.535158 451.958363 -0.00130128 426.52607 -0.00130128 400.005235 L -0.00130128 99.994798 C -0.00130128 44.770836 44.769535 0 99.993497 0 L 399.9831 0 C 426.503935 0 451.936228 10.536459 470.68623 29.28646 C 489.441439 48.04167 499.977898 73.473963 499.977898 99.994798 Z M 499.977898 99.994798 " transform="matrix(0.75,0,0,0.75,0.00878846,0)"/></g></g><path style=" stroke:none;fill-rule:nonzero;fill:#e4c57b;fill-opacity:1;" d="M 227.964844 203.96875 C 228.132812 203.121094 228.8125 202.613281 229.660156 202.441406 L 236.613281 201.761719 C 239.15625 201.425781 241.191406 199.21875 241.191406 196.675781 L 241.191406 185.820312 C 241.191406 183.277344 239.15625 181.074219 236.613281 180.734375 L 229.660156 180.054688 C 228.8125 179.886719 228.132812 179.375 227.964844 178.527344 C 227.285156 176.152344 226.265625 173.78125 225.078125 171.746094 C 224.742188 171.066406 224.742188 170.046875 225.25 169.539062 L 229.660156 164.113281 C 231.355469 162.078125 231.183594 159.195312 229.320312 157.328125 L 221.519531 149.527344 C 219.652344 147.660156 216.769531 147.492188 214.734375 149.1875 L 209.308594 153.597656 C 208.628906 153.9375 207.78125 153.9375 207.101562 153.597656 C 204.898438 152.410156 202.691406 151.5625 200.320312 150.714844 C 199.46875 150.546875 198.960938 149.867188 198.792969 149.019531 L 197.945312 142.066406 C 197.605469 139.519531 195.398438 137.484375 192.855469 137.484375 L 182.003906 137.484375 C 179.457031 137.484375 177.253906 139.519531 176.914062 142.066406 L 176.234375 149.019531 C 176.066406 149.867188 175.558594 150.546875 174.710938 150.714844 C 172.335938 151.394531 169.960938 152.410156 167.925781 153.597656 C 167.246094 153.9375 166.230469 153.9375 165.71875 153.429688 L 160.292969 149.019531 C 158.257812 147.324219 155.375 147.492188 153.507812 149.359375 L 145.707031 157.160156 C 143.84375 159.023438 143.671875 161.90625 145.367188 163.941406 L 149.777344 169.371094 C 150.289062 170.046875 150.289062 170.898438 149.949219 171.574219 C 148.761719 173.78125 147.914062 175.984375 147.066406 178.359375 C 146.894531 179.207031 146.21875 179.714844 145.367188 179.886719 L 138.246094 180.734375 C 135.703125 181.074219 133.667969 183.277344 133.667969 185.820312 L 133.667969 196.675781 C 133.667969 199.21875 135.703125 201.425781 138.246094 201.761719 L 145.199219 202.441406 C 146.046875 202.613281 146.726562 203.121094 146.894531 203.96875 C 147.574219 206.34375 148.589844 208.71875 149.777344 210.753906 C 150.117188 211.429688 150.117188 212.449219 149.609375 212.957031 L 145.199219 218.382812 C 143.503906 220.417969 143.671875 223.300781 145.539062 225.167969 L 153.339844 232.96875 C 155.207031 234.835938 158.089844 235.003906 160.125 233.308594 L 165.550781 228.898438 C 166.230469 228.390625 167.078125 228.390625 167.753906 228.730469 C 169.960938 229.917969 172.164062 230.765625 174.539062 231.613281 C 175.386719 231.78125 175.898438 232.460938 176.066406 233.308594 L 176.746094 240.261719 C 177.082031 242.804688 179.289062 244.839844 181.832031 244.839844 L 192.6875 244.839844 C 195.230469 244.839844 197.433594 242.804688 197.773438 240.261719 L 198.453125 233.308594 C 198.621094 232.460938 199.132812 231.78125 199.980469 231.613281 C 202.355469 230.933594 204.726562 229.917969 206.761719 228.730469 C 207.441406 228.390625 208.460938 228.390625 208.96875 228.898438 L 214.394531 233.308594 C 216.429688 235.003906 219.3125 234.835938 221.179688 232.96875 L 228.980469 225.167969 C 230.847656 223.300781 231.015625 220.417969 229.320312 218.382812 L 224.910156 212.957031 C 224.742188 212.449219 224.742188 211.601562 225.078125 210.921875 C 226.265625 208.71875 227.113281 206.34375 227.964844 203.96875 Z M 187.429688 211.941406 C 176.066406 211.941406 166.738281 202.613281 166.738281 191.25 C 166.738281 179.886719 176.066406 170.558594 187.429688 170.558594 C 198.792969 170.558594 208.121094 179.886719 208.121094 191.25 C 208.121094 202.613281 198.792969 211.941406 187.429688 211.941406 Z M 187.429688 211.941406 "/><path style=" stroke:none;fill-rule:nonzero;fill:#e4c57b;fill-opacity:1;" d="M 137.398438 141.21875 C 164.023438 114.589844 206.761719 113.742188 234.578125 138.503906 L 230.675781 142.40625 C 229.660156 143.421875 229.320312 144.949219 229.660156 146.304688 C 230 147.660156 231.183594 148.679688 232.542969 148.847656 L 250.859375 152.070312 C 251.027344 152.070312 251.367188 152.070312 251.539062 152.070312 C 252.554688 152.070312 253.574219 151.730469 254.25 150.882812 C 255.097656 150.035156 255.4375 148.679688 255.269531 147.492188 L 252.046875 129.175781 C 251.875 127.820312 250.859375 126.632812 249.503906 126.292969 C 248.144531 125.953125 246.617188 126.292969 245.601562 127.308594 L 241.53125 131.378906 C 209.816406 103.058594 160.972656 103.734375 130.445312 134.261719 C 111.617188 153.089844 103.308594 180.054688 108.226562 206.171875 C 108.734375 208.546875 110.769531 210.242188 112.976562 210.242188 C 113.316406 210.242188 113.652344 210.242188 113.824219 210.074219 C 116.539062 209.566406 118.234375 207.019531 117.722656 204.308594 C 113.484375 181.410156 120.777344 157.667969 137.398438 141.21875 Z M 137.398438 141.21875 "/><g clip-rule="nonzero" clip-path="url(#3ef74c4121)"><path style=" stroke:none;fill-rule:nonzero;fill:#e4c57b;fill-opacity:1;" d="M 266.632812 176.15625 C 266.121094 173.441406 263.578125 171.746094 260.863281 172.253906 C 258.152344 172.761719 256.457031 175.304688 256.964844 178.019531 C 261.375 201.085938 254.082031 224.660156 237.460938 241.28125 C 210.832031 267.90625 168.09375 268.753906 140.28125 243.992188 L 144.183594 240.09375 C 145.199219 239.074219 145.539062 237.546875 145.199219 236.191406 C 144.691406 234.835938 143.671875 233.816406 142.316406 233.648438 L 124.167969 230.425781 C 122.980469 230.257812 121.625 230.59375 120.777344 231.441406 C 119.929688 232.292969 119.421875 233.648438 119.757812 234.835938 L 122.980469 253.152344 C 123.320312 254.507812 124.167969 255.695312 125.527344 256.035156 C 125.863281 256.203125 126.203125 256.203125 126.714844 256.203125 C 127.730469 256.203125 128.75 255.867188 129.425781 255.015625 L 133.496094 250.945312 C 148.761719 264.855469 168.09375 271.808594 187.429688 271.808594 C 208.121094 271.808594 228.640625 264.007812 244.414062 248.234375 C 263.238281 229.40625 271.550781 202.441406 266.632812 176.15625 Z M 266.632812 176.15625 "/></g></g></svg>