<svg xmlns="http://www.w3.org/2000/svg" xmlns:xlink="http://www.w3.org/1999/xlink" width="500" zoomAndPan="magnify" viewBox="0 0 375 374.999991" height="500" preserveAspectRatio="xMidYMid meet" version="1.2"><defs><clipPath id="a11646b6b2"><path d="M 0.0078125 0 L 375 0 L 375 375 L 0.0078125 375 Z M 0.0078125 0 "/></clipPath><clipPath id="944b3eacf0"><path d="M 374.992188 74.996094 L 374.992188 300.003906 C 374.992188 319.894531 367.089844 338.96875 353.023438 353.035156 C 338.960938 367.097656 319.886719 375 299.996094 375 L 75.003906 375 C 55.113281 375 36.039062 367.097656 21.976562 353.035156 C 7.910156 338.96875 0.0078125 319.894531 0.0078125 300.003906 L 0.0078125 74.996094 C 0.0078125 33.578125 33.585938 0 75.003906 0 L 299.996094 0 C 319.886719 0 338.960938 7.902344 353.023438 21.964844 C 367.089844 36.03125 374.992188 55.105469 374.992188 74.996094 Z M 374.992188 74.996094 "/></clipPath><clipPath id="99eb57d316"><path d="M 240 190 L 254 190 L 254 240.953125 L 240 240.953125 Z M 240 190 "/></clipPath><clipPath id="7ebcc38601"><path d="M 184 190 L 199 190 L 199 240.953125 L 184 240.953125 Z M 184 190 "/></clipPath><clipPath id="4039650baa"><path d="M 221 195 L 236 195 L 236 240.953125 L 221 240.953125 Z M 221 195 "/></clipPath><clipPath id="250fff9607"><path d="M 203 207 L 217 207 L 217 240.953125 L 203 240.953125 Z M 203 207 "/></clipPath><clipPath id="dd88387ad0"><path d="M 258 214 L 272.027344 214 L 272.027344 240.953125 L 258 240.953125 Z M 258 214 "/></clipPath><clipPath id="7dd462736d"><path d="M 103.277344 218 L 115 218 L 115 231 L 103.277344 231 Z M 103.277344 218 "/></clipPath><clipPath id="faa76bfdb5"><path d="M 141 133.703125 L 163 133.703125 L 163 171 L 141 171 Z M 141 133.703125 "/></clipPath></defs><g id="4a38d06e93"><g clip-rule="nonzero" clip-path="url(#a11646b6b2)"><g clip-rule="nonzero" clip-path="url(#944b3eacf0)"><path style="fill:none;stroke-width:60;stroke-linecap:butt;stroke-linejoin:miter;stroke:#315d6a;stroke-opacity:1;stroke-miterlimit:4;" d="M 499.977898 99.994798 L 499.977898 400.005235 C 499.977898 426.52607 489.441439 451.958363 470.68623 470.713573 C 451.936228 489.463574 426.503935 500.000033 399.9831 500.000033 L 99.993497 500.000033 C 73.472662 500.000033 48.040369 489.463574 29.290367 470.713573 C 10.535158 451.958363 -0.00130128 426.52607 -0.00130128 400.005235 L -0.00130128 99.994798 C -0.00130128 44.770836 44.769535 0 99.993497 0 L 399.9831 0 C 426.503935 0 451.936228 10.536459 470.68623 29.28646 C 489.441439 48.04167 499.977898 73.473963 499.977898 99.994798 Z M 499.977898 99.994798 " transform="matrix(0.75,0,0,0.75,0.00878846,0)"/></g></g><g clip-rule="nonzero" clip-path="url(#99eb57d316)"><path style=" stroke:none;fill-rule:nonzero;fill:#315d6a;fill-opacity:1;" d="M 253.664062 215.929688 C 253.664062 207.917969 253.652344 199.902344 253.683594 191.890625 C 253.6875 191.023438 253.515625 190.71875 252.570312 190.734375 C 248.785156 190.792969 244.996094 190.777344 241.207031 190.742188 C 240.417969 190.734375 240.089844 190.863281 240.089844 191.765625 C 240.121094 207.792969 240.121094 223.816406 240.089844 239.84375 C 240.089844 240.742188 240.40625 240.878906 241.203125 240.871094 C 244.992188 240.835938 248.78125 240.820312 252.566406 240.878906 C 253.507812 240.894531 253.6875 240.601562 253.683594 239.726562 C 253.648438 231.792969 253.664062 223.863281 253.664062 215.929688 Z M 253.664062 215.929688 "/></g><g clip-rule="nonzero" clip-path="url(#7ebcc38601)"><path style=" stroke:none;fill-rule:nonzero;fill:#315d6a;fill-opacity:1;" d="M 197.394531 190.695312 C 193.683594 190.734375 189.976562 190.75 186.265625 190.6875 C 185.230469 190.671875 184.902344 190.902344 184.90625 191.996094 C 184.960938 199.933594 184.933594 207.871094 184.933594 215.804688 C 184.933594 223.785156 184.945312 231.761719 184.917969 239.738281 C 184.914062 240.582031 185.0625 240.9375 186.027344 240.921875 C 189.816406 240.863281 193.609375 240.875 197.398438 240.914062 C 198.222656 240.921875 198.507812 240.71875 198.503906 239.851562 C 198.480469 223.816406 198.480469 207.785156 198.503906 191.75 C 198.507812 190.878906 198.210938 190.6875 197.394531 190.695312 Z M 197.394531 190.695312 "/></g><g clip-rule="nonzero" clip-path="url(#4039650baa)"><path style=" stroke:none;fill-rule:nonzero;fill:#315d6a;fill-opacity:1;" d="M 235.050781 196.25 C 235.050781 195.351562 234.710938 195.214844 233.925781 195.222656 C 230.296875 195.257812 226.667969 195.285156 223.042969 195.210938 C 221.867188 195.183594 221.476562 195.425781 221.492188 196.695312 C 221.5625 203.789062 221.523438 210.882812 221.523438 217.972656 C 221.523438 225.1875 221.542969 232.398438 221.507812 239.613281 C 221.5 240.585938 221.757812 240.9375 222.785156 240.921875 C 226.492188 240.867188 230.203125 240.882812 233.910156 240.914062 C 234.6875 240.921875 235.050781 240.800781 235.050781 239.886719 C 235.023438 225.339844 235.023438 210.796875 235.050781 196.25 Z M 235.050781 196.25 "/></g><g clip-rule="nonzero" clip-path="url(#250fff9607)"><path style=" stroke:none;fill-rule:nonzero;fill:#315d6a;fill-opacity:1;" d="M 215.515625 207.578125 C 211.761719 207.628906 208.015625 207.621094 204.265625 207.582031 C 203.4375 207.574219 203.15625 207.792969 203.160156 208.652344 C 203.1875 219.035156 203.1875 229.417969 203.160156 239.800781 C 203.160156 240.664062 203.441406 240.878906 204.265625 240.871094 C 208.019531 240.835938 211.765625 240.824219 215.515625 240.878906 C 216.503906 240.890625 216.820312 240.640625 216.808594 239.621094 C 216.757812 234.488281 216.785156 229.359375 216.785156 224.226562 C 216.785156 219.09375 216.757812 213.964844 216.808594 208.832031 C 216.820312 207.808594 216.503906 207.5625 215.515625 207.578125 Z M 215.515625 207.578125 "/></g><g clip-rule="nonzero" clip-path="url(#dd88387ad0)"><path style=" stroke:none;fill-rule:nonzero;fill:#315d6a;fill-opacity:1;" d="M 270.933594 214.710938 C 267.148438 214.75 263.359375 214.757812 259.574219 214.703125 C 258.597656 214.691406 258.269531 214.929688 258.285156 215.953125 C 258.34375 219.875 258.308594 223.800781 258.308594 227.722656 C 258.308594 231.730469 258.328125 235.730469 258.292969 239.734375 C 258.285156 240.605469 258.523438 240.933594 259.445312 240.921875 C 263.273438 240.878906 267.097656 240.878906 270.925781 240.917969 C 271.78125 240.925781 272.027344 240.628906 272.023438 239.804688 C 272 231.796875 272 223.789062 272.027344 215.78125 C 272.03125 214.929688 271.765625 214.699219 270.933594 214.710938 Z M 270.933594 214.710938 "/></g><path style=" stroke:none;fill-rule:nonzero;fill:#315d6a;fill-opacity:1;" d="M 217.984375 154.300781 C 217.988281 154.019531 218.007812 153.738281 217.992188 153.457031 C 217.820312 150.019531 214.902344 147.390625 211.726562 147.804688 C 207.089844 148.40625 205.015625 152.570312 207.246094 156.78125 L 208.660156 158.238281 C 211.949219 160.230469 214.90625 159.5625 217.375 156.273438 C 217.578125 155.617188 217.78125 154.960938 217.984375 154.300781 Z M 212.148438 156.363281 C 210.542969 156.382812 209.316406 155.210938 209.277344 153.617188 C 209.238281 152.015625 210.527344 150.675781 212.117188 150.667969 C 213.625 150.660156 214.992188 151.96875 215.039062 153.460938 C 215.089844 155 213.75 156.34375 212.148438 156.363281 Z M 212.148438 156.363281 "/><g clip-rule="nonzero" clip-path="url(#7dd462736d)"><path style=" stroke:none;fill-rule:nonzero;fill:#315d6a;fill-opacity:1;" d="M 107.855469 219.054688 C 105.234375 219.628906 103.28125 222.035156 103.289062 224.769531 C 103.300781 227.527344 105.328125 229.910156 108.089844 230.410156 C 110.851562 230.90625 113.523438 229.457031 114.507812 226.933594 C 115.511719 224.371094 114.820312 222.1875 112.988281 220.261719 L 111.179688 219.246094 C 110.082031 218.984375 109 218.804688 107.855469 219.054688 Z M 112.035156 224.820312 C 111.960938 226.410156 110.601562 227.636719 108.980469 227.574219 C 107.414062 227.515625 106.246094 226.242188 106.285156 224.640625 C 106.320312 223.089844 107.640625 221.8125 109.167969 221.847656 C 110.722656 221.878906 112.105469 223.3125 112.035156 224.820312 Z M 112.035156 224.820312 "/></g><path style=" stroke:none;fill-rule:nonzero;fill:#315d6a;fill-opacity:1;" d="M 259.507812 146.882812 C 260.5 147.335938 261.507812 147.640625 262.636719 147.617188 C 265.402344 147.558594 267.742188 145.65625 268.277344 142.941406 C 268.773438 140.402344 267.332031 137.589844 265.011719 136.570312 C 262.402344 135.425781 259.363281 136.210938 257.800781 138.472656 C 256.132812 140.890625 256.433594 143.273438 258.015625 145.609375 Z M 262.628906 138.941406 C 264.140625 139 265.394531 140.328125 265.382812 141.859375 C 265.371094 143.511719 264.105469 144.753906 262.488281 144.714844 C 260.921875 144.671875 259.582031 143.300781 259.625 141.773438 C 259.664062 140.289062 261.152344 138.886719 262.628906 138.941406 Z M 262.628906 138.941406 "/><path style=" stroke:none;fill-rule:nonzero;fill:#315d6a;fill-opacity:1;" d="M 243.78125 173.234375 C 246.757812 171.371094 247.273438 167.542969 244.960938 164.4375 L 243.425781 163.214844 C 240.882812 162.128906 238.546875 162.414062 236.433594 164.238281 L 235.25 165.914062 C 235.148438 166.300781 235.039062 166.683594 234.953125 167.070312 C 234.414062 169.429688 235.289062 171.746094 237.226562 173.089844 C 239.238281 174.484375 241.691406 174.539062 243.78125 173.234375 Z M 237.695312 168.410156 C 237.691406 166.835938 239.011719 165.539062 240.605469 165.542969 C 242.265625 165.546875 243.507812 166.773438 243.5 168.40625 C 243.496094 169.933594 242.085938 171.300781 240.550781 171.265625 C 239.09375 171.230469 237.695312 169.832031 237.691406 168.40625 Z M 237.695312 168.410156 "/><path style=" stroke:none;fill-rule:nonzero;fill:#315d6a;fill-opacity:1;" d="M 153.960938 195.804688 C 151.5 195.058594 149.308594 195.5 147.414062 197.261719 L 146.300781 199.085938 C 146.257812 199.28125 146.21875 199.476562 146.167969 199.671875 C 145.371094 202.621094 146.816406 205.53125 149.621094 206.613281 C 152.492188 207.726562 155.636719 206.542969 156.972656 203.789062 C 158.230469 201.195312 157.570312 198.90625 155.699219 196.859375 Z M 151.746094 204.136719 C 150.210938 204.117188 148.847656 202.714844 148.875 201.191406 C 148.90625 199.617188 150.261719 198.328125 151.847656 198.363281 C 153.320312 198.398438 154.683594 199.777344 154.683594 201.230469 C 154.683594 202.746094 153.253906 204.160156 151.746094 204.136719 Z M 151.746094 204.136719 "/><path style=" stroke:none;fill-rule:nonzero;fill:#315d6a;fill-opacity:1;" d="M 175.023438 169.527344 C 174.867188 169.210938 174.71875 168.882812 174.546875 168.574219 C 173.441406 166.554688 171.773438 165.417969 169.417969 165.410156 C 167.039062 165.402344 165.210938 166.433594 164.144531 168.53125 C 162.910156 170.96875 163.460938 173.246094 165.128906 175.316406 L 166.808594 176.488281 C 168.109375 176.894531 169.4375 177.1875 170.792969 176.808594 C 173.425781 176.066406 174.777344 174.214844 175.222656 171.613281 C 175.15625 170.921875 175.089844 170.226562 175.023438 169.53125 Z M 169.351562 174.0625 C 167.757812 174.054688 166.4375 172.738281 166.441406 171.167969 C 166.449219 169.597656 167.785156 168.285156 169.371094 168.292969 C 170.875 168.296875 172.183594 169.601562 172.207031 171.128906 C 172.234375 172.703125 170.902344 174.074219 169.351562 174.0625 Z M 169.351562 174.0625 "/><path style=" stroke:none;fill-rule:nonzero;fill:#315d6a;fill-opacity:1;" d="M 196.757812 168.632812 C 193.03125 166.765625 189.644531 167.917969 188.019531 171.605469 L 187.628906 173.539062 C 187.703125 173.972656 187.753906 174.410156 187.851562 174.835938 C 188.699219 178.542969 192.929688 180.445312 196.285156 178.65625 C 198.925781 177.246094 200.589844 173.566406 198.21875 169.988281 C 197.730469 169.535156 197.246094 169.085938 196.757812 168.632812 Z M 193.554688 176.441406 C 192.03125 176.460938 190.632812 175.070312 190.644531 173.542969 C 190.652344 171.917969 191.914062 170.683594 193.558594 170.695312 C 195.195312 170.710938 196.441406 171.980469 196.410156 173.601562 C 196.378906 175.082031 195.03125 176.421875 193.554688 176.441406 Z M 193.554688 176.441406 "/><path style=" stroke:none;fill-rule:nonzero;fill:#315d6a;fill-opacity:1;" d="M 132.421875 190.449219 C 131.726562 187.09375 128.453125 185.144531 125.125 186.042969 C 121.09375 187.132812 119.089844 192.507812 122.992188 196.144531 L 124.746094 197.171875 C 128.917969 197.710938 130.636719 196.839844 132.390625 193.289062 C 132.472656 192.570312 132.550781 191.847656 132.632812 191.128906 C 132.5625 190.902344 132.472656 190.679688 132.421875 190.449219 Z M 129.617188 191.707031 C 129.570312 193.238281 128.257812 194.515625 126.734375 194.515625 C 125.160156 194.515625 123.828125 193.164062 123.851562 191.589844 C 123.875 190.015625 125.222656 188.707031 126.792969 188.742188 C 128.363281 188.777344 129.664062 190.144531 129.617188 191.707031 Z M 129.617188 191.707031 "/><path style=" stroke:none;fill-rule:nonzero;fill:#315d6a;fill-opacity:1;" d="M 166.84375 231.117188 C 158.34375 231.128906 149.84375 231.125 141.347656 231.109375 C 140.523438 231.109375 140.132812 231.210938 140.121094 232.191406 C 140.113281 233.253906 140.65625 233.21875 141.398438 233.214844 C 145.628906 233.199219 149.855469 233.207031 154.085938 233.207031 C 158.316406 233.207031 162.546875 233.207031 166.773438 233.207031 C 167.488281 233.207031 168.214844 233.390625 168.230469 232.199219 C 168.242188 231.070312 167.613281 231.117188 166.84375 231.117188 Z M 166.84375 231.117188 "/><path style=" stroke:none;fill-rule:nonzero;fill:#315d6a;fill-opacity:1;" d="M 167.003906 235.207031 C 162.695312 235.222656 158.386719 235.214844 154.074219 235.214844 C 149.804688 235.214844 145.535156 235.230469 141.265625 235.199219 C 140.46875 235.191406 140.121094 235.347656 140.128906 236.242188 C 140.136719 237.089844 140.398438 237.316406 141.234375 237.316406 C 149.8125 237.289062 158.394531 237.285156 166.972656 237.308594 C 167.789062 237.3125 168.234375 237.183594 168.222656 236.210938 C 168.214844 235.265625 167.738281 235.203125 167.003906 235.207031 Z M 167.003906 235.207031 "/><path style=" stroke:none;fill-rule:nonzero;fill:#315d6a;fill-opacity:1;" d="M 141.136719 220.515625 C 149.804688 220.484375 158.472656 220.484375 167.140625 220.511719 C 167.878906 220.511719 168.21875 220.378906 168.21875 219.535156 C 168.21875 218.695312 167.882812 218.554688 167.140625 218.558594 C 162.828125 218.585938 158.515625 218.574219 154.203125 218.574219 C 149.847656 218.574219 145.492188 218.585938 141.140625 218.5625 C 140.449219 218.558594 140.125 218.683594 140.136719 219.476562 C 140.152344 220.222656 140.304688 220.519531 141.136719 220.515625 Z M 141.136719 220.515625 "/><path style=" stroke:none;fill-rule:nonzero;fill:#315d6a;fill-opacity:1;" d="M 141.355469 224.59375 C 149.902344 224.585938 158.449219 224.585938 166.992188 224.59375 C 167.667969 224.59375 168.214844 224.671875 168.230469 223.652344 C 168.246094 222.5625 167.632812 222.65625 166.929688 222.660156 C 162.695312 222.667969 158.460938 222.667969 154.230469 222.664062 C 149.957031 222.664062 145.683594 222.667969 141.410156 222.65625 C 140.695312 222.65625 140.109375 222.574219 140.128906 223.660156 C 140.140625 224.679688 140.679688 224.59375 141.355469 224.59375 Z M 141.355469 224.59375 "/><path style=" stroke:none;fill-rule:nonzero;fill:#315d6a;fill-opacity:1;" d="M 122.992188 196.144531 C 119.054688 203.84375 115.117188 211.546875 111.175781 219.246094 C 111.96875 219.25 112.539062 219.648438 112.984375 220.265625 C 114.304688 217.660156 115.625 215.054688 116.945312 212.453125 C 119.542969 207.359375 122.144531 202.261719 124.746094 197.171875 C 124.003906 197.09375 123.335938 196.894531 122.992188 196.144531 Z M 122.992188 196.144531 "/><path style=" stroke:none;fill-rule:nonzero;fill:#315d6a;fill-opacity:1;" d="M 111.175781 219.246094 L 112.984375 220.261719 C 112.539062 219.648438 111.96875 219.25 111.175781 219.246094 Z M 111.175781 219.246094 "/><path style=" stroke:none;fill-rule:nonzero;fill:#315d6a;fill-opacity:1;" d="M 122.992188 196.144531 C 123.335938 196.894531 124.003906 197.09375 124.746094 197.171875 Z M 122.992188 196.144531 "/><path style=" stroke:none;fill-rule:nonzero;fill:#315d6a;fill-opacity:1;" d="M 165.128906 175.316406 L 153.960938 195.800781 C 154.78125 195.757812 155.300781 196.210938 155.699219 196.859375 L 166.804688 176.488281 C 166.019531 176.417969 165.460938 176.027344 165.128906 175.316406 Z M 165.128906 175.316406 "/><path style=" stroke:none;fill-rule:nonzero;fill:#315d6a;fill-opacity:1;" d="M 153.960938 195.804688 L 155.699219 196.859375 C 155.300781 196.210938 154.785156 195.757812 153.960938 195.804688 Z M 153.960938 195.804688 "/><path style=" stroke:none;fill-rule:nonzero;fill:#315d6a;fill-opacity:1;" d="M 165.128906 175.316406 C 165.460938 176.027344 166.019531 176.417969 166.808594 176.488281 Z M 165.128906 175.316406 "/><path style=" stroke:none;fill-rule:nonzero;fill:#315d6a;fill-opacity:1;" d="M 244.960938 164.4375 C 249.808594 158.585938 254.660156 152.734375 259.507812 146.882812 C 258.71875 146.796875 258.230469 146.359375 258.015625 145.609375 C 255.167969 149.007812 252.304688 152.394531 249.472656 155.800781 C 247.4375 158.257812 245.441406 160.746094 243.425781 163.21875 C 244.226562 163.261719 244.65625 163.773438 244.960938 164.4375 Z M 244.960938 164.4375 "/><path style=" stroke:none;fill-rule:nonzero;fill:#315d6a;fill-opacity:1;" d="M 259.507812 146.882812 L 258.015625 145.609375 C 258.230469 146.359375 258.71875 146.796875 259.507812 146.882812 Z M 259.507812 146.882812 "/><path style=" stroke:none;fill-rule:nonzero;fill:#315d6a;fill-opacity:1;" d="M 244.960938 164.4375 C 244.65625 163.773438 244.230469 163.261719 243.425781 163.214844 Z M 244.960938 164.4375 "/><path style=" stroke:none;fill-rule:nonzero;fill:#315d6a;fill-opacity:1;" d="M 236.433594 164.238281 C 236.035156 164.054688 235.621094 163.890625 235.234375 163.679688 C 229.484375 160.558594 223.734375 157.433594 217.988281 154.304688 C 218.191406 155.085938 217.925781 155.726562 217.375 156.277344 L 235.25 165.917969 C 235.320312 165.132812 235.714844 164.570312 236.433594 164.238281 Z M 236.433594 164.238281 "/><path style=" stroke:none;fill-rule:nonzero;fill:#315d6a;fill-opacity:1;" d="M 217.984375 154.300781 C 217.78125 154.957031 217.578125 155.617188 217.375 156.273438 C 217.921875 155.722656 218.191406 155.085938 217.984375 154.300781 Z M 217.984375 154.300781 "/><path style=" stroke:none;fill-rule:nonzero;fill:#315d6a;fill-opacity:1;" d="M 236.433594 164.238281 C 235.714844 164.570312 235.320312 165.132812 235.25 165.914062 Z M 236.433594 164.238281 "/><path style=" stroke:none;fill-rule:nonzero;fill:#315d6a;fill-opacity:1;" d="M 147.414062 197.261719 L 132.632812 191.128906 C 132.765625 191.871094 132.964844 192.621094 132.390625 193.289062 C 133.945312 193.691406 135.363281 194.445312 136.832031 195.050781 C 140.003906 196.359375 143.148438 197.738281 146.300781 199.085938 C 146.335938 198.273438 146.640625 197.628906 147.414062 197.261719 Z M 147.414062 197.261719 "/><path style=" stroke:none;fill-rule:nonzero;fill:#315d6a;fill-opacity:1;" d="M 146.300781 199.085938 L 147.414062 197.265625 C 146.640625 197.628906 146.335938 198.273438 146.300781 199.085938 Z M 146.300781 199.085938 "/><path style=" stroke:none;fill-rule:nonzero;fill:#315d6a;fill-opacity:1;" d="M 132.632812 191.128906 C 132.550781 191.847656 132.472656 192.566406 132.390625 193.289062 C 132.964844 192.625 132.765625 191.871094 132.632812 191.128906 Z M 132.632812 191.128906 "/><path style=" stroke:none;fill-rule:nonzero;fill:#315d6a;fill-opacity:1;" d="M 207.246094 156.785156 C 206.050781 158.128906 204.851562 159.472656 203.65625 160.820312 C 201.355469 163.421875 199.054688 166.027344 196.757812 168.632812 C 197.5625 168.746094 197.945312 169.304688 198.21875 169.988281 L 208.660156 158.242188 C 207.789062 158.136719 207.394531 157.578125 207.246094 156.785156 Z M 207.246094 156.785156 "/><path style=" stroke:none;fill-rule:nonzero;fill:#315d6a;fill-opacity:1;" d="M 207.246094 156.785156 C 207.394531 157.578125 207.789062 158.136719 208.660156 158.242188 Z M 207.246094 156.785156 "/><path style=" stroke:none;fill-rule:nonzero;fill:#315d6a;fill-opacity:1;" d="M 196.757812 168.632812 C 197.246094 169.085938 197.730469 169.535156 198.21875 169.988281 C 197.945312 169.304688 197.558594 168.746094 196.757812 168.632812 Z M 196.757812 168.632812 "/><path style=" stroke:none;fill-rule:nonzero;fill:#315d6a;fill-opacity:1;" d="M 134.605469 218.8125 C 132.027344 218.8125 132.027344 218.8125 132.027344 221.332031 C 132.027344 224.015625 132.027344 224.015625 134.714844 224.015625 C 137.414062 224.015625 137.414062 224.015625 137.414062 221.578125 C 137.414062 218.8125 137.414062 218.8125 134.605469 218.8125 Z M 134.605469 218.8125 "/><path style=" stroke:none;fill-rule:nonzero;fill:#315d6a;fill-opacity:1;" d="M 134.648438 231.652344 C 132.027344 231.652344 132.027344 231.652344 132.027344 234.285156 C 132.027344 236.859375 132.027344 236.859375 134.667969 236.859375 C 137.414062 236.859375 137.414062 236.859375 137.414062 234.386719 C 137.414062 231.652344 137.414062 231.652344 134.648438 231.652344 Z M 134.648438 231.652344 "/><path style=" stroke:none;fill-rule:nonzero;fill:#315d6a;fill-opacity:1;" d="M 188.015625 171.605469 L 175.023438 169.527344 C 175.472656 170.1875 175.433594 170.890625 175.222656 171.613281 L 187.628906 173.539062 C 187.414062 172.828125 187.410156 172.15625 188.015625 171.605469 Z M 188.015625 171.605469 "/><path style=" stroke:none;fill-rule:nonzero;fill:#315d6a;fill-opacity:1;" d="M 175.023438 169.527344 C 175.089844 170.222656 175.15625 170.917969 175.222656 171.613281 C 175.4375 170.890625 175.472656 170.1875 175.023438 169.527344 Z M 175.023438 169.527344 "/><path style=" stroke:none;fill-rule:nonzero;fill:#315d6a;fill-opacity:1;" d="M 188.015625 171.605469 C 187.410156 172.15625 187.414062 172.824219 187.628906 173.539062 Z M 188.015625 171.605469 "/><path style=" stroke:none;fill-rule:nonzero;fill:#315d6a;fill-opacity:1;" d="M 126.527344 158.125 C 123.515625 158.125 120.480469 158.136719 117.394531 158.136719 C 118.757812 168.015625 123.691406 174.269531 132.191406 177.324219 C 140.046875 180.148438 147.550781 179.105469 154.753906 173.375 C 152.605469 171.257812 150.515625 169.191406 148.457031 167.15625 C 147.261719 168.0625 145.953125 168.753906 144.527344 169.230469 C 143.105469 169.710938 141.640625 169.949219 140.136719 169.945312 C 133.179688 169.945312 127.433594 164.800781 126.527344 158.125 Z M 126.527344 158.125 "/><g clip-rule="nonzero" clip-path="url(#faa76bfdb5)"><path style=" stroke:none;fill-rule:nonzero;fill:#315d6a;fill-opacity:1;" d="M 153.875 156.277344 C 153.878906 157.78125 153.636719 159.246094 153.148438 160.671875 C 152.664062 162.097656 151.957031 163.40625 151.035156 164.597656 C 153.027344 166.628906 155.019531 168.664062 157.015625 170.695312 C 163.207031 163.972656 164.59375 154.773438 160.71875 146.738281 C 157.078125 139.1875 151.082031 134.816406 141.96875 133.71875 C 141.96875 136.804688 141.960938 139.792969 141.957031 142.726562 C 148.683594 143.613281 153.875 149.339844 153.875 156.277344 Z M 153.875 156.277344 "/></g><path style=" stroke:none;fill-rule:nonzero;fill:#315d6a;fill-opacity:1;" d="M 137.820312 142.800781 L 137.820312 134.203125 C 127.429688 134.179688 118.046875 143.484375 117.984375 153.914062 L 126.605469 153.914062 C 127.597656 148.238281 132.109375 143.765625 137.820312 142.800781 Z M 137.820312 142.800781 "/></g></svg>