<svg xmlns="http://www.w3.org/2000/svg" xmlns:xlink="http://www.w3.org/1999/xlink" width="500" zoomAndPan="magnify" viewBox="0 0 375 374.999991" height="500" preserveAspectRatio="xMidYMid meet" version="1.2"><defs><clipPath id="0d5e93874f"><path d="M 0 0 L 374.988281 0 L 374.988281 375 L 0 375 Z M 0 0 "/></clipPath><clipPath id="29ed4ea9ba"><path d="M 374.988281 74.996094 L 374.988281 300.007812 C 374.988281 319.898438 367.089844 338.976562 353.023438 353.042969 C 338.957031 367.105469 319.882812 375.007812 299.992188 375.007812 L 74.996094 375.007812 C 55.105469 375.007812 36.03125 367.105469 21.964844 353.042969 C 7.902344 338.976562 0 319.898438 0 300.007812 L 0 74.996094 C 0 33.578125 33.578125 0 74.996094 0 L 299.992188 0 C 319.882812 0 338.957031 7.902344 353.023438 21.964844 C 367.089844 36.03125 374.988281 55.105469 374.988281 74.996094 Z M 374.988281 74.996094 "/></clipPath><clipPath id="8ced6cc83c"><path d="M 0.0078125 0 L 375 0 L 375 375 L 0.0078125 375 Z M 0.0078125 0 "/></clipPath><clipPath id="75402edcd1"><path d="M 374.992188 74.996094 L 374.992188 300.003906 C 374.992188 319.894531 367.089844 338.96875 353.023438 353.035156 C 338.960938 367.097656 319.886719 375 299.996094 375 L 75.003906 375 C 55.113281 375 36.039062 367.097656 21.976562 353.035156 C 7.910156 338.96875 0.0078125 319.894531 0.0078125 300.003906 L 0.0078125 74.996094 C 0.0078125 33.578125 33.585938 0 75.003906 0 L 299.996094 0 C 319.886719 0 338.960938 7.902344 353.023438 21.964844 C 367.089844 36.03125 374.992188 55.105469 374.992188 74.996094 Z M 374.992188 74.996094 "/></clipPath><clipPath id="ece71415e4"><path d="M 201 247 L 238 247 L 238 250.25 L 201 250.25 Z M 201 247 "/></clipPath><clipPath id="77dc911608"><path d="M 171.140625 160 L 267.890625 160 L 267.890625 235 L 171.140625 235 Z M 171.140625 160 "/></clipPath><clipPath id="4dea3a2e62"><path d="M 177 153.5 L 262 153.5 L 262 214 L 177 214 Z M 177 153.5 "/></clipPath><clipPath id="e38aca7c2b"><path d="M 96.664062 92.011719 L 278.164062 92.011719 L 278.164062 260.761719 L 96.664062 260.761719 Z M 96.664062 92.011719 "/></clipPath></defs><g id="9288ebe737"><g clip-rule="nonzero" clip-path="url(#0d5e93874f)"><g clip-rule="nonzero" clip-path="url(#29ed4ea9ba)"><path style=" stroke:none;fill-rule:nonzero;fill:#426d41;fill-opacity:1;" d="M 0 0 L 374.988281 0 L 374.988281 374.988281 L 0 374.988281 Z M 0 0 "/></g></g><g clip-rule="nonzero" clip-path="url(#8ced6cc83c)"><g clip-rule="nonzero" clip-path="url(#75402edcd1)"><path style="fill:none;stroke-width:60;stroke-linecap:butt;stroke-linejoin:miter;stroke:#315d6a;stroke-opacity:1;stroke-miterlimit:4;" d="M 499.977898 99.994798 L 499.977898 400.005235 C 499.977898 426.52607 489.441439 451.958363 470.68623 470.713573 C 451.936228 489.463574 426.503935 500.000033 399.9831 500.000033 L 99.993497 500.000033 C 73.472662 500.000033 48.040369 489.463574 29.290367 470.713573 C 10.535158 451.958363 -0.00130128 426.52607 -0.00130128 400.005235 L -0.00130128 99.994798 C -0.00130128 44.770836 44.769535 0 99.993497 0 L 399.9831 0 C 426.503935 0 451.936228 10.536459 470.68623 29.28646 C 489.441439 48.04167 499.977898 73.473963 499.977898 99.994798 Z M 499.977898 99.994798 " transform="matrix(0.75,0,0,0.75,0.00878846,0)"/></g></g><path style=" stroke:none;fill-rule:nonzero;fill:#e4c57b;fill-opacity:1;" d="M 230.464844 246.109375 C 231.078125 246.109375 231.574219 245.613281 231.574219 245 L 231.574219 241.226562 C 231.574219 238.902344 229.683594 237.011719 227.359375 237.011719 L 211.824219 237.011719 C 209.5 237.011719 207.609375 238.902344 207.609375 241.226562 L 207.609375 245 C 207.609375 245.613281 208.105469 246.109375 208.71875 246.109375 C 209.332031 246.109375 209.828125 245.613281 209.828125 245 L 209.828125 241.226562 C 209.828125 240.125 210.722656 239.226562 211.824219 239.226562 L 227.359375 239.226562 C 228.460938 239.226562 229.359375 240.125 229.359375 241.226562 L 229.359375 245 C 229.359375 245.613281 229.855469 246.109375 230.464844 246.109375 Z M 230.464844 246.109375 "/><g clip-rule="nonzero" clip-path="url(#ece71415e4)"><path style=" stroke:none;fill-rule:nonzero;fill:#e4c57b;fill-opacity:1;" d="M 201.84375 249.066406 C 201.84375 249.679688 202.339844 250.175781 202.949219 250.175781 L 236.234375 250.175781 C 236.84375 250.175781 237.339844 249.679688 237.339844 249.066406 C 237.339844 248.457031 236.84375 247.960938 236.234375 247.960938 L 202.949219 247.960938 C 202.339844 247.960938 201.84375 248.457031 201.84375 249.066406 Z M 201.84375 249.066406 "/></g><g clip-rule="nonzero" clip-path="url(#77dc911608)"><path style=" stroke:none;fill-rule:nonzero;fill:#e4c57b;fill-opacity:1;" d="M 267.964844 222.738281 L 267.964844 170.09375 C 267.964844 164.898438 263.742188 160.667969 258.554688 160.667969 L 241.714844 160.667969 C 241.105469 160.667969 240.609375 161.164062 240.609375 161.777344 C 240.609375 162.386719 241.105469 162.882812 241.714844 162.882812 L 258.554688 162.882812 C 262.523438 162.882812 265.75 166.117188 265.75 170.09375 L 265.75 221.636719 L 173.429688 221.636719 L 173.429688 170.09375 C 173.429688 166.117188 176.664062 162.882812 180.636719 162.882812 L 197.460938 162.882812 C 198.074219 162.882812 198.570312 162.386719 198.570312 161.777344 C 198.570312 161.164062 198.074219 160.667969 197.460938 160.667969 L 180.636719 160.667969 C 175.441406 160.667969 171.214844 164.898438 171.214844 170.09375 L 171.214844 224.921875 C 171.214844 230.121094 175.441406 234.347656 180.636719 234.347656 L 258.554688 234.347656 C 263.742188 234.347656 267.964844 230.121094 267.964844 224.921875 L 267.964844 222.75 C 267.964844 222.75 267.964844 222.746094 267.964844 222.746094 C 267.964844 222.742188 267.964844 222.738281 267.964844 222.738281 Z M 258.554688 232.132812 L 180.636719 232.132812 C 176.664062 232.132812 173.429688 228.898438 173.429688 224.921875 L 173.429688 223.851562 L 265.75 223.851562 L 265.75 224.921875 C 265.75 228.898438 262.523438 232.132812 258.554688 232.132812 Z M 258.554688 232.132812 "/></g><path style=" stroke:none;fill-rule:nonzero;fill:#e4c57b;fill-opacity:1;" d="M 229.558594 192.796875 L 227.59375 192.5 C 227.507812 192.265625 227.402344 192.011719 227.300781 191.777344 L 228.480469 190.183594 C 228.804688 189.738281 228.761719 189.132812 228.378906 188.734375 L 226.234375 186.605469 C 225.851562 186.222656 225.230469 186.179688 224.804688 186.503906 L 223.191406 187.683594 C 222.957031 187.582031 222.71875 187.480469 222.46875 187.390625 L 222.1875 185.425781 C 222.113281 184.878906 221.640625 184.480469 221.097656 184.480469 L 218.097656 184.480469 C 217.535156 184.480469 217.078125 184.878906 216.988281 185.425781 L 216.707031 187.390625 C 216.457031 187.480469 216.222656 187.582031 215.984375 187.683594 L 214.390625 186.503906 C 213.945312 186.179688 213.328125 186.222656 212.941406 186.605469 L 210.816406 188.734375 C 210.417969 189.132812 210.371094 189.738281 210.710938 190.183594 L 211.894531 191.777344 C 211.773438 192.011719 211.6875 192.265625 211.597656 192.5 L 209.632812 192.796875 C 209.085938 192.871094 208.6875 193.34375 208.6875 193.890625 L 208.6875 196.886719 C 208.6875 197.433594 209.085938 197.90625 209.632812 197.980469 L 211.597656 198.277344 C 211.6875 198.511719 211.773438 198.75 211.894531 198.984375 L 210.710938 200.59375 C 210.371094 201.023438 210.417969 201.644531 210.816406 202.027344 L 212.941406 204.171875 C 213.328125 204.554688 213.945312 204.597656 214.390625 204.273438 L 215.984375 203.089844 C 216.222656 203.195312 216.457031 203.296875 216.707031 203.386719 L 216.988281 205.351562 C 217.078125 205.898438 217.535156 206.296875 218.097656 206.296875 L 221.097656 206.296875 C 221.640625 206.296875 222.113281 205.898438 222.1875 205.351562 L 222.46875 203.386719 C 222.71875 203.296875 222.957031 203.195312 223.191406 203.089844 L 224.804688 204.273438 C 225.230469 204.597656 225.851562 204.554688 226.234375 204.171875 L 228.378906 202.027344 C 228.761719 201.644531 228.804688 201.023438 228.480469 200.59375 L 227.300781 198.984375 C 227.402344 198.75 227.507812 198.511719 227.59375 198.277344 L 229.558594 197.980469 C 230.089844 197.90625 230.503906 197.433594 230.503906 196.886719 L 230.503906 193.890625 C 230.503906 193.34375 230.089844 192.871094 229.558594 192.796875 Z M 219.589844 199.5625 C 217.300781 199.5625 215.421875 197.683594 215.421875 195.382812 C 215.421875 193.089844 217.300781 191.214844 219.589844 191.214844 C 221.894531 191.214844 223.753906 193.089844 223.753906 195.382812 C 223.753906 197.683594 221.894531 199.5625 219.589844 199.5625 Z M 219.589844 199.5625 "/><path style=" stroke:none;fill-rule:nonzero;fill:#e4c57b;fill-opacity:1;" d="M 193.832031 203.882812 C 192.046875 203.882812 190.59375 205.339844 190.59375 207.125 C 190.59375 207.6875 190.132812 208.148438 189.570312 208.148438 L 185.746094 208.148438 C 185.273438 206.65625 183.890625 205.5625 182.242188 205.5625 C 180.207031 205.5625 178.550781 207.21875 178.550781 209.253906 C 178.550781 211.292969 180.207031 212.949219 182.242188 212.949219 C 183.890625 212.949219 185.273438 211.855469 185.746094 210.363281 L 189.570312 210.363281 C 191.355469 210.363281 192.808594 208.910156 192.808594 207.125 C 192.808594 206.558594 193.269531 206.101562 193.832031 206.101562 L 197.734375 206.101562 C 198.34375 206.101562 198.839844 205.601562 198.839844 204.992188 C 198.839844 204.378906 198.34375 203.882812 197.734375 203.882812 Z M 193.832031 203.882812 "/><path style=" stroke:none;fill-rule:nonzero;fill:#e4c57b;fill-opacity:1;" d="M 182.242188 177.828125 C 180.207031 177.828125 178.550781 179.484375 178.550781 181.519531 C 178.550781 183.554688 180.207031 185.210938 182.242188 185.210938 C 183.078125 185.210938 183.839844 184.925781 184.457031 184.457031 L 187.480469 186.59375 C 188.804688 187.527344 190.359375 188.023438 191.980469 188.023438 L 197.734375 188.023438 C 198.34375 188.023438 198.839844 187.527344 198.839844 186.914062 C 198.839844 186.304688 198.34375 185.808594 197.734375 185.808594 L 191.980469 185.808594 C 190.820312 185.808594 189.707031 185.453125 188.757812 184.785156 L 185.742188 182.648438 C 185.855469 182.292969 185.9375 181.917969 185.9375 181.519531 C 185.9375 179.484375 184.28125 177.828125 182.242188 177.828125 Z M 182.242188 177.828125 "/><path style=" stroke:none;fill-rule:nonzero;fill:#e4c57b;fill-opacity:1;" d="M 247.203125 185.808594 L 241.453125 185.808594 C 240.839844 185.808594 240.34375 186.304688 240.34375 186.914062 C 240.34375 187.527344 240.839844 188.023438 241.453125 188.023438 L 247.203125 188.023438 C 248.824219 188.023438 250.378906 187.527344 251.703125 186.59375 L 254.726562 184.457031 C 255.34375 184.925781 256.105469 185.210938 256.941406 185.210938 C 258.976562 185.210938 260.632812 183.554688 260.632812 181.519531 C 260.632812 179.484375 258.976562 177.828125 256.941406 177.828125 C 254.902344 177.828125 253.246094 179.484375 253.246094 181.519531 C 253.246094 181.917969 253.328125 182.289062 253.441406 182.648438 L 250.421875 184.785156 C 249.476562 185.453125 248.363281 185.808594 247.203125 185.808594 Z M 247.203125 185.808594 "/><g clip-rule="nonzero" clip-path="url(#4dea3a2e62)"><path style=" stroke:none;fill-rule:nonzero;fill:#e4c57b;fill-opacity:1;" d="M 256.941406 191.195312 C 254.675781 191.195312 252.785156 192.777344 252.28125 194.890625 L 237.339844 194.890625 L 237.339844 183.175781 C 237.339844 180.125 234.855469 177.636719 231.800781 177.636719 L 221.308594 177.636719 L 221.308594 162.886719 C 223.421875 162.382812 225 160.492188 225 158.226562 C 225 155.578125 222.847656 153.425781 220.199219 153.425781 C 217.554688 153.425781 215.398438 155.578125 215.398438 158.226562 C 215.398438 160.492188 216.980469 162.382812 219.09375 162.886719 L 219.09375 177.636719 L 207.382812 177.636719 C 204.328125 177.636719 201.84375 180.125 201.84375 183.175781 L 201.84375 194.890625 L 186.902344 194.890625 C 186.398438 192.777344 184.507812 191.195312 182.242188 191.195312 C 179.597656 191.195312 177.441406 193.347656 177.441406 195.996094 C 177.441406 198.644531 179.597656 200.796875 182.242188 200.796875 C 184.507812 200.796875 186.398438 199.214844 186.902344 197.105469 L 201.84375 197.105469 L 201.84375 207.597656 C 201.84375 210.652344 204.328125 213.136719 207.382812 213.136719 L 231.800781 213.136719 C 234.855469 213.136719 237.339844 210.652344 237.339844 207.597656 L 237.339844 197.105469 L 252.28125 197.105469 C 252.785156 199.214844 254.675781 200.796875 256.941406 200.796875 C 259.585938 200.796875 261.742188 198.644531 261.742188 195.996094 C 261.742188 193.347656 259.585938 191.195312 256.941406 191.195312 Z M 217.617188 158.226562 C 217.617188 156.800781 218.777344 155.640625 220.199219 155.640625 C 221.625 155.640625 222.785156 156.800781 222.785156 158.226562 C 222.785156 159.652344 221.625 160.8125 220.199219 160.8125 C 218.777344 160.8125 217.617188 159.652344 217.617188 158.226562 Z M 182.242188 198.582031 C 180.816406 198.582031 179.660156 197.421875 179.660156 195.996094 C 179.660156 194.570312 180.816406 193.410156 182.242188 193.410156 C 183.667969 193.410156 184.828125 194.570312 184.828125 195.996094 C 184.828125 197.421875 183.667969 198.582031 182.242188 198.582031 Z M 235.125 207.597656 C 235.125 209.429688 233.632812 210.921875 231.800781 210.921875 L 207.382812 210.921875 C 205.550781 210.921875 204.058594 209.429688 204.058594 207.597656 L 204.058594 183.175781 C 204.058594 181.34375 205.550781 179.855469 207.382812 179.855469 C 216.496094 179.855469 222.71875 179.855469 231.800781 179.855469 C 233.632812 179.855469 235.125 181.34375 235.125 183.175781 Z M 256.941406 198.582031 C 255.515625 198.582031 254.355469 197.421875 254.355469 195.996094 C 254.355469 194.570312 255.515625 193.410156 256.941406 193.410156 C 258.367188 193.410156 259.527344 194.570312 259.527344 195.996094 C 259.527344 197.421875 258.367188 198.582031 256.941406 198.582031 Z M 256.941406 198.582031 "/></g><path style=" stroke:none;fill-rule:nonzero;fill:#e4c57b;fill-opacity:1;" d="M 256.941406 205.5625 C 255.292969 205.5625 253.910156 206.65625 253.4375 208.148438 L 249.613281 208.148438 C 249.050781 208.148438 248.589844 207.6875 248.589844 207.125 C 248.589844 205.339844 247.136719 203.882812 245.351562 203.882812 L 241.453125 203.882812 C 240.839844 203.882812 240.34375 204.378906 240.34375 204.992188 C 240.34375 205.601562 240.839844 206.101562 241.453125 206.101562 L 245.351562 206.101562 C 245.914062 206.101562 246.375 206.558594 246.375 207.125 C 246.375 208.910156 247.828125 210.363281 249.613281 210.363281 L 253.4375 210.363281 C 253.910156 211.855469 255.292969 212.949219 256.941406 212.949219 C 258.976562 212.949219 260.632812 211.292969 260.632812 209.253906 C 260.632812 207.21875 258.976562 205.5625 256.941406 205.5625 Z M 256.941406 205.5625 "/><path style=" stroke:none;fill-rule:nonzero;fill:#e4c57b;fill-opacity:1;" d="M 211.90625 174.496094 C 212.105469 174.296875 212.230469 174.019531 212.230469 173.710938 L 212.230469 167.964844 C 212.230469 166.34375 211.738281 164.785156 210.804688 163.46875 L 208.660156 160.441406 C 209.128906 159.820312 209.417969 159.058594 209.417969 158.226562 C 209.417969 156.191406 207.761719 154.535156 205.722656 154.535156 C 203.6875 154.535156 202.03125 156.191406 202.03125 158.226562 C 202.03125 160.261719 203.6875 161.917969 205.722656 161.917969 C 206.121094 161.917969 206.496094 161.839844 206.851562 161.722656 L 208.988281 164.742188 C 209.65625 165.691406 210.011719 166.804688 210.011719 167.964844 L 210.011719 173.71875 C 210.011719 174.703125 211.210938 175.195312 211.90625 174.496094 Z M 211.90625 174.496094 "/><path style=" stroke:none;fill-rule:nonzero;fill:#e4c57b;fill-opacity:1;" d="M 229.195312 174.824219 C 229.808594 174.824219 230.304688 174.328125 230.304688 173.71875 L 230.304688 169.820312 C 230.304688 169.253906 230.765625 168.792969 231.328125 168.792969 C 233.113281 168.792969 234.566406 167.339844 234.566406 165.554688 L 234.566406 161.730469 C 236.0625 161.257812 237.152344 159.875 237.152344 158.226562 C 237.152344 156.191406 235.496094 154.535156 233.460938 154.535156 C 231.421875 154.535156 229.765625 156.191406 229.765625 158.226562 C 229.765625 159.875 230.859375 161.257812 232.351562 161.730469 L 232.351562 161.777344 C 232.351562 161.78125 232.351562 161.78125 232.351562 161.785156 L 232.351562 165.554688 C 232.351562 166.117188 231.890625 166.578125 231.328125 166.578125 C 229.542969 166.578125 228.089844 168.03125 228.089844 169.820312 L 228.089844 173.71875 C 228.089844 174.328125 228.585938 174.824219 229.195312 174.824219 Z M 229.195312 174.824219 "/><g clip-rule="nonzero" clip-path="url(#e38aca7c2b)"><path style=" stroke:none;fill-rule:nonzero;fill:#e4c57b;fill-opacity:1;" d="M 276.949219 144.976562 L 204.714844 92.898438 C 204.699219 92.882812 204.660156 92.863281 204.625 92.84375 C 204.535156 92.789062 204.445312 92.738281 204.351562 92.683594 C 204.28125 92.644531 204.207031 92.609375 204.117188 92.574219 C 204.027344 92.535156 203.953125 92.519531 203.863281 92.484375 C 203.773438 92.464844 203.679688 92.429688 203.589844 92.410156 C 203.5 92.390625 203.425781 92.390625 203.335938 92.375 C 203.246094 92.375 203.15625 92.355469 203.0625 92.355469 C 202.972656 92.355469 202.882812 92.355469 202.792969 92.375 C 202.703125 92.375 202.609375 92.390625 202.539062 92.410156 C 202.449219 92.429688 202.355469 92.445312 202.265625 92.484375 C 202.175781 92.5 202.085938 92.535156 202.011719 92.574219 C 201.9375 92.609375 201.867188 92.644531 201.777344 92.683594 C 201.683594 92.738281 201.59375 92.773438 201.503906 92.84375 C 201.46875 92.863281 201.449219 92.882812 201.414062 92.898438 L 129.179688 144.976562 C 127.925781 145.863281 127.652344 147.605469 128.542969 148.859375 C 129.085938 149.601562 129.941406 150.019531 130.792969 150.019531 C 131.355469 150.019531 131.917969 149.855469 132.40625 149.492188 L 203.027344 98.578125 L 272.488281 148.660156 L 272.488281 254.863281 L 133.640625 254.863281 L 133.640625 230.820312 C 151.207031 229.40625 165.070312 214.6875 165.070312 196.761719 C 165.070312 195.21875 163.816406 193.984375 162.292969 193.984375 C 148.210938 193.984375 136.109375 202.53125 130.867188 214.707031 C 125.621094 202.53125 113.519531 193.984375 99.4375 193.984375 C 97.894531 193.984375 96.664062 195.238281 96.664062 196.761719 C 96.664062 214.6875 110.523438 229.40625 128.089844 230.820312 L 128.089844 257.621094 C 128.089844 259.164062 129.339844 260.394531 130.867188 260.394531 L 275.335938 260.394531 C 276.878906 260.394531 278.113281 259.144531 278.113281 257.621094 L 278.113281 147.226562 C 278.113281 146.335938 277.675781 145.503906 276.949219 144.976562 Z M 159.351562 199.683594 C 157.972656 213.148438 147.25 223.886719 133.785156 225.25 C 135.164062 211.804688 145.890625 201.0625 159.351562 199.683594 Z M 102.359375 199.683594 C 115.824219 201.0625 126.566406 211.785156 127.925781 225.25 C 114.480469 223.886719 103.738281 213.148438 102.359375 199.683594 Z M 102.359375 199.683594 "/></g><path style=" stroke:none;fill-rule:nonzero;fill:#e4c57b;fill-opacity:1;" d="M 130.867188 203.910156 C 131.609375 203.910156 132.316406 203.621094 132.824219 203.09375 C 146.160156 189.757812 146.160156 168.054688 132.824219 154.738281 C 132.300781 154.210938 131.589844 153.921875 130.867188 153.921875 C 130.140625 153.921875 129.414062 154.210938 128.90625 154.738281 C 122.445312 161.199219 118.890625 169.78125 118.890625 178.925781 C 118.890625 188.050781 122.445312 196.652344 128.90625 203.113281 C 129.414062 203.621094 130.121094 203.910156 130.867188 203.910156 Z M 130.867188 160.835938 C 139.410156 171.324219 139.410156 186.511719 130.867188 196.996094 C 126.710938 191.898438 124.441406 185.585938 124.441406 178.90625 C 124.441406 172.246094 126.691406 165.933594 130.867188 160.835938 Z M 130.867188 160.835938 "/></g></svg>