<svg xmlns="http://www.w3.org/2000/svg" xmlns:xlink="http://www.w3.org/1999/xlink" width="500" zoomAndPan="magnify" viewBox="0 0 375 374.999991" height="500" preserveAspectRatio="xMidYMid meet" version="1.2"><defs><clipPath id="fc9b4e60ac"><path d="M 0.0078125 0 L 375 0 L 375 375 L 0.0078125 375 Z M 0.0078125 0 "/></clipPath><clipPath id="313bc0bf14"><path d="M 374.992188 74.996094 L 374.992188 300.003906 C 374.992188 319.894531 367.089844 338.96875 353.023438 353.035156 C 338.960938 367.097656 319.886719 375 299.996094 375 L 75.003906 375 C 55.113281 375 36.039062 367.097656 21.976562 353.035156 C 7.910156 338.96875 0.0078125 319.894531 0.0078125 300.003906 L 0.0078125 74.996094 C 0.0078125 33.578125 33.585938 0 75.003906 0 L 299.996094 0 C 319.886719 0 338.960938 7.902344 353.023438 21.964844 C 367.089844 36.03125 374.992188 55.105469 374.992188 74.996094 Z M 374.992188 74.996094 "/></clipPath><clipPath id="cf1a9ba626"><path d="M 103.203125 103.207031 L 271.953125 103.207031 L 271.953125 271.957031 L 103.203125 271.957031 Z M 103.203125 103.207031 "/></clipPath><clipPath id="abc7123d69"><path d="M 163 187 L 212 187 L 212 271.957031 L 163 271.957031 Z M 163 187 "/></clipPath></defs><g id="2a00e7e1f1"><g clip-rule="nonzero" clip-path="url(#fc9b4e60ac)"><g clip-rule="nonzero" clip-path="url(#313bc0bf14)"><path style="fill:none;stroke-width:60;stroke-linecap:butt;stroke-linejoin:miter;stroke:#315d6a;stroke-opacity:1;stroke-miterlimit:4;" d="M 499.977898 99.994798 L 499.977898 400.005235 C 499.977898 426.52607 489.441439 451.958363 470.68623 470.713573 C 451.936228 489.463574 426.503935 500.000033 399.9831 500.000033 L 99.993497 500.000033 C 73.472662 500.000033 48.040369 489.463574 29.290367 470.713573 C 10.535158 451.958363 -0.00130128 426.52607 -0.00130128 400.005235 L -0.00130128 99.994798 C -0.00130128 44.770836 44.769535 0 99.993497 0 L 399.9831 0 C 426.503935 0 451.936228 10.536459 470.68623 29.28646 C 489.441439 48.04167 499.977898 73.473963 499.977898 99.994798 Z M 499.977898 99.994798 " transform="matrix(0.75,0,0,0.75,0.00878846,0)"/></g></g><g clip-rule="nonzero" clip-path="url(#cf1a9ba626)"><path style=" stroke:none;fill-rule:nonzero;fill:#315d6a;fill-opacity:1;" d="M 187.496094 103.207031 C 141.039062 103.207031 103.269531 140.980469 103.269531 187.433594 L 103.269531 269.03125 C 103.269531 270.476562 104.453125 271.664062 105.902344 271.664062 C 107.351562 271.664062 108.535156 270.476562 108.535156 269.03125 L 108.535156 187.433594 C 108.535156 179.011719 109.851562 170.851562 112.351562 163.21875 L 124.195312 168.878906 C 122.617188 174.539062 121.695312 180.59375 121.695312 186.777344 L 121.695312 229.550781 C 121.695312 230.996094 122.878906 232.179688 124.328125 232.179688 C 125.773438 232.179688 126.960938 230.996094 126.960938 229.550781 L 126.960938 186.777344 C 126.960938 181.382812 127.617188 176.117188 129.066406 171.117188 L 141.304688 176.90625 C 140.515625 180.328125 140.121094 183.882812 140.121094 187.433594 L 140.121094 211.125 C 140.121094 212.570312 141.304688 213.757812 142.75 213.757812 C 144.199219 213.757812 145.382812 212.570312 145.382812 211.125 L 145.382812 187.433594 C 145.382812 184.671875 145.648438 181.90625 146.171875 179.277344 L 158.675781 185.199219 C 158.675781 185.988281 158.542969 186.644531 158.542969 187.433594 L 158.542969 197.964844 C 158.542969 199.410156 159.730469 200.597656 161.175781 200.597656 C 162.625 200.597656 163.808594 199.410156 163.808594 197.964844 L 163.808594 187.433594 C 163.808594 174.40625 174.46875 163.746094 187.496094 163.746094 C 200.527344 163.746094 211.1875 174.40625 211.1875 187.433594 L 211.1875 197.964844 C 211.1875 199.410156 212.371094 200.597656 213.820312 200.597656 C 215.265625 200.597656 216.449219 199.410156 216.449219 197.964844 L 216.449219 187.433594 C 216.449219 186.644531 216.449219 185.988281 216.320312 185.199219 L 228.820312 179.277344 C 229.347656 181.90625 229.609375 184.671875 229.609375 187.433594 L 229.609375 210.859375 C 229.609375 212.308594 230.796875 213.492188 232.242188 213.492188 C 233.691406 213.492188 234.875 212.308594 234.875 210.859375 L 234.875 187.433594 C 234.875 183.882812 234.480469 180.328125 233.691406 177.039062 L 245.929688 171.25 C 247.246094 176.25 248.035156 181.511719 248.035156 186.910156 L 248.035156 229.550781 C 248.035156 230.996094 249.21875 232.179688 250.667969 232.179688 C 252.117188 232.179688 253.300781 230.996094 253.300781 229.550781 L 253.300781 186.777344 C 253.300781 180.59375 252.378906 174.539062 250.800781 168.878906 L 262.644531 163.21875 C 265.144531 170.851562 266.460938 179.011719 266.460938 187.433594 L 266.460938 269.03125 C 266.460938 270.476562 267.644531 271.664062 269.09375 271.664062 C 270.539062 271.664062 271.726562 270.476562 271.726562 269.03125 L 271.726562 187.433594 C 271.726562 140.980469 233.953125 103.207031 187.496094 103.207031 Z M 205 164.40625 C 200.789062 161.246094 195.65625 159.140625 190.128906 158.613281 C 190.128906 158.613281 190.128906 158.480469 190.128906 158.480469 L 190.128906 145.453125 C 198.289062 145.980469 205.789062 148.742188 212.109375 153.351562 Z M 169.992188 164.40625 L 162.886719 153.351562 C 169.203125 148.875 176.707031 145.980469 184.867188 145.453125 L 184.867188 158.480469 C 184.867188 158.480469 184.867188 158.613281 184.867188 158.613281 C 179.339844 159.140625 174.207031 161.113281 169.992188 164.40625 Z M 184.867188 121.105469 C 171.835938 121.632812 159.730469 125.976562 149.726562 132.949219 L 142.882812 122.292969 C 154.859375 114.132812 169.335938 109 184.867188 108.605469 Z M 184.867188 126.371094 L 184.867188 140.1875 C 175.652344 140.714844 167.097656 143.875 159.992188 148.875 L 152.621094 137.425781 C 161.835938 130.84375 172.890625 126.765625 184.867188 126.371094 Z M 190.128906 140.1875 L 190.128906 126.371094 C 202.105469 126.898438 213.160156 130.84375 222.371094 137.425781 L 214.871094 148.875 C 207.894531 143.875 199.34375 140.585938 190.128906 140.1875 Z M 190.128906 121.105469 L 190.128906 108.605469 C 205.660156 109.128906 220.136719 114.132812 232.113281 122.421875 L 225.269531 133.082031 C 215.265625 125.84375 203.160156 121.5 190.128906 121.105469 Z M 114.195312 158.351562 C 119.328125 145.320312 127.878906 134.136719 138.671875 125.582031 L 145.515625 136.242188 C 136.699219 143.480469 129.855469 153.085938 125.773438 163.878906 Z M 130.644531 166.117188 C 134.328125 156.113281 140.515625 147.425781 148.410156 140.585938 L 155.914062 152.164062 C 149.988281 157.429688 145.382812 164.273438 142.75 171.90625 Z M 159.597656 179.800781 L 147.621094 174.144531 C 149.859375 167.429688 153.808594 161.378906 158.808594 156.640625 L 166.175781 167.957031 C 163.019531 171.25 160.78125 175.328125 159.597656 179.800781 Z M 215.398438 179.800781 C 214.214844 175.328125 211.84375 171.25 208.816406 167.957031 L 216.1875 156.640625 C 221.320312 161.378906 225.136719 167.429688 227.375 174.144531 Z M 232.242188 171.90625 C 229.609375 164.273438 225.003906 157.5625 219.082031 152.164062 L 226.585938 140.585938 C 234.480469 147.296875 240.796875 156.113281 244.351562 166.117188 Z M 249.21875 163.878906 C 245.140625 152.953125 238.296875 143.480469 229.480469 136.242188 L 236.324219 125.582031 C 247.113281 134.136719 255.667969 145.453125 260.800781 158.351562 Z M 249.21875 163.878906 "/></g><path style=" stroke:none;fill-rule:nonzero;fill:#315d6a;fill-opacity:1;" d="M 143.148438 244.945312 C 134.988281 242.183594 126.300781 246.132812 125.90625 246.261719 C 124.589844 246.921875 124.0625 248.5 124.589844 249.816406 C 124.722656 250.210938 128.933594 258.632812 137.09375 261.398438 C 142.488281 263.238281 149.199219 262.449219 154.332031 260.082031 C 155.648438 259.421875 156.175781 257.84375 155.648438 256.527344 C 155.515625 256.132812 151.304688 247.84375 143.148438 244.945312 Z M 138.804688 256.527344 C 135.117188 255.34375 132.488281 252.316406 130.90625 250.210938 C 133.539062 249.421875 137.621094 248.761719 141.4375 250.078125 C 145.121094 251.265625 147.753906 254.289062 149.332031 256.394531 C 146.699219 257.054688 142.621094 257.710938 138.804688 256.527344 Z M 138.804688 256.527344 "/><path style=" stroke:none;fill-rule:nonzero;fill:#315d6a;fill-opacity:1;" d="M 249.746094 246.394531 C 249.351562 246.261719 240.269531 242.316406 231.847656 245.078125 C 223.292969 247.84375 218.949219 256.265625 218.6875 256.527344 C 218.03125 257.84375 218.6875 259.554688 220.003906 260.082031 C 225.398438 262.449219 232.242188 263.238281 237.902344 261.398438 C 246.457031 258.632812 250.800781 250.210938 251.0625 249.949219 C 251.722656 248.632812 251.0625 246.921875 249.746094 246.394531 Z M 236.324219 256.527344 C 232.375 257.84375 228.03125 257.054688 225.136719 256.394531 C 226.847656 254.289062 229.609375 251.394531 233.425781 250.078125 C 237.375 248.761719 241.71875 249.554688 244.613281 250.210938 C 242.902344 252.316406 240.140625 255.210938 236.324219 256.527344 Z M 236.324219 256.527344 "/><path style=" stroke:none;fill-rule:nonzero;fill:#315d6a;fill-opacity:1;" d="M 180.257812 247.183594 C 181.707031 246.789062 182.496094 245.339844 182.101562 244.027344 C 181.96875 243.5 178.679688 231.390625 169.203125 225.46875 C 159.597656 219.546875 147.753906 222.441406 147.359375 222.574219 C 146.042969 222.96875 145.121094 224.417969 145.515625 225.734375 C 145.648438 226.257812 148.9375 238.367188 158.414062 244.289062 C 164.597656 248.105469 173.152344 248.894531 180.257812 247.183594 Z M 151.570312 227.046875 C 155.121094 226.652344 161.441406 226.652344 166.574219 229.8125 C 169.992188 231.917969 172.496094 235.207031 174.074219 238.234375 L 168.679688 234.945312 C 167.492188 234.15625 165.78125 234.550781 165.125 235.867188 C 164.335938 237.050781 164.730469 238.761719 166.046875 239.417969 L 171.308594 242.710938 C 168.152344 242.578125 164.464844 241.789062 161.175781 239.8125 C 155.914062 236.523438 152.886719 230.601562 151.570312 227.046875 Z M 151.570312 227.046875 "/><path style=" stroke:none;fill-rule:nonzero;fill:#315d6a;fill-opacity:1;" d="M 229.480469 225.734375 C 229.875 224.417969 228.953125 222.835938 227.636719 222.574219 C 227.109375 222.441406 215.265625 219.546875 205.789062 225.46875 C 196.316406 231.390625 193.023438 243.5 192.894531 244.027344 C 191.839844 248.367188 200 248.105469 202.367188 248.105469 C 206.582031 248.105469 211.976562 247.316406 216.714844 244.421875 C 226.1875 238.367188 229.347656 226.257812 229.480469 225.734375 Z M 213.820312 239.8125 C 210.527344 241.789062 206.84375 242.578125 203.683594 242.710938 L 208.949219 239.417969 C 210.132812 238.628906 210.527344 237.050781 209.871094 235.867188 C 209.082031 234.683594 207.5 234.285156 206.316406 234.945312 L 200.921875 238.234375 C 202.632812 235.207031 205 231.917969 208.421875 229.8125 C 213.554688 226.652344 219.871094 226.652344 223.425781 227.046875 C 222.109375 230.601562 219.082031 236.523438 213.820312 239.8125 Z M 213.820312 239.8125 "/><g clip-rule="nonzero" clip-path="url(#abc7123d69)"><path style=" stroke:none;fill-rule:nonzero;fill:#315d6a;fill-opacity:1;" d="M 208.554688 266.398438 C 207.632812 266.398438 207.371094 266.136719 206.582031 265.609375 C 205.660156 264.820312 204.078125 263.765625 201.449219 263.765625 C 198.816406 263.765625 197.367188 264.820312 196.316406 265.609375 C 195.527344 266.136719 195.261719 266.398438 194.339844 266.398438 C 193.417969 266.398438 193.15625 266.136719 192.367188 265.609375 C 191.839844 265.214844 191.050781 264.554688 189.867188 264.160156 L 189.867188 230.46875 C 192.367188 227.839844 199.078125 219.679688 199.078125 209.808594 C 199.078125 197.964844 189.601562 188.488281 189.207031 188.09375 C 188.15625 187.171875 186.578125 187.039062 185.523438 188.09375 C 185.390625 188.488281 175.652344 197.832031 175.652344 209.808594 C 175.652344 219.941406 182.628906 228.363281 184.867188 230.734375 L 184.867188 264.292969 C 183.8125 264.6875 183.023438 265.214844 182.363281 265.742188 C 181.574219 266.265625 181.3125 266.53125 180.390625 266.53125 C 179.46875 266.53125 179.207031 266.265625 178.417969 265.742188 C 177.496094 264.949219 175.917969 263.898438 173.285156 263.898438 C 170.652344 263.898438 169.203125 264.949219 168.152344 265.742188 C 167.363281 266.265625 167.097656 266.53125 166.175781 266.53125 C 164.730469 266.53125 163.546875 267.714844 163.546875 269.164062 C 163.546875 270.609375 164.730469 271.792969 166.175781 271.792969 C 168.808594 271.792969 170.257812 270.742188 171.308594 269.953125 C 172.101562 269.425781 172.363281 269.164062 173.285156 269.164062 C 174.207031 269.164062 174.46875 269.425781 175.257812 269.953125 C 176.179688 270.742188 177.757812 271.792969 180.390625 271.792969 C 183.023438 271.792969 184.46875 270.742188 185.523438 269.953125 C 186.3125 269.425781 186.578125 269.164062 187.496094 269.164062 C 188.417969 269.164062 188.683594 269.425781 189.472656 269.953125 C 190.394531 270.742188 191.972656 271.792969 194.605469 271.792969 C 197.234375 271.792969 198.683594 270.742188 199.738281 269.953125 C 200.527344 269.425781 200.789062 269.164062 201.710938 269.164062 C 202.632812 269.164062 202.894531 269.425781 203.683594 269.953125 C 204.605469 270.742188 206.183594 271.792969 208.816406 271.792969 C 210.265625 271.792969 211.449219 270.609375 211.449219 269.164062 C 211.449219 267.714844 210.003906 266.398438 208.554688 266.398438 Z M 180.917969 209.808594 C 180.917969 203.097656 185.128906 197.042969 187.628906 194.015625 C 190.128906 197.042969 194.210938 203.097656 194.078125 209.808594 C 194.078125 214.414062 192.105469 218.625 190.128906 221.785156 L 190.128906 211.125 C 190.128906 209.675781 188.945312 208.492188 187.496094 208.492188 C 186.050781 208.492188 184.867188 209.675781 184.867188 211.125 L 184.867188 222.046875 C 182.890625 218.890625 180.917969 214.546875 180.917969 209.808594 Z M 180.917969 209.808594 "/></g></g></svg>