<svg xmlns="http://www.w3.org/2000/svg" xmlns:xlink="http://www.w3.org/1999/xlink" width="500" zoomAndPan="magnify" viewBox="0 0 375 374.999991" height="500" preserveAspectRatio="xMidYMid meet" version="1.2"><defs><clipPath id="7c7e70093d"><path d="M 91.773438 136.070312 L 282.792969 136.070312 L 282.792969 265.679688 L 91.773438 265.679688 Z M 91.773438 136.070312 "/></clipPath><clipPath id="daf6c25eb2"><path d="M 115 108.945312 L 171 108.945312 L 171 188 L 115 188 Z M 115 108.945312 "/></clipPath></defs><g id="b78ad9739c"><path style=" stroke:none;fill-rule:nonzero;fill:#315d6a;fill-opacity:1;" d="M 216.988281 169.445312 L 217.378906 173.242188 C 218.636719 173.121094 219.9375 173.054688 221.25 173.054688 C 222.332031 173.054688 223.445312 173.101562 224.5625 173.183594 L 224.867188 169.378906 C 223.648438 169.285156 222.429688 169.238281 221.25 169.238281 C 219.808594 169.238281 218.375 169.308594 216.988281 169.445312 "/><path style=" stroke:none;fill-rule:nonzero;fill:#315d6a;fill-opacity:1;" d="M 201.949219 174.171875 L 203.925781 177.464844 C 205.972656 176.292969 208.15625 175.34375 210.40625 174.644531 L 209.214844 171.007812 C 206.691406 171.792969 204.246094 172.859375 201.949219 174.171875 "/><path style=" stroke:none;fill-rule:nonzero;fill:#315d6a;fill-opacity:1;" d="M 149.679688 226.304688 C 152.257812 225.792969 154.796875 225.074219 157.222656 224.167969 L 155.824219 220.601562 C 153.597656 221.433594 151.269531 222.09375 148.898438 222.566406 L 149.679688 226.304688 "/><path style=" stroke:none;fill-rule:nonzero;fill:#315d6a;fill-opacity:1;" d="M 190.214844 184.378906 L 193.289062 186.738281 C 194.824219 184.832031 196.472656 183.097656 198.1875 181.589844 L 195.566406 178.753906 C 193.6875 180.410156 191.886719 182.300781 190.214844 184.378906 "/><path style=" stroke:none;fill-rule:nonzero;fill:#315d6a;fill-opacity:1;" d="M 134.449219 223.273438 L 134.101562 227.074219 C 135.847656 227.226562 137.59375 227.304688 139.296875 227.304688 C 140.167969 227.304688 141.046875 227.285156 141.902344 227.246094 L 141.71875 223.429688 C 140.921875 223.46875 140.105469 223.484375 139.296875 223.484375 C 137.710938 223.484375 136.078125 223.414062 134.449219 223.273438 "/><path style=" stroke:none;fill-rule:nonzero;fill:#315d6a;fill-opacity:1;" d="M 168.246094 213.507812 C 166.355469 215.019531 164.363281 216.378906 162.320312 217.550781 L 164.300781 220.84375 C 166.515625 219.574219 168.679688 218.097656 170.726562 216.460938 L 168.246094 213.507812 "/><path style=" stroke:none;fill-rule:nonzero;fill:#315d6a;fill-opacity:1;" d="M 178.160156 203.121094 C 176.6875 205.09375 175.128906 206.949219 173.527344 208.636719 L 176.398438 211.230469 C 178.101562 209.433594 179.761719 207.460938 181.320312 205.367188 L 178.160156 203.121094 "/><path style=" stroke:none;fill-rule:nonzero;fill:#315d6a;fill-opacity:1;" d="M 118.925781 223.976562 C 121.417969 224.765625 123.9375 225.425781 126.410156 225.9375 L 127.222656 222.203125 C 124.882812 221.71875 122.496094 221.09375 120.136719 220.34375 L 118.925781 223.976562 "/><path style=" stroke:none;fill-rule:nonzero;fill:#315d6a;fill-opacity:1;" d="M 245.621094 178.898438 C 247.796875 179.859375 250.023438 180.949219 252.242188 182.132812 L 254.121094 178.78125 C 251.8125 177.550781 249.5 176.421875 247.234375 175.421875 L 245.621094 178.898438 "/><path style=" stroke:none;fill-rule:nonzero;fill:#315d6a;fill-opacity:1;" d="M 231.738281 174.253906 C 234.019531 174.753906 236.390625 175.417969 238.78125 176.226562 L 240.0625 172.617188 C 237.53125 171.761719 235.019531 171.058594 232.59375 170.527344 L 231.738281 174.253906 "/><g clip-rule="nonzero" clip-path="url(#7c7e70093d)"><path style=" stroke:none;fill-rule:nonzero;fill:#315d6a;fill-opacity:1;" d="M 233.84375 211.339844 L 231.753906 211.472656 L 230.210938 212.894531 L 204.183594 236.90625 L 180 164.136719 L 205.730469 142.1875 L 241.910156 143.542969 L 260.953125 182.734375 C 260.878906 182.6875 260.804688 182.640625 260.730469 182.59375 L 258.636719 185.820312 C 260.523438 186.988281 262.40625 188.230469 264.246094 189.511719 L 273.625 208.820312 Z M 245.675781 137.765625 L 203.648438 136.195312 L 175.566406 160.15625 L 168.625 158.933594 C 167.71875 160.699219 166.726562 162.527344 165.652344 164.410156 L 174.375 165.945312 L 183.796875 194.296875 C 183.269531 195.261719 182.726562 196.207031 182.175781 197.117188 L 185.335938 198.929688 L 198.6875 239.105469 L 158.292969 237.257812 L 156.546875 237.175781 L 155.035156 238.0625 L 122.964844 256.824219 L 111.824219 220.992188 L 113.265625 217.789062 C 112.203125 217.335938 111.253906 216.898438 110.433594 216.503906 L 98.75 178.917969 L 120.601562 164.808594 C 119.578125 163.023438 118.628906 161.289062 117.753906 159.613281 L 91.773438 176.390625 L 119.527344 265.679688 L 158.019531 243.160156 L 203.84375 245.257812 L 234.21875 217.238281 L 282.792969 214.160156 L 245.675781 137.765625 "/></g><g clip-rule="nonzero" clip-path="url(#daf6c25eb2)"><path style=" stroke:none;fill-rule:nonzero;fill:#315d6a;fill-opacity:1;" d="M 128.21875 134.394531 C 128.21875 126.226562 134.84375 119.601562 143.015625 119.601562 C 151.183594 119.601562 157.808594 126.226562 157.808594 134.394531 C 157.808594 142.566406 151.183594 149.191406 143.015625 149.191406 C 134.84375 149.191406 128.21875 142.566406 128.21875 134.394531 Z M 170.164062 136.09375 C 170.164062 121.097656 158.007812 108.945312 143.015625 108.945312 C 128.019531 108.945312 115.863281 121.097656 115.863281 136.09375 C 115.863281 153.609375 143.015625 187.84375 143.015625 187.84375 C 143.015625 187.84375 170.164062 153.609375 170.164062 136.09375 "/></g></g></svg>