<svg xmlns="http://www.w3.org/2000/svg" xmlns:xlink="http://www.w3.org/1999/xlink" width="500" zoomAndPan="magnify" viewBox="0 0 375 374.999991" height="500" preserveAspectRatio="xMidYMid meet" version="1.2"><defs><clipPath id="3df0a6a46a"><path d="M 0 0 L 374.988281 0 L 374.988281 375 L 0 375 Z M 0 0 "/></clipPath><clipPath id="2cf377325e"><path d="M 374.988281 74.996094 L 374.988281 300.007812 C 374.988281 319.898438 367.089844 338.976562 353.023438 353.042969 C 338.957031 367.105469 319.882812 375.007812 299.992188 375.007812 L 74.996094 375.007812 C 55.105469 375.007812 36.03125 367.105469 21.964844 353.042969 C 7.902344 338.976562 0 319.898438 0 300.007812 L 0 74.996094 C 0 33.578125 33.578125 0 74.996094 0 L 299.992188 0 C 319.882812 0 338.957031 7.902344 353.023438 21.964844 C 367.089844 36.03125 374.988281 55.105469 374.988281 74.996094 Z M 374.988281 74.996094 "/></clipPath><clipPath id="8e457ca9a5"><path d="M 0.0078125 0 L 375 0 L 375 375 L 0.0078125 375 Z M 0.0078125 0 "/></clipPath><clipPath id="a10f8b43c4"><path d="M 374.992188 74.996094 L 374.992188 300.003906 C 374.992188 319.894531 367.089844 338.96875 353.023438 353.035156 C 338.960938 367.097656 319.886719 375 299.996094 375 L 75.003906 375 C 55.113281 375 36.039062 367.097656 21.976562 353.035156 C 7.910156 338.96875 0.0078125 319.894531 0.0078125 300.003906 L 0.0078125 74.996094 C 0.0078125 33.578125 33.585938 0 75.003906 0 L 299.996094 0 C 319.886719 0 338.960938 7.902344 353.023438 21.964844 C 367.089844 36.03125 374.992188 55.105469 374.992188 74.996094 Z M 374.992188 74.996094 "/></clipPath><clipPath id="8468786f54"><path d="M 112.5 137.066406 L 262.5 137.066406 L 262.5 238 L 112.5 238 Z M 112.5 137.066406 "/></clipPath></defs><g id="8f695ba3ef"><g clip-rule="nonzero" clip-path="url(#3df0a6a46a)"><g clip-rule="nonzero" clip-path="url(#2cf377325e)"><path style=" stroke:none;fill-rule:nonzero;fill:#426d41;fill-opacity:1;" d="M 0 0 L 374.988281 0 L 374.988281 374.988281 L 0 374.988281 Z M 0 0 "/></g></g><g clip-rule="nonzero" clip-path="url(#8e457ca9a5)"><g clip-rule="nonzero" clip-path="url(#a10f8b43c4)"><path style="fill:none;stroke-width:60;stroke-linecap:butt;stroke-linejoin:miter;stroke:#315d6a;stroke-opacity:1;stroke-miterlimit:4;" d="M 499.977898 99.994798 L 499.977898 400.005235 C 499.977898 426.52607 489.441439 451.958363 470.68623 470.713573 C 451.936228 489.463574 426.503935 500.000033 399.9831 500.000033 L 99.993497 500.000033 C 73.472662 500.000033 48.040369 489.463574 29.290367 470.713573 C 10.535158 451.958363 -0.00130128 426.52607 -0.00130128 400.005235 L -0.00130128 99.994798 C -0.00130128 44.770836 44.769535 0 99.993497 0 L 399.9831 0 C 426.503935 0 451.936228 10.536459 470.68623 29.28646 C 489.441439 48.04167 499.977898 73.473963 499.977898 99.994798 Z M 499.977898 99.994798 " transform="matrix(0.75,0,0,0.75,0.00878846,0)"/></g></g><g clip-rule="nonzero" clip-path="url(#8468786f54)"><path style=" stroke:none;fill-rule:nonzero;fill:#e4c57b;fill-opacity:1;" d="M 166.644531 183.289062 L 116.695312 235.992188 C 118.316406 237.140625 120.296875 237.824219 122.449219 237.824219 L 252.550781 237.824219 C 254.699219 237.824219 256.679688 237.140625 258.304688 235.992188 L 208.355469 183.289062 L 189.167969 197.894531 C 188.183594 198.644531 186.816406 198.644531 185.828125 197.894531 Z M 261.507812 142.773438 L 212.734375 179.894531 L 261.765625 231.625 C 262.234375 230.46875 262.5 229.207031 262.5 227.875 L 262.5 147.097656 C 262.5 145.539062 262.136719 144.078125 261.507812 142.773438 Z M 113.492188 142.769531 C 112.863281 144.078125 112.5 145.539062 112.5 147.097656 L 112.5 227.875 C 112.5 229.207031 112.761719 230.46875 113.234375 231.625 L 162.265625 179.894531 Z M 122.449219 137.148438 C 120.472656 137.148438 118.640625 137.722656 117.097656 138.707031 L 167.578125 177.132812 C 167.730469 177.207031 167.878906 177.296875 168.015625 177.402344 L 187.5 192.234375 L 206.984375 177.402344 C 207.125 177.296875 207.273438 177.207031 207.429688 177.128906 L 257.902344 138.710938 C 256.359375 137.726562 254.523438 137.148438 252.550781 137.148438 L 122.449219 137.148438 "/></g></g></svg>