<svg xmlns="http://www.w3.org/2000/svg" xmlns:xlink="http://www.w3.org/1999/xlink" width="500" zoomAndPan="magnify" viewBox="0 0 375 374.999991" height="500" preserveAspectRatio="xMidYMid meet" version="1.2"><defs><clipPath id="8e57c87a7d"><path d="M 0 0 L 374.988281 0 L 374.988281 375 L 0 375 Z M 0 0 "/></clipPath><clipPath id="9cd4ae8fc3"><path d="M 374.988281 74.996094 L 374.988281 300.007812 C 374.988281 319.898438 367.089844 338.976562 353.023438 353.042969 C 338.957031 367.105469 319.882812 375.007812 299.992188 375.007812 L 74.996094 375.007812 C 55.105469 375.007812 36.03125 367.105469 21.964844 353.042969 C 7.902344 338.976562 0 319.898438 0 300.007812 L 0 74.996094 C 0 33.578125 33.578125 0 74.996094 0 L 299.992188 0 C 319.882812 0 338.957031 7.902344 353.023438 21.964844 C 367.089844 36.03125 374.988281 55.105469 374.988281 74.996094 Z M 374.988281 74.996094 "/></clipPath><clipPath id="0a8e3dea4b"><path d="M 0.0078125 0 L 375 0 L 375 375 L 0.0078125 375 Z M 0.0078125 0 "/></clipPath><clipPath id="7e6965ad18"><path d="M 374.992188 74.996094 L 374.992188 300.003906 C 374.992188 319.894531 367.089844 338.96875 353.023438 353.035156 C 338.960938 367.097656 319.886719 375 299.996094 375 L 75.003906 375 C 55.113281 375 36.039062 367.097656 21.976562 353.035156 C 7.910156 338.96875 0.0078125 319.894531 0.0078125 300.003906 L 0.0078125 74.996094 C 0.0078125 33.578125 33.585938 0 75.003906 0 L 299.996094 0 C 319.886719 0 338.960938 7.902344 353.023438 21.964844 C 367.089844 36.03125 374.992188 55.105469 374.992188 74.996094 Z M 374.992188 74.996094 "/></clipPath><clipPath id="1bd4bbdb50"><path d="M 112.34375 199 L 262.34375 199 L 262.34375 271.410156 L 112.34375 271.410156 Z M 112.34375 199 "/></clipPath><clipPath id="601adc94fe"><path d="M 147 103.410156 L 228 103.410156 L 228 183 L 147 183 Z M 147 103.410156 "/></clipPath></defs><g id="559ecce299"><g clip-rule="nonzero" clip-path="url(#8e57c87a7d)"><g clip-rule="nonzero" clip-path="url(#9cd4ae8fc3)"><path style=" stroke:none;fill-rule:nonzero;fill:#426d41;fill-opacity:1;" d="M 0 0 L 374.988281 0 L 374.988281 374.988281 L 0 374.988281 Z M 0 0 "/></g></g><g clip-rule="nonzero" clip-path="url(#0a8e3dea4b)"><g clip-rule="nonzero" clip-path="url(#7e6965ad18)"><path style="fill:none;stroke-width:60;stroke-linecap:butt;stroke-linejoin:miter;stroke:#315d6a;stroke-opacity:1;stroke-miterlimit:4;" d="M 499.977898 99.994798 L 499.977898 400.005235 C 499.977898 426.52607 489.441439 451.958363 470.68623 470.713573 C 451.936228 489.463574 426.503935 500.000033 399.9831 500.000033 L 99.993497 500.000033 C 73.472662 500.000033 48.040369 489.463574 29.290367 470.713573 C 10.535158 451.958363 -0.00130128 426.52607 -0.00130128 400.005235 L -0.00130128 99.994798 C -0.00130128 44.770836 44.769535 0 99.993497 0 L 399.9831 0 C 426.503935 0 451.936228 10.536459 470.68623 29.28646 C 489.441439 48.04167 499.977898 73.473963 499.977898 99.994798 Z M 499.977898 99.994798 " transform="matrix(0.75,0,0,0.75,0.00878846,0)"/></g></g><g clip-rule="nonzero" clip-path="url(#1bd4bbdb50)"><path style=" stroke:none;fill-rule:nonzero;fill:#e4c57b;fill-opacity:1;" d="M 210.902344 199.582031 L 163.785156 199.582031 C 162.101562 199.585938 160.421875 199.667969 158.746094 199.835938 C 157.070312 200.003906 155.40625 200.25 153.753906 200.582031 C 152.101562 200.910156 150.472656 201.320312 148.859375 201.808594 C 147.246094 202.300781 145.664062 202.867188 144.109375 203.511719 C 142.554688 204.160156 141.03125 204.878906 139.546875 205.671875 C 138.0625 206.46875 136.621094 207.332031 135.21875 208.269531 C 133.820312 209.207031 132.46875 210.207031 131.167969 211.277344 C 129.863281 212.34375 128.617188 213.476562 127.425781 214.664062 C 126.234375 215.855469 125.105469 217.101562 124.039062 218.40625 C 122.96875 219.707031 121.964844 221.058594 121.03125 222.457031 C 120.09375 223.859375 119.230469 225.300781 118.433594 226.785156 C 117.640625 228.269531 116.921875 229.792969 116.273438 231.347656 C 115.628906 232.902344 115.0625 234.488281 114.570312 236.097656 C 114.082031 237.710938 113.671875 239.339844 113.34375 240.992188 C 113.011719 242.644531 112.765625 244.308594 112.597656 245.984375 C 112.429688 247.660156 112.347656 249.339844 112.34375 251.023438 L 112.34375 266.738281 C 112.34375 267.027344 112.375 267.316406 112.429688 267.601562 C 112.484375 267.882812 112.570312 268.160156 112.679688 268.429688 C 112.792969 268.695312 112.925781 268.949219 113.089844 269.191406 C 113.25 269.429688 113.433594 269.652344 113.636719 269.859375 C 113.84375 270.0625 114.066406 270.246094 114.304688 270.40625 C 114.546875 270.570312 114.800781 270.703125 115.066406 270.816406 C 115.335938 270.925781 115.613281 271.011719 115.894531 271.066406 C 116.179688 271.121094 116.46875 271.152344 116.757812 271.152344 L 257.933594 271.152344 C 258.222656 271.152344 258.507812 271.121094 258.792969 271.066406 C 259.078125 271.011719 259.355469 270.925781 259.621094 270.816406 C 259.890625 270.703125 260.144531 270.570312 260.382812 270.40625 C 260.625 270.246094 260.847656 270.0625 261.050781 269.859375 C 261.257812 269.652344 261.441406 269.429688 261.601562 269.191406 C 261.761719 268.949219 261.898438 268.695312 262.007812 268.429688 C 262.121094 268.160156 262.203125 267.882812 262.261719 267.601562 C 262.316406 267.316406 262.34375 267.027344 262.34375 266.738281 L 262.34375 251.023438 C 262.34375 249.339844 262.257812 247.660156 262.09375 245.984375 C 261.925781 244.308594 261.675781 242.644531 261.347656 240.992188 C 261.019531 239.339844 260.609375 237.710938 260.117188 236.097656 C 259.628906 234.488281 259.058594 232.902344 258.414062 231.347656 C 257.769531 229.792969 257.050781 228.269531 256.253906 226.785156 C 255.460938 225.300781 254.59375 223.859375 253.660156 222.457031 C 252.722656 221.058594 251.71875 219.707031 250.652344 218.40625 C 249.582031 217.101562 248.453125 215.855469 247.261719 214.664062 C 246.070312 213.476562 244.824219 212.34375 243.523438 211.277344 C 242.222656 210.207031 240.871094 209.207031 239.46875 208.269531 C 238.070312 207.332031 236.628906 206.46875 235.140625 205.671875 C 233.65625 204.878906 232.136719 204.160156 230.582031 203.511719 C 229.023438 202.867188 227.441406 202.300781 225.832031 201.808594 C 224.21875 201.320312 222.585938 200.910156 220.9375 200.582031 C 219.285156 200.25 217.621094 200.003906 215.945312 199.835938 C 214.269531 199.667969 212.589844 199.585938 210.902344 199.582031 Z M 210.902344 199.582031 "/></g><g clip-rule="nonzero" clip-path="url(#601adc94fe)"><path style=" stroke:none;fill-rule:nonzero;fill:#e4c57b;fill-opacity:1;" d="M 227.050781 143.210938 C 227.050781 144.511719 226.988281 145.808594 226.859375 147.101562 C 226.730469 148.394531 226.542969 149.679688 226.289062 150.957031 C 226.035156 152.230469 225.71875 153.492188 225.339844 154.734375 C 224.964844 155.980469 224.527344 157.203125 224.027344 158.40625 C 223.53125 159.605469 222.976562 160.78125 222.363281 161.925781 C 221.75 163.074219 221.082031 164.1875 220.359375 165.269531 C 219.636719 166.351562 218.863281 167.394531 218.039062 168.398438 C 217.214844 169.40625 216.339844 170.367188 215.421875 171.285156 C 214.5 172.207031 213.539062 173.078125 212.535156 173.902344 C 211.527344 174.726562 210.484375 175.5 209.402344 176.222656 C 208.324219 176.945312 207.207031 177.613281 206.0625 178.226562 C 204.914062 178.839844 203.742188 179.394531 202.539062 179.894531 C 201.339844 180.390625 200.117188 180.828125 198.871094 181.207031 C 197.625 181.582031 196.367188 181.898438 195.089844 182.152344 C 193.816406 182.40625 192.53125 182.597656 191.238281 182.726562 C 189.941406 182.851562 188.644531 182.914062 187.34375 182.914062 C 186.042969 182.914062 184.746094 182.851562 183.453125 182.726562 C 182.160156 182.597656 180.875 182.40625 179.597656 182.152344 C 178.324219 181.898438 177.0625 181.582031 175.820312 181.207031 C 174.574219 180.828125 173.351562 180.390625 172.148438 179.894531 C 170.949219 179.394531 169.773438 178.839844 168.628906 178.226562 C 167.480469 177.613281 166.367188 176.945312 165.285156 176.222656 C 164.203125 175.5 163.160156 174.726562 162.15625 173.902344 C 161.152344 173.078125 160.1875 172.207031 159.269531 171.285156 C 158.347656 170.367188 157.476562 169.40625 156.652344 168.398438 C 155.828125 167.394531 155.054688 166.351562 154.332031 165.269531 C 153.609375 164.1875 152.941406 163.074219 152.328125 161.925781 C 151.714844 160.78125 151.160156 159.605469 150.660156 158.40625 C 150.164062 157.203125 149.726562 155.980469 149.347656 154.734375 C 148.972656 153.492188 148.65625 152.230469 148.402344 150.957031 C 148.148438 149.679688 147.957031 148.394531 147.832031 147.101562 C 147.703125 145.808594 147.640625 144.511719 147.640625 143.210938 C 147.640625 141.910156 147.703125 140.613281 147.832031 139.316406 C 147.957031 138.023438 148.148438 136.738281 148.402344 135.464844 C 148.65625 134.1875 148.972656 132.929688 149.347656 131.683594 C 149.726562 130.441406 150.164062 129.214844 150.660156 128.015625 C 151.160156 126.8125 151.714844 125.640625 152.328125 124.492188 C 152.941406 123.347656 153.609375 122.230469 154.332031 121.152344 C 155.054688 120.070312 155.828125 119.027344 156.652344 118.019531 C 157.476562 117.015625 158.347656 116.054688 159.269531 115.132812 C 160.1875 114.214844 161.152344 113.34375 162.15625 112.515625 C 163.160156 111.691406 164.203125 110.917969 165.285156 110.195312 C 166.367188 109.472656 167.480469 108.804688 168.628906 108.191406 C 169.773438 107.578125 170.949219 107.023438 172.148438 106.527344 C 173.351562 106.027344 174.574219 105.589844 175.820312 105.214844 C 177.0625 104.835938 178.324219 104.519531 179.597656 104.265625 C 180.875 104.011719 182.160156 103.824219 183.453125 103.695312 C 184.746094 103.566406 186.042969 103.503906 187.34375 103.503906 C 188.644531 103.503906 189.941406 103.566406 191.238281 103.695312 C 192.53125 103.824219 193.816406 104.011719 195.089844 104.265625 C 196.367188 104.519531 197.625 104.835938 198.871094 105.214844 C 200.117188 105.589844 201.339844 106.027344 202.539062 106.527344 C 203.742188 107.023438 204.914062 107.578125 206.0625 108.191406 C 207.207031 108.804688 208.324219 109.472656 209.402344 110.195312 C 210.484375 110.917969 211.527344 111.691406 212.535156 112.515625 C 213.539062 113.34375 214.5 114.214844 215.421875 115.132812 C 216.339844 116.054688 217.214844 117.015625 218.039062 118.019531 C 218.863281 119.027344 219.636719 120.070312 220.359375 121.152344 C 221.082031 122.230469 221.75 123.347656 222.363281 124.492188 C 222.976562 125.640625 223.53125 126.8125 224.027344 128.015625 C 224.527344 129.214844 224.964844 130.441406 225.339844 131.683594 C 225.71875 132.929688 226.035156 134.1875 226.289062 135.464844 C 226.542969 136.738281 226.730469 138.023438 226.859375 139.316406 C 226.988281 140.613281 227.050781 141.910156 227.050781 143.210938 Z M 227.050781 143.210938 "/></g></g></svg>