<svg xmlns="http://www.w3.org/2000/svg" xmlns:xlink="http://www.w3.org/1999/xlink" width="500" zoomAndPan="magnify" viewBox="0 0 375 374.999991" height="500" preserveAspectRatio="xMidYMid meet" version="1.2"><defs><clipPath id="593bdc8c6e"><path d="M 0 0 L 374.988281 0 L 374.988281 375 L 0 375 Z M 0 0 "/></clipPath><clipPath id="e082697aaf"><path d="M 374.988281 74.996094 L 374.988281 300.007812 C 374.988281 319.898438 367.089844 338.976562 353.023438 353.042969 C 338.957031 367.105469 319.882812 375.007812 299.992188 375.007812 L 74.996094 375.007812 C 55.105469 375.007812 36.03125 367.105469 21.964844 353.042969 C 7.902344 338.976562 0 319.898438 0 300.007812 L 0 74.996094 C 0 33.578125 33.578125 0 74.996094 0 L 299.992188 0 C 319.882812 0 338.957031 7.902344 353.023438 21.964844 C 367.089844 36.03125 374.988281 55.105469 374.988281 74.996094 Z M 374.988281 74.996094 "/></clipPath><clipPath id="a261b4ada1"><path d="M 0.0078125 0 L 375 0 L 375 375 L 0.0078125 375 Z M 0.0078125 0 "/></clipPath><clipPath id="a68389cb43"><path d="M 374.992188 74.996094 L 374.992188 300.003906 C 374.992188 319.894531 367.089844 338.96875 353.023438 353.035156 C 338.960938 367.097656 319.886719 375 299.996094 375 L 75.003906 375 C 55.113281 375 36.039062 367.097656 21.976562 353.035156 C 7.910156 338.96875 0.0078125 319.894531 0.0078125 300.003906 L 0.0078125 74.996094 C 0.0078125 33.578125 33.585938 0 75.003906 0 L 299.996094 0 C 319.886719 0 338.960938 7.902344 353.023438 21.964844 C 367.089844 36.03125 374.992188 55.105469 374.992188 74.996094 Z M 374.992188 74.996094 "/></clipPath><clipPath id="30c6e57238"><path d="M 111.609375 103.292969 L 263 103.292969 L 263 272 L 111.609375 272 Z M 111.609375 103.292969 "/></clipPath></defs><g id="4cd379ed7e"><g clip-rule="nonzero" clip-path="url(#593bdc8c6e)"><g clip-rule="nonzero" clip-path="url(#e082697aaf)"><path style=" stroke:none;fill-rule:nonzero;fill:#426d41;fill-opacity:1;" d="M 0 0 L 374.988281 0 L 374.988281 374.988281 L 0 374.988281 Z M 0 0 "/></g></g><g clip-rule="nonzero" clip-path="url(#a261b4ada1)"><g clip-rule="nonzero" clip-path="url(#a68389cb43)"><path style="fill:none;stroke-width:60;stroke-linecap:butt;stroke-linejoin:miter;stroke:#315d6a;stroke-opacity:1;stroke-miterlimit:4;" d="M 499.977898 99.994798 L 499.977898 400.005235 C 499.977898 426.52607 489.441439 451.958363 470.68623 470.713573 C 451.936228 489.463574 426.503935 500.000033 399.9831 500.000033 L 99.993497 500.000033 C 73.472662 500.000033 48.040369 489.463574 29.290367 470.713573 C 10.535158 451.958363 -0.00130128 426.52607 -0.00130128 400.005235 L -0.00130128 99.994798 C -0.00130128 44.770836 44.769535 0 99.993497 0 L 399.9831 0 C 426.503935 0 451.936228 10.536459 470.68623 29.28646 C 489.441439 48.04167 499.977898 73.473963 499.977898 99.994798 Z M 499.977898 99.994798 " transform="matrix(0.75,0,0,0.75,0.00878846,0)"/></g></g><g clip-rule="nonzero" clip-path="url(#30c6e57238)"><path style=" stroke:none;fill-rule:nonzero;fill:#e4c57b;fill-opacity:1;" d="M 240.882812 259.515625 L 234.90625 258.015625 L 234.90625 123.152344 C 234.90625 121.609375 233.648438 120.351562 232.109375 120.351562 L 143.109375 120.351562 L 144.933594 109.40625 L 256.976562 120.070312 Z M 229.3125 265.796875 L 117.433594 265.796875 L 117.433594 125.949219 L 229.3125 125.949219 Z M 142.867188 103.582031 C 141.382812 103.40625 140.082031 104.46875 139.851562 105.910156 L 137.4375 120.351562 L 114.636719 120.351562 C 113.09375 120.351562 111.839844 121.609375 111.839844 123.152344 L 111.839844 268.59375 C 111.839844 270.132812 113.09375 271.390625 114.636719 271.390625 L 232.109375 271.390625 C 233.648438 271.390625 234.90625 270.132812 234.90625 268.59375 L 234.90625 263.785156 L 242.621094 265.707031 C 242.847656 265.761719 243.066406 265.796875 243.296875 265.796875 C 243.863281 265.796875 244.421875 265.621094 244.890625 265.304688 C 245.546875 264.835938 245.984375 264.113281 246.070312 263.316406 L 262.855469 117.875 C 262.941406 117.128906 262.722656 116.386719 262.253906 115.796875 C 261.78125 115.207031 261.09375 114.847656 260.339844 114.769531 L 142.867188 103.582031 "/></g><path style=" stroke:none;fill-rule:nonzero;fill:#e4c57b;fill-opacity:1;" d="M 128.621094 148.324219 L 123.027344 148.324219 L 123.027344 193.074219 L 223.71875 193.074219 L 223.71875 187.480469 L 128.621094 187.480469 L 128.621094 148.324219 "/><path style=" stroke:none;fill-rule:nonzero;fill:#e4c57b;fill-opacity:1;" d="M 190.363281 164.667969 L 173.011719 153.121094 L 156.589844 169.539062 L 148.199219 161.148438 L 132.238281 177.113281 L 136.191406 181.066406 L 148.199219 169.058594 L 156.589844 177.449219 L 173.734375 160.308594 L 189.945312 171.136719 L 224.972656 153.621094 L 222.460938 148.617188 L 190.363281 164.667969 "/><path style=" stroke:none;fill-rule:nonzero;fill:#e4c57b;fill-opacity:1;" d="M 128.621094 142.730469 C 131.703125 142.730469 134.214844 140.214844 134.214844 137.136719 C 134.214844 134.054688 131.703125 131.542969 128.621094 131.542969 C 125.539062 131.542969 123.027344 134.054688 123.027344 137.136719 C 123.027344 140.214844 125.539062 142.730469 128.621094 142.730469 "/><path style=" stroke:none;fill-rule:nonzero;fill:#e4c57b;fill-opacity:1;" d="M 218.125 142.730469 C 221.207031 142.730469 223.71875 140.214844 223.71875 137.136719 C 223.71875 134.054688 221.207031 131.542969 218.125 131.542969 C 215.042969 131.542969 212.53125 134.054688 212.53125 137.136719 C 212.53125 140.214844 215.042969 142.730469 218.125 142.730469 "/><path style=" stroke:none;fill-rule:nonzero;fill:#e4c57b;fill-opacity:1;" d="M 128.621094 249.015625 C 125.539062 249.015625 123.027344 251.527344 123.027344 254.609375 C 123.027344 257.6875 125.539062 260.203125 128.621094 260.203125 C 131.703125 260.203125 134.214844 257.6875 134.214844 254.609375 C 134.214844 251.527344 131.703125 249.015625 128.621094 249.015625 "/><path style=" stroke:none;fill-rule:nonzero;fill:#e4c57b;fill-opacity:1;" d="M 218.125 249.015625 C 215.042969 249.015625 212.53125 251.527344 212.53125 254.609375 C 212.53125 257.6875 215.042969 260.203125 218.125 260.203125 C 221.207031 260.203125 223.71875 257.6875 223.71875 254.609375 C 223.71875 251.527344 221.207031 249.015625 218.125 249.015625 "/><path style=" stroke:none;fill-rule:nonzero;fill:#e4c57b;fill-opacity:1;" d="M 123.027344 204.261719 L 156.589844 204.261719 L 156.589844 198.667969 L 123.027344 198.667969 L 123.027344 204.261719 "/><path style=" stroke:none;fill-rule:nonzero;fill:#e4c57b;fill-opacity:1;" d="M 173.371094 260.203125 L 206.9375 260.203125 L 206.9375 254.609375 L 173.371094 254.609375 L 173.371094 260.203125 "/><path style=" stroke:none;fill-rule:nonzero;fill:#e4c57b;fill-opacity:1;" d="M 123.027344 215.449219 L 156.589844 215.449219 L 156.589844 209.855469 L 123.027344 209.855469 L 123.027344 215.449219 "/><path style=" stroke:none;fill-rule:nonzero;fill:#e4c57b;fill-opacity:1;" d="M 123.027344 226.636719 L 156.589844 226.636719 L 156.589844 221.042969 L 123.027344 221.042969 L 123.027344 226.636719 "/><path style=" stroke:none;fill-rule:nonzero;fill:#e4c57b;fill-opacity:1;" d="M 128.621094 232.230469 L 123.027344 232.230469 L 123.027344 237.828125 L 128.621094 237.828125 L 128.621094 232.230469 "/><path style=" stroke:none;fill-rule:nonzero;fill:#e4c57b;fill-opacity:1;" d="M 134.214844 237.828125 L 139.808594 237.828125 L 139.808594 232.230469 L 134.214844 232.230469 L 134.214844 237.828125 "/><path style=" stroke:none;fill-rule:nonzero;fill:#e4c57b;fill-opacity:1;" d="M 150.996094 232.230469 L 145.402344 232.230469 L 145.402344 237.828125 L 150.996094 237.828125 L 150.996094 232.230469 "/><path style=" stroke:none;fill-rule:nonzero;fill:#e4c57b;fill-opacity:1;" d="M 167.777344 223.839844 C 167.777344 213.996094 175.089844 205.824219 184.558594 204.460938 L 184.558594 226.636719 L 206.738281 226.636719 C 205.375 236.109375 197.203125 243.421875 187.359375 243.421875 C 176.5625 243.421875 167.777344 234.636719 167.777344 223.839844 Z M 212.53125 223.839844 L 212.53125 221.042969 L 190.15625 221.042969 L 190.15625 198.667969 L 187.359375 198.667969 C 173.472656 198.667969 162.183594 209.953125 162.183594 223.839844 C 162.183594 237.726562 173.472656 249.015625 187.359375 249.015625 C 201.242188 249.015625 212.53125 237.726562 212.53125 223.839844 "/><path style=" stroke:none;fill-rule:nonzero;fill:#e4c57b;fill-opacity:1;" d="M 193.148438 214.414062 L 198.347656 216.488281 L 203.234375 204.261719 L 223.71875 204.261719 L 223.71875 198.667969 L 199.453125 198.667969 L 193.148438 214.414062 "/><path style=" stroke:none;fill-rule:nonzero;fill:#e4c57b;fill-opacity:1;" d="M 162.183594 260.203125 L 167.777344 260.203125 L 167.777344 254.609375 L 162.183594 254.609375 L 162.183594 260.203125 "/><path style=" stroke:none;fill-rule:nonzero;fill:#e4c57b;fill-opacity:1;" d="M 150.996094 260.203125 L 156.589844 260.203125 L 156.589844 254.609375 L 150.996094 254.609375 L 150.996094 260.203125 "/></g></svg>