<svg xmlns="http://www.w3.org/2000/svg" xmlns:xlink="http://www.w3.org/1999/xlink" width="500" zoomAndPan="magnify" viewBox="0 0 375 374.999991" height="500" preserveAspectRatio="xMidYMid meet" version="1.2"><defs><clipPath id="6427d35692"><path d="M 0.0078125 0 L 375 0 L 375 375 L 0.0078125 375 Z M 0.0078125 0 "/></clipPath><clipPath id="32db08434f"><path d="M 374.992188 74.996094 L 374.992188 300.003906 C 374.992188 319.894531 367.089844 338.96875 353.023438 353.035156 C 338.960938 367.097656 319.886719 375 299.996094 375 L 75.003906 375 C 55.113281 375 36.039062 367.097656 21.976562 353.035156 C 7.910156 338.96875 0.0078125 319.894531 0.0078125 300.003906 L 0.0078125 74.996094 C 0.0078125 33.578125 33.585938 0 75.003906 0 L 299.996094 0 C 319.886719 0 338.960938 7.902344 353.023438 21.964844 C 367.089844 36.03125 374.992188 55.105469 374.992188 74.996094 Z M 374.992188 74.996094 "/></clipPath><clipPath id="07eb82f99e"><path d="M 103.140625 139 L 269 139 L 269 248.265625 L 103.140625 248.265625 Z M 103.140625 139 "/></clipPath></defs><g id="7b1b4148b2"><g clip-rule="nonzero" clip-path="url(#6427d35692)"><g clip-rule="nonzero" clip-path="url(#32db08434f)"><path style="fill:none;stroke-width:60;stroke-linecap:butt;stroke-linejoin:miter;stroke:#315d6a;stroke-opacity:1;stroke-miterlimit:4;" d="M 499.977898 99.994798 L 499.977898 400.005235 C 499.977898 426.52607 489.441439 451.958363 470.68623 470.713573 C 451.936228 489.463574 426.503935 500.000033 399.9831 500.000033 L 99.993497 500.000033 C 73.472662 500.000033 48.040369 489.463574 29.290367 470.713573 C 10.535158 451.958363 -0.00130128 426.52607 -0.00130128 400.005235 L -0.00130128 99.994798 C -0.00130128 44.770836 44.769535 0 99.993497 0 L 399.9831 0 C 426.503935 0 451.936228 10.536459 470.68623 29.28646 C 489.441439 48.04167 499.977898 73.473963 499.977898 99.994798 Z M 499.977898 99.994798 " transform="matrix(0.75,0,0,0.75,0.00878846,0)"/></g></g><g clip-rule="nonzero" clip-path="url(#07eb82f99e)"><path style=" stroke:none;fill-rule:nonzero;fill:#315d6a;fill-opacity:1;" d="M 255.808594 140.820312 C 253.992188 139.914062 251.714844 139.457031 251.714844 139.457031 C 250.910156 139.28125 249.089844 139.015625 247.78125 139.015625 C 238.210938 139.015625 228.121094 147.507812 222.664062 160.144531 C 219.519531 167.441406 218.378906 175.125 219.453125 181.789062 C 220.546875 188.558594 223.808594 193.890625 228.640625 196.347656 L 223.617188 207.488281 C 222.558594 207.796875 221.523438 208.210938 220.558594 208.851562 L 201.242188 221.636719 C 201.242188 221.636719 173.546875 179.941406 173.476562 179.847656 C 170.214844 174 159.832031 168.195312 149.851562 170.996094 C 126.359375 178.167969 105.648438 222.191406 103.167969 248.199219 L 174.394531 248.21875 L 175.707031 230.839844 L 155.035156 199.304688 C 154.4375 198.390625 154.691406 197.171875 155.601562 196.574219 C 156.511719 195.972656 157.730469 196.234375 158.332031 197.140625 L 189.246094 243.867188 C 191.417969 246.722656 194.726562 248.273438 198.113281 248.273438 C 200.230469 248.273438 202.367188 247.671875 204.265625 246.414062 L 232.886719 227.46875 C 238.027344 224.066406 239.433594 217.136719 236.027344 211.996094 C 234.6875 209.96875 232.789062 208.546875 230.679688 207.746094 L 234.550781 199.15625 C 236.3125 199.726562 238.117188 200.015625 239.941406 200.015625 C 243.84375 200.015625 247.8125 198.71875 251.5625 196.167969 C 256.980469 192.484375 261.769531 186.265625 265.058594 178.648438 C 271.957031 162.652344 267.589844 146.691406 255.808594 140.820312 Z M 255.179688 174.175781 C 250.742188 184.457031 242.347656 191.917969 235.214844 191.917969 C 233.933594 191.917969 232.71875 191.671875 231.601562 191.191406 C 228.171875 189.710938 225.820312 186.054688 224.984375 180.890625 C 224.078125 175.269531 225.082031 168.691406 227.808594 162.363281 C 232.246094 152.082031 240.644531 144.617188 247.78125 144.617188 C 249.058594 144.617188 250.269531 144.863281 251.382812 145.339844 C 258.800781 148.542969 260.539062 161.746094 255.179688 174.175781 Z M 255.179688 174.175781 "/></g><path style=" stroke:none;fill-rule:nonzero;fill:#315d6a;fill-opacity:1;" d="M 176.558594 174.226562 C 187.800781 180.890625 202.328125 177.164062 208.984375 165.925781 C 215.652344 154.671875 211.929688 140.144531 200.6875 133.484375 C 189.425781 126.8125 174.910156 130.539062 168.242188 141.792969 C 161.582031 153.035156 165.292969 167.558594 176.558594 174.226562 Z M 176.558594 174.226562 "/><path style=" stroke:none;fill-rule:nonzero;fill:#315d6a;fill-opacity:1;" d="M 241.171875 157.625 C 243.234375 155.625 245.347656 154.773438 246.96875 155.292969 C 247.917969 155.589844 248.714844 156.34375 249.34375 157.527344 C 249.800781 158.378906 250.855469 158.707031 251.714844 158.25 C 252.570312 157.796875 252.894531 156.734375 252.441406 155.878906 C 251.382812 153.882812 249.855469 152.523438 248.027344 151.945312 C 245.09375 151.011719 241.792969 152.136719 238.730469 155.105469 C 235.949219 157.804688 233.625 161.785156 232.183594 166.320312 C 231.300781 169.117188 230.792969 172.007812 230.71875 174.683594 C 230.691406 175.652344 231.457031 176.457031 232.425781 176.484375 C 232.441406 176.484375 232.460938 176.484375 232.472656 176.484375 C 233.421875 176.484375 234.199219 175.730469 234.226562 174.777344 C 234.289062 172.425781 234.738281 169.871094 235.527344 167.382812 C 236.796875 163.390625 238.800781 159.925781 241.171875 157.625 Z M 241.171875 157.625 "/></g></svg>