<svg xmlns="http://www.w3.org/2000/svg" xmlns:xlink="http://www.w3.org/1999/xlink" width="500" zoomAndPan="magnify" viewBox="0 0 375 374.999991" height="500" preserveAspectRatio="xMidYMid meet" version="1.2"><defs><clipPath id="3c8334878e"><path d="M 0 0 L 374.988281 0 L 374.988281 375 L 0 375 Z M 0 0 "/></clipPath><clipPath id="8084cbf218"><path d="M 374.988281 74.996094 L 374.988281 300.007812 C 374.988281 319.898438 367.089844 338.976562 353.023438 353.042969 C 338.957031 367.105469 319.882812 375.007812 299.992188 375.007812 L 74.996094 375.007812 C 55.105469 375.007812 36.03125 367.105469 21.964844 353.042969 C 7.902344 338.976562 0 319.898438 0 300.007812 L 0 74.996094 C 0 33.578125 33.578125 0 74.996094 0 L 299.992188 0 C 319.882812 0 338.957031 7.902344 353.023438 21.964844 C 367.089844 36.03125 374.988281 55.105469 374.988281 74.996094 Z M 374.988281 74.996094 "/></clipPath><clipPath id="8ac303b4ed"><path d="M 0.0078125 0 L 375 0 L 375 375 L 0.0078125 375 Z M 0.0078125 0 "/></clipPath><clipPath id="3a3f190901"><path d="M 374.992188 74.996094 L 374.992188 300.003906 C 374.992188 319.894531 367.089844 338.96875 353.023438 353.035156 C 338.960938 367.097656 319.886719 375 299.996094 375 L 75.003906 375 C 55.113281 375 36.039062 367.097656 21.976562 353.035156 C 7.910156 338.96875 0.0078125 319.894531 0.0078125 300.003906 L 0.0078125 74.996094 C 0.0078125 33.578125 33.585938 0 75.003906 0 L 299.996094 0 C 319.886719 0 338.960938 7.902344 353.023438 21.964844 C 367.089844 36.03125 374.992188 55.105469 374.992188 74.996094 Z M 374.992188 74.996094 "/></clipPath><clipPath id="4593b6ed37"><path d="M 112.585938 164 L 220 164 L 220 271.84375 L 112.585938 271.84375 Z M 112.585938 164 "/></clipPath><clipPath id="549a7430c4"><path d="M 155 103.09375 L 226 103.09375 L 226 174 L 155 174 Z M 155 103.09375 "/></clipPath><clipPath id="66178b013d"><path d="M 206 150 L 262.585938 150 L 262.585938 208 L 206 208 Z M 206 150 "/></clipPath></defs><g id="9c1db27009"><g clip-rule="nonzero" clip-path="url(#3c8334878e)"><g clip-rule="nonzero" clip-path="url(#8084cbf218)"><path style=" stroke:none;fill-rule:nonzero;fill:#426d41;fill-opacity:1;" d="M 0 0 L 374.988281 0 L 374.988281 374.988281 L 0 374.988281 Z M 0 0 "/></g></g><g clip-rule="nonzero" clip-path="url(#8ac303b4ed)"><g clip-rule="nonzero" clip-path="url(#3a3f190901)"><path style="fill:none;stroke-width:60;stroke-linecap:butt;stroke-linejoin:miter;stroke:#315d6a;stroke-opacity:1;stroke-miterlimit:4;" d="M 499.977898 99.994798 L 499.977898 400.005235 C 499.977898 426.52607 489.441439 451.958363 470.68623 470.713573 C 451.936228 489.463574 426.503935 500.000033 399.9831 500.000033 L 99.993497 500.000033 C 73.472662 500.000033 48.040369 489.463574 29.290367 470.713573 C 10.535158 451.958363 -0.00130128 426.52607 -0.00130128 400.005235 L -0.00130128 99.994798 C -0.00130128 44.770836 44.769535 0 99.993497 0 L 399.9831 0 C 426.503935 0 451.936228 10.536459 470.68623 29.28646 C 489.441439 48.04167 499.977898 73.473963 499.977898 99.994798 Z M 499.977898 99.994798 " transform="matrix(0.75,0,0,0.75,0.00878846,0)"/></g></g><g clip-rule="nonzero" clip-path="url(#4593b6ed37)"><path style=" stroke:none;fill-rule:nonzero;fill:#e4c57b;fill-opacity:1;" d="M 202.46875 196.371094 L 208.402344 185 L 199.28125 175.878906 L 187.875 181.828125 C 184.332031 179.699219 180.449219 178.078125 176.332031 177.050781 L 172.472656 164.773438 L 159.574219 164.773438 L 155.714844 177.050781 C 151.597656 178.078125 147.714844 179.703125 144.171875 181.828125 L 132.765625 175.878906 L 123.644531 185 L 129.578125 196.367188 C 127.425781 199.929688 125.785156 203.828125 124.746094 207.96875 L 112.539062 211.804688 L 112.539062 224.703125 L 124.699219 228.523438 C 125.726562 232.707031 127.367188 236.640625 129.527344 240.234375 L 123.644531 251.507812 L 132.765625 260.632812 L 144.007812 254.765625 C 147.613281 256.949219 151.570312 258.613281 155.773438 259.652344 L 159.570312 271.734375 L 172.46875 271.734375 L 176.269531 259.652344 C 180.472656 258.613281 184.425781 256.949219 188.035156 254.765625 L 199.273438 260.632812 L 208.398438 251.507812 L 202.515625 240.234375 C 204.675781 236.640625 206.316406 232.707031 207.34375 228.523438 L 219.5 224.703125 L 219.5 211.804688 L 207.292969 207.96875 C 206.265625 203.828125 204.621094 199.929688 202.46875 196.371094 Z M 166.023438 246.5625 C 150.441406 246.5625 137.808594 233.929688 137.808594 218.34375 C 137.808594 202.757812 150.441406 190.125 166.023438 190.125 C 181.609375 190.125 194.242188 202.757812 194.242188 218.34375 C 194.242188 233.929688 181.609375 246.5625 166.023438 246.5625 Z M 166.023438 246.5625 "/></g><g clip-rule="nonzero" clip-path="url(#549a7430c4)"><path style=" stroke:none;fill-rule:nonzero;fill:#e4c57b;fill-opacity:1;" d="M 163.890625 146.585938 L 158.386719 152.847656 L 162.777344 160.078125 L 170.851562 158.089844 C 172.804688 160.042969 175.070312 161.71875 177.585938 163.03125 L 178.125 171.320312 L 186.335938 173.328125 L 190.636719 166.222656 C 193.476562 166.214844 196.253906 165.769531 198.890625 164.941406 L 205.136719 170.425781 L 212.367188 166.039062 L 210.375 157.941406 C 212.308594 155.988281 213.964844 153.738281 215.269531 151.234375 L 223.609375 150.695312 L 225.617188 142.480469 L 218.441406 138.136719 C 218.421875 135.339844 217.988281 132.597656 217.167969 129.996094 L 222.71875 123.679688 L 218.328125 116.449219 L 210.136719 118.464844 C 208.210938 116.558594 205.992188 114.917969 203.53125 113.625 L 202.984375 105.207031 L 194.765625 103.199219 L 190.398438 110.417969 C 187.617188 110.429688 184.890625 110.859375 182.304688 111.664062 L 175.96875 106.097656 L 168.734375 110.488281 L 170.746094 118.652344 C 168.824219 120.585938 167.171875 122.8125 165.867188 125.289062 L 157.496094 125.832031 L 155.488281 134.050781 L 162.636719 138.375 C 162.640625 141.199219 163.070312 143.960938 163.890625 146.585938 Z M 172.566406 133.929688 C 174.992188 124.007812 185.003906 117.925781 194.929688 120.351562 C 204.851562 122.777344 210.933594 132.789062 208.507812 142.714844 C 206.082031 152.636719 196.070312 158.71875 186.144531 156.292969 C 176.222656 153.867188 170.140625 143.859375 172.566406 133.929688 Z M 172.566406 133.929688 "/></g><g clip-rule="nonzero" clip-path="url(#66178b013d)"><path style=" stroke:none;fill-rule:nonzero;fill:#e4c57b;fill-opacity:1;" d="M 256.183594 176.761719 C 255.953125 174.617188 255.414062 172.492188 254.550781 170.453125 L 258.453125 164.992188 L 254.40625 159.617188 L 248.078125 161.863281 C 246.359375 160.46875 244.464844 159.359375 242.46875 158.550781 L 241.367188 151.933594 L 234.703125 150.992188 L 231.832031 157.035156 C 229.667969 157.257812 227.53125 157.792969 225.480469 158.664062 L 220.050781 154.78125 L 214.675781 158.828125 L 216.898438 165.09375 C 215.480469 166.832031 214.355469 168.753906 213.535156 170.78125 L 206.988281 171.867188 L 206.050781 178.53125 L 212.023438 181.375 C 212.246094 183.5625 212.796875 185.734375 213.679688 187.808594 L 209.835938 193.183594 L 213.886719 198.558594 L 220.113281 196.351562 C 221.863281 197.777344 223.800781 198.902344 225.84375 199.722656 L 226.925781 206.246094 L 233.589844 207.183594 L 236.441406 201.195312 C 238.613281 200.96875 240.769531 200.414062 242.832031 199.53125 L 248.242188 203.398438 L 253.617188 199.351562 L 251.382812 193.0625 C 252.785156 191.328125 253.894531 189.421875 254.703125 187.40625 L 261.300781 186.3125 L 262.238281 179.648438 Z M 242.964844 190.875 C 236.46875 195.765625 227.242188 194.464844 222.351562 187.972656 C 217.457031 181.476562 218.757812 172.25 225.253906 167.359375 C 231.75 162.46875 240.976562 163.765625 245.867188 170.261719 C 250.757812 176.753906 249.457031 185.980469 242.964844 190.875 Z M 242.964844 190.875 "/></g></g></svg>