<svg xmlns="http://www.w3.org/2000/svg" xmlns:xlink="http://www.w3.org/1999/xlink" width="500" zoomAndPan="magnify" viewBox="0 0 375 374.999991" height="500" preserveAspectRatio="xMidYMid meet" version="1.2"><defs><clipPath id="dbc19f704c"><path d="M 0 0 L 374.988281 0 L 374.988281 375 L 0 375 Z M 0 0 "/></clipPath><clipPath id="5ec1c8d072"><path d="M 374.988281 74.996094 L 374.988281 300.007812 C 374.988281 319.898438 367.089844 338.976562 353.023438 353.042969 C 338.957031 367.105469 319.882812 375.007812 299.992188 375.007812 L 74.996094 375.007812 C 55.105469 375.007812 36.03125 367.105469 21.964844 353.042969 C 7.902344 338.976562 0 319.898438 0 300.007812 L 0 74.996094 C 0 33.578125 33.578125 0 74.996094 0 L 299.992188 0 C 319.882812 0 338.957031 7.902344 353.023438 21.964844 C 367.089844 36.03125 374.988281 55.105469 374.988281 74.996094 Z M 374.988281 74.996094 "/></clipPath><clipPath id="10844df69d"><path d="M 0.0078125 0 L 375 0 L 375 375 L 0.0078125 375 Z M 0.0078125 0 "/></clipPath><clipPath id="aa51f2ceec"><path d="M 374.992188 74.996094 L 374.992188 300.003906 C 374.992188 319.894531 367.089844 338.96875 353.023438 353.035156 C 338.960938 367.097656 319.886719 375 299.996094 375 L 75.003906 375 C 55.113281 375 36.039062 367.097656 21.976562 353.035156 C 7.910156 338.96875 0.0078125 319.894531 0.0078125 300.003906 L 0.0078125 74.996094 C 0.0078125 33.578125 33.585938 0 75.003906 0 L 299.996094 0 C 319.886719 0 338.960938 7.902344 353.023438 21.964844 C 367.089844 36.03125 374.992188 55.105469 374.992188 74.996094 Z M 374.992188 74.996094 "/></clipPath><clipPath id="85dec1a325"><path d="M 103.15625 108.851562 L 271.90625 108.851562 L 271.90625 266.351562 L 103.15625 266.351562 Z M 103.15625 108.851562 "/></clipPath></defs><g id="91e34faf60"><g clip-rule="nonzero" clip-path="url(#dbc19f704c)"><g clip-rule="nonzero" clip-path="url(#5ec1c8d072)"><path style=" stroke:none;fill-rule:nonzero;fill:#426d41;fill-opacity:1;" d="M 0 0 L 374.988281 0 L 374.988281 374.988281 L 0 374.988281 Z M 0 0 "/></g></g><g clip-rule="nonzero" clip-path="url(#10844df69d)"><g clip-rule="nonzero" clip-path="url(#aa51f2ceec)"><path style="fill:none;stroke-width:60;stroke-linecap:butt;stroke-linejoin:miter;stroke:#315d6a;stroke-opacity:1;stroke-miterlimit:4;" d="M 499.977898 99.994798 L 499.977898 400.005235 C 499.977898 426.52607 489.441439 451.958363 470.68623 470.713573 C 451.936228 489.463574 426.503935 500.000033 399.9831 500.000033 L 99.993497 500.000033 C 73.472662 500.000033 48.040369 489.463574 29.290367 470.713573 C 10.535158 451.958363 -0.00130128 426.52607 -0.00130128 400.005235 L -0.00130128 99.994798 C -0.00130128 44.770836 44.769535 0 99.993497 0 L 399.9831 0 C 426.503935 0 451.936228 10.536459 470.68623 29.28646 C 489.441439 48.04167 499.977898 73.473963 499.977898 99.994798 Z M 499.977898 99.994798 " transform="matrix(0.75,0,0,0.75,0.00878846,0)"/></g></g><g clip-rule="nonzero" clip-path="url(#85dec1a325)"><path style=" stroke:none;fill-rule:nonzero;fill:#e4c57b;fill-opacity:1;" d="M 266.46875 238.511719 L 230.867188 259.0625 L 230.867188 224.265625 L 266.46875 203.714844 Z M 190.097656 203.714844 L 225.699219 224.265625 L 225.699219 259.0625 L 190.097656 238.511719 Z M 149.328125 224.265625 L 184.929688 203.714844 L 184.929688 238.511719 L 149.328125 259.0625 Z M 108.558594 203.714844 L 144.160156 224.265625 L 144.160156 259.0625 L 108.558594 238.511719 Z M 184.929688 194.746094 L 149.328125 174.195312 L 149.328125 139.398438 L 184.929688 159.949219 Z M 225.699219 174.195312 L 190.097656 194.746094 L 190.097656 159.949219 L 225.699219 139.398438 Z M 187.515625 114.367188 L 223.109375 134.917969 L 187.515625 155.46875 L 151.917969 134.917969 Z M 146.742188 219.789062 L 111.148438 199.234375 L 146.742188 178.683594 L 182.339844 199.234375 Z M 228.285156 219.789062 L 192.6875 199.234375 L 228.285156 178.683594 L 263.882812 199.234375 Z M 271.582031 199.027344 C 271.558594 198.71875 271.480469 198.425781 271.347656 198.148438 C 271.296875 198.042969 271.265625 197.949219 271.203125 197.855469 C 270.988281 197.515625 270.71875 197.210938 270.34375 196.996094 L 230.867188 174.203125 L 230.867188 134.917969 C 230.867188 134.84375 230.820312 134.785156 230.8125 134.710938 C 230.789062 134.398438 230.710938 134.109375 230.578125 133.828125 C 230.527344 133.730469 230.492188 133.632812 230.433594 133.539062 C 230.21875 133.199219 229.949219 132.894531 229.574219 132.679688 L 188.804688 109.140625 C 188.714844 109.085938 188.609375 109.082031 188.515625 109.042969 C 188.339844 108.96875 188.171875 108.902344 187.988281 108.867188 C 187.835938 108.839844 187.695312 108.835938 187.546875 108.835938 C 187.363281 108.835938 187.191406 108.835938 187.007812 108.875 C 186.847656 108.90625 186.703125 108.96875 186.550781 109.027344 C 186.441406 109.074219 186.324219 109.078125 186.222656 109.140625 L 145.453125 132.679688 C 145.078125 132.894531 144.808594 133.199219 144.59375 133.539062 C 144.535156 133.632812 144.5 133.730469 144.449219 133.828125 C 144.316406 134.109375 144.238281 134.398438 144.214844 134.710938 C 144.207031 134.785156 144.160156 134.84375 144.160156 134.917969 L 144.160156 174.203125 L 104.683594 196.996094 C 104.308594 197.210938 104.039062 197.515625 103.824219 197.855469 C 103.761719 197.949219 103.730469 198.042969 103.679688 198.148438 C 103.546875 198.425781 103.46875 198.71875 103.445312 199.027344 C 103.4375 199.097656 103.390625 199.160156 103.390625 199.234375 L 103.390625 240.003906 C 103.390625 240.929688 103.882812 241.78125 104.683594 242.246094 L 145.453125 265.785156 C 145.851562 266.011719 146.296875 266.128906 146.742188 266.128906 C 147.1875 266.128906 147.636719 266.011719 148.035156 265.785156 L 187.515625 242.988281 L 226.992188 265.785156 C 227.390625 266.011719 227.839844 266.128906 228.285156 266.128906 C 228.730469 266.128906 229.175781 266.011719 229.574219 265.785156 L 270.34375 242.246094 C 271.144531 241.78125 271.636719 240.929688 271.636719 240.003906 L 271.636719 199.234375 C 271.636719 199.160156 271.589844 199.097656 271.582031 199.027344 "/></g></g></svg>