<svg xmlns="http://www.w3.org/2000/svg" xmlns:xlink="http://www.w3.org/1999/xlink" width="400" zoomAndPan="magnify" viewBox="0 0 300 329.999987" height="440" preserveAspectRatio="xMidYMid meet" version="1.2"><defs><clipPath id="a9d7094a29"><path d="M 0.1875 0 L 299.78125 0 L 299.78125 299.59375 L 0.1875 299.59375 Z M 0.1875 0 "/></clipPath><clipPath id="f17368f6b5"><path d="M 130.71875 291.433594 L 168.96875 291.433594 L 168.96875 329.683594 L 130.71875 329.683594 Z M 130.71875 291.433594 "/></clipPath><clipPath id="20910a3fdc"><path d="M 149.84375 291.433594 C 139.28125 291.433594 130.71875 299.996094 130.71875 310.558594 C 130.71875 321.121094 139.28125 329.683594 149.84375 329.683594 C 160.40625 329.683594 168.96875 321.121094 168.96875 310.558594 C 168.96875 299.996094 160.40625 291.433594 149.84375 291.433594 Z M 149.84375 291.433594 "/></clipPath></defs><g id="f29ac2bf86"><g clip-rule="nonzero" clip-path="url(#a9d7094a29)"><path style=" stroke:none;fill-rule:nonzero;fill:#e4c57b;fill-opacity:1;" d="M 154.152344 4.167969 L 299.78125 149.796875 L 149.984375 299.59375 L 0.1875 149.796875 L 149.984375 0 Z M 216.546875 83.234375 L 149.984375 16.667969 L 16.855469 149.796875 L 149.984375 282.925781 L 283.113281 149.796875 L 216.546875 83.234375 "/></g><g style="fill:#e4c57b;fill-opacity:1;"><g transform="translate(63.197974, 168.305594)"><path style="stroke:none" d="M 27.09375 -35.765625 C 26.914062 -35.472656 26.722656 -35.25 26.515625 -35.09375 C 26.316406 -34.945312 26.066406 -34.875 25.765625 -34.875 C 25.429688 -34.875 25.035156 -35.039062 24.578125 -35.375 C 24.128906 -35.71875 23.5625 -36.085938 22.875 -36.484375 C 22.195312 -36.890625 21.378906 -37.257812 20.421875 -37.59375 C 19.472656 -37.9375 18.316406 -38.109375 16.953125 -38.109375 C 15.671875 -38.109375 14.539062 -37.9375 13.5625 -37.59375 C 12.582031 -37.25 11.765625 -36.78125 11.109375 -36.1875 C 10.453125 -35.59375 9.953125 -34.894531 9.609375 -34.09375 C 9.273438 -33.300781 9.109375 -32.441406 9.109375 -31.515625 C 9.109375 -30.328125 9.398438 -29.34375 9.984375 -28.5625 C 10.566406 -27.78125 11.335938 -27.113281 12.296875 -26.5625 C 13.253906 -26.007812 14.335938 -25.53125 15.546875 -25.125 C 16.753906 -24.726562 17.992188 -24.3125 19.265625 -23.875 C 20.546875 -23.4375 21.789062 -22.945312 23 -22.40625 C 24.21875 -21.863281 25.300781 -21.175781 26.25 -20.34375 C 27.207031 -19.519531 27.976562 -18.503906 28.5625 -17.296875 C 29.144531 -16.097656 29.4375 -14.625 29.4375 -12.875 C 29.4375 -11.019531 29.117188 -9.273438 28.484375 -7.640625 C 27.859375 -6.015625 26.9375 -4.597656 25.71875 -3.390625 C 24.507812 -2.191406 23.019531 -1.25 21.25 -0.5625 C 19.488281 0.125 17.484375 0.46875 15.234375 0.46875 C 12.472656 0.46875 9.96875 -0.0234375 7.71875 -1.015625 C 5.46875 -2.015625 3.546875 -3.363281 1.953125 -5.0625 L 3.609375 -7.78125 C 3.765625 -8 3.957031 -8.179688 4.1875 -8.328125 C 4.414062 -8.472656 4.664062 -8.546875 4.9375 -8.546875 C 5.195312 -8.546875 5.488281 -8.441406 5.8125 -8.234375 C 6.132812 -8.023438 6.503906 -7.765625 6.921875 -7.453125 C 7.335938 -7.140625 7.8125 -6.796875 8.34375 -6.421875 C 8.875 -6.046875 9.476562 -5.695312 10.15625 -5.375 C 10.84375 -5.0625 11.617188 -4.800781 12.484375 -4.59375 C 13.347656 -4.394531 14.328125 -4.296875 15.421875 -4.296875 C 16.773438 -4.296875 17.984375 -4.484375 19.046875 -4.859375 C 20.117188 -5.234375 21.023438 -5.757812 21.765625 -6.4375 C 22.503906 -7.113281 23.066406 -7.925781 23.453125 -8.875 C 23.847656 -9.820312 24.046875 -10.878906 24.046875 -12.046875 C 24.046875 -13.328125 23.753906 -14.375 23.171875 -15.1875 C 22.597656 -16.007812 21.835938 -16.695312 20.890625 -17.25 C 19.941406 -17.800781 18.851562 -18.269531 17.625 -18.65625 C 16.40625 -19.039062 15.164062 -19.429688 13.90625 -19.828125 C 12.644531 -20.234375 11.398438 -20.703125 10.171875 -21.234375 C 8.953125 -21.773438 7.867188 -22.46875 6.921875 -23.3125 C 5.972656 -24.15625 5.207031 -25.210938 4.625 -26.484375 C 4.039062 -27.765625 3.75 -29.34375 3.75 -31.21875 C 3.75 -32.71875 4.039062 -34.164062 4.625 -35.5625 C 5.207031 -36.957031 6.054688 -38.195312 7.171875 -39.28125 C 8.285156 -40.375 9.65625 -41.242188 11.28125 -41.890625 C 12.914062 -42.546875 14.785156 -42.875 16.890625 -42.875 C 19.253906 -42.875 21.40625 -42.5 23.34375 -41.75 C 25.289062 -41 27.003906 -39.910156 28.484375 -38.484375 Z M 27.09375 -35.765625 "/></g></g><g style="fill:#e4c57b;fill-opacity:1;"><g transform="translate(95.301583, 168.305594)"><path style="stroke:none" d="M 34.078125 -37.578125 L 20.359375 -37.578125 L 20.359375 0 L 14.640625 0 L 14.640625 -37.578125 L 0.890625 -37.578125 L 0.890625 -42.390625 L 34.078125 -42.390625 Z M 34.078125 -37.578125 "/></g></g><g style="fill:#e4c57b;fill-opacity:1;"><g transform="translate(126.103258, 168.305594)"><path style="stroke:none" d="M 27.921875 -15.734375 L 21.265625 -32.984375 C 21.066406 -33.492188 20.859375 -34.085938 20.640625 -34.765625 C 20.429688 -35.453125 20.226562 -36.179688 20.03125 -36.953125 C 19.613281 -35.359375 19.1875 -34.023438 18.75 -32.953125 L 12.09375 -15.734375 Z M 39.875 0 L 35.4375 0 C 34.925781 0 34.515625 -0.125 34.203125 -0.375 C 33.890625 -0.632812 33.648438 -0.960938 33.484375 -1.359375 L 29.53125 -11.59375 L 10.5 -11.59375 L 6.53125 -1.359375 C 6.414062 -1.003906 6.191406 -0.6875 5.859375 -0.40625 C 5.523438 -0.132812 5.109375 0 4.609375 0 L 0.171875 0 L 17.125 -42.390625 L 22.921875 -42.390625 Z M 39.875 0 "/></g></g><g style="fill:#e4c57b;fill-opacity:1;"><g transform="translate(166.166215, 168.305594)"><path style="stroke:none" d="M 17.15625 -21.859375 C 18.8125 -21.859375 20.273438 -22.0625 21.546875 -22.46875 C 22.828125 -22.875 23.894531 -23.445312 24.75 -24.1875 C 25.601562 -24.925781 26.25 -25.804688 26.6875 -26.828125 C 27.125 -27.859375 27.34375 -28.992188 27.34375 -30.234375 C 27.34375 -32.765625 26.507812 -34.671875 24.84375 -35.953125 C 23.1875 -37.234375 20.703125 -37.875 17.390625 -37.875 L 11.125 -37.875 L 11.125 -21.859375 Z M 36.75 0 L 31.65625 0 C 30.613281 0 29.84375 -0.40625 29.34375 -1.21875 L 18.34375 -16.359375 C 18.007812 -16.835938 17.648438 -17.175781 17.265625 -17.375 C 16.878906 -17.582031 16.28125 -17.6875 15.46875 -17.6875 L 11.125 -17.6875 L 11.125 0 L 5.421875 0 L 5.421875 -42.390625 L 17.390625 -42.390625 C 20.078125 -42.390625 22.394531 -42.117188 24.34375 -41.578125 C 26.300781 -41.035156 27.914062 -40.25 29.1875 -39.21875 C 30.457031 -38.195312 31.394531 -36.960938 32 -35.515625 C 32.613281 -34.066406 32.921875 -32.445312 32.921875 -30.65625 C 32.921875 -29.15625 32.6875 -27.753906 32.21875 -26.453125 C 31.75 -25.148438 31.0625 -23.976562 30.15625 -22.9375 C 29.257812 -21.90625 28.164062 -21.023438 26.875 -20.296875 C 25.582031 -19.566406 24.117188 -19.015625 22.484375 -18.640625 C 23.210938 -18.222656 23.84375 -17.617188 24.375 -16.828125 Z M 36.75 0 "/></g></g><g style="fill:#e4c57b;fill-opacity:1;"><g transform="translate(201.849985, 168.305594)"><path style="stroke:none" d="M 34.078125 -37.578125 L 20.359375 -37.578125 L 20.359375 0 L 14.640625 0 L 14.640625 -37.578125 L 0.890625 -37.578125 L 0.890625 -42.390625 L 34.078125 -42.390625 Z M 34.078125 -37.578125 "/></g></g><g clip-rule="nonzero" clip-path="url(#f17368f6b5)"><g clip-rule="nonzero" clip-path="url(#20910a3fdc)"><path style="fill:none;stroke-width:24;stroke-linecap:butt;stroke-linejoin:miter;stroke:#e4c57b;stroke-opacity:1;stroke-miterlimit:4;" d="M 25.705504 -0.000480902 C 11.509986 -0.000480902 0.0023765 11.507128 0.0023765 25.702647 C 0.0023765 39.898165 11.509986 51.405774 25.705504 51.405774 C 39.901022 51.405774 51.408632 39.898165 51.408632 25.702647 C 51.408632 11.507128 39.901022 -0.000480902 25.705504 -0.000480902 Z M 25.705504 -0.000480902 " transform="matrix(0.744073,0,0,0.744073,130.716982,291.433952)"/></g></g></g></svg>