<svg xmlns="http://www.w3.org/2000/svg" xmlns:xlink="http://www.w3.org/1999/xlink" width="400" zoomAndPan="magnify" viewBox="0 0 300 329.999987" height="440" preserveAspectRatio="xMidYMid meet" version="1.2"><defs><clipPath id="16573f3688"><path d="M 0.1875 30.375 L 299.78125 30.375 L 299.78125 329.96875 L 0.1875 329.96875 Z M 0.1875 30.375 "/></clipPath><clipPath id="a13beec943"><path d="M 130.71875 0 L 168.96875 0 L 168.96875 38.25 L 130.71875 38.25 Z M 130.71875 0 "/></clipPath><clipPath id="e2a73f68b8"><path d="M 149.84375 0 C 139.28125 0 130.71875 8.5625 130.71875 19.125 C 130.71875 29.6875 139.28125 38.25 149.84375 38.25 C 160.40625 38.25 168.96875 29.6875 168.96875 19.125 C 168.96875 8.5625 160.40625 0 149.84375 0 Z M 149.84375 0 "/></clipPath></defs><g id="204102479c"><g clip-rule="nonzero" clip-path="url(#16573f3688)"><path style=" stroke:none;fill-rule:nonzero;fill:#c66e4e;fill-opacity:1;" d="M 154.152344 34.542969 L 299.78125 180.171875 L 149.984375 329.96875 L 0.1875 180.171875 L 149.984375 30.375 Z M 216.546875 113.609375 L 149.984375 47.042969 L 16.855469 180.171875 L 149.984375 313.300781 L 283.113281 180.171875 L 216.546875 113.609375 "/></g><g style="fill:#c66e4e;fill-opacity:1;"><g transform="translate(75.978515, 202.687484)"><path style="stroke:none" d="M 27.09375 -35.765625 C 26.914062 -35.472656 26.722656 -35.25 26.515625 -35.09375 C 26.316406 -34.945312 26.066406 -34.875 25.765625 -34.875 C 25.429688 -34.875 25.035156 -35.039062 24.578125 -35.375 C 24.128906 -35.71875 23.5625 -36.085938 22.875 -36.484375 C 22.195312 -36.890625 21.378906 -37.257812 20.421875 -37.59375 C 19.472656 -37.9375 18.316406 -38.109375 16.953125 -38.109375 C 15.671875 -38.109375 14.539062 -37.9375 13.5625 -37.59375 C 12.582031 -37.25 11.765625 -36.78125 11.109375 -36.1875 C 10.453125 -35.59375 9.953125 -34.894531 9.609375 -34.09375 C 9.273438 -33.300781 9.109375 -32.441406 9.109375 -31.515625 C 9.109375 -30.328125 9.398438 -29.34375 9.984375 -28.5625 C 10.566406 -27.78125 11.335938 -27.113281 12.296875 -26.5625 C 13.253906 -26.007812 14.335938 -25.53125 15.546875 -25.125 C 16.753906 -24.726562 17.992188 -24.3125 19.265625 -23.875 C 20.546875 -23.4375 21.789062 -22.945312 23 -22.40625 C 24.21875 -21.863281 25.300781 -21.175781 26.25 -20.34375 C 27.207031 -19.519531 27.976562 -18.503906 28.5625 -17.296875 C 29.144531 -16.097656 29.4375 -14.625 29.4375 -12.875 C 29.4375 -11.019531 29.117188 -9.273438 28.484375 -7.640625 C 27.859375 -6.015625 26.9375 -4.597656 25.71875 -3.390625 C 24.507812 -2.191406 23.019531 -1.25 21.25 -0.5625 C 19.488281 0.125 17.484375 0.46875 15.234375 0.46875 C 12.472656 0.46875 9.96875 -0.0234375 7.71875 -1.015625 C 5.46875 -2.015625 3.546875 -3.363281 1.953125 -5.0625 L 3.609375 -7.78125 C 3.765625 -8 3.957031 -8.179688 4.1875 -8.328125 C 4.414062 -8.472656 4.664062 -8.546875 4.9375 -8.546875 C 5.195312 -8.546875 5.488281 -8.441406 5.8125 -8.234375 C 6.132812 -8.023438 6.503906 -7.765625 6.921875 -7.453125 C 7.335938 -7.140625 7.8125 -6.796875 8.34375 -6.421875 C 8.875 -6.046875 9.476562 -5.695312 10.15625 -5.375 C 10.84375 -5.0625 11.617188 -4.800781 12.484375 -4.59375 C 13.347656 -4.394531 14.328125 -4.296875 15.421875 -4.296875 C 16.773438 -4.296875 17.984375 -4.484375 19.046875 -4.859375 C 20.117188 -5.234375 21.023438 -5.757812 21.765625 -6.4375 C 22.503906 -7.113281 23.066406 -7.925781 23.453125 -8.875 C 23.847656 -9.820312 24.046875 -10.878906 24.046875 -12.046875 C 24.046875 -13.328125 23.753906 -14.375 23.171875 -15.1875 C 22.597656 -16.007812 21.835938 -16.695312 20.890625 -17.25 C 19.941406 -17.800781 18.851562 -18.269531 17.625 -18.65625 C 16.40625 -19.039062 15.164062 -19.429688 13.90625 -19.828125 C 12.644531 -20.234375 11.398438 -20.703125 10.171875 -21.234375 C 8.953125 -21.773438 7.867188 -22.46875 6.921875 -23.3125 C 5.972656 -24.15625 5.207031 -25.210938 4.625 -26.484375 C 4.039062 -27.765625 3.75 -29.34375 3.75 -31.21875 C 3.75 -32.71875 4.039062 -34.164062 4.625 -35.5625 C 5.207031 -36.957031 6.054688 -38.195312 7.171875 -39.28125 C 8.285156 -40.375 9.65625 -41.242188 11.28125 -41.890625 C 12.914062 -42.546875 14.785156 -42.875 16.890625 -42.875 C 19.253906 -42.875 21.40625 -42.5 23.34375 -41.75 C 25.289062 -41 27.003906 -39.910156 28.484375 -38.484375 Z M 27.09375 -35.765625 "/></g></g><g style="fill:#c66e4e;fill-opacity:1;"><g transform="translate(108.077211, 202.687484)"><path style="stroke:none" d="M 34.078125 -37.578125 L 20.359375 -37.578125 L 20.359375 0 L 14.640625 0 L 14.640625 -37.578125 L 0.890625 -37.578125 L 0.890625 -42.390625 L 34.078125 -42.390625 Z M 34.078125 -37.578125 "/></g></g><g style="fill:#c66e4e;fill-opacity:1;"><g transform="translate(141.122378, 202.687484)"><path style="stroke:none" d="M 44.578125 -21.1875 C 44.578125 -18.007812 44.070312 -15.09375 43.0625 -12.4375 C 42.0625 -9.789062 40.644531 -7.507812 38.8125 -5.59375 C 36.976562 -3.675781 34.773438 -2.191406 32.203125 -1.140625 C 29.628906 -0.0859375 26.785156 0.4375 23.671875 0.4375 C 20.554688 0.4375 17.710938 -0.0859375 15.140625 -1.140625 C 12.578125 -2.191406 10.378906 -3.675781 8.546875 -5.59375 C 6.710938 -7.507812 5.289062 -9.789062 4.28125 -12.4375 C 3.28125 -15.09375 2.78125 -18.007812 2.78125 -21.1875 C 2.78125 -24.363281 3.28125 -27.273438 4.28125 -29.921875 C 5.289062 -32.578125 6.710938 -34.863281 8.546875 -36.78125 C 10.378906 -38.707031 12.578125 -40.203125 15.140625 -41.265625 C 17.710938 -42.335938 20.554688 -42.875 23.671875 -42.875 C 26.785156 -42.875 29.628906 -42.335938 32.203125 -41.265625 C 34.773438 -40.203125 36.976562 -38.707031 38.8125 -36.78125 C 40.644531 -34.863281 42.0625 -32.578125 43.0625 -29.921875 C 44.070312 -27.273438 44.578125 -24.363281 44.578125 -21.1875 Z M 38.703125 -21.1875 C 38.703125 -23.789062 38.34375 -26.125 37.625 -28.1875 C 36.914062 -30.257812 35.910156 -32.007812 34.609375 -33.4375 C 33.304688 -34.875 31.726562 -35.976562 29.875 -36.75 C 28.019531 -37.519531 25.953125 -37.90625 23.671875 -37.90625 C 21.398438 -37.90625 19.335938 -37.519531 17.484375 -36.75 C 15.628906 -35.976562 14.046875 -34.875 12.734375 -33.4375 C 11.421875 -32.007812 10.410156 -30.257812 9.703125 -28.1875 C 8.992188 -26.125 8.640625 -23.789062 8.640625 -21.1875 C 8.640625 -18.582031 8.992188 -16.25 9.703125 -14.1875 C 10.410156 -12.125 11.421875 -10.378906 12.734375 -8.953125 C 14.046875 -7.523438 15.628906 -6.429688 17.484375 -5.671875 C 19.335938 -4.910156 21.398438 -4.53125 23.671875 -4.53125 C 25.953125 -4.53125 28.019531 -4.910156 29.875 -5.671875 C 31.726562 -6.429688 33.304688 -7.523438 34.609375 -8.953125 C 35.910156 -10.378906 36.914062 -12.125 37.625 -14.1875 C 38.34375 -16.25 38.703125 -18.582031 38.703125 -21.1875 Z M 38.703125 -21.1875 "/></g></g><g style="fill:#c66e4e;fill-opacity:1;"><g transform="translate(188.486437, 202.687484)"><path style="stroke:none" d="M 17.921875 -20.421875 C 19.566406 -20.421875 21.015625 -20.632812 22.265625 -21.0625 C 23.515625 -21.5 24.566406 -22.101562 25.421875 -22.875 C 26.285156 -23.65625 26.929688 -24.585938 27.359375 -25.671875 C 27.796875 -26.765625 28.015625 -27.960938 28.015625 -29.265625 C 28.015625 -31.960938 27.179688 -34.070312 25.515625 -35.59375 C 23.847656 -37.113281 21.316406 -37.875 17.921875 -37.875 L 11.125 -37.875 L 11.125 -20.421875 Z M 17.921875 -42.390625 C 20.609375 -42.390625 22.941406 -42.078125 24.921875 -41.453125 C 26.910156 -40.835938 28.554688 -39.957031 29.859375 -38.8125 C 31.160156 -37.664062 32.128906 -36.285156 32.765625 -34.671875 C 33.410156 -33.054688 33.734375 -31.253906 33.734375 -29.265625 C 33.734375 -27.285156 33.382812 -25.476562 32.6875 -23.84375 C 32 -22.207031 30.988281 -20.796875 29.65625 -19.609375 C 28.320312 -18.429688 26.675781 -17.507812 24.71875 -16.84375 C 22.757812 -16.1875 20.492188 -15.859375 17.921875 -15.859375 L 11.125 -15.859375 L 11.125 0 L 5.421875 0 L 5.421875 -42.390625 Z M 17.921875 -42.390625 "/></g></g><g clip-rule="nonzero" clip-path="url(#a13beec943)"><g clip-rule="nonzero" clip-path="url(#e2a73f68b8)"><path style="fill:none;stroke-width:24;stroke-linecap:butt;stroke-linejoin:miter;stroke:#c66e4e;stroke-opacity:1;stroke-miterlimit:4;" d="M 25.705504 0 C 11.509986 0 0.0023765 11.507609 0.0023765 25.703128 C 0.0023765 39.898646 11.509986 51.406255 25.705504 51.406255 C 39.901022 51.406255 51.408632 39.898646 51.408632 25.703128 C 51.408632 11.507609 39.901022 0 25.705504 0 Z M 25.705504 0 " transform="matrix(0.744073,0,0,0.744073,130.716982,0)"/></g></g></g></svg>