<svg xmlns="http://www.w3.org/2000/svg" xmlns:xlink="http://www.w3.org/1999/xlink" width="500" zoomAndPan="magnify" viewBox="0 0 375 374.999991" height="500" preserveAspectRatio="xMidYMid meet" version="1.2"><defs><clipPath id="f32911d23b"><path d="M 0 0 L 374.988281 0 L 374.988281 375 L 0 375 Z M 0 0 "/></clipPath><clipPath id="604c070701"><path d="M 374.988281 74.996094 L 374.988281 300.007812 C 374.988281 319.898438 367.089844 338.976562 353.023438 353.042969 C 338.957031 367.105469 319.882812 375.007812 299.992188 375.007812 L 74.996094 375.007812 C 55.105469 375.007812 36.03125 367.105469 21.964844 353.042969 C 7.902344 338.976562 0 319.898438 0 300.007812 L 0 74.996094 C 0 33.578125 33.578125 0 74.996094 0 L 299.992188 0 C 319.882812 0 338.957031 7.902344 353.023438 21.964844 C 367.089844 36.03125 374.988281 55.105469 374.988281 74.996094 Z M 374.988281 74.996094 "/></clipPath><clipPath id="61155cfe82"><path d="M 0.0078125 0 L 375 0 L 375 375 L 0.0078125 375 Z M 0.0078125 0 "/></clipPath><clipPath id="2d98e13edd"><path d="M 374.992188 74.996094 L 374.992188 300.003906 C 374.992188 319.894531 367.089844 338.96875 353.023438 353.035156 C 338.960938 367.097656 319.886719 375 299.996094 375 L 75.003906 375 C 55.113281 375 36.039062 367.097656 21.976562 353.035156 C 7.910156 338.96875 0.0078125 319.894531 0.0078125 300.003906 L 0.0078125 74.996094 C 0.0078125 33.578125 33.585938 0 75.003906 0 L 299.996094 0 C 319.886719 0 338.960938 7.902344 353.023438 21.964844 C 367.089844 36.03125 374.992188 55.105469 374.992188 74.996094 Z M 374.992188 74.996094 "/></clipPath><clipPath id="2f460e1662"><path d="M 121 103.121094 L 254 103.121094 L 254 271.871094 L 121 271.871094 Z M 121 103.121094 "/></clipPath></defs><g id="a5166e9f62"><g clip-rule="nonzero" clip-path="url(#f32911d23b)"><g clip-rule="nonzero" clip-path="url(#604c070701)"><path style=" stroke:none;fill-rule:nonzero;fill:#426d41;fill-opacity:1;" d="M 0 0 L 374.988281 0 L 374.988281 374.988281 L 0 374.988281 Z M 0 0 "/></g></g><g clip-rule="nonzero" clip-path="url(#61155cfe82)"><g clip-rule="nonzero" clip-path="url(#2d98e13edd)"><path style="fill:none;stroke-width:60;stroke-linecap:butt;stroke-linejoin:miter;stroke:#315d6a;stroke-opacity:1;stroke-miterlimit:4;" d="M 499.977898 99.994798 L 499.977898 400.005235 C 499.977898 426.52607 489.441439 451.958363 470.68623 470.713573 C 451.936228 489.463574 426.503935 500.000033 399.9831 500.000033 L 99.993497 500.000033 C 73.472662 500.000033 48.040369 489.463574 29.290367 470.713573 C 10.535158 451.958363 -0.00130128 426.52607 -0.00130128 400.005235 L -0.00130128 99.994798 C -0.00130128 44.770836 44.769535 0 99.993497 0 L 399.9831 0 C 426.503935 0 451.936228 10.536459 470.68623 29.28646 C 489.441439 48.04167 499.977898 73.473963 499.977898 99.994798 Z M 499.977898 99.994798 " transform="matrix(0.75,0,0,0.75,0.00878846,0)"/></g></g><g clip-rule="nonzero" clip-path="url(#2f460e1662)"><path style=" stroke:none;fill-rule:evenodd;fill:#e4c57b;fill-opacity:1;" d="M 251.402344 271.871094 L 123.578125 271.871094 C 122.492188 271.871094 121.601562 270.980469 121.601562 269.894531 L 121.601562 105.097656 C 121.601562 104.601562 121.800781 104.109375 122.195312 103.714844 C 122.492188 103.316406 122.988281 103.121094 123.578125 103.121094 L 210.574219 103.121094 L 210.574219 143.949219 C 210.574219 145.035156 211.464844 145.925781 212.550781 145.925781 L 253.378906 145.925781 L 253.378906 269.894531 C 253.378906 270.980469 252.488281 271.871094 251.402344 271.871094 Z M 222.140625 252.988281 L 214.925781 252.988281 L 214.925781 253.777344 C 214.925781 257.734375 211.660156 260.996094 207.804688 260.996094 C 203.851562 260.996094 200.6875 257.734375 200.6875 253.777344 L 200.6875 252.988281 L 152.839844 252.988281 C 146.613281 252.988281 141.671875 248.339844 141.671875 242.707031 C 141.671875 237.171875 146.613281 232.523438 152.839844 232.523438 L 200.6875 232.523438 L 200.6875 231.734375 C 200.6875 227.78125 203.851562 224.515625 207.804688 224.515625 C 211.660156 224.515625 214.925781 227.78125 214.925781 231.734375 L 214.925781 232.523438 L 222.140625 232.523438 C 228.269531 232.523438 233.3125 237.171875 233.3125 242.707031 C 233.3125 248.339844 228.269531 252.988281 222.140625 252.988281 Z M 214.925781 249.035156 L 222.140625 249.035156 C 226.09375 249.035156 229.355469 246.167969 229.355469 242.707031 C 229.355469 239.34375 226.09375 236.480469 222.140625 236.480469 L 214.925781 236.480469 Z M 200.6875 236.480469 L 152.839844 236.480469 C 148.789062 236.480469 145.625 239.34375 145.625 242.707031 C 145.625 246.167969 148.886719 249.035156 152.839844 249.035156 L 200.6875 249.035156 Z M 222.140625 217.101562 L 174.292969 217.101562 L 174.292969 217.992188 C 174.292969 221.945312 171.128906 225.109375 167.175781 225.109375 C 163.222656 225.109375 160.058594 221.945312 160.058594 217.992188 L 160.058594 217.101562 L 152.839844 217.101562 C 146.613281 217.101562 141.671875 212.554688 141.671875 206.921875 C 141.671875 201.285156 146.613281 196.738281 152.839844 196.738281 L 160.058594 196.738281 L 160.058594 195.847656 C 160.058594 191.894531 163.222656 188.730469 167.175781 188.730469 C 171.128906 188.730469 174.292969 191.894531 174.292969 195.847656 L 174.292969 196.738281 L 222.140625 196.738281 C 228.269531 196.738281 233.3125 201.285156 233.3125 206.921875 C 233.3125 212.554688 228.269531 217.101562 222.140625 217.101562 Z M 174.292969 213.148438 L 222.140625 213.148438 C 226.09375 213.148438 229.355469 210.378906 229.355469 206.921875 C 229.355469 203.460938 226.09375 200.691406 222.140625 200.691406 L 174.292969 200.691406 Z M 160.058594 200.691406 L 152.839844 200.691406 C 148.789062 200.691406 145.625 203.460938 145.625 206.921875 C 145.625 210.378906 148.886719 213.148438 152.839844 213.148438 L 160.058594 213.148438 Z M 222.140625 181.316406 L 214.925781 181.316406 L 214.925781 182.207031 C 214.925781 186.0625 211.660156 189.324219 207.804688 189.324219 C 203.851562 189.324219 200.6875 186.0625 200.6875 182.105469 L 200.6875 181.316406 L 152.839844 181.316406 C 146.613281 181.316406 141.671875 176.667969 141.671875 171.132812 C 141.671875 165.5 146.613281 160.851562 152.839844 160.851562 L 200.6875 160.851562 L 200.6875 160.0625 C 200.6875 156.109375 203.851562 152.84375 207.804688 152.84375 C 211.660156 152.84375 214.925781 156.109375 214.925781 160.0625 L 214.925781 160.851562 L 222.140625 160.851562 C 228.269531 160.851562 233.3125 165.5 233.3125 171.035156 C 233.3125 176.667969 228.269531 181.316406 222.140625 181.316406 Z M 214.925781 177.363281 L 222.140625 177.363281 C 226.09375 177.363281 229.355469 174.496094 229.355469 171.132812 C 229.355469 167.675781 226.09375 164.808594 222.140625 164.808594 L 214.925781 164.808594 Z M 200.6875 164.808594 L 152.839844 164.808594 C 148.789062 164.808594 145.625 167.675781 145.625 171.035156 C 145.625 174.496094 148.886719 177.363281 152.839844 177.363281 L 200.6875 177.363281 Z M 214.527344 104.304688 L 252.195312 141.972656 L 214.527344 141.972656 Z M 181.609375 143.652344 L 154.421875 143.652344 C 149.875 143.652344 146.21875 139.894531 146.21875 135.445312 L 146.21875 126.152344 C 146.21875 121.605469 149.972656 117.949219 154.421875 117.949219 L 181.609375 117.949219 C 186.15625 117.949219 189.8125 121.605469 189.8125 126.054688 L 189.8125 135.445312 C 189.8125 139.894531 186.15625 143.652344 181.609375 143.652344 Z M 154.421875 121.902344 C 152.148438 121.902344 150.171875 123.78125 150.171875 126.054688 L 150.171875 135.445312 C 150.171875 137.71875 152.148438 139.597656 154.421875 139.597656 L 181.609375 139.597656 C 183.980469 139.597656 185.859375 137.71875 185.859375 135.445312 L 185.859375 126.054688 C 185.859375 123.78125 183.980469 121.902344 181.609375 121.902344 Z M 154.421875 121.902344 "/></g><path style=" stroke:none;fill-rule:evenodd;fill:#e4c57b;fill-opacity:1;" d="M 207.707031 156.800781 C 206.027344 156.800781 204.542969 158.28125 204.542969 160.0625 L 204.542969 182.207031 C 204.542969 183.886719 206.027344 185.371094 207.707031 185.371094 C 209.488281 185.371094 210.96875 183.886719 210.96875 182.207031 L 210.96875 160.0625 C 210.96875 158.28125 209.488281 156.800781 207.707031 156.800781 Z M 207.707031 156.800781 "/><path style=" stroke:none;fill-rule:evenodd;fill:#e4c57b;fill-opacity:1;" d="M 167.175781 192.683594 C 165.496094 192.683594 164.011719 194.070312 164.011719 195.847656 L 164.011719 217.992188 C 164.011719 219.773438 165.496094 221.15625 167.175781 221.15625 C 168.957031 221.15625 170.339844 219.773438 170.339844 217.992188 L 170.339844 195.847656 C 170.339844 194.070312 168.957031 192.683594 167.175781 192.683594 Z M 167.175781 192.683594 "/><path style=" stroke:none;fill-rule:evenodd;fill:#e4c57b;fill-opacity:1;" d="M 207.707031 228.472656 C 206.027344 228.472656 204.542969 229.953125 204.542969 231.734375 L 204.542969 253.777344 C 204.542969 255.558594 206.027344 257.042969 207.707031 257.042969 C 209.488281 257.042969 210.96875 255.558594 210.96875 253.777344 L 210.96875 231.734375 C 210.96875 229.953125 209.488281 228.472656 207.707031 228.472656 Z M 207.707031 228.472656 "/></g></svg>